<svg width="21" height="21" viewBox="0 0 21 21" fill="none" xmlns="http://www.w3.org/2000/svg">
<path d="M6.80002 15.4172L10.4 11.8172L14 15.4172L15.4 14.0172L11.8 10.4172L15.4 6.81724L14 5.41724L10.4 9.01724L6.80002 5.41724L5.40002 6.81724L9.00002 10.4172L5.40002 14.0172L6.80002 15.4172ZM10.4 20.4172C9.01669 20.4172 7.71669 20.1547 6.50002 19.6297C5.28336 19.1047 4.22502 18.3922 3.32502 17.4922C2.42502 16.5922 1.71252 15.5339 1.18752 14.3172C0.662524 13.1006 0.400024 11.8006 0.400024 10.4172C0.400024 9.0339 0.662524 7.7339 1.18752 6.51724C1.71252 5.30057 2.42502 4.24224 3.32502 3.34224C4.22502 2.44224 5.28336 1.72974 6.50002 1.20474C7.71669 0.679736 9.01669 0.417236 10.4 0.417236C11.7834 0.417236 13.0834 0.679736 14.3 1.20474C15.5167 1.72974 16.575 2.44224 17.475 3.34224C18.375 4.24224 19.0875 5.30057 19.6125 6.51724C20.1375 7.7339 20.4 9.0339 20.4 10.4172C20.4 11.8006 20.1375 13.1006 19.6125 14.3172C19.0875 15.5339 18.375 16.5922 17.475 17.4922C16.575 18.3922 15.5167 19.1047 14.3 19.6297C13.0834 20.1547 11.7834 20.4172 10.4 20.4172ZM10.4 18.4172C12.6334 18.4172 14.525 17.6422 16.075 16.0922C17.625 14.5422 18.4 12.6506 18.4 10.4172C18.4 8.1839 17.625 6.29224 16.075 4.74224C14.525 3.19224 12.6334 2.41724 10.4 2.41724C8.16669 2.41724 6.27502 3.19224 4.72502 4.74224C3.17502 6.29224 2.40002 8.1839 2.40002 10.4172C2.40002 12.6506 3.17502 14.5422 4.72502 16.0922C6.27502 17.6422 8.16669 18.4172 10.4 18.4172Z" fill="#1C1B1F"/>
</svg>
