<svg width="17" height="13" viewBox="0 0 17 13" fill="none" xmlns="http://www.w3.org/2000/svg">
<path d="M6.20557 9.7429L14.8191 1.1294C15.0359 0.913898 15.2895 0.804565 15.5798 0.801398C15.87 0.798232 16.126 0.905814 16.3478 1.12415C16.5696 1.34231 16.6806 1.59548 16.6806 1.88365C16.6806 2.17181 16.5696 2.42681 16.3478 2.64865L7.06332 11.9236C6.81882 12.171 6.53365 12.2946 6.20782 12.2946C5.88198 12.2946 5.59532 12.171 5.34782 11.9236L1.02282 7.59865C0.807484 7.38765 0.700817 7.13715 0.702817 6.84715C0.70465 6.55715 0.814734 6.30123 1.03307 6.0794C1.25123 5.85756 1.5044 5.74665 1.79257 5.74665C2.08073 5.74665 2.33573 5.85756 2.55757 6.0794L6.20557 9.7429Z" fill="#1C1B1F"/>
</svg>
