<svg width="20" height="21" viewBox="0 0 20 21" fill="none" xmlns="http://www.w3.org/2000/svg">
<path d="M10.05 17.223L12.9 14.398L10.05 11.573L9 12.623L10.075 13.698C9.60833 13.7147 9.15417 13.6397 8.7125 13.473C8.27083 13.3064 7.875 13.048 7.525 12.698C7.19167 12.3647 6.9375 11.9814 6.7625 11.548C6.5875 11.1147 6.5 10.6814 6.5 10.248C6.5 9.96469 6.5375 9.68136 6.6125 9.39802C6.6875 9.11469 6.79167 8.83969 6.925 8.57302L5.825 7.47302C5.54167 7.88969 5.33333 8.33136 5.2 8.79802C5.06667 9.26469 5 9.73969 5 10.223C5 10.8564 5.125 11.4814 5.375 12.098C5.625 12.7147 5.99167 13.2647 6.475 13.748C6.95833 14.2314 7.5 14.5939 8.1 14.8355C8.7 15.0772 9.31667 15.2064 9.95 15.223L9 16.173L10.05 17.223ZM14.175 12.973C14.4583 12.5564 14.6667 12.1147 14.8 11.648C14.9333 11.1814 15 10.7064 15 10.223C15 9.58969 14.8792 8.96052 14.6375 8.33552C14.3958 7.71052 14.0333 7.15636 13.55 6.67302C13.0667 6.18969 12.5208 5.83136 11.9125 5.59802C11.3042 5.36469 10.6833 5.24802 10.05 5.24802L11 4.27302L9.95 3.22302L7.1 6.04802L9.95 8.87302L11 7.82302L9.9 6.72302C10.35 6.72302 10.8083 6.81052 11.275 6.98552C11.7417 7.16052 12.1417 7.41469 12.475 7.74802C12.8083 8.08136 13.0625 8.46469 13.2375 8.89802C13.4125 9.33136 13.5 9.76469 13.5 10.198C13.5 10.4814 13.4625 10.7647 13.3875 11.048C13.3125 11.3314 13.2083 11.6064 13.075 11.873L14.175 12.973ZM10 20.223C8.61667 20.223 7.31667 19.9605 6.1 19.4355C4.88333 18.9105 3.825 18.198 2.925 17.298C2.025 16.398 1.3125 15.3397 0.7875 14.123C0.2625 12.9064 0 11.6064 0 10.223C0 8.83969 0.2625 7.53969 0.7875 6.32302C1.3125 5.10636 2.025 4.04802 2.925 3.14802C3.825 2.24802 4.88333 1.53552 6.1 1.01052C7.31667 0.485522 8.61667 0.223022 10 0.223022C11.3833 0.223022 12.6833 0.485522 13.9 1.01052C15.1167 1.53552 16.175 2.24802 17.075 3.14802C17.975 4.04802 18.6875 5.10636 19.2125 6.32302C19.7375 7.53969 20 8.83969 20 10.223C20 11.6064 19.7375 12.9064 19.2125 14.123C18.6875 15.3397 17.975 16.398 17.075 17.298C16.175 18.198 15.1167 18.9105 13.9 19.4355C12.6833 19.9605 11.3833 20.223 10 20.223Z" fill="#1C1B1F"/>
</svg>
