<svg width="65" height="33" viewBox="0 0 65 33" fill="none" xmlns="http://www.w3.org/2000/svg">
<g clip-path="url(#clip0_23_223)">
<circle cx="32" cy="17" r="12" fill="black"/>
<mask id="mask0_23_223" style="mask-type:alpha" maskUnits="userSpaceOnUse" x="4" y="4" width="25" height="25">
<rect x="4.5" y="4.5" width="24" height="24" fill="#D9D9D9"/>
</mask>
<g mask="url(#mask0_23_223)">
<path d="M16.5 21C15.2513 21 14.1892 20.5622 13.3135 19.6865C12.4378 18.8108 12 17.7487 12 16.5C12 15.2513 12.4378 14.1892 13.3135 13.3135C14.1892 12.4378 15.2513 12 16.5 12C17.7487 12 18.8108 12.4378 19.6865 13.3135C20.5622 14.1892 21 15.2513 21 16.5C21 17.7487 20.5622 18.8108 19.6865 19.6865C18.8108 20.5622 17.7487 21 16.5 21ZM9.5 17.25H5.75V15.75H9.5V17.25ZM27.25 17.25H23.5V15.75H27.25V17.25ZM15.75 9.5V5.75H17.25V9.5H15.75ZM15.75 27.25V23.5H17.25V27.25H15.75ZM11.073 12.077L8.73075 9.8155L9.7905 8.70575L12.0463 11.023L11.073 12.077ZM23.2095 24.2943L20.9385 21.9615L21.927 20.923L24.2693 23.1845L23.2095 24.2943ZM20.923 11.073L23.1845 8.73075L24.2943 9.7905L21.977 12.0462L20.923 11.073ZM8.70575 23.2095L11.0385 20.9385L12.0578 21.927L9.80575 24.2788L8.70575 23.2095Z" fill="black" fill-opacity="0.25"/>
</g>
<path d="M48.5287 24.976C46.1677 24.976 44.1608 24.1496 42.508 22.4968C40.8553 20.8441 40.029 18.8372 40.029 16.476C40.029 14.2132 40.7966 12.2725 42.3317 10.654C43.8669 9.03535 45.7467 8.15868 47.971 8.02402C48.1147 8.02402 48.2557 8.02918 48.3942 8.03952C48.5326 8.04985 48.6684 8.06527 48.8017 8.08577C48.2916 8.5626 47.8852 9.13885 47.5827 9.81452C47.2801 10.4902 47.1287 11.2107 47.1287 11.976C47.1287 13.6149 47.7024 15.0079 48.8497 16.1553C49.9969 17.3024 51.3899 17.876 53.0287 17.876C53.8044 17.876 54.5275 17.7248 55.198 17.4223C55.8685 17.1196 56.439 16.7132 56.9095 16.203C56.93 16.3364 56.9454 16.4723 56.9557 16.6108C56.9659 16.7491 56.971 16.8901 56.971 17.0338C56.8428 19.2581 55.9695 21.1379 54.351 22.673C52.7323 24.2084 50.7916 24.976 48.5287 24.976Z" fill="black" fill-opacity="0.25"/>
</g>
<rect x="1.5" y="1.5" width="62" height="30" rx="15" stroke="black" stroke-width="2"/>
<defs>
<clipPath id="clip0_23_223">
<rect x="0.5" y="0.5" width="64" height="32" rx="16" fill="white"/>
</clipPath>
</defs>
</svg>
