<svg width="65" height="33" viewBox="0 0 65 33" fill="none" xmlns="http://www.w3.org/2000/svg">
<g clip-path="url(#clip0_20_149)">
<path d="M14.7073 21.8732L23.1995 13.3809L21.8684 12.0499L14.7073 19.2111L11.1073 15.6111L9.77621 16.9421L14.7073 21.8732ZM16.5022 28.5C14.8424 28.5 13.2823 28.1851 11.8219 27.5552C10.3615 26.9253 9.09116 26.0704 8.01095 24.9906C6.93074 23.9108 6.07547 22.6411 5.44516 21.1813C4.81505 19.7215 4.5 18.1618 4.5 16.5022C4.5 14.8424 4.81495 13.2823 5.44484 11.8219C6.07474 10.3615 6.92958 9.09116 8.00937 8.01095C9.08916 6.93074 10.3589 6.07547 11.8187 5.44516C13.2785 4.81505 14.8382 4.5 16.4978 4.5C18.1576 4.5 19.7177 4.81495 21.1781 5.44484C22.6385 6.07474 23.9088 6.92958 24.9891 8.00937C26.0693 9.08916 26.9245 10.3589 27.5548 11.8187C28.1849 13.2785 28.5 14.8382 28.5 16.4978C28.5 18.1576 28.1851 19.7177 27.5552 21.1781C26.9253 22.6385 26.0704 23.9088 24.9906 24.9891C23.9108 26.0693 22.6411 26.9245 21.1813 27.5548C19.7215 28.1849 18.1618 28.5 16.5022 28.5Z" fill="black"/>
<path d="M48.5287 24.976C46.1677 24.976 44.1608 24.1496 42.508 22.4968C40.8553 20.8441 40.029 18.8372 40.029 16.476C40.029 14.2132 40.7966 12.2725 42.3317 10.654C43.8669 9.03535 45.7467 8.15868 47.971 8.02402C48.1147 8.02402 48.2557 8.02918 48.3942 8.03952C48.5326 8.04985 48.6684 8.06527 48.8017 8.08577C48.2916 8.5626 47.8852 9.13885 47.5827 9.81452C47.2801 10.4902 47.1287 11.2107 47.1287 11.976C47.1287 13.6149 47.7024 15.0079 48.8497 16.1553C49.9969 17.3024 51.3899 17.876 53.0287 17.876C53.8044 17.876 54.5275 17.7248 55.198 17.4223C55.8685 17.1196 56.439 16.7132 56.9095 16.203C56.93 16.3364 56.9454 16.4723 56.9557 16.6108C56.9659 16.7491 56.971 16.8901 56.971 17.0338C56.8428 19.2581 55.9695 21.1379 54.351 22.673C52.7323 24.2084 50.7916 24.976 48.5287 24.976Z" fill="black"/>
</g>
<rect x="1.5" y="1.5" width="62" height="30" rx="15" stroke="black" stroke-width="2"/>
<defs>
<clipPath id="clip0_20_149">
<rect x="0.5" y="0.5" width="64" height="32" rx="16" fill="white"/>
</clipPath>
</defs>
</svg>
