<svg width="65" height="33" viewBox="0 0 65 33" fill="none" xmlns="http://www.w3.org/2000/svg">
<g clip-path="url(#clip0_20_156)">
<mask id="mask0_20_156" style="mask-type:alpha" maskUnits="userSpaceOnUse" x="4" y="4" width="25" height="25">
<rect x="4.5" y="4.5" width="24" height="24" fill="#D9D9D9"/>
</mask>
<g mask="url(#mask0_20_156)">
<path d="M16.5 21C15.2513 21 14.1892 20.5622 13.3135 19.6865C12.4378 18.8108 12 17.7487 12 16.5C12 15.2513 12.4378 14.1892 13.3135 13.3135C14.1892 12.4378 15.2513 12 16.5 12C17.7487 12 18.8108 12.4378 19.6865 13.3135C20.5622 14.1892 21 15.2513 21 16.5C21 17.7487 20.5622 18.8108 19.6865 19.6865C18.8108 20.5622 17.7487 21 16.5 21ZM9.5 17.25H5.75V15.75H9.5V17.25ZM27.25 17.25H23.5V15.75H27.25V17.25ZM15.75 9.5V5.75H17.25V9.5H15.75ZM15.75 27.25V23.5H17.25V27.25H15.75ZM11.073 12.077L8.73075 9.8155L9.7905 8.70575L12.0463 11.023L11.073 12.077ZM23.2095 24.2943L20.9385 21.9615L21.927 20.923L24.2693 23.1845L23.2095 24.2943ZM20.923 11.073L23.1845 8.73075L24.2943 9.7905L21.977 12.0462L20.923 11.073ZM8.70575 23.2095L11.0385 20.9385L12.0578 21.927L9.80575 24.2788L8.70575 23.2095Z" fill="black"/>
</g>
<path d="M46.7073 21.8732L55.1995 13.3809L53.8684 12.0499L46.7073 19.2111L43.1073 15.6111L41.7762 16.9421L46.7073 21.8732ZM48.5022 28.5C46.8424 28.5 45.2823 28.1851 43.8219 27.5552C42.3615 26.9253 41.0912 26.0704 40.0109 24.9906C38.9307 23.9108 38.0755 22.6411 37.4452 21.1813C36.8151 19.7215 36.5 18.1618 36.5 16.5022C36.5 14.8424 36.8149 13.2823 37.4448 11.8219C38.0747 10.3615 38.9296 9.09116 40.0094 8.01095C41.0892 6.93074 42.3589 6.07547 43.8187 5.44516C45.2785 4.81505 46.8382 4.5 48.4978 4.5C50.1576 4.5 51.7177 4.81495 53.1781 5.44484C54.6385 6.07474 55.9088 6.92958 56.9891 8.00937C58.0693 9.08916 58.9245 10.3589 59.5548 11.8187C60.1849 13.2785 60.5 14.8382 60.5 16.4978C60.5 18.1576 60.1851 19.7177 59.5552 21.1781C58.9253 22.6385 58.0704 23.9088 56.9906 24.9891C55.9108 26.0693 54.6411 26.9245 53.1813 27.5548C51.7215 28.1849 50.1618 28.5 48.5022 28.5Z" fill="black"/>
</g>
<rect x="1.5" y="1.5" width="62" height="30" rx="15" stroke="black" stroke-width="2"/>
<defs>
<clipPath id="clip0_20_156">
<rect x="0.5" y="0.5" width="64" height="32" rx="16" fill="white"/>
</clipPath>
</defs>
</svg>
