<svg width="18" height="19" viewBox="0 0 18 19" fill="none" xmlns="http://www.w3.org/2000/svg">
<path d="M3.98276 18.7345C3.2841 18.7345 2.69976 18.4996 2.22976 18.0297C1.75993 17.5597 1.52501 16.9754 1.52501 16.2767V3.33448H1.27501C0.978846 3.33448 0.725679 3.22931 0.515512 3.01898C0.305179 2.80881 0.200012 2.55564 0.200012 2.25948C0.200012 1.96331 0.305179 1.71014 0.515512 1.49998C0.725679 1.28964 0.978846 1.18448 1.27501 1.18448H5.72501C5.72501 0.889642 5.8321 0.635143 6.04626 0.420976C6.26026 0.206976 6.51468 0.0999756 6.80951 0.0999756H10.7905C11.0853 0.0999756 11.3398 0.206976 11.5538 0.420976C11.7679 0.635143 11.875 0.889642 11.875 1.18448H16.325C16.6212 1.18448 16.8743 1.28964 17.0845 1.49998C17.2948 1.71014 17.4 1.96331 17.4 2.25948C17.4 2.55564 17.2948 2.80881 17.0845 3.01898C16.8743 3.22931 16.6212 3.33448 16.325 3.33448H16.075V16.2767C16.075 16.9754 15.8401 17.5597 15.3703 18.0297C14.9003 18.4996 14.3159 18.7345 13.6173 18.7345H3.98276ZM8.80001 11.4382L10.698 13.3365C10.9032 13.5415 11.1523 13.6456 11.4453 13.649C11.7381 13.6521 11.9903 13.548 12.202 13.3365C12.4135 13.1248 12.5193 12.8741 12.5193 12.5845C12.5193 12.2948 12.4135 12.0441 12.202 11.8325L10.3038 9.93448L12.202 8.03648C12.407 7.83131 12.5112 7.58223 12.5145 7.28923C12.5177 6.99639 12.4135 6.74414 12.202 6.53248C11.9903 6.32098 11.7397 6.21523 11.45 6.21523C11.1603 6.21523 10.9097 6.32098 10.698 6.53248L8.80001 8.43073L6.90201 6.53248C6.69685 6.32748 6.44776 6.22331 6.15476 6.21998C5.86193 6.21681 5.60968 6.32098 5.39801 6.53248C5.18651 6.74414 5.08076 6.99481 5.08076 7.28448C5.08076 7.57414 5.18651 7.82481 5.39801 8.03648L7.29626 9.93448L5.39801 11.8325C5.19301 12.0376 5.08885 12.2867 5.08551 12.5797C5.08235 12.8726 5.18651 13.1248 5.39801 13.3365C5.60968 13.548 5.86035 13.6537 6.15001 13.6537C6.43968 13.6537 6.69035 13.548 6.90201 13.3365L8.80001 11.4382Z" fill="#1C1B1F"/>
</svg>
