<svg width="24" height="24" viewBox="0 0 24 24" fill="none" xmlns="http://www.w3.org/2000/svg">
<mask id="mask0_780_20" style="mask-type:alpha" maskUnits="userSpaceOnUse" x="0" y="0" width="24" height="24">
<rect width="24" height="24" fill="#D9D9D9"/>
</mask>
<g mask="url(#mask0_780_20)">
<path d="M4.5002 21.8C3.86686 21.8 3.3252 21.5833 2.8752 21.15C2.4252 20.7167 2.2002 20.1833 2.2002 19.55V6.425C2.2002 6.125 2.25436 5.82916 2.3627 5.5375C2.47103 5.24583 2.61686 4.98333 2.8002 4.75L4.0752 3.2C4.3252 2.88333 4.62936 2.6375 4.9877 2.4625C5.34603 2.2875 5.7252 2.2 6.1252 2.2H17.8752C18.2585 2.2 18.6294 2.29166 18.9877 2.475C19.346 2.65833 19.6502 2.9 19.9002 3.2L21.1752 4.675C21.3752 4.90833 21.5294 5.17083 21.6377 5.4625C21.746 5.75416 21.8002 6.05833 21.8002 6.375V19.55C21.8002 20.1833 21.5752 20.7167 21.1252 21.15C20.6752 21.5833 20.1335 21.8 19.5002 21.8H4.5002ZM5.3252 5.85H18.7002L17.8502 4.85H6.1502L5.3252 5.85ZM12.0002 9.2C11.6335 9.2 11.321 9.32916 11.0627 9.5875C10.8044 9.84583 10.6752 10.1583 10.6752 10.525V13.225L10.2252 12.775C9.95853 12.5083 9.64603 12.3792 9.2877 12.3875C8.92936 12.3958 8.6252 12.5333 8.3752 12.8C8.1252 13.0667 8.00436 13.3792 8.0127 13.7375C8.02103 14.0958 8.1502 14.4 8.4002 14.65L11.0752 17.325C11.3419 17.5917 11.6502 17.725 12.0002 17.725C12.3502 17.725 12.6585 17.5917 12.9252 17.325L15.6252 14.625C15.8752 14.375 16.0002 14.075 16.0002 13.725C16.0002 13.375 15.8752 13.0667 15.6252 12.8C15.3752 12.5333 15.0669 12.4 14.7002 12.4C14.3335 12.4 14.0169 12.5333 13.7502 12.8L13.3252 13.225V10.525C13.3252 10.1583 13.196 9.84583 12.9377 9.5875C12.6794 9.32916 12.3669 9.2 12.0002 9.2Z" fill="#1C1B1F"/>
</g>
</svg>
