<svg width="24" height="24" viewBox="0 0 24 24" fill="none" xmlns="http://www.w3.org/2000/svg">
<mask id="mask0_737_1296" style="mask-type:alpha" maskUnits="userSpaceOnUse" x="0" y="0" width="24" height="24">
<rect width="24" height="24" fill="currentColor"/>
</mask>
<g mask="url(#mask0_737_1296)">
<path d="M4.49995 21.8C3.86662 21.8 3.32495 21.5833 2.87495 21.15C2.42495 20.7167 2.19995 20.1833 2.19995 19.55V6.42501C2.19995 6.12501 2.25412 5.82918 2.36245 5.53751C2.47078 5.24585 2.61662 4.98335 2.79995 4.75001L4.07495 3.20001C4.32495 2.88335 4.62912 2.63751 4.98745 2.46251C5.34578 2.28751 5.72495 2.20001 6.12495 2.20001H17.875C18.2583 2.20001 18.6291 2.29168 18.9875 2.47501C19.3458 2.65835 19.65 2.90001 19.9 3.20001L21.175 4.67501C21.375 4.90835 21.5291 5.17085 21.6375 5.46251C21.7458 5.75418 21.8 6.05835 21.8 6.37501V19.55C21.8 20.1833 21.575 20.7167 21.125 21.15C20.675 21.5833 20.1333 21.8 19.5 21.8H4.49995ZM5.32495 5.85001H18.7L17.85 4.85001H6.14995L5.32495 5.85001ZM12 9.20001C11.6333 9.20001 11.3208 9.32918 11.0625 9.58751C10.8041 9.84585 10.675 10.1583 10.675 10.525V13.225L10.225 12.775C9.95829 12.5083 9.64578 12.3792 9.28745 12.3875C8.92912 12.3958 8.62495 12.5333 8.37495 12.8C8.12495 13.0667 8.00412 13.3792 8.01245 13.7375C8.02078 14.0958 8.14995 14.4 8.39995 14.65L11.075 17.325C11.3416 17.5917 11.65 17.725 12 17.725C12.35 17.725 12.6583 17.5917 12.925 17.325L15.625 14.625C15.875 14.375 16 14.075 16 13.725C16 13.375 15.875 13.0667 15.625 12.8C15.375 12.5333 15.0666 12.4 14.7 12.4C14.3333 12.4 14.0166 12.5333 13.75 12.8L13.325 13.225V10.525C13.325 10.1583 13.1958 9.84585 12.9375 9.58751C12.6791 9.32918 12.3666 9.20001 12 9.20001Z" fill="currentColor"/>
</g>
</svg>
