<svg width="24" height="24" viewBox="0 0 24 24" fill="none" xmlns="http://www.w3.org/2000/svg">
<mask id="mask0_737_1270" style="mask-type:alpha" maskUnits="userSpaceOnUse" x="0" y="0" width="24" height="24">
<rect width="24" height="24" fill="currentColor"/>
</mask>
<g mask="url(#mask0_737_1270)">
<path d="M13.35 10.65C14.25 11.55 15.3167 12.2417 16.55 12.725C17.7833 13.2083 19.1 13.45 20.5 13.45C21.0333 13.45 21.45 13.6667 21.75 14.1C22.05 14.5333 22.1083 15 21.925 15.5C21.7917 15.8833 21.6167 16.2708 21.4 16.6625C21.1833 17.0542 20.9333 17.45 20.65 17.85C20.3833 18.2 20.0292 18.3875 19.5875 18.4125C19.1458 18.4375 18.7583 18.2833 18.425 17.95L6.025 5.55C5.70833 5.23333 5.55833 4.85417 5.575 4.4125C5.59167 3.97083 5.775 3.61667 6.125 3.35C6.425 3.11667 6.74583 2.90417 7.0875 2.7125C7.42917 2.52083 7.81667 2.33333 8.25 2.15C8.78333 1.91667 9.2875 1.94583 9.7625 2.2375C10.2375 2.52917 10.4833 2.94167 10.5 3.475C10.5333 4.90833 10.7917 6.2375 11.275 7.4625C11.7583 8.6875 12.45 9.75 13.35 10.65ZM17.8 23.9L15.6 21.725C15.05 21.925 14.4833 22.075 13.9 22.175C13.3167 22.275 12.7167 22.325 12.1 22.325C10.6667 22.325 9.31667 22.05 8.05 21.5C6.78333 20.95 5.67917 20.2042 4.7375 19.2625C3.79583 18.3208 3.05 17.2167 2.5 15.95C1.95 14.6833 1.675 13.3333 1.675 11.9C1.675 11.2833 1.725 10.6833 1.825 10.1C1.925 9.51667 2.075 8.95 2.275 8.4L0.15 6.275C-0.116667 6.00833 -0.25 5.69167 -0.25 5.325C-0.25 4.95833 -0.116667 4.64167 0.15 4.375C0.416667 4.10833 0.733333 3.975 1.1 3.975C1.46667 3.975 1.78333 4.10833 2.05 4.375L19.65 22.025C19.9 22.2917 20.025 22.6042 20.025 22.9625C20.025 23.3208 19.9 23.625 19.65 23.875C19.4 24.125 19.0917 24.2542 18.725 24.2625C18.3583 24.2708 18.05 24.15 17.8 23.9Z" fill="currentColor"/>
</g>
</svg>
