<svg width="24" height="24" viewBox="0 0 24 24" fill="none" xmlns="http://www.w3.org/2000/svg">
<mask id="mask0_737_1308" style="mask-type:alpha" maskUnits="userSpaceOnUse" x="0" y="0" width="24" height="24">
<rect width="24" height="24" fill="currentColor"/>
</mask>
<g mask="url(#mask0_737_1308)">
<path d="M9.0001 15.25C7.21676 15.25 5.70426 14.6209 4.4626 13.3625C3.22093 12.1042 2.6001 10.5834 2.6001 8.80002C2.6001 8.50002 2.62926 8.13336 2.6876 7.70002C2.74593 7.26669 2.84176 6.91669 2.9751 6.65002C3.0751 6.45002 3.2126 6.28752 3.3876 6.16252C3.5626 6.03752 3.7501 5.95836 3.9501 5.92502C4.1501 5.89169 4.3501 5.90419 4.5501 5.96252C4.7501 6.02086 4.93343 6.13336 5.1001 6.30002L7.6001 8.80002L9.0001 7.40002L6.4751 4.90002C6.30843 4.73336 6.19593 4.55002 6.1376 4.35002C6.07926 4.15002 6.06676 3.95002 6.1001 3.75002C6.13343 3.55002 6.2126 3.36252 6.3376 3.18752C6.4626 3.01252 6.6251 2.87502 6.8251 2.77502C7.10843 2.64169 7.46676 2.54586 7.9001 2.48752C8.33343 2.42919 8.7001 2.40002 9.0001 2.40002C10.7834 2.40002 12.3043 3.02086 13.5626 4.26252C14.8209 5.50419 15.4501 7.01669 15.4501 8.80002C15.4501 9.13336 15.4251 9.46669 15.3751 9.80002C15.3251 10.1334 15.2501 10.4667 15.1501 10.8L19.8251 15.425C20.4084 16.0084 20.7001 16.7 20.7001 17.5C20.7001 18.3 20.4168 18.9917 19.8501 19.575C19.2668 20.1584 18.5584 20.4542 17.7251 20.4625C16.8918 20.4709 16.1834 20.1834 15.6001 19.6L11.0001 14.95C10.7001 15.05 10.3793 15.125 10.0376 15.175C9.69593 15.225 9.3501 15.25 9.0001 15.25Z" fill="currentColor"/>
</g>
</svg>
