<svg width="24" height="24" viewBox="0 0 24 24" fill="none" xmlns="http://www.w3.org/2000/svg">
<mask id="mask0_737_1273" style="mask-type:alpha" maskUnits="userSpaceOnUse" x="0" y="0" width="24" height="24">
<rect width="24" height="24" fill="currentColor"/>
</mask>
<g mask="url(#mask0_737_1273)">
<path d="M12 13.85L14.725 16.575C14.975 16.825 15.2833 16.95 15.65 16.95C16.0166 16.95 16.325 16.825 16.575 16.575C16.825 16.325 16.95 16.0167 16.95 15.65C16.95 15.2833 16.825 14.975 16.575 14.725L13.85 12L16.575 9.275C16.825 9.025 16.95 8.71667 16.95 8.35C16.95 7.98333 16.825 7.675 16.575 7.425C16.325 7.175 16.0166 7.05 15.65 7.05C15.2833 7.05 14.975 7.175 14.725 7.425L12 10.15L9.27495 7.425C9.02495 7.175 8.71662 7.05 8.34995 7.05C7.98328 7.05 7.67495 7.175 7.42495 7.425C7.17495 7.675 7.04995 7.98333 7.04995 8.35C7.04995 8.71667 7.17495 9.025 7.42495 9.275L10.15 12L7.42495 14.725C7.17495 14.975 7.04995 15.2833 7.04995 15.65C7.04995 16.0167 7.17495 16.325 7.42495 16.575C7.67495 16.825 7.98328 16.95 8.34995 16.95C8.71662 16.95 9.02495 16.825 9.27495 16.575L12 13.85ZM12 22.8C10.5 22.8 9.09578 22.5167 7.78745 21.95C6.47912 21.3833 5.33745 20.6125 4.36245 19.6375C3.38745 18.6625 2.61662 17.5208 2.04995 16.2125C1.48328 14.9042 1.19995 13.5 1.19995 12C1.19995 10.5 1.48328 9.09167 2.04995 7.775C2.61662 6.45833 3.38745 5.3125 4.36245 4.3375C5.33745 3.3625 6.47912 2.59583 7.78745 2.0375C9.09578 1.47917 10.5 1.2 12 1.2C13.5 1.2 14.9083 1.47917 16.225 2.0375C17.5416 2.59583 18.6875 3.3625 19.6625 4.3375C20.6375 5.3125 21.4041 6.45833 21.9625 7.775C22.5208 9.09167 22.8 10.5 22.8 12C22.8 13.5 22.5208 14.9042 21.9625 16.2125C21.4041 17.5208 20.6375 18.6625 19.6625 19.6375C18.6875 20.6125 17.5416 21.3833 16.225 21.95C14.9083 22.5167 13.5 22.8 12 22.8Z" fill="currentColor"/>
</g>
</svg>
