<svg width="24" height="24" viewBox="0 0 24 24" fill="none" xmlns="http://www.w3.org/2000/svg">
<mask id="mask0_737_1279" style="mask-type:alpha" maskUnits="userSpaceOnUse" x="0" y="0" width="24" height="24">
<rect width="24" height="24" fill="currentColor"/>
</mask>
<g mask="url(#mask0_737_1279)">
<path d="M9.54999 14.8L18 6.35C18.2682 6.08333 18.5811 5.95 18.9387 5.95C19.2962 5.95 19.6083 6.08158 19.875 6.34475C20.1417 6.60792 20.275 6.92042 20.275 7.28225C20.275 7.64408 20.1417 7.95833 19.875 8.225L10.475 17.625C10.2113 17.8917 9.90374 18.025 9.55224 18.025C9.20074 18.025 8.89165 17.8917 8.62499 17.625L4.17499 13.175C3.90832 12.9128 3.77915 12.6014 3.78749 12.2408C3.79582 11.8803 3.93157 11.5667 4.19474 11.3C4.4579 11.0333 4.7704 10.9 5.13224 10.9C5.49407 10.9 5.80832 11.0333 6.07499 11.3L9.54999 14.8Z" fill="currentColor"/>
</g>
</svg>
