<svg width="24" height="24" viewBox="0 0 24 24" fill="none" xmlns="http://www.w3.org/2000/svg">
<mask id="mask0_737_1301" style="mask-type:alpha" maskUnits="userSpaceOnUse" x="0" y="0" width="24" height="24">
<rect width="24" height="24" fill="currentColor"/>
</mask>
<g mask="url(#mask0_737_1301)">
<path d="M6.52495 13.3C6.15828 13.3 5.84578 13.1709 5.58745 12.9125C5.32912 12.6542 5.19995 12.3417 5.19995 11.975C5.19995 11.6084 5.32912 11.2959 5.58745 11.0375C5.84578 10.7792 6.15828 10.65 6.52495 10.65H17.475C17.8416 10.65 18.1541 10.7792 18.4125 11.0375C18.6708 11.2959 18.8 11.6084 18.8 11.975C18.8 12.3417 18.6708 12.6542 18.4125 12.9125C18.1541 13.1709 17.8416 13.3 17.475 13.3H6.52495Z" fill="currentColor"/>
</g>
</svg>
