<svg width="24" height="24" viewBox="0 0 24 24" fill="none" xmlns="http://www.w3.org/2000/svg">
<mask id="mask0_737_1284" style="mask-type:alpha" maskUnits="userSpaceOnUse" x="0" y="0" width="24" height="24">
<rect width="24" height="24" fill="currentColor"/>
</mask>
<g mask="url(#mask0_737_1284)">
<path d="M5.0001 21.65C4.27126 21.65 3.64743 21.3905 3.1286 20.8715C2.6096 20.3526 2.3501 19.7288 2.3501 19V4.99998C2.3501 4.27131 2.6096 3.64748 3.1286 3.12848C3.64743 2.60948 4.27126 2.34998 5.0001 2.34998H19.0001C19.7288 2.34998 20.3526 2.60948 20.8716 3.12848C21.3906 3.64748 21.6501 4.27131 21.6501 4.99998V19C21.6501 19.7288 21.3906 20.3526 20.8716 20.8715C20.3526 21.3905 19.7288 21.65 19.0001 21.65H5.0001ZM5.0001 19H19.0001V4.99998H5.0001V19Z" fill="currentColor"/>
</g>
</svg>
