<svg width="24" height="24" viewBox="0 0 24 24" fill="none" xmlns="http://www.w3.org/2000/svg">
<mask id="mask0_737_1268" style="mask-type:alpha" maskUnits="userSpaceOnUse" x="0" y="0" width="24" height="24">
<rect width="24" height="24" fill="currentColor"/>
</mask>
<g mask="url(#mask0_737_1268)">
<path d="M12.0251 13.85L7.2501 18.65C6.98343 18.9167 6.66676 19.0458 6.3001 19.0375C5.93343 19.0292 5.61676 18.8917 5.3501 18.625C5.1001 18.3583 4.97926 18.05 4.9876 17.7C4.99593 17.35 5.1251 17.0417 5.3751 16.775L10.1251 12L5.3501 7.175C5.1001 6.90833 4.9751 6.6 4.9751 6.25C4.9751 5.9 5.1001 5.59167 5.3501 5.325C5.61676 5.05833 5.93343 4.92083 6.3001 4.9125C6.66676 4.90417 6.98343 5.03333 7.2501 5.3L12.0251 10.1L16.7501 5.3C17.0168 5.03333 17.3334 4.90417 17.7001 4.9125C18.0668 4.92083 18.3834 5.05833 18.6501 5.325C18.9001 5.59167 19.0209 5.9 19.0126 6.25C19.0043 6.6 18.8751 6.90833 18.6251 7.175L13.8751 12L18.6251 16.775C18.8751 17.025 19.0043 17.3292 19.0126 17.6875C19.0209 18.0458 18.9001 18.3583 18.6501 18.625C18.3834 18.8917 18.0668 19.0292 17.7001 19.0375C17.3334 19.0458 17.0168 18.9167 16.7501 18.65L12.0251 13.85Z" fill="currentColor"/>
</g>
</svg>
