<svg width="24" height="24" viewBox="0 0 24 24" fill="none" xmlns="http://www.w3.org/2000/svg">
<mask id="mask0_737_1295" style="mask-type:alpha" maskUnits="userSpaceOnUse" x="0" y="0" width="24" height="24">
<rect width="24" height="24" fill="currentColor"/>
</mask>
<g mask="url(#mask0_737_1295)">
<path d="M5.15005 12L8.85005 15.7C9.11672 15.9666 9.25005 16.2791 9.25005 16.6375C9.25005 16.9958 9.11672 17.3083 8.85005 17.575C8.58338 17.8416 8.27088 17.975 7.91255 17.975C7.55422 17.975 7.24172 17.8416 6.97505 17.575L2.30005 12.9C2.16372 12.7678 2.06713 12.6246 2.0103 12.4705C1.95347 12.3163 1.92505 12.1511 1.92505 11.975C1.92505 11.7988 1.95347 11.6336 2.0103 11.4795C2.06713 11.3253 2.16372 11.1821 2.30005 11.05L6.97505 6.37498C7.24172 6.10831 7.55838 5.97498 7.92505 5.97498C8.29172 5.97498 8.60838 6.10831 8.87505 6.37498C9.14172 6.64164 9.27505 6.95831 9.27505 7.32498C9.27505 7.69164 9.14172 8.00831 8.87505 8.27498L5.15005 12ZM18.9 11.9L15.175 8.17498C14.925 7.92498 14.8042 7.62081 14.8125 7.26248C14.8209 6.90414 14.95 6.59998 15.2 6.34998C15.45 6.09998 15.7542 5.97498 16.1125 5.97498C16.4709 5.97498 16.775 6.09998 17.025 6.34998L21.7 11.05C21.8364 11.1821 21.933 11.3253 21.9898 11.4795C22.0466 11.6336 22.075 11.7988 22.075 11.975C22.075 12.1511 22.0466 12.3163 21.9898 12.4705C21.933 12.6246 21.8364 12.7678 21.7 12.9L17.05 17.55C16.7774 17.8166 16.4592 17.9458 16.0955 17.9375C15.7319 17.9291 15.4167 17.7916 15.15 17.525C14.8834 17.2583 14.7542 16.9416 14.7625 16.575C14.7709 16.2083 14.9084 15.8916 15.175 15.625L18.9 11.9Z" fill="currentColor"/>
</g>
</svg>
