<svg width="24" height="24" viewBox="0 0 24 24" fill="none" xmlns="http://www.w3.org/2000/svg">
<mask id="mask0_737_1274" style="mask-type:alpha" maskUnits="userSpaceOnUse" x="0" y="0" width="24" height="24">
<rect width="24" height="24" fill="currentColor"/>
</mask>
<g mask="url(#mask0_737_1274)">
<path d="M8.67505 15.325H6.00005C5.63338 15.325 5.32088 15.1959 5.06255 14.9375C4.80422 14.6792 4.67505 14.3667 4.67505 14C4.67505 13.6334 4.80422 13.3209 5.06255 13.0625C5.32088 12.8042 5.63338 12.675 6.00005 12.675H10C10.3667 12.675 10.6792 12.8042 10.9375 13.0625C11.1959 13.3209 11.325 13.6334 11.325 14V18C11.325 18.3667 11.1959 18.6792 10.9375 18.9375C10.6792 19.1959 10.3667 19.325 10 19.325C9.63338 19.325 9.32088 19.1959 9.06255 18.9375C8.80422 18.6792 8.67505 18.3667 8.67505 18V15.325ZM15.325 8.67505H18C18.3667 8.67505 18.6792 8.80422 18.9375 9.06255C19.1959 9.32088 19.325 9.63338 19.325 10C19.325 10.3667 19.1959 10.6792 18.9375 10.9375C18.6792 11.1959 18.3667 11.325 18 11.325H14C13.6334 11.325 13.3209 11.1959 13.0625 10.9375C12.8042 10.6792 12.675 10.3667 12.675 10V6.00005C12.675 5.63338 12.8042 5.32088 13.0625 5.06255C13.3209 4.80422 13.6334 4.67505 14 4.67505C14.3667 4.67505 14.6792 4.80422 14.9375 5.06255C15.1959 5.32088 15.325 5.63338 15.325 6.00005V8.67505Z" fill="currentColor"/>
</g>
</svg>
