<svg width="24" height="24" viewBox="0 0 24 24" fill="none" xmlns="http://www.w3.org/2000/svg">
<mask id="mask0_737_1290" style="mask-type:alpha" maskUnits="userSpaceOnUse" x="0" y="0" width="24" height="24">
<rect width="24" height="24" fill="currentColor"/>
</mask>
<g mask="url(#mask0_737_1290)">
<path d="M6.59995 13.95H17.4C17.6833 13.95 17.9208 13.8542 18.1125 13.6625C18.3041 13.4709 18.4 13.2334 18.4 12.95C18.4 12.6667 18.3041 12.4292 18.1125 12.2375C17.9208 12.0459 17.6833 11.95 17.4 11.95H6.59995C6.31662 11.95 6.07912 12.0459 5.88745 12.2375C5.69578 12.4292 5.59995 12.6667 5.59995 12.95C5.59995 13.2334 5.69578 13.4709 5.88745 13.6625C6.07912 13.8542 6.31662 13.95 6.59995 13.95ZM6.59995 10.6H17.4C17.6833 10.6 17.9208 10.5042 18.1125 10.3125C18.3041 10.1209 18.4 9.88336 18.4 9.60003C18.4 9.31669 18.3041 9.07919 18.1125 8.88753C17.9208 8.69586 17.6833 8.60003 17.4 8.60003H6.59995C6.31662 8.60003 6.07912 8.69586 5.88745 8.88753C5.69578 9.07919 5.59995 9.31669 5.59995 9.60003C5.59995 9.88336 5.69578 10.1209 5.88745 10.3125C6.07912 10.5042 6.31662 10.6 6.59995 10.6ZM6.59995 7.25002H17.4C17.6833 7.25002 17.9208 7.15419 18.1125 6.96252C18.3041 6.77086 18.4 6.53336 18.4 6.25002C18.4 5.96669 18.3041 5.72919 18.1125 5.53752C17.9208 5.34586 17.6833 5.25002 17.4 5.25002H6.59995C6.31662 5.25002 6.07912 5.34586 5.88745 5.53752C5.69578 5.72919 5.59995 5.96669 5.59995 6.25002C5.59995 6.53336 5.69578 6.77086 5.88745 6.96252C6.07912 7.15419 6.31662 7.25002 6.59995 7.25002ZM3.84995 18.4C3.12128 18.4 2.49745 18.1405 1.97845 17.6215C1.45945 17.1027 1.19995 16.4789 1.19995 15.75V3.55002C1.19995 2.82136 1.45945 2.19752 1.97845 1.67852C2.49745 1.15952 3.12128 0.900024 3.84995 0.900024H20.15C20.8786 0.900024 21.5025 1.15952 22.0215 1.67852C22.5405 2.19752 22.8 2.82136 22.8 3.55002V19.85C22.8 20.4407 22.5291 20.8509 21.9875 21.0805C21.4458 21.3102 20.9666 21.2167 20.55 20.8L18.15 18.4H3.84995Z" fill="currentColor"/>
</g>
</svg>
