<svg width="24" height="24" viewBox="0 0 24 24" fill="none" xmlns="http://www.w3.org/2000/svg">
<mask id="mask0_737_1286" style="mask-type:alpha" maskUnits="userSpaceOnUse" x="0" y="0" width="24" height="24">
<rect width="24" height="24" fill="currentColor"/>
</mask>
<g mask="url(#mask0_737_1286)">
<path d="M6.90005 21.8C6.15005 21.8 5.52088 21.5458 5.01255 21.0375C4.50422 20.5292 4.25005 19.9 4.25005 19.15V5.89999C3.88338 5.89999 3.57088 5.77082 3.31255 5.51249C3.05422 5.25415 2.92505 4.94165 2.92505 4.57499C2.92505 4.20832 3.05422 3.89582 3.31255 3.63749C3.57088 3.37915 3.88338 3.24999 4.25005 3.24999H8.95005C8.95005 2.91665 9.06672 2.63332 9.30005 2.39999C9.53338 2.16665 9.81672 2.04999 10.15 2.04999H13.9C14.2334 2.04999 14.5167 2.16665 14.75 2.39999C14.9834 2.63332 15.1 2.91665 15.1 3.24999H19.8C20.1667 3.24999 20.4792 3.37915 20.7375 3.63749C20.9959 3.89582 21.125 4.20832 21.125 4.57499C21.125 4.94165 20.9959 5.25415 20.7375 5.51249C20.4792 5.77082 20.1667 5.89999 19.8 5.89999V19.15C19.8 19.9 19.5459 20.5292 19.0375 21.0375C18.5292 21.5458 17.9 21.8 17.15 21.8H6.90005ZM9.80005 17.125C10.1667 17.125 10.4792 16.9958 10.7375 16.7375C10.9959 16.4792 11.125 16.1667 11.125 15.8V9.24999C11.125 8.88332 10.9959 8.57082 10.7375 8.31249C10.4792 8.05415 10.1667 7.92499 9.80005 7.92499C9.43338 7.92499 9.12088 8.05415 8.86255 8.31249C8.60422 8.57082 8.47505 8.88332 8.47505 9.24999V15.8C8.47505 16.1667 8.60422 16.4792 8.86255 16.7375C9.12088 16.9958 9.43338 17.125 9.80005 17.125ZM14.25 17.125C14.6167 17.125 14.9292 16.9958 15.1875 16.7375C15.4459 16.4792 15.575 16.1667 15.575 15.8V9.24999C15.575 8.88332 15.4459 8.57082 15.1875 8.31249C14.9292 8.05415 14.6167 7.92499 14.25 7.92499C13.8834 7.92499 13.5709 8.05415 13.3125 8.31249C13.0542 8.57082 12.925 8.88332 12.925 9.24999V15.8C12.925 16.1667 13.0542 16.4792 13.3125 16.7375C13.5709 16.9958 13.8834 17.125 14.25 17.125Z" fill="currentColor"/>
</g>
</svg>
