<svg width="24" height="24" viewBox="0 0 24 24" fill="none" xmlns="http://www.w3.org/2000/svg">
<mask id="mask0_737_1276" style="mask-type:alpha" maskUnits="userSpaceOnUse" x="0" y="0" width="24" height="24">
<rect width="24" height="24" fill="currentColor"/>
</mask>
<g mask="url(#mask0_737_1276)">
<path d="M6.90005 21.8C6.15005 21.8 5.52088 21.5458 5.01255 21.0375C4.50422 20.5292 4.25005 19.9 4.25005 19.15V5.9C3.88338 5.9 3.57088 5.77084 3.31255 5.5125C3.05422 5.25417 2.92505 4.94167 2.92505 4.575C2.92505 4.20834 3.05422 3.89584 3.31255 3.6375C3.57088 3.37917 3.88338 3.25 4.25005 3.25H8.95005C8.95005 2.91667 9.06672 2.63334 9.30005 2.4C9.53338 2.16667 9.81672 2.05 10.15 2.05H13.9C14.2334 2.05 14.5167 2.16667 14.75 2.4C14.9834 2.63334 15.1 2.91667 15.1 3.25H19.8C20.1667 3.25 20.4792 3.37917 20.7375 3.6375C20.9959 3.89584 21.125 4.20834 21.125 4.575C21.125 4.94167 20.9959 5.25417 20.7375 5.5125C20.4792 5.77084 20.1667 5.9 19.8 5.9V19.15C19.8 19.9 19.5459 20.5292 19.0375 21.0375C18.5292 21.5458 17.9 21.8 17.15 21.8H6.90005ZM12.025 14.35L13.75 16.075C14 16.325 14.3084 16.45 14.675 16.45C15.0417 16.45 15.35 16.325 15.6 16.075C15.85 15.825 15.975 15.5167 15.975 15.15C15.975 14.7833 15.85 14.475 15.6 14.225L13.875 12.5L15.6 10.775C15.85 10.525 15.975 10.2167 15.975 9.85C15.975 9.48334 15.85 9.175 15.6 8.925C15.35 8.675 15.0417 8.55 14.675 8.55C14.3084 8.55 14 8.675 13.75 8.925L12.025 10.65L10.3 8.925C10.05 8.675 9.74172 8.55 9.37505 8.55C9.00838 8.55 8.70005 8.675 8.45005 8.925C8.20005 9.175 8.07505 9.48334 8.07505 9.85C8.07505 10.2167 8.20005 10.525 8.45005 10.775L10.175 12.5L8.45005 14.225C8.20005 14.475 8.07505 14.7833 8.07505 15.15C8.07505 15.5167 8.20005 15.825 8.45005 16.075C8.70005 16.325 9.00838 16.45 9.37505 16.45C9.74172 16.45 10.05 16.325 10.3 16.075L12.025 14.35Z" fill="currentColor"/>
</g>
</svg>
