<svg width="24" height="24" viewBox="0 0 24 24" fill="none" xmlns="http://www.w3.org/2000/svg">
<mask id="mask0_780_11" style="mask-type:alpha" maskUnits="userSpaceOnUse" x="0" y="0" width="24" height="24">
<rect width="24" height="24" fill="currentColor"/>
</mask>
<g mask="url(#mask0_780_11)">
<path d="M4.5252 20.175H19.5002C19.8669 20.175 20.1752 20.3 20.4252 20.55C20.6752 20.8 20.8002 21.1083 20.8002 21.475C20.8002 21.8417 20.671 22.1542 20.4127 22.4125C20.1544 22.6708 19.8419 22.8 19.4752 22.8H4.5002C4.13353 22.8 3.8252 22.6708 3.5752 22.4125C3.3252 22.1542 3.2002 21.8417 3.2002 21.475C3.2002 21.1083 3.32936 20.8 3.5877 20.55C3.84603 20.3 4.15853 20.175 4.5252 20.175ZM12.0002 17.375C11.8169 17.375 11.6335 17.3333 11.4502 17.25C11.2669 17.1667 11.1085 17.0417 10.9752 16.875L5.4752 9.975C5.1252 9.54166 5.0752 9.075 5.3252 8.575C5.5752 8.075 5.9752 7.825 6.5252 7.825H8.3502V2.525C8.3502 2.15833 8.47936 1.84583 8.7377 1.5875C8.99603 1.32916 9.30853 1.2 9.6752 1.2H14.3252C14.6919 1.2 15.0044 1.32916 15.2627 1.5875C15.521 1.84583 15.6502 2.15833 15.6502 2.525V7.825H17.4752C18.0252 7.825 18.4252 8.075 18.6752 8.575C18.9252 9.075 18.8752 9.54166 18.5252 9.975L13.0252 16.875C12.8919 17.0417 12.7335 17.1667 12.5502 17.25C12.3669 17.3333 12.1835 17.375 12.0002 17.375Z" fill="currentColor"/>
</g>
</svg>
