<svg width="24" height="24" viewBox="0 0 24 24" fill="none" xmlns="http://www.w3.org/2000/svg">
<mask id="mask0_780_29" style="mask-type:alpha" maskUnits="userSpaceOnUse" x="0" y="0" width="24" height="24">
<rect width="24" height="24" fill="currentColor"/>
</mask>
<g mask="url(#mask0_780_29)">
<path d="M11.9752 15.6C11.799 15.6 11.6339 15.5716 11.4797 15.5147C11.3255 15.4579 11.1824 15.3613 11.0502 15.225L6.9002 11.075C6.63353 10.8068 6.50436 10.4939 6.5127 10.1362C6.52103 9.77875 6.65853 9.46666 6.9252 9.2C7.19186 8.93333 7.50436 8.8 7.8627 8.8C8.22103 8.8 8.53353 8.93333 8.8002 9.2L10.6502 11.075V4.525C10.6502 4.15833 10.7794 3.84583 11.0377 3.5875C11.296 3.32916 11.6085 3.2 11.9752 3.2C12.3419 3.2 12.6544 3.32916 12.9127 3.5875C13.171 3.84583 13.3002 4.15833 13.3002 4.525V11.075L15.1752 9.2C15.4374 8.93333 15.7488 8.80416 16.1094 8.8125C16.4699 8.82083 16.7835 8.95833 17.0502 9.225C17.3169 9.49166 17.4502 9.80416 17.4502 10.1625C17.4502 10.5208 17.3169 10.8333 17.0502 11.1L12.9002 15.225C12.768 15.3613 12.6249 15.4579 12.4707 15.5147C12.3165 15.5716 12.1514 15.6 11.9752 15.6ZM5.8502 20.8C5.12136 20.8 4.49753 20.5405 3.9787 20.0215C3.4597 19.5027 3.2002 18.8788 3.2002 18.15V16.475C3.2002 16.1083 3.32936 15.7958 3.5877 15.5375C3.84603 15.2792 4.15853 15.15 4.5252 15.15C4.89186 15.15 5.20436 15.2792 5.4627 15.5375C5.72103 15.7958 5.8502 16.1083 5.8502 16.475V18.15H18.1502V16.475C18.1502 16.1083 18.2794 15.7958 18.5377 15.5375C18.796 15.2792 19.1085 15.15 19.4752 15.15C19.8419 15.15 20.1544 15.2792 20.4127 15.5375C20.671 15.7958 20.8002 16.1083 20.8002 16.475V18.15C20.8002 18.8788 20.5407 19.5027 20.0217 20.0215C19.5027 20.5405 18.8789 20.8 18.1502 20.8H5.8502Z" fill="currentColor"/>
</g>
</svg>
