<svg width="24" height="24" viewBox="0 0 24 24" fill="none" xmlns="http://www.w3.org/2000/svg">
<mask id="mask0_737_1297" style="mask-type:alpha" maskUnits="userSpaceOnUse" x="0" y="0" width="24" height="24">
<rect width="24" height="24" fill="currentColor"/>
</mask>
<g mask="url(#mask0_737_1297)">
<path d="M8.6751 17.2L5.3501 20.525C5.08343 20.7916 4.7751 20.9208 4.4251 20.9125C4.0751 20.9041 3.76676 20.7666 3.5001 20.5C3.23343 20.2333 3.1001 19.9208 3.1001 19.5625C3.1001 19.2041 3.23343 18.8916 3.5001 18.625L6.8001 15.325H6.2751C5.90843 15.325 5.59593 15.1958 5.3376 14.9375C5.07926 14.6791 4.9501 14.3666 4.9501 14C4.9501 13.6333 5.07926 13.3208 5.3376 13.0625C5.59593 12.8041 5.90843 12.675 6.2751 12.675H10.0001C10.3668 12.675 10.6793 12.8041 10.9376 13.0625C11.1959 13.3208 11.3251 13.6333 11.3251 14V17.725C11.3251 18.0916 11.1959 18.4041 10.9376 18.6625C10.6793 18.9208 10.3668 19.05 10.0001 19.05C9.63343 19.05 9.32093 18.9208 9.0626 18.6625C8.80426 18.4041 8.6751 18.0916 8.6751 17.725V17.2ZM17.2001 8.67495H17.7251C18.0918 8.67495 18.4043 8.80412 18.6626 9.06245C18.9209 9.32078 19.0501 9.63328 19.0501 9.99995C19.0501 10.3666 18.9209 10.6791 18.6626 10.9375C18.4043 11.1958 18.0918 11.325 17.7251 11.325H14.0001C13.6334 11.325 13.3209 11.1958 13.0626 10.9375C12.8043 10.6791 12.6751 10.3666 12.6751 9.99995V6.27495C12.6751 5.90828 12.8043 5.59578 13.0626 5.33745C13.3209 5.07912 13.6334 4.94995 14.0001 4.94995C14.3668 4.94995 14.6793 5.07912 14.9376 5.33745C15.1959 5.59578 15.3251 5.90828 15.3251 6.27495V6.79995L18.6501 3.47495C18.9168 3.20828 19.2293 3.07495 19.5876 3.07495C19.9459 3.07495 20.2584 3.20828 20.5251 3.47495C20.7918 3.74162 20.9251 4.05412 20.9251 4.41245C20.9251 4.77078 20.7918 5.08328 20.5251 5.34995L17.2001 8.67495Z" fill="currentColor"/>
</g>
</svg>
