<svg width="24" height="24" viewBox="0 0 24 24" fill="none" xmlns="http://www.w3.org/2000/svg">
<mask id="mask0_737_1298" style="mask-type:alpha" maskUnits="userSpaceOnUse" x="0" y="0" width="24" height="24">
<rect width="24" height="24" fill="currentColor"/>
</mask>
<g mask="url(#mask0_737_1298)">
<path d="M12.375 21.8C10.0917 21.8 8.07088 21.1375 6.31255 19.8125C4.55422 18.4875 3.39172 16.775 2.82505 14.675C2.74172 14.325 2.80838 14.0042 3.02505 13.7125C3.24172 13.4208 3.54172 13.25 3.92505 13.2C4.27505 13.15 4.60005 13.2083 4.90005 13.375C5.20005 13.5417 5.40005 13.7917 5.50005 14.125C5.93338 15.6083 6.77505 16.8167 8.02505 17.75C9.27505 18.6833 10.7084 19.15 12.325 19.15C14.2917 19.15 15.9667 18.4542 17.35 17.0625C18.7334 15.6708 19.425 13.9833 19.425 12C19.425 10.0333 18.7417 8.35001 17.375 6.95001C16.0084 5.55001 14.3417 4.85001 12.375 4.85001C11.1084 4.85001 9.92505 5.15001 8.82505 5.75001C7.72505 6.35001 6.84172 7.18335 6.17505 8.25001H7.85005C8.21672 8.25001 8.52922 8.37918 8.78755 8.63751C9.04588 8.89585 9.17505 9.20835 9.17505 9.57501C9.17505 9.94168 9.04588 10.2542 8.78755 10.5125C8.52922 10.7708 8.21672 10.9 7.85005 10.9H3.25005C2.88338 10.9 2.57088 10.7708 2.31255 10.5125C2.05422 10.2542 1.92505 9.94168 1.92505 9.57501V4.97501C1.92505 4.60835 2.05422 4.29585 2.31255 4.03751C2.57088 3.77918 2.88338 3.65001 3.25005 3.65001C3.61672 3.65001 3.92922 3.77918 4.18755 4.03751C4.44588 4.29585 4.57505 4.60835 4.57505 4.97501V6.05001C5.45838 4.78335 6.59172 3.82501 7.97505 3.17501C9.35838 2.52501 10.825 2.20001 12.375 2.20001C13.725 2.20001 14.9875 2.45835 16.1625 2.97501C17.3375 3.49168 18.3625 4.19168 19.2375 5.07501C20.1125 5.95835 20.8042 6.99585 21.3125 8.18751C21.8209 9.37918 22.075 10.65 22.075 12C22.075 13.35 21.8209 14.6208 21.3125 15.8125C20.8042 17.0042 20.1125 18.0417 19.2375 18.925C18.3625 19.8083 17.3375 20.5083 16.1625 21.025C14.9875 21.5417 13.725 21.8 12.375 21.8ZM13.025 11.45L15.5 13.925C15.75 14.175 15.8792 14.4792 15.8875 14.8375C15.8959 15.1958 15.7667 15.5083 15.5 15.775C15.25 16.025 14.9417 16.15 14.575 16.15C14.2084 16.15 13.9 16.025 13.65 15.775L10.775 12.95C10.6417 12.8167 10.5417 12.6708 10.475 12.5125C10.4084 12.3542 10.375 12.1833 10.375 12V7.92501C10.375 7.55835 10.5042 7.24585 10.7625 6.98751C11.0209 6.72918 11.3334 6.60001 11.7 6.60001C12.0667 6.60001 12.3792 6.72918 12.6375 6.98751C12.8959 7.24585 13.025 7.55835 13.025 7.92501V11.45Z" fill="currentColor"/>
</g>
</svg>
