<svg width="24" height="24" viewBox="0 0 24 24" fill="none" xmlns="http://www.w3.org/2000/svg">
<mask id="mask0_754_1397" style="mask-type:alpha" maskUnits="userSpaceOnUse" x="0" y="0" width="24" height="24">
<rect width="24" height="24" fill="currentColor"/>
</mask>
<g mask="url(#mask0_754_1397)">
<path d="M12.0249 11.15L8.2499 14.925C7.9999 15.175 7.69157 15.3 7.3249 15.3C6.95824 15.3 6.6499 15.175 6.3999 14.925C6.1499 14.675 6.0249 14.3666 6.0249 14C6.0249 13.6333 6.1499 13.325 6.3999 13.075L11.0999 8.37498C11.3666 8.10831 11.6749 7.97498 12.0249 7.97498C12.3749 7.97498 12.6832 8.10831 12.9499 8.37498L17.6499 13.075C17.8999 13.325 18.0249 13.6333 18.0249 14C18.0249 14.3666 17.8999 14.675 17.6499 14.925C17.3999 15.175 17.0916 15.3 16.7249 15.3C16.3582 15.3 16.0499 15.175 15.7999 14.925L12.0249 11.15Z" fill="currentColor"/>
</g>
</svg>
