<svg width="24" height="24" viewBox="0 0 24 24" fill="none" xmlns="http://www.w3.org/2000/svg">
<mask id="mask0_737_1291" style="mask-type:alpha" maskUnits="userSpaceOnUse" x="0" y="0" width="24" height="24">
<rect width="24" height="24" fill="currentColor"/>
</mask>
<g mask="url(#mask0_737_1291)">
<path d="M12 11.95C11.6333 11.95 11.3208 11.8208 11.0625 11.5625C10.8041 11.3042 10.675 10.9917 10.675 10.625V2.575C10.675 2.20833 10.8041 1.89583 11.0625 1.6375C11.3208 1.37917 11.6333 1.25 12 1.25C12.3666 1.25 12.6791 1.37917 12.9375 1.6375C13.1958 1.89583 13.325 2.20833 13.325 2.575V10.625C13.325 10.9917 13.1958 11.3042 12.9375 11.5625C12.6791 11.8208 12.3666 11.95 12 11.95ZM12 21.75C10.65 21.75 9.37912 21.4917 8.18745 20.975C6.99578 20.4583 5.95828 19.7583 5.07495 18.875C4.19162 17.9917 3.49162 16.9542 2.97495 15.7625C2.45828 14.5708 2.19995 13.3 2.19995 11.95C2.19995 10.8667 2.35828 9.82083 2.67495 8.8125C2.99162 7.80417 3.48328 6.875 4.14995 6.025C4.38328 5.725 4.69162 5.55833 5.07495 5.525C5.45828 5.49167 5.79162 5.61667 6.07495 5.9C6.30828 6.13333 6.42912 6.41667 6.43745 6.75C6.44578 7.08333 6.35828 7.39167 6.17495 7.675C5.74162 8.30833 5.41245 8.9875 5.18745 9.7125C4.96245 10.4375 4.84995 11.1833 4.84995 11.95C4.84995 13.9333 5.54578 15.6208 6.93745 17.0125C8.32912 18.4042 10.0166 19.1 12 19.1C13.9833 19.1 15.6708 18.4042 17.0625 17.0125C18.4541 15.6208 19.15 13.9333 19.15 11.95C19.15 11.15 19.0333 10.3792 18.8 9.6375C18.5666 8.89583 18.2166 8.20833 17.75 7.575C17.5666 7.30833 17.4833 7.02083 17.5 6.7125C17.5166 6.40417 17.6416 6.13333 17.875 5.9C18.1583 5.61667 18.5083 5.49583 18.925 5.5375C19.3416 5.57917 19.675 5.76667 19.925 6.1C20.5583 6.95 21.0291 7.875 21.3375 8.875C21.6458 9.875 21.8 10.9 21.8 11.95C21.8 13.3 21.5416 14.5708 21.025 15.7625C20.5083 16.9542 19.8083 17.9917 18.925 18.875C18.0416 19.7583 17.0041 20.4583 15.8125 20.975C14.6208 21.4917 13.35 21.75 12 21.75Z" fill="currentColor"/>
</g>
</svg>
