<svg width="24" height="24" viewBox="0 0 24 24" fill="none" xmlns="http://www.w3.org/2000/svg">
<mask id="mask0_737_1300" style="mask-type:alpha" maskUnits="userSpaceOnUse" x="0" y="0" width="24" height="24">
<rect width="24" height="24" fill="currentColor"/>
</mask>
<g mask="url(#mask0_737_1300)">
<path d="M18.5251 13.8499L16.8001 15.575C16.5501 15.825 16.2418 15.95 15.8751 15.95C15.5084 15.95 15.2001 15.825 14.9501 15.575C14.7001 15.325 14.5751 15.0166 14.5751 14.65C14.5751 14.2833 14.7001 13.9749 14.9501 13.7249L16.6751 11.9999L14.9501 10.275C14.7001 10.025 14.5751 9.71662 14.5751 9.34995C14.5751 8.98328 14.7001 8.67495 14.9501 8.42495C15.2001 8.17495 15.5084 8.04995 15.8751 8.04995C16.2418 8.04995 16.5501 8.17495 16.8001 8.42495L18.5251 10.15L20.2501 8.42495C20.5001 8.17495 20.8084 8.04995 21.1751 8.04995C21.5418 8.04995 21.8501 8.17495 22.1001 8.42495C22.3501 8.67495 22.4751 8.98328 22.4751 9.34995C22.4751 9.71662 22.3501 10.025 22.1001 10.275L20.3751 11.9999L22.1001 13.7249C22.3501 13.9749 22.4751 14.2833 22.4751 14.65C22.4751 15.0166 22.3501 15.325 22.1001 15.575C21.8501 15.825 21.5418 15.95 21.1751 15.95C20.8084 15.95 20.5001 15.825 20.2501 15.575L18.5251 13.8499ZM6.3251 15.4999H3.3001C2.93343 15.4999 2.62093 15.3708 2.3626 15.1124C2.10426 14.8541 1.9751 14.5416 1.9751 14.1749V9.82495C1.9751 9.45828 2.10426 9.14578 2.3626 8.88745C2.62093 8.62912 2.93343 8.49995 3.3001 8.49995H6.3251L9.7501 5.02495C10.1668 4.59162 10.6501 4.49578 11.2001 4.73745C11.7501 4.97912 12.0251 5.39162 12.0251 5.97495V18.025C12.0251 18.6083 11.7501 19.0208 11.2001 19.2625C10.6501 19.5041 10.1668 19.4083 9.7501 18.9749L6.3251 15.4999Z" fill="currentColor"/>
</g>
</svg>
