<svg width="24" height="24" viewBox="0 0 24 24" fill="none" xmlns="http://www.w3.org/2000/svg">
<mask id="mask0_737_1320" style="mask-type:alpha" maskUnits="userSpaceOnUse" x="0" y="0" width="24" height="24">
<rect width="24" height="24" fill="currentColor"/>
</mask>
<g mask="url(#mask0_737_1320)">
<path d="M8.34995 16.325C8.71662 16.325 9.02912 16.1958 9.28745 15.9375C9.54579 15.6791 9.67495 15.3666 9.67495 15V8.99995C9.67495 8.63328 9.54579 8.32078 9.28745 8.06245C9.02912 7.80412 8.71662 7.67495 8.34995 7.67495C7.98328 7.67495 7.67078 7.80412 7.41245 8.06245C7.15412 8.32078 7.02495 8.63328 7.02495 8.99995V15C7.02495 15.3666 7.15412 15.6791 7.41245 15.9375C7.67078 16.1958 7.98328 16.325 8.34995 16.325ZM13.225 15.575L17.325 12.825C17.625 12.6275 17.775 12.353 17.775 12.0017C17.775 11.6505 17.625 11.375 17.325 11.175L13.225 8.42495C12.8916 8.19162 12.55 8.17003 12.2 8.3602C11.85 8.55053 11.675 8.84712 11.675 9.24995V14.75C11.675 15.1528 11.85 15.4494 12.2 15.6397C12.55 15.8299 12.8916 15.8083 13.225 15.575ZM12 22.8C10.506 22.8 9.10195 22.5165 7.78795 21.9495C6.47395 21.3825 5.33095 20.613 4.35895 19.641C3.38695 18.669 2.61745 17.526 2.05045 16.212C1.48345 14.898 1.19995 13.494 1.19995 12C1.19995 10.5016 1.48395 9.09362 2.05195 7.77595C2.61995 6.45812 3.39078 5.31187 4.36445 4.3372C5.33812 3.36237 6.48112 2.59578 7.79345 2.03745C9.10578 1.47912 10.508 1.19995 12 1.19995C13.4981 1.19995 14.906 1.47912 16.2235 2.03745C17.5411 2.59578 18.6875 3.36245 19.6625 4.33745C20.6375 5.31245 21.4041 6.45895 21.9625 7.77695C22.5208 9.09512 22.8 10.5035 22.8 12.002C22.8 13.5006 22.5208 14.9041 21.9625 16.2125C21.4041 17.5208 20.6375 18.6618 19.6627 19.6355C18.688 20.6091 17.5418 21.38 16.224 21.948C14.9063 22.516 13.4983 22.8 12 22.8Z" fill="currentColor"/>
</g>
</svg>
