<svg width="24" height="24" viewBox="0 0 24 24" fill="none" xmlns="http://www.w3.org/2000/svg">
<mask id="mask0_737_1317" style="mask-type:alpha" maskUnits="userSpaceOnUse" x="0" y="0" width="24" height="24">
<rect width="24" height="24" fill="currentColor"/>
</mask>
<g mask="url(#mask0_737_1317)">
<path d="M4.52495 19.8001C4.15828 19.8001 3.84578 19.6709 3.58745 19.4126C3.32912 19.1543 3.19995 18.8418 3.19995 18.4751C3.19995 18.1084 3.32912 17.7959 3.58745 17.5376C3.84578 17.2793 4.15828 17.1501 4.52495 17.1501H5.19995V10.1001C5.19995 8.58343 5.65828 7.22093 6.57495 6.0126C7.49162 4.80426 8.68328 3.99176 10.15 3.5751V3.0751C10.15 2.56126 10.3301 2.12443 10.6905 1.7646C11.0508 1.40493 11.4883 1.2251 12.003 1.2251C12.5176 1.2251 12.9541 1.40493 13.3125 1.7646C13.6708 2.12443 13.85 2.56126 13.85 3.0751V3.5751C15.3166 3.99176 16.5125 4.79843 17.4375 5.9951C18.3625 7.19176 18.825 8.5601 18.825 10.1001V17.1501H19.5C19.8666 17.1501 20.1791 17.2793 20.4375 17.5376C20.6958 17.7959 20.825 18.1084 20.825 18.4751C20.825 18.8418 20.6958 19.1543 20.4375 19.4126C20.1791 19.6709 19.8666 19.8001 19.5 19.8001H4.52495ZM11.999 23.1001C11.3663 23.1001 10.825 22.8748 10.375 22.4243C9.92495 21.974 9.69995 21.4326 9.69995 20.8001H14.3C14.3 21.4334 14.0746 21.9751 13.624 22.4251C13.1735 22.8751 12.6318 23.1001 11.999 23.1001Z" fill="currentColor"/>
</g>
</svg>
