<svg width="24" height="24" viewBox="0 0 24 24" fill="none" xmlns="http://www.w3.org/2000/svg">
<mask id="mask0_737_1271" style="mask-type:alpha" maskUnits="userSpaceOnUse" x="0" y="0" width="24" height="24">
<rect width="24" height="24" fill="currentColor"/>
</mask>
<g mask="url(#mask0_737_1271)">
<path d="M4.84995 21.8C4.12112 21.8 3.49728 21.5405 2.97845 21.0215C2.45945 20.5027 2.19995 19.8788 2.19995 19.15V4.85001C2.19995 4.12135 2.45945 3.49751 2.97845 2.97851C3.49728 2.45951 4.12112 2.20001 4.84995 2.20001H11.15C11.5166 2.20001 11.8291 2.32918 12.0875 2.58751C12.3458 2.84585 12.475 3.15835 12.475 3.52501C12.475 3.89168 12.3458 4.20418 12.0875 4.46251C11.8291 4.72085 11.5166 4.85001 11.15 4.85001H4.84995V19.15H19.15V12.85C19.15 12.4833 19.2791 12.1708 19.5375 11.9125C19.7958 11.6542 20.1083 11.525 20.475 11.525C20.8416 11.525 21.1541 11.6542 21.4125 11.9125C21.6708 12.1708 21.8 12.4833 21.8 12.85V19.15C21.8 19.8788 21.5405 20.5027 21.0215 21.0215C20.5025 21.5405 19.8786 21.8 19.15 21.8H4.84995ZM19.15 6.70001L10.55 15.3C10.3 15.55 9.99162 15.675 9.62495 15.675C9.25828 15.675 8.94995 15.55 8.69995 15.3C8.44995 15.05 8.32495 14.7417 8.32495 14.375C8.32495 14.0083 8.44995 13.7 8.69995 13.45L17.3 4.85001H15.8C15.4333 4.85001 15.1208 4.72085 14.8625 4.46251C14.6041 4.20418 14.475 3.89168 14.475 3.52501C14.475 3.15835 14.6041 2.84585 14.8625 2.58751C15.1208 2.32918 15.4333 2.20001 15.8 2.20001H20.475C20.8416 2.20001 21.1541 2.32918 21.4125 2.58751C21.6708 2.84585 21.8 3.15835 21.8 3.52501V8.20001C21.8 8.56668 21.6708 8.87918 21.4125 9.13751C21.1541 9.39585 20.8416 9.52501 20.475 9.52501C20.1083 9.52501 19.7958 9.39585 19.5375 9.13751C19.2791 8.87918 19.15 8.56668 19.15 8.20001V6.70001Z" fill="currentColor"/>
</g>
</svg>
