<svg width="24" height="24" viewBox="0 0 24 24" fill="none" xmlns="http://www.w3.org/2000/svg">
<mask id="mask0_737_1299" style="mask-type:alpha" maskUnits="userSpaceOnUse" x="0" y="0" width="24" height="24">
<rect width="24" height="24" fill="currentColor"/>
</mask>
<g mask="url(#mask0_737_1299)">
<path d="M6.67505 6.50002C5.95838 7.20002 5.38755 8.02085 4.96255 8.96252C4.53755 9.90418 4.32505 10.9167 4.32505 12C4.32505 13.7833 4.88755 15.3583 6.01255 16.725C7.13755 18.0917 8.55838 19 10.275 19.45C10.6084 19.5333 10.8667 19.7208 11.05 20.0125C11.2334 20.3042 11.325 20.625 11.325 20.975C11.325 21.325 11.2209 21.6208 11.0125 21.8625C10.8042 22.1042 10.55 22.1917 10.25 22.125C7.86672 21.6417 5.84172 20.4625 4.17505 18.5875C2.50838 16.7125 1.67505 14.5167 1.67505 12C1.67505 10.5833 1.93338 9.26668 2.45005 8.05002C2.96672 6.83335 3.68338 5.75835 4.60005 4.82502H4.27505C3.90838 4.82502 3.59588 4.69585 3.33755 4.43752C3.07922 4.17918 2.95005 3.86668 2.95005 3.50002C2.95005 3.13335 3.07922 2.82085 3.33755 2.56252C3.59588 2.30418 3.90838 2.17502 4.27505 2.17502H8.00005C8.36672 2.17502 8.67922 2.30418 8.93755 2.56252C9.19588 2.82085 9.32505 3.13335 9.32505 3.50002V7.22502C9.32505 7.59168 9.19588 7.90418 8.93755 8.16252C8.67922 8.42085 8.36672 8.55002 8.00005 8.55002C7.63338 8.55002 7.32088 8.42085 7.06255 8.16252C6.80422 7.90418 6.67505 7.59168 6.67505 7.22502V6.50002ZM10.575 13.35L15.325 8.60002C15.575 8.35002 15.8834 8.22502 16.25 8.22502C16.6167 8.22502 16.925 8.35002 17.175 8.60002C17.425 8.85002 17.55 9.15835 17.55 9.52502C17.55 9.89168 17.425 10.2 17.175 10.45L11.5 16.125C11.2334 16.3917 10.925 16.525 10.575 16.525C10.225 16.525 9.91672 16.3917 9.65005 16.125L6.82505 13.3C6.57505 13.05 6.45005 12.7417 6.45005 12.375C6.45005 12.0083 6.57505 11.7 6.82505 11.45C7.07505 11.2 7.38338 11.075 7.75005 11.075C8.11672 11.075 8.42505 11.2 8.67505 11.45L10.575 13.35ZM19.4 19.175H19.725C20.0917 19.175 20.4042 19.3042 20.6625 19.5625C20.9209 19.8208 21.05 20.1333 21.05 20.5C21.05 20.8667 20.9209 21.1792 20.6625 21.4375C20.4042 21.6958 20.0917 21.825 19.725 21.825H16C15.6334 21.825 15.3209 21.6958 15.0625 21.4375C14.8042 21.1792 14.675 20.8667 14.675 20.5V16.775C14.675 16.4083 14.8042 16.0958 15.0625 15.8375C15.3209 15.5792 15.6334 15.45 16 15.45C16.3667 15.45 16.6792 15.5792 16.9375 15.8375C17.1959 16.0958 17.325 16.4083 17.325 16.775V17.5C18.0417 16.8 18.6125 15.9792 19.0375 15.0375C19.4625 14.0958 19.675 13.0833 19.675 12C19.675 10.2167 19.1125 8.64168 17.9875 7.27502C16.8625 5.90835 15.4417 5.00002 13.725 4.55002C13.3917 4.46668 13.1334 4.27918 12.95 3.98752C12.7667 3.69585 12.675 3.37502 12.675 3.02502C12.675 2.67502 12.7834 2.37918 13 2.13752C13.2167 1.89585 13.4834 1.80835 13.8 1.87502C16.25 2.35835 18.2834 3.53752 19.9 5.41252C21.5167 7.28752 22.325 9.48335 22.325 12C22.325 13.4167 22.0667 14.7333 21.55 15.95C21.0334 17.1667 20.3167 18.2417 19.4 19.175Z" fill="currentColor"/>
</g>
</svg>
