<svg width="24" height="24" viewBox="0 0 24 24" fill="none" xmlns="http://www.w3.org/2000/svg">
<mask id="mask0_737_1282" style="mask-type:alpha" maskUnits="userSpaceOnUse" x="0" y="0" width="24" height="24">
<rect width="24" height="24" fill="currentColor"/>
</mask>
<g mask="url(#mask0_737_1282)">
<path d="M10.225 22.8C9.79162 22.8 9.40829 22.6542 9.07496 22.3625C8.74162 22.0708 8.54162 21.7083 8.47496 21.275L8.22496 19.425C8.10829 19.3583 7.98329 19.2875 7.84996 19.2125C7.71662 19.1375 7.59162 19.0583 7.47496 18.975L5.69996 19.7C5.28329 19.8833 4.86662 19.9 4.44996 19.75C4.03329 19.6 3.71662 19.3333 3.49996 18.95L1.72496 15.75C1.50829 15.3667 1.44162 14.9667 1.52496 14.55C1.60829 14.1333 1.82496 13.7917 2.17496 13.525L3.62496 12.4V11.5L2.19996 10.425C1.84996 10.1583 1.63329 9.81249 1.54996 9.38749C1.46662 8.96249 1.53329 8.55833 1.74996 8.17499L3.52496 5.04999C3.74162 4.66666 4.05412 4.40416 4.46246 4.26249C4.87079 4.12083 5.28329 4.13333 5.69996 4.29999L7.37496 4.97499C7.50829 4.89166 7.65412 4.80833 7.81246 4.72499C7.97079 4.64166 8.11662 4.55833 8.24996 4.47499L8.47496 2.67499C8.52496 2.24166 8.72079 1.87916 9.06246 1.58749C9.40412 1.29583 9.79162 1.14999 10.225 1.14999H13.775C14.2083 1.14999 14.5958 1.29583 14.9375 1.58749C15.2791 1.87916 15.475 2.24166 15.525 2.67499L15.75 4.49999C15.8833 4.58333 16.0291 4.66666 16.1875 4.74999C16.3458 4.83333 16.4916 4.91666 16.625 4.99999L18.275 4.29999C18.6916 4.11666 19.1041 4.09999 19.5125 4.24999C19.9208 4.39999 20.2416 4.66666 20.475 5.04999L22.25 8.17499C22.4666 8.55833 22.5333 8.96249 22.45 9.38749C22.3666 9.81249 22.15 10.1583 21.8 10.425L20.325 11.55V12.45L21.75 13.525C22.1 13.7917 22.3208 14.1375 22.4125 14.5625C22.5041 14.9875 22.4416 15.3917 22.225 15.775L20.45 18.95C20.2333 19.3333 19.9125 19.6 19.4875 19.75C19.0625 19.9 18.6416 19.8833 18.225 19.7L16.5 18.975C16.3833 19.0417 16.2625 19.1125 16.1375 19.1875C16.0125 19.2625 15.8916 19.3333 15.775 19.4L15.525 21.275C15.4583 21.7083 15.2583 22.0708 14.925 22.3625C14.5916 22.6542 14.2083 22.8 13.775 22.8H10.225ZM11.975 16.15C13.1416 16.15 14.1333 15.7417 14.95 14.925C15.7666 14.1083 16.175 13.1167 16.175 11.95C16.175 10.7833 15.7666 9.79166 14.95 8.97499C14.1333 8.15833 13.1416 7.74999 11.975 7.74999C10.8083 7.74999 9.81662 8.15833 8.99996 8.97499C8.18329 9.79166 7.77496 10.7833 7.77496 11.95C7.77496 13.1167 8.18329 14.1083 8.99996 14.925C9.81662 15.7417 10.8083 16.15 11.975 16.15Z" fill="currentColor"/>
</g>
</svg>
