<svg width="24" height="24" viewBox="0 0 24 24" fill="none" xmlns="http://www.w3.org/2000/svg">
<mask id="mask0_737_1324" style="mask-type:alpha" maskUnits="userSpaceOnUse" x="0" y="0" width="24" height="24">
<rect width="24" height="24" fill="currentColor"/>
</mask>
<g mask="url(#mask0_737_1324)">
<path d="M8.99995 16.325H15C15.3666 16.325 15.6791 16.1958 15.9375 15.9375C16.1958 15.6791 16.325 15.3666 16.325 15V8.99995C16.325 8.63328 16.1958 8.32078 15.9375 8.06245C15.6791 7.80412 15.3666 7.67495 15 7.67495H8.99995C8.63328 7.67495 8.32078 7.80412 8.06245 8.06245C7.80412 8.32078 7.67495 8.63328 7.67495 8.99995V15C7.67495 15.3666 7.80412 15.6791 8.06245 15.9375C8.32078 16.1958 8.63328 16.325 8.99995 16.325ZM12 22.8C10.506 22.8 9.10195 22.5165 7.78795 21.9495C6.47395 21.3825 5.33095 20.613 4.35895 19.641C3.38695 18.669 2.61745 17.526 2.05045 16.212C1.48345 14.898 1.19995 13.494 1.19995 12C1.19995 10.5016 1.48395 9.09362 2.05195 7.77595C2.61995 6.45812 3.39078 5.31187 4.36445 4.3372C5.33812 3.36237 6.48112 2.59578 7.79345 2.03745C9.10578 1.47912 10.508 1.19995 12 1.19995C13.4981 1.19995 14.906 1.47912 16.2235 2.03745C17.5411 2.59578 18.6875 3.36245 19.6625 4.33745C20.6375 5.31245 21.4041 6.45895 21.9625 7.77695C22.5208 9.09512 22.8 10.5035 22.8 12.002C22.8 13.5006 22.5208 14.9041 21.9625 16.2125C21.4041 17.5208 20.6375 18.6618 19.6627 19.6355C18.688 20.6091 17.5418 21.38 16.224 21.948C14.9063 22.516 13.4983 22.8 12 22.8Z" fill="currentColor"/>
</g>
</svg>
