<svg width="20" height="20" viewBox="0 0 20 20" fill="none" xmlns="http://www.w3.org/2000/svg">
<path d="M18 0C18.55 0 19.0204 0.196224 19.4121 0.587891C19.8038 0.979557 20 1.45 20 2V20L16 16H2C1.45 16 0.979557 15.8038 0.587891 15.4121C0.196224 15.0204 0 14.55 0 14V2C0 1.45 0.196224 0.979557 0.587891 0.587891C0.979557 0.196224 1.45 0 2 0H18ZM11.6357 3C11.2121 3 10.8542 3.14583 10.5625 3.4375L5 8.97949V12H8.04199L13.5664 6.45605C13.8554 6.16602 14.0037 5.81506 14.0107 5.40332C14.0177 4.99124 13.8747 4.64158 13.583 4.35449L12.708 3.45801C12.4165 3.15275 12.0591 3.00008 11.6357 3ZM12.5 5.39551L11.583 6.33301L10.667 5.4375L11.6045 4.52051L12.5 5.39551Z" fill="#1C1B1F"/>
</svg>
