<svg width="20" height="21" viewBox="0 0 20 21" fill="none" xmlns="http://www.w3.org/2000/svg">
<path d="M9.9842 20.0125C8.62137 20.0125 7.33712 19.7519 6.13145 19.2307C4.92562 18.7096 3.8727 17.999 2.9727 17.099C2.0727 16.199 1.36212 15.1461 0.840954 13.9402C0.319787 12.7346 0.0592041 11.4503 0.0592041 10.0875C0.0592041 8.16564 0.562454 6.39356 1.56895 4.77122C2.57529 3.14872 3.94829 1.93814 5.68795 1.13947C6.17012 0.922806 6.63104 0.937889 7.0707 1.18472C7.51037 1.43139 7.7482 1.79581 7.7842 2.27797C7.88804 3.60231 8.18037 4.86989 8.6612 6.08072C9.14187 7.29172 9.84762 8.36256 10.7785 9.29322C11.7091 10.2241 12.7767 10.9324 13.9812 11.4182C15.1857 11.9042 16.4501 12.1825 17.7745 12.253C18.2438 12.2721 18.6108 12.4798 18.8755 12.876C19.1403 13.2721 19.181 13.6914 18.9977 14.1337C18.245 15.9466 17.0475 17.3796 15.4052 18.4327C13.763 19.4859 11.956 20.0125 9.9842 20.0125Z" fill="#1C1B1F"/>
</svg>
