<svg width="24" height="24" viewBox="0 0 24 24" fill="none" xmlns="http://www.w3.org/2000/svg">
<mask id="mask0_738_1355" style="mask-type:alpha" maskUnits="userSpaceOnUse" x="0" y="0" width="24" height="24">
<rect width="24" height="24" fill="currentColor"/>
</mask>
<g mask="url(#mask0_738_1355)">
<path d="M10.675 13.3H5.52495C5.15828 13.3 4.84578 13.1708 4.58745 12.9125C4.32912 12.6542 4.19995 12.3417 4.19995 11.975C4.19995 11.6083 4.32912 11.2958 4.58745 11.0375C4.84578 10.7792 5.15828 10.65 5.52495 10.65H10.675V5.5C10.675 5.13334 10.8041 4.82084 11.0625 4.5625C11.3208 4.30417 11.6333 4.175 12 4.175C12.3666 4.175 12.6791 4.30417 12.9375 4.5625C13.1958 4.82084 13.325 5.13334 13.325 5.5V10.65H18.475C18.8416 10.65 19.1541 10.7792 19.4125 11.0375C19.6708 11.2958 19.8 11.6083 19.8 11.975C19.8 12.3417 19.6708 12.6542 19.4125 12.9125C19.1541 13.1708 18.8416 13.3 18.475 13.3H13.325V18.45C13.325 18.8167 13.1958 19.1292 12.9375 19.3875C12.6791 19.6458 12.3666 19.775 12 19.775C11.6333 19.775 11.3208 19.6458 11.0625 19.3875C10.8041 19.1292 10.675 18.8167 10.675 18.45V13.3Z" fill="currentColor"/>
</g>
</svg>
