<svg xmlns="http://www.w3.org/2000/svg" width="21" height="20" fill="none" viewBox="0 0 21 20"><g clip-path="url(#a)"><mask id="b" width="24" height="24" x="0" y="0" maskUnits="userSpaceOnUse" style="mask-type:alpha"><path fill="currentColor" d="M.583 0h23.083v23.083H.583z"/></mask><g mask="url(#b)"><path fill="currentColor" d="m5.458 14.753-2 2q-.52.52-1.198.23-.677-.293-.677-1.022V2.378q0-.917.646-1.563Q2.874.17 3.792.17h13.583q.917 0 1.562.645.646.647.646 1.563v10.167q0 .916-.646 1.562-.645.645-1.562.646zM9.48 8.545v1.437q0 .459.323.781.323.324.781.323.459 0 .781-.323.323-.323.323-.78V8.544h1.438q.459 0 .781-.323.323-.323.323-.782 0-.458-.323-.78a1.06 1.06 0 0 0-.781-.324h-1.438V4.9q0-.459-.322-.781a1.06 1.06 0 0 0-.782-.323q-.458 0-.781.323a1.06 1.06 0 0 0-.323.78v1.438H8.042q-.458 0-.782.323a1.06 1.06 0 0 0-.323.781q0 .458.323.782.324.323.782.323z"/></g></g><defs><clipPath id="a"><path fill="#fff" d="M.583 0h20v20h-20z"/></clipPath></defs></svg>