<svg width="24" height="24" viewBox="0 0 24 24" fill="none" xmlns="http://www.w3.org/2000/svg">
<mask id="mask0_737_1294" style="mask-type:alpha" maskUnits="userSpaceOnUse" x="0" y="0" width="24" height="24">
<rect width="24" height="24" fill="currentColor"/>
</mask>
<g mask="url(#mask0_737_1294)">
<path d="M5.5 21C4.8 21 4.20833 20.7583 3.725 20.275C3.24167 19.7917 3 19.2 3 18.5C3 17.8 3.24167 17.2083 3.725 16.725C4.20833 16.2417 4.8 16 5.5 16C6.2 16 6.79167 16.2417 7.275 16.725C7.75833 17.2083 8 17.8 8 18.5C8 19.2 7.75833 19.7917 7.275 20.275C6.79167 20.7583 6.2 21 5.5 21ZM12 21C11.3 21 10.7083 20.7583 10.225 20.275C9.74167 19.7917 9.5 19.2 9.5 18.5C9.5 17.8 9.74167 17.2083 10.225 16.725C10.7083 16.2417 11.3 16 12 16C12.7 16 13.2917 16.2417 13.775 16.725C14.2583 17.2083 14.5 17.8 14.5 18.5C14.5 19.2 14.2583 19.7917 13.775 20.275C13.2917 20.7583 12.7 21 12 21ZM18.5 21C17.8 21 17.2083 20.7583 16.725 20.275C16.2417 19.7917 16 19.2 16 18.5C16 17.8 16.2417 17.2083 16.725 16.725C17.2083 16.2417 17.8 16 18.5 16C19.2 16 19.7917 16.2417 20.275 16.725C20.7583 17.2083 21 17.8 21 18.5C21 19.2 20.7583 19.7917 20.275 20.275C19.7917 20.7583 19.2 21 18.5 21ZM5.5 14.5C4.8 14.5 4.20833 14.2583 3.725 13.775C3.24167 13.2917 3 12.7 3 12C3 11.3 3.24167 10.7083 3.725 10.225C4.20833 9.74167 4.8 9.5 5.5 9.5C6.2 9.5 6.79167 9.74167 7.275 10.225C7.75833 10.7083 8 11.3 8 12C8 12.7 7.75833 13.2917 7.275 13.775C6.79167 14.2583 6.2 14.5 5.5 14.5ZM12 14.5C11.3 14.5 10.7083 14.2583 10.225 13.775C9.74167 13.2917 9.5 12.7 9.5 12C9.5 11.3 9.74167 10.7083 10.225 10.225C10.7083 9.74167 11.3 9.5 12 9.5C12.7 9.5 13.2917 9.74167 13.775 10.225C14.2583 10.7083 14.5 11.3 14.5 12C14.5 12.7 14.2583 13.2917 13.775 13.775C13.2917 14.2583 12.7 14.5 12 14.5ZM18.5 14.5C17.8 14.5 17.2083 14.2583 16.725 13.775C16.2417 13.2917 16 12.7 16 12C16 11.3 16.2417 10.7083 16.725 10.225C17.2083 9.74167 17.8 9.5 18.5 9.5C19.2 9.5 19.7917 9.74167 20.275 10.225C20.7583 10.7083 21 11.3 21 12C21 12.7 20.7583 13.2917 20.275 13.775C19.7917 14.2583 19.2 14.5 18.5 14.5ZM5.5 8C4.8 8 4.20833 7.75833 3.725 7.275C3.24167 6.79167 3 6.2 3 5.5C3 4.8 3.24167 4.20833 3.725 3.725C4.20833 3.24167 4.8 3 5.5 3C6.2 3 6.79167 3.24167 7.275 3.725C7.75833 4.20833 8 4.8 8 5.5C8 6.2 7.75833 6.79167 7.275 7.275C6.79167 7.75833 6.2 8 5.5 8ZM12 8C11.3 8 10.7083 7.75833 10.225 7.275C9.74167 6.79167 9.5 6.2 9.5 5.5C9.5 4.8 9.74167 4.20833 10.225 3.725C10.7083 3.24167 11.3 3 12 3C12.7 3 13.2917 3.24167 13.775 3.725C14.2583 4.20833 14.5 4.8 14.5 5.5C14.5 6.2 14.2583 6.79167 13.775 7.275C13.2917 7.75833 12.7 8 12 8ZM18.5 8C17.8 8 17.2083 7.75833 16.725 7.275C16.2417 6.79167 16 6.2 16 5.5C16 4.8 16.2417 4.20833 16.725 3.725C17.2083 3.24167 17.8 3 18.5 3C19.2 3 19.7917 3.24167 20.275 3.725C20.7583 4.20833 21 4.8 21 5.5C21 6.2 20.7583 6.79167 20.275 7.275C19.7917 7.75833 19.2 8 18.5 8Z" fill="currentColor"/>
</g>
</svg>
