<svg width="21" height="20" viewBox="0 0 21 20" fill="none" xmlns="http://www.w3.org/2000/svg">
<mask id="mask0_584_150" style="mask-type:alpha" maskUnits="userSpaceOnUse" x="0" y="0" width="21" height="20">
<rect x="0.916504" width="20" height="20" fill="#D9D9D9"/>
</mask>
<g mask="url(#mask0_584_150)">
<path d="M4.66667 18.1667C4.13889 18.1667 3.6875 17.9861 3.3125 17.625C2.9375 17.2639 2.75 16.8194 2.75 16.2917V5.35416C2.75 5.10416 2.79514 4.85763 2.88542 4.61458C2.97569 4.37152 3.09722 4.15277 3.25 3.95833L4.3125 2.66666C4.52083 2.40277 4.77431 2.19791 5.07292 2.05208C5.37153 1.90624 5.6875 1.83333 6.02083 1.83333H15.8125C16.1319 1.83333 16.441 1.90972 16.7396 2.06249C17.0382 2.21527 17.2917 2.41666 17.5 2.66666L18.5625 3.89583C18.7292 4.09027 18.8576 4.30902 18.9479 4.55208C19.0382 4.79513 19.0833 5.04861 19.0833 5.3125V16.2917C19.0833 16.8194 18.8958 17.2639 18.5208 17.625C18.1458 17.9861 17.6944 18.1667 17.1667 18.1667H4.66667ZM5.35417 4.875H16.5L15.7917 4.04166H6.04167L5.35417 4.875ZM10.9167 7.66666C10.6111 7.66666 10.3507 7.7743 10.1354 7.98958C9.92014 8.20486 9.8125 8.46527 9.8125 8.77083V11.0208L9.4375 10.6458C9.21528 10.4236 8.95486 10.316 8.65625 10.3229C8.35764 10.3299 8.10417 10.4444 7.89583 10.6667C7.6875 10.8889 7.58681 11.1493 7.59375 11.4479C7.60069 11.7465 7.70833 12 7.91667 12.2083L10.1458 14.4375C10.3681 14.6597 10.625 14.7708 10.9167 14.7708C11.2083 14.7708 11.4653 14.6597 11.6875 14.4375L13.9375 12.1875C14.1458 11.9792 14.25 11.7292 14.25 11.4375C14.25 11.1458 14.1458 10.8889 13.9375 10.6667C13.7292 10.4444 13.4722 10.3333 13.1667 10.3333C12.8611 10.3333 12.5972 10.4444 12.375 10.6667L12.0208 11.0208V8.77083C12.0208 8.46527 11.9132 8.20486 11.6979 7.98958C11.4826 7.7743 11.2222 7.66666 10.9167 7.66666Z" fill="#1C1B1F"/>
</g>
</svg>
