<svg xmlns="http://www.w3.org/2000/svg" width="21" height="20" fill="none" viewBox="0 0 21 20"><g clip-path="url(#a)"><mask id="b" width="24" height="24" x="0" y="0" maskUnits="userSpaceOnUse" style="mask-type:alpha"><path fill="currentColor" d="M.833 0h23.083v23.083H.833z"/></mask><g mask="url(#b)"><path fill="currentColor" d="M10.917 18.174q-1.792 0-3.375-.688a8.8 8.8 0 0 1-2.76-1.864 8.8 8.8 0 0 1-1.865-2.76 8.4 8.4 0 0 1-.688-3.376 8.66 8.66 0 0 1 1.459-4.875 8.1 8.1 0 0 1 3.937-3.166q.667-.27 1.26.093.594.365.615 1.032a9.9 9.9 0 0 0 .615 3.229 7.5 7.5 0 0 0 1.76 2.73 7.65 7.65 0 0 0 2.73 1.77 9 9 0 0 0 3.228.583q.667 0 1.042.532.375.531.146 1.156-.917 2.563-3.146 4.083t-4.958 1.52"/></g></g><defs><clipPath id="a"><path fill="#fff" d="M.833 0h20v20h-20z"/></clipPath></defs></svg>