<svg width="24" height="24" viewBox="0 0 24 24" fill="none" xmlns="http://www.w3.org/2000/svg">
<mask id="mask0_737_1292" style="mask-type:alpha" maskUnits="userSpaceOnUse" x="0" y="0" width="24" height="24">
<rect width="24" height="24" fill="currentColor"/>
</mask>
<g mask="url(#mask0_737_1292)">
<path d="M12.1 22.325C10.6667 22.325 9.31672 22.05 8.05005 21.5C6.78338 20.95 5.67922 20.2041 4.73755 19.2625C3.79588 18.3208 3.05005 17.2166 2.50005 15.95C1.95005 14.6833 1.67505 13.3333 1.67505 11.9C1.67505 9.76664 2.25838 7.81664 3.42505 6.04997C4.59172 4.28331 6.16672 3.01664 8.15005 2.24997C8.68338 2.03331 9.18755 2.07081 9.66255 2.36247C10.1375 2.65414 10.3834 3.06664 10.4 3.59997C10.4334 4.94997 10.6792 6.24164 11.1375 7.47498C11.5959 8.70831 12.3 9.79998 13.25 10.75C14.2 11.7 15.2917 12.4083 16.525 12.875C17.7584 13.3416 19.05 13.575 20.4 13.575C20.9334 13.575 21.35 13.7875 21.65 14.2125C21.95 14.6375 22.0084 15.1 21.825 15.6C21.0917 17.65 19.8334 19.2833 18.05 20.5C16.2667 21.7166 14.2834 22.325 12.1 22.325Z" fill="currentColor"/>
</g>
</svg>
