<svg width="24" height="24" viewBox="0 0 24 24" fill="none" xmlns="http://www.w3.org/2000/svg">
<mask id="mask0_737_1278" style="mask-type:alpha" maskUnits="userSpaceOnUse" x="0" y="0" width="24" height="24">
<rect width="24" height="24" fill="currentColor"/>
</mask>
<g mask="url(#mask0_737_1278)">
<path d="M11.425 15.175C11.0916 15.1083 10.7791 15.0042 10.4875 14.8625C10.1958 14.7208 9.93328 14.5333 9.69995 14.3C9.39995 14 9.16662 13.6542 8.99995 13.2625C8.83328 12.8708 8.74995 12.4583 8.74995 12.025C8.74995 11.8917 8.76245 11.7583 8.78745 11.625C8.81245 11.4917 8.84162 11.3583 8.87495 11.225C8.95828 10.9417 8.95412 10.675 8.86245 10.425C8.77078 10.175 8.59995 9.98333 8.34995 9.85C8.09995 9.71666 7.84162 9.69583 7.57495 9.7875C7.30828 9.87916 7.13328 10.0583 7.04995 10.325C6.96662 10.6083 6.89578 10.8875 6.83745 11.1625C6.77912 11.4375 6.74995 11.7167 6.74995 12C6.74995 12.7 6.88328 13.375 7.14995 14.025C7.41662 14.675 7.79162 15.2417 8.27495 15.725C8.69162 16.1417 9.16662 16.475 9.69995 16.725C10.2333 16.975 10.7916 17.1333 11.375 17.2L11.325 17.25C11.1416 17.45 11.0541 17.6875 11.0625 17.9625C11.0708 18.2375 11.1666 18.4667 11.35 18.65C11.5333 18.8333 11.7666 18.925 12.05 18.925C12.3333 18.925 12.5666 18.8333 12.75 18.65L14.3 17.1C14.5666 16.8333 14.7 16.5208 14.7 16.1625C14.7 15.8042 14.5666 15.4917 14.3 15.225L12.775 13.7C12.5916 13.5167 12.3625 13.425 12.0875 13.425C11.8125 13.425 11.575 13.5167 11.375 13.7C11.175 13.9 11.075 14.1375 11.075 14.4125C11.075 14.6875 11.175 14.925 11.375 15.125L11.425 15.175ZM12.575 8.825C12.9083 8.89166 13.2208 8.99583 13.5125 9.1375C13.8041 9.27916 14.0666 9.46666 14.3 9.7C14.6 10 14.8333 10.3458 15 10.7375C15.1666 11.1292 15.25 11.5417 15.25 11.975C15.25 12.1083 15.2416 12.2375 15.225 12.3625C15.2083 12.4875 15.1833 12.6167 15.15 12.75C15.0666 13.0333 15.0791 13.3 15.1875 13.55C15.2958 13.8 15.475 13.9667 15.725 14.05C16.0083 14.15 16.275 14.1417 16.525 14.025C16.775 13.9083 16.9416 13.7083 17.025 13.425C17.0916 13.1917 17.1458 12.9542 17.1875 12.7125C17.2291 12.4708 17.25 12.2333 17.25 12C17.25 11.3 17.1166 10.625 16.85 9.975C16.5833 9.325 16.2083 8.75833 15.725 8.275C15.3083 7.85833 14.8333 7.525 14.3 7.275C13.7666 7.025 13.2083 6.86666 12.625 6.8L12.675 6.75C12.8583 6.55 12.9458 6.3125 12.9375 6.0375C12.9291 5.7625 12.8333 5.53333 12.65 5.35C12.4666 5.16666 12.2333 5.075 11.95 5.075C11.6666 5.075 11.4333 5.16666 11.25 5.35L9.69995 6.9C9.43328 7.16666 9.29995 7.47916 9.29995 7.8375C9.29995 8.19583 9.43328 8.50833 9.69995 8.775L11.225 10.3C11.4083 10.4833 11.6375 10.575 11.9125 10.575C12.1875 10.575 12.425 10.4833 12.625 10.3C12.825 10.1 12.925 9.8625 12.925 9.5875C12.925 9.3125 12.825 9.075 12.625 8.875L12.575 8.825ZM12 22.8C10.5 22.8 9.09578 22.5167 7.78745 21.95C6.47912 21.3833 5.33745 20.6125 4.36245 19.6375C3.38745 18.6625 2.61662 17.5208 2.04995 16.2125C1.48328 14.9042 1.19995 13.5 1.19995 12C1.19995 10.5 1.48328 9.09166 2.04995 7.775C2.61662 6.45833 3.38745 5.3125 4.36245 4.3375C5.33745 3.3625 6.47912 2.59583 7.78745 2.0375C9.09578 1.47916 10.5 1.2 12 1.2C13.5 1.2 14.9083 1.47916 16.225 2.0375C17.5416 2.59583 18.6875 3.3625 19.6625 4.3375C20.6375 5.3125 21.4041 6.45833 21.9625 7.775C22.5208 9.09166 22.8 10.5 22.8 12C22.8 13.5 22.5208 14.9042 21.9625 16.2125C21.4041 17.5208 20.6375 18.6625 19.6625 19.6375C18.6875 20.6125 17.5416 21.3833 16.225 21.95C14.9083 22.5167 13.5 22.8 12 22.8Z" fill="currentColor"/>
</g>
</svg>
