<svg xmlns="http://www.w3.org/2000/svg" width="22" height="20" fill="none" viewBox="0 0 22 20"><mask id="a" width="22" height="22" x="0" y="0" maskUnits="userSpaceOnUse" style="mask-type:alpha"><path fill="#d9d9d9" d="M.5 0h21.083v21.083H.5z"/></mask><g mask="url(#a)"><path fill="#1c1b1f" d="M4.892 19.019a2.24 2.24 0 0 1-1.644-.684 2.24 2.24 0 0 1-.684-1.644V4.392q0-.96.684-1.644a2.24 2.24 0 0 1 1.644-.684h12.299q.96 0 1.644.684t.684 1.644v12.299q0 .96-.684 1.644a2.24 2.24 0 0 1-1.644.684zm0-2.328h12.299V4.392H4.892z"/></g></svg>