<svg xmlns="http://www.w3.org/2000/svg" width="20" height="20" fill="none" viewBox="0 0 20 20"><g clip-path="url(#a)"><mask id="b" width="24" height="24" x="0" y="0" maskUnits="userSpaceOnUse" style="mask-type:alpha"><path fill="currentColor" d="M0 0h23.083v23.083H0z"/></mask><g mask="url(#b)"><path fill="currentColor" d="M7.958 11.873 15 4.832q.335-.333.782-.334.447 0 .78.33.334.33.334.78 0 .453-.334.786L8.73 14.228q-.33.333-.769.333a1.06 1.06 0 0 1-.773-.333L3.48 10.519a1.02 1.02 0 0 1-.323-.778q.01-.45.34-.784.33-.333.78-.334.453 0 .786.334z"/></g></g><defs><clipPath id="a"><path fill="#fff" d="M0 0h20v20H0z"/></clipPath></defs></svg>