<svg xmlns="http://www.w3.org/2000/svg" width="22" height="20" fill="none" viewBox="0 0 22 20"><mask id="a" width="22" height="22" x="0" y="0" maskUnits="userSpaceOnUse" style="mask-type:alpha"><path fill="#d9d9d9" d="M.25 0h21.083v21.083H.25z"/></mask><g mask="url(#a)"><path fill="#1c1b1f" d="M8.354 16.471q-.96 0-1.644-.684a2.24 2.24 0 0 1-.684-1.644V3.426q0-.96.684-1.644a2.24 2.24 0 0 1 1.644-.684h8.082q.96 0 1.644.684t.684 1.644v10.717q0 .96-.684 1.644a2.24 2.24 0 0 1-1.644.684zm-4.085 4.085q-.96 0-1.644-.684a2.24 2.24 0 0 1-.684-1.644V6.347q0-.483.34-.824t.824-.34.823.34.34.824v11.881h9.247q.483 0 .823.34.34.341.34.824t-.34.824-.823.34z"/></g></svg>