<svg width="24" height="24" viewBox="0 0 24 24" fill="none" xmlns="http://www.w3.org/2000/svg">
<mask id="mask0_737_1280" style="mask-type:alpha" maskUnits="userSpaceOnUse" x="0" y="0" width="24" height="24">
<rect width="24" height="24" fill="currentColor"/>
</mask>
<g mask="url(#mask0_737_1280)">
<path d="M7.32505 16.675H10C10.3667 16.675 10.6792 16.8042 10.9375 17.0625C11.1959 17.3209 11.325 17.6334 11.325 18C11.325 18.3667 11.1959 18.6792 10.9375 18.9375C10.6792 19.1959 10.3667 19.325 10 19.325H6.00005C5.63338 19.325 5.32088 19.1959 5.06255 18.9375C4.80422 18.6792 4.67505 18.3667 4.67505 18V14C4.67505 13.6334 4.80422 13.3209 5.06255 13.0625C5.32088 12.8042 5.63338 12.675 6.00005 12.675C6.36672 12.675 6.67922 12.8042 6.93755 13.0625C7.19588 13.3209 7.32505 13.6334 7.32505 14V16.675ZM16.675 7.32505H14C13.6334 7.32505 13.3209 7.19588 13.0625 6.93755C12.8042 6.67922 12.675 6.36672 12.675 6.00005C12.675 5.63338 12.8042 5.32088 13.0625 5.06255C13.3209 4.80422 13.6334 4.67505 14 4.67505H18C18.3667 4.67505 18.6792 4.80422 18.9375 5.06255C19.1959 5.32088 19.325 5.63338 19.325 6.00005V10C19.325 10.3667 19.1959 10.6792 18.9375 10.9375C18.6792 11.1959 18.3667 11.325 18 11.325C17.6334 11.325 17.3209 11.1959 17.0625 10.9375C16.8042 10.6792 16.675 10.3667 16.675 10V7.32505Z" fill="currentColor"/>
</g>
</svg>
