<svg width="24" height="24" viewBox="0 0 24 24" fill="none" xmlns="http://www.w3.org/2000/svg">
<mask id="mask0_737_1323" style="mask-type:alpha" maskUnits="userSpaceOnUse" x="0" y="0" width="24" height="24">
<rect width="24" height="24" fill="currentColor"/>
</mask>
<g mask="url(#mask0_737_1323)">
<path d="M9.94995 18.05C10.825 18.05 11.5687 17.7437 12.1812 17.1312C12.7937 16.5187 13.1 15.775 13.1 14.9V8.79995H14.775C15.1416 8.79995 15.4541 8.67078 15.7125 8.41245C15.9708 8.15412 16.1 7.84162 16.1 7.47495C16.1 7.10828 15.9708 6.79578 15.7125 6.53745C15.4541 6.27912 15.1416 6.14995 14.775 6.14995H12.575C12.2083 6.14995 11.8958 6.27912 11.6375 6.53745C11.3791 6.79578 11.25 7.10828 11.25 7.47495V12C11.0333 11.95 10.819 11.8958 10.607 11.8375C10.3951 11.7791 10.1761 11.75 9.94995 11.75C9.07495 11.75 8.3312 12.0562 7.7187 12.6687C7.1062 13.2812 6.79995 14.025 6.79995 14.9C6.79995 15.775 7.1062 16.5187 7.7187 17.1312C8.3312 17.7437 9.07495 18.05 9.94995 18.05ZM12 22.8C10.506 22.8 9.10195 22.5165 7.78795 21.9495C6.47395 21.3825 5.33095 20.613 4.35895 19.641C3.38695 18.669 2.61745 17.526 2.05045 16.212C1.48345 14.898 1.19995 13.494 1.19995 12C1.19995 10.5016 1.48395 9.09362 2.05195 7.77595C2.61995 6.45812 3.39078 5.31187 4.36445 4.3372C5.33812 3.36237 6.48112 2.59578 7.79345 2.03745C9.10578 1.47912 10.508 1.19995 12 1.19995C13.4981 1.19995 14.906 1.47912 16.2235 2.03745C17.5411 2.59578 18.6875 3.36245 19.6625 4.33745C20.6375 5.31245 21.4041 6.45895 21.9625 7.77695C22.5208 9.09512 22.8 10.5035 22.8 12.002C22.8 13.5006 22.5208 14.9041 21.9625 16.2125C21.4041 17.5208 20.6375 18.6618 19.6627 19.6355C18.688 20.6091 17.5418 21.38 16.224 21.948C14.9063 22.516 13.4983 22.8 12 22.8Z" fill="currentColor"/>
</g>
</svg>
