<svg width="21" height="20" viewBox="0 0 21 20" fill="none" xmlns="http://www.w3.org/2000/svg">
<mask id="mask0_606_54" style="mask-type:alpha" maskUnits="userSpaceOnUse" x="0" y="0" width="21" height="20">
<rect x="0.0834961" width="20" height="20" fill="#D9D9D9"/>
</mask>
<g mask="url(#mask0_606_54)">
<path d="M11.7708 18.1667C10.9514 18.1667 10.25 17.8715 9.66667 17.2812C9.08333 16.691 8.79167 15.9861 8.79167 15.1667C8.79167 14 9.23611 12.9444 10.125 12C11.0139 11.0556 12.125 10.4653 13.4583 10.2292C13.4167 9.78472 13.309 9.46527 13.1354 9.27083C12.9618 9.07638 12.7083 8.97916 12.375 8.97916C11.9306 8.97916 11.4722 9.15625 11 9.51041C10.5278 9.86458 9.90972 10.5069 9.14583 11.4375C8.17361 12.6597 7.37153 13.5 6.73958 13.9583C6.10764 14.4167 5.42361 14.6458 4.6875 14.6458C3.88194 14.6458 3.22222 14.375 2.70833 13.8333C2.19444 13.2917 1.9375 12.6042 1.9375 11.7708C1.9375 11.1181 2.10764 10.3993 2.44792 9.61458C2.78819 8.82986 3.35417 7.84722 4.14583 6.66666C4.54861 6.08333 4.82986 5.65277 4.98958 5.375C5.14931 5.09722 5.22917 4.88194 5.22917 4.72916C5.22917 4.64583 5.20833 4.57986 5.16667 4.53125C5.125 4.48263 5.06944 4.45833 5 4.45833C4.94444 4.45833 4.88194 4.47569 4.8125 4.51041C4.74306 4.54513 4.66667 4.60416 4.58333 4.6875C4.33333 4.92361 4.03819 5.05208 3.69792 5.07291C3.35764 5.09375 3.06944 4.98611 2.83333 4.75C2.55556 4.47222 2.40625 4.14583 2.38542 3.77083C2.36458 3.39583 2.49306 3.09027 2.77083 2.85416C3.13194 2.53472 3.52083 2.28472 3.9375 2.10416C4.35417 1.92361 4.77083 1.83333 5.1875 1.83333C5.89583 1.83333 6.51389 2.10069 7.04167 2.63541C7.56944 3.17013 7.83333 3.79861 7.83333 4.52083C7.83333 5.00694 7.6875 5.56597 7.39583 6.19791C7.10417 6.82986 6.61806 7.63194 5.9375 8.60416C5.4375 9.35416 5.07986 9.95138 4.86458 10.3958C4.64931 10.8403 4.54167 11.2014 4.54167 11.4792C4.54167 11.6319 4.57986 11.7604 4.65625 11.8646C4.73264 11.9687 4.82639 12.0208 4.9375 12.0208C5.04861 12.0208 5.14931 11.9896 5.23958 11.9271C5.32986 11.8646 5.47917 11.7153 5.6875 11.4792C5.84028 11.3264 6.02083 11.1181 6.22917 10.8542C6.4375 10.5903 6.70139 10.2639 7.02083 9.875C8.0625 8.59722 9 7.69097 9.83333 7.15625C10.6667 6.62152 11.5208 6.35416 12.3958 6.35416C13.4236 6.35416 14.2674 6.6875 14.9271 7.35416C15.5868 8.02083 15.9722 8.93055 16.0833 10.0833H16.9375C17.2986 10.0833 17.6076 10.2118 17.8646 10.4687C18.1215 10.7257 18.25 11.0347 18.25 11.3958C18.25 11.7569 18.1215 12.066 17.8646 12.3229C17.6076 12.5799 17.2986 12.7083 16.9375 12.7083H16.0833C15.9583 14.3472 15.5 15.6667 14.7083 16.6667C13.9167 17.6667 12.9375 18.1667 11.7708 18.1667ZM11.8542 15.5417C12.1875 15.5417 12.4965 15.3056 12.7812 14.8333C13.066 14.3611 13.2917 13.7014 13.4583 12.8542C12.9028 13.0208 12.4201 13.3194 12.0104 13.75C11.6007 14.1806 11.3958 14.6042 11.3958 15.0208C11.3958 15.1875 11.434 15.316 11.5104 15.4062C11.5868 15.4965 11.7014 15.5417 11.8542 15.5417Z" fill="#1C1B1F"/>
</g>
</svg>
