<svg width="24" height="24" viewBox="0 0 24 24" fill="none" xmlns="http://www.w3.org/2000/svg">
<mask id="mask0_737_1316" style="mask-type:alpha" maskUnits="userSpaceOnUse" x="0" y="0" width="24" height="24">
<rect width="24" height="24" fill="currentColor"/>
</mask>
<g mask="url(#mask0_737_1316)">
<path d="M6.84995 21.75H4.84995C4.11662 21.75 3.49162 21.4916 2.97495 20.975C2.45828 20.4583 2.19995 19.8333 2.19995 19.1V11.95C2.19995 10.6 2.45828 9.33329 2.97495 8.14995C3.49162 6.96662 4.19162 5.93328 5.07495 5.04995C5.95828 4.16662 6.99578 3.47078 8.18745 2.96245C9.37912 2.45412 10.65 2.19995 12 2.19995C13.35 2.19995 14.6208 2.45412 15.8125 2.96245C17.0041 3.47078 18.0416 4.16662 18.925 5.04995C19.8083 5.93328 20.5083 6.96662 21.025 8.14995C21.5416 9.33329 21.8 10.6 21.8 11.95V19.1C21.8 19.8333 21.5416 20.4583 21.025 20.975C20.5083 21.4916 19.8833 21.75 19.15 21.75H17.15C16.4 21.75 15.7708 21.4958 15.2625 20.9875C14.7541 20.4791 14.5 19.85 14.5 19.1V15.15C14.5 14.4 14.7541 13.7708 15.2625 13.2625C15.7708 12.7541 16.4 12.5 17.15 12.5H19.15V11.95C19.15 9.98329 18.4541 8.30828 17.0625 6.92495C15.6708 5.54162 13.9833 4.84995 12 4.84995C10.0166 4.84995 8.32912 5.54162 6.93745 6.92495C5.54578 8.30828 4.84995 9.98329 4.84995 11.95V12.5H6.84995C7.59995 12.5 8.22912 12.7541 8.73745 13.2625C9.24578 13.7708 9.49995 14.4 9.49995 15.15V19.1C9.49995 19.85 9.24578 20.4791 8.73745 20.9875C8.22912 21.4958 7.59995 21.75 6.84995 21.75Z" fill="currentColor"/>
</g>
</svg>
