<svg width="21" height="20" viewBox="0 0 21 20" fill="none" xmlns="http://www.w3.org/2000/svg">
<mask id="mask0_655_54" style="mask-type:alpha" maskUnits="userSpaceOnUse" x="0" y="0" width="21" height="20">
<rect x="0.416504" width="20" height="20" fill="#D9D9D9"/>
</mask>
<g mask="url(#mask0_655_54)">
<path d="M10.4373 14.5C10.7429 14.5 11.0033 14.3924 11.2186 14.1771C11.4339 13.9618 11.5415 13.7014 11.5415 13.3958V10.2708C11.5415 9.96528 11.4339 9.70486 11.2186 9.48958C11.0033 9.27431 10.7429 9.16667 10.4373 9.16667C10.1318 9.16667 9.87136 9.27431 9.65609 9.48958C9.44081 9.70486 9.33317 9.96528 9.33317 10.2708V13.3958C9.33317 13.7014 9.44081 13.9618 9.65609 14.1771C9.87136 14.3924 10.1318 14.5 10.4373 14.5ZM10.4128 7.16667C10.7069 7.16667 10.9547 7.06722 11.1561 6.86833C11.3575 6.66931 11.4582 6.42278 11.4582 6.12875C11.4582 5.83458 11.3587 5.58681 11.1598 5.38542C10.9608 5.18403 10.7143 5.08333 10.4203 5.08333C10.1261 5.08333 9.87831 5.18278 9.67692 5.38167C9.47553 5.58069 9.37484 5.82722 9.37484 6.12125C9.37484 6.41542 9.47428 6.66319 9.67317 6.86458C9.8722 7.06597 10.1187 7.16667 10.4128 7.16667ZM10.4165 19C9.1715 19 8.0015 18.7637 6.9065 18.2912C5.8115 17.8187 4.859 17.1775 4.049 16.3675C3.239 15.5575 2.59775 14.605 2.12525 13.51C1.65275 12.415 1.4165 11.245 1.4165 10C1.4165 8.75139 1.65317 7.57806 2.1265 6.48C2.59984 5.38181 3.2422 4.4266 4.05359 3.61437C4.86498 2.80201 5.81748 2.16319 6.91109 1.69792C8.0047 1.23264 9.17317 1 10.4165 1C11.665 1 12.8382 1.23264 13.9361 1.69792C15.0341 2.16319 15.9894 2.80208 16.8019 3.61458C17.6144 4.42708 18.2533 5.3825 18.7186 6.48083C19.1839 7.57931 19.4165 8.75292 19.4165 10.0017C19.4165 11.2506 19.1839 12.4201 18.7186 13.5104C18.2533 14.6007 17.6145 15.5515 16.8021 16.3629C15.9899 17.1743 15.0347 17.8167 13.9365 18.29C12.8384 18.7633 11.6651 19 10.4165 19Z" fill="#1C1B1F"/>
</g>
</svg>
