<svg width="20" height="20" viewBox="0 0 20 20" fill="none" xmlns="http://www.w3.org/2000/svg">
<mask id="mask0_606_63" style="mask-type:alpha" maskUnits="userSpaceOnUse" x="0" y="0" width="20" height="20">
<rect width="20" height="20" fill="#D9D9D9"/>
</mask>
<g mask="url(#mask0_606_63)">
<path d="M10.0002 9.95834C9.69461 9.95834 9.43419 9.8507 9.21891 9.63542C9.00364 9.42014 8.896 9.15973 8.896 8.85417V2.14584C8.896 1.84028 9.00364 1.57987 9.21891 1.36459C9.43419 1.14931 9.69461 1.04167 10.0002 1.04167C10.3057 1.04167 10.5661 1.14931 10.7814 1.36459C10.9967 1.57987 11.1043 1.84028 11.1043 2.14584V8.85417C11.1043 9.15973 10.9967 9.42014 10.7814 9.63542C10.5661 9.8507 10.3057 9.95834 10.0002 9.95834ZM10.0002 18.125C8.87516 18.125 7.81614 17.9097 6.82308 17.4792C5.83002 17.0486 4.96544 16.4653 4.22933 15.7292C3.49322 14.9931 2.90989 14.1285 2.47933 13.1354C2.04877 12.1424 1.8335 11.0833 1.8335 9.95834C1.8335 9.05556 1.96544 8.18403 2.22933 7.34376C2.49322 6.50348 2.90294 5.72917 3.4585 5.02084C3.65294 4.77084 3.90989 4.63195 4.22933 4.60417C4.54877 4.57639 4.82655 4.68056 5.06266 4.91667C5.25711 5.11112 5.3578 5.34723 5.36475 5.62501C5.37169 5.90278 5.29877 6.15973 5.146 6.39584C4.78489 6.92362 4.51058 7.48959 4.32308 8.09376C4.13558 8.69792 4.04183 9.31945 4.04183 9.95834C4.04183 11.6111 4.62169 13.0174 5.78141 14.1771C6.94114 15.3368 8.34739 15.9167 10.0002 15.9167C11.6529 15.9167 13.0592 15.3368 14.2189 14.1771C15.3786 13.0174 15.9585 11.6111 15.9585 9.95834C15.9585 9.29167 15.8613 8.64931 15.6668 8.03126C15.4724 7.4132 15.1807 6.84028 14.7918 6.31251C14.6391 6.09028 14.5696 5.8507 14.5835 5.59376C14.5974 5.33681 14.7016 5.11112 14.896 4.91667C15.1321 4.68056 15.4238 4.57987 15.771 4.61459C16.1182 4.64931 16.396 4.80556 16.6043 5.08334C17.1321 5.79167 17.5245 6.56251 17.7814 7.39584C18.0384 8.22917 18.1668 9.08334 18.1668 9.95834C18.1668 11.0833 17.9516 12.1424 17.521 13.1354C17.0904 14.1285 16.5071 14.9931 15.771 15.7292C15.0349 16.4653 14.1703 17.0486 13.1772 17.4792C12.1842 17.9097 11.1252 18.125 10.0002 18.125Z" fill="#1C1B1F"/>
</g>
</svg>
