<svg width="24" height="24" viewBox="0 0 24 24" fill="none" xmlns="http://www.w3.org/2000/svg">
<mask id="mask0_737_1309" style="mask-type:alpha" maskUnits="userSpaceOnUse" x="0" y="0" width="24" height="24">
<rect width="24" height="24" fill="currentColor"/>
</mask>
<g mask="url(#mask0_737_1309)">
<path d="M5.096 14.35C4.44867 14.35 3.89583 14.1195 3.4375 13.6585C2.97917 13.1975 2.75 12.6434 2.75 11.996C2.75 11.3487 2.9805 10.7959 3.4415 10.3375C3.9025 9.87919 4.45667 9.65002 5.104 9.65002C5.75133 9.65002 6.30417 9.88052 6.7625 10.3415C7.22083 10.8025 7.45 11.3567 7.45 12.004C7.45 12.6514 7.2195 13.2042 6.7585 13.6625C6.2975 14.1209 5.74333 14.35 5.096 14.35ZM11.996 14.35C11.3487 14.35 10.7958 14.1195 10.3375 13.6585C9.87917 13.1975 9.65 12.6434 9.65 11.996C9.65 11.3487 9.8805 10.7959 10.3415 10.3375C10.8025 9.87919 11.3567 9.65002 12.004 9.65002C12.6513 9.65002 13.2042 9.88052 13.6625 10.3415C14.1208 10.8025 14.35 11.3567 14.35 12.004C14.35 12.6514 14.1195 13.2042 13.6585 13.6625C13.1975 14.1209 12.6433 14.35 11.996 14.35ZM18.896 14.35C18.2487 14.35 17.6958 14.1195 17.2375 13.6585C16.7792 13.1975 16.55 12.6434 16.55 11.996C16.55 11.3487 16.7805 10.7959 17.2415 10.3375C17.7025 9.87919 18.2567 9.65002 18.904 9.65002C19.5513 9.65002 20.1042 9.88052 20.5625 10.3415C21.0208 10.8025 21.25 11.3567 21.25 12.004C21.25 12.6514 21.0195 13.2042 20.5585 13.6625C20.0975 14.1209 19.5433 14.35 18.896 14.35Z" fill="currentColor"/>
</g>
</svg>
