<svg width="21" height="20" viewBox="0 0 21 20" fill="none" xmlns="http://www.w3.org/2000/svg">
<mask id="mask0_606_81" style="mask-type:alpha" maskUnits="userSpaceOnUse" x="0" y="0" width="21" height="20">
<rect x="0.166504" width="20" height="20" fill="#D9D9D9"/>
</mask>
<g mask="url(#mask0_606_81)">
<path d="M10.163 17.7083C9.62356 17.7083 9.16287 17.5163 8.78092 17.1321C8.39898 16.7479 8.20801 16.2861 8.20801 15.7467C8.20801 15.2072 8.40009 14.7465 8.78426 14.3646C9.16842 13.9826 9.63023 13.7917 10.1697 13.7917C10.7091 13.7917 11.1698 13.9838 11.5518 14.3679C11.9337 14.7521 12.1247 15.2139 12.1247 15.7533C12.1247 16.2928 11.9326 16.7535 11.5484 17.1354C11.1643 17.5174 10.7025 17.7083 10.163 17.7083ZM10.163 11.9583C9.62356 11.9583 9.16287 11.7663 8.78092 11.3821C8.39898 10.9979 8.20801 10.5361 8.20801 9.99667C8.20801 9.45723 8.40009 8.99653 8.78426 8.61459C9.16842 8.23264 9.63023 8.04167 10.1697 8.04167C10.7091 8.04167 11.1698 8.23375 11.5518 8.61792C11.9337 9.00209 12.1247 9.46389 12.1247 10.0033C12.1247 10.5428 11.9326 11.0035 11.5484 11.3854C11.1643 11.7674 10.7025 11.9583 10.163 11.9583ZM10.163 6.20834C9.62356 6.20834 9.16287 6.01626 8.78092 5.63209C8.39898 5.24792 8.20801 4.78612 8.20801 4.24667C8.20801 3.70723 8.40009 3.24653 8.78426 2.86459C9.16842 2.48264 9.63023 2.29167 10.1697 2.29167C10.7091 2.29167 11.1698 2.48375 11.5518 2.86792C11.9337 3.25209 12.1247 3.71389 12.1247 4.25334C12.1247 4.79278 11.9326 5.25348 11.5484 5.63542C11.1643 6.01737 10.7025 6.20834 10.163 6.20834Z" fill="#1C1B1F"/>
</g>
</svg>
