<svg width="21" height="20" viewBox="0 0 21 20" fill="none" xmlns="http://www.w3.org/2000/svg">
<mask id="mask0_606_72" style="mask-type:alpha" maskUnits="userSpaceOnUse" x="0" y="0" width="21" height="20">
<rect x="0.25" width="20" height="20" fill="#D9D9D9"/>
</mask>
<g mask="url(#mask0_606_72)">
<path d="M4.4965 11.9583C3.95706 11.9583 3.49637 11.7663 3.11442 11.3821C2.73248 10.9979 2.5415 10.5361 2.5415 9.99667C2.5415 9.45723 2.73359 8.99653 3.11775 8.61459C3.50192 8.23264 3.96373 8.04167 4.50317 8.04167C5.04262 8.04167 5.50331 8.23375 5.88525 8.61792C6.2672 9.00209 6.45817 9.46389 6.45817 10.0033C6.45817 10.5428 6.26609 11.0035 5.88192 11.3854C5.49775 11.7674 5.03595 11.9583 4.4965 11.9583ZM10.2465 11.9583C9.70706 11.9583 9.24637 11.7663 8.86442 11.3821C8.48248 10.9979 8.2915 10.5361 8.2915 9.99667C8.2915 9.45723 8.48359 8.99653 8.86775 8.61459C9.25192 8.23264 9.71373 8.04167 10.2532 8.04167C10.7926 8.04167 11.2533 8.23375 11.6353 8.61792C12.0172 9.00209 12.2082 9.46389 12.2082 10.0033C12.2082 10.5428 12.0161 11.0035 11.6319 11.3854C11.2478 11.7674 10.7859 11.9583 10.2465 11.9583ZM15.9965 11.9583C15.4571 11.9583 14.9964 11.7663 14.6144 11.3821C14.2325 10.9979 14.0415 10.5361 14.0415 9.99667C14.0415 9.45723 14.2336 8.99653 14.6178 8.61459C15.0019 8.23264 15.4637 8.04167 16.0032 8.04167C16.5426 8.04167 17.0033 8.23375 17.3853 8.61792C17.7672 9.00209 17.9582 9.46389 17.9582 10.0033C17.9582 10.5428 17.7661 11.0035 17.3819 11.3854C16.9978 11.7674 16.536 11.9583 15.9965 11.9583Z" fill="#1C1B1F"/>
</g>
</svg>
