<svg width="24" height="24" viewBox="0 0 24 24" fill="none" xmlns="http://www.w3.org/2000/svg">
<mask id="mask0_737_1326" style="mask-type:alpha" maskUnits="userSpaceOnUse" x="0" y="0" width="24" height="24">
<rect width="24" height="24" fill="currentColor"/>
</mask>
<g mask="url(#mask0_737_1326)">
<path d="M10.775 15.325L14.925 12.55C15.125 12.4215 15.225 12.2393 15.225 12.0035C15.225 11.7678 15.125 11.5833 14.925 11.45L10.775 8.67495C10.5416 8.52495 10.3125 8.5117 10.0875 8.6352C9.86245 8.75887 9.74995 8.95545 9.74995 9.22495V14.775C9.74995 15.0445 9.86245 15.241 10.0875 15.3647C10.3125 15.4882 10.5416 15.475 10.775 15.325ZM12 22.8C10.506 22.8 9.10195 22.5165 7.78795 21.9495C6.47395 21.3825 5.33095 20.613 4.35895 19.641C3.38695 18.669 2.61745 17.526 2.05045 16.212C1.48345 14.898 1.19995 13.494 1.19995 12C1.19995 11.4246 1.24578 10.8493 1.33745 10.274C1.42912 9.69862 1.56662 9.13228 1.74995 8.57495C1.86662 8.24162 2.08745 8.01662 2.41245 7.89995C2.73745 7.78328 3.05828 7.81662 3.37495 7.99995C3.69162 8.18328 3.91245 8.44578 4.03745 8.78745C4.16245 9.12912 4.18328 9.47495 4.09995 9.82495C4.01662 10.1916 3.95412 10.5542 3.91245 10.9127C3.87078 11.271 3.84995 11.6335 3.84995 12C3.84995 14.2666 4.64162 16.1916 6.22495 17.775C7.80828 19.3583 9.73328 20.15 12 20.15C14.2666 20.15 16.1916 19.3583 17.775 17.775C19.3583 16.1916 20.15 14.2666 20.15 12C20.15 9.73328 19.3583 7.80828 17.775 6.22495C16.1916 4.64162 14.2666 3.84995 12 3.84995C11.6166 3.84995 11.2291 3.87703 10.8375 3.9312C10.4458 3.98537 10.0583 4.06662 9.67495 4.17495C9.30828 4.27495 8.95412 4.26245 8.61245 4.13745C8.27078 4.01245 8.01662 3.78328 7.84995 3.44995C7.68328 3.11662 7.67095 2.78128 7.81295 2.44395C7.95478 2.10678 8.20045 1.88378 8.54995 1.77495C9.11662 1.59162 9.69162 1.44995 10.275 1.34995C10.8583 1.24995 11.45 1.19995 12.05 1.19995C13.536 1.19995 14.9325 1.48328 16.2395 2.04995C17.5465 2.61662 18.6875 3.38745 19.6625 4.36245C20.6375 5.33745 21.4041 6.48203 21.9625 7.7962C22.5208 9.11037 22.8 10.5145 22.8 12.0087C22.8 13.5029 22.5166 14.9041 21.95 16.2125C21.3833 17.5208 20.6139 18.6618 19.6417 19.6355C18.6697 20.6091 17.5266 21.38 16.2125 21.948C14.8983 22.516 13.4941 22.8 12 22.8ZM5.09395 6.99995C4.56462 6.99995 4.11662 6.81462 3.74995 6.44395C3.38328 6.07345 3.19995 5.62345 3.19995 5.09395C3.19995 4.56462 3.38528 4.11662 3.75595 3.74995C4.12645 3.38328 4.57645 3.19995 5.10595 3.19995C5.63528 3.19995 6.08328 3.38528 6.44995 3.75595C6.81662 4.12645 6.99995 4.57645 6.99995 5.10595C6.99995 5.63528 6.81462 6.08328 6.44395 6.44995C6.07345 6.81662 5.62345 6.99995 5.09395 6.99995ZM5.84995 12C5.84995 10.2916 6.44703 8.83953 7.6412 7.6437C8.8352 6.44787 10.2852 5.84995 11.9912 5.84995C13.697 5.84995 15.15 6.44787 16.35 7.6437C17.55 8.83953 18.15 10.2916 18.15 12C18.15 13.7083 17.5512 15.1604 16.3537 16.3562C15.156 17.552 13.7019 18.15 11.9912 18.15C10.2804 18.15 8.82912 17.552 7.63745 16.3562C6.44578 15.1604 5.84995 13.7083 5.84995 12Z" fill="currentColor"/>
</g>
</svg>
