<svg width="24" height="24" viewBox="0 0 24 24" fill="none" xmlns="http://www.w3.org/2000/svg">
<mask id="mask0_737_1319" style="mask-type:alpha" maskUnits="userSpaceOnUse" x="0" y="0" width="24" height="24">
<rect width="24" height="24" fill="currentColor"/>
</mask>
<g mask="url(#mask0_737_1319)">
<path d="M9.9251 21.9001C8.64176 21.9001 7.5376 21.4376 6.6126 20.5126C5.6876 19.5876 5.2251 18.4834 5.2251 17.2001C5.2251 15.9168 5.6876 14.8126 6.6126 13.8876C7.5376 12.9626 8.64176 12.5001 9.9251 12.5001C10.3084 12.5001 10.6626 12.5251 10.9876 12.5751C11.3126 12.6251 11.6418 12.7168 11.9751 12.8501V3.4251C11.9751 3.05843 12.1043 2.74593 12.3626 2.4876C12.6209 2.22926 12.9334 2.1001 13.3001 2.1001H17.4501C17.8168 2.1001 18.1293 2.22926 18.3876 2.4876C18.6459 2.74593 18.7751 3.05843 18.7751 3.4251V5.7251C18.7751 6.09176 18.6459 6.40426 18.3876 6.6626C18.1293 6.92093 17.8168 7.0501 17.4501 7.0501H14.6251V17.2001C14.6251 18.4834 14.1626 19.5876 13.2376 20.5126C12.3126 21.4376 11.2084 21.9001 9.9251 21.9001Z" fill="currentColor"/>
</g>
</svg>
