<svg width="24" height="24" viewBox="0 0 24 24" fill="none" xmlns="http://www.w3.org/2000/svg">
<mask id="mask0_737_1314" style="mask-type:alpha" maskUnits="userSpaceOnUse" x="0" y="0" width="24" height="24">
<rect width="24" height="24" fill="currentColor"/>
</mask>
<g mask="url(#mask0_737_1314)">
<path d="M15.4 19.05H4.875C4.50833 19.05 4.19583 18.9208 3.9375 18.6625C3.67917 18.4042 3.55 18.0917 3.55 17.725C3.55 17.3583 3.67917 17.0458 3.9375 16.7875C4.19583 16.5292 4.50833 16.4 4.875 16.4H5.6V9.95C5.6 9.31667 5.68333 8.7 5.85 8.1C6.01667 7.5 6.28333 6.95 6.65 6.45L6.425 9.95L1.375 4.875C1.125 4.625 1 4.31667 1 3.95C1 3.58333 1.125 3.275 1.375 3.025C1.625 2.775 1.93333 2.65 2.3 2.65C2.66667 2.65 2.975 2.775 3.225 3.025L20.775 20.625C21.025 20.875 21.1542 21.1792 21.1625 21.5375C21.1708 21.8958 21.0417 22.2083 20.775 22.475C20.525 22.725 20.2167 22.8542 19.85 22.8625C19.4833 22.8708 19.175 22.75 18.925 22.5L15.4 19.05ZM18.45 12.2C18.45 12.4667 18.375 12.7125 18.225 12.9375C18.075 13.1625 17.875 13.325 17.625 13.425C17.375 13.525 17.1167 13.5458 16.85 13.4875C16.5833 13.4292 16.3583 13.3083 16.175 13.125L9.3 6.2C9.16667 6.06667 9.0625 5.90833 8.9875 5.725C8.9125 5.54167 8.875 5.35833 8.875 5.175C8.875 4.925 8.9375 4.69167 9.0625 4.475C9.1875 4.25833 9.36667 4.1 9.6 4L10.2 3.8V3.05C10.2 2.55 10.375 2.125 10.725 1.775C11.075 1.425 11.5 1.25 12 1.25C12.5167 1.25 12.9542 1.425 13.3125 1.775C13.6708 2.125 13.85 2.55 13.85 3.05V3.8C15.2167 4.2 16.325 4.96667 17.175 6.1C18.025 7.23333 18.45 8.51667 18.45 9.95V12.2ZM12.025 22.65C11.4583 22.65 10.9542 22.5 10.5125 22.2C10.0708 21.9 9.85 21.4917 9.85 20.975C9.85 20.7917 9.92083 20.6458 10.0625 20.5375C10.2042 20.4292 10.3667 20.375 10.55 20.375H13.5C13.6833 20.375 13.8417 20.4333 13.975 20.55C14.1083 20.6667 14.175 20.8167 14.175 21C14.175 21.5167 13.9542 21.9208 13.5125 22.2125C13.0708 22.5042 12.575 22.65 12.025 22.65Z" fill="currentColor"/>
</g>
</svg>
