<svg width="24" height="24" viewBox="0 0 24 24" fill="none" xmlns="http://www.w3.org/2000/svg">
<mask id="mask0_737_1293" style="mask-type:alpha" maskUnits="userSpaceOnUse" x="0" y="0" width="24" height="24">
<rect width="24" height="24" fill="currentColor"/>
</mask>
<g mask="url(#mask0_737_1293)">
<path d="M16.3751 19.7251C15.6251 19.7251 14.9959 19.4709 14.4876 18.9626C13.9793 18.4543 13.7251 17.8251 13.7251 17.0751V6.8751C13.7251 6.1251 13.9793 5.49593 14.4876 4.9876C14.9959 4.47926 15.6251 4.2251 16.3751 4.2251C17.1251 4.2251 17.7543 4.47926 18.2626 4.9876C18.7709 5.49593 19.0251 6.1251 19.0251 6.8751V17.0751C19.0251 17.8251 18.7709 18.4543 18.2626 18.9626C17.7543 19.4709 17.1251 19.7251 16.3751 19.7251ZM7.6251 19.7251C6.8751 19.7251 6.24593 19.4709 5.7376 18.9626C5.22926 18.4543 4.9751 17.8251 4.9751 17.0751V6.8751C4.9751 6.1251 5.22926 5.49593 5.7376 4.9876C6.24593 4.47926 6.8751 4.2251 7.6251 4.2251C8.3751 4.2251 9.00426 4.47926 9.5126 4.9876C10.0209 5.49593 10.2751 6.1251 10.2751 6.8751V17.0751C10.2751 17.8251 10.0209 18.4543 9.5126 18.9626C9.00426 19.4709 8.3751 19.7251 7.6251 19.7251Z" fill="currentColor"/>
</g>
</svg>
