<svg width="24" height="24" viewBox="0 0 24 24" fill="none" xmlns="http://www.w3.org/2000/svg">
<mask id="mask0_737_1303" style="mask-type:alpha" maskUnits="userSpaceOnUse" x="0" y="0" width="24" height="24">
<rect width="24" height="24" fill="currentColor"/>
</mask>
<g mask="url(#mask0_737_1303)">
<path d="M7.30005 17.55V6.45C7.30005 6.0745 7.43338 5.75983 7.70005 5.506C7.96672 5.252 8.2778 5.125 8.6333 5.125C8.74447 5.125 8.85838 5.14167 8.97505 5.175C9.09172 5.20833 9.20838 5.26667 9.32505 5.35L18.075 10.875C18.2834 11.0083 18.4396 11.175 18.5438 11.375C18.648 11.575 18.7 11.7847 18.7 12.004C18.7 12.2233 18.6459 12.4317 18.5375 12.629C18.4292 12.8263 18.275 12.9917 18.075 13.125L9.32505 18.65C9.20838 18.7333 9.08988 18.7917 8.96955 18.825C8.84922 18.8583 8.73438 18.875 8.62505 18.875C8.27505 18.875 7.96672 18.748 7.70005 18.494C7.43338 18.24 7.30005 17.9253 7.30005 17.55Z" fill="currentColor"/>
</g>
</svg>
