<svg width="24" height="24" viewBox="0 0 24 24" fill="none" xmlns="http://www.w3.org/2000/svg">
<mask id="mask0_737_1289" style="mask-type:alpha" maskUnits="userSpaceOnUse" x="0" y="0" width="24" height="24">
<rect width="24" height="24" fill="currentColor"/>
</mask>
<g mask="url(#mask0_737_1289)">
<path d="M6.92495 14H8.57495C8.75828 14 8.92912 13.9667 9.08745 13.9C9.24578 13.8333 9.39162 13.7333 9.52495 13.6L14.25 8.84999C14.4333 8.66666 14.5666 8.46249 14.65 8.23749C14.7333 8.01249 14.775 7.78333 14.775 7.54999C14.775 7.31666 14.7333 7.09166 14.65 6.87499C14.5666 6.65833 14.4333 6.45833 14.25 6.27499L13.325 5.32499C13.1416 5.14166 12.9375 5.00833 12.7125 4.92499C12.4875 4.84166 12.2583 4.79999 12.025 4.79999C11.7916 4.79999 11.5666 4.84166 11.35 4.92499C11.1333 5.00833 10.9333 5.14166 10.75 5.32499L5.99995 10.075C5.86662 10.2083 5.76662 10.3542 5.69995 10.5125C5.63328 10.6708 5.59995 10.8417 5.59995 11.025V12.675C5.59995 13.0417 5.72912 13.3542 5.98745 13.6125C6.24578 13.8708 6.55828 14 6.92495 14ZM12.95 7.57499L12.225 8.34999L11.275 7.39999L12.025 6.64999L12.95 7.57499ZM11.55 14H17.075C17.4416 14 17.7541 13.8708 18.0125 13.6125C18.2708 13.3542 18.4 13.0417 18.4 12.675C18.4 12.3083 18.2708 11.9958 18.0125 11.7375C17.7541 11.4792 17.4416 11.35 17.075 11.35H14.2L11.55 14ZM5.84995 18.4L3.44995 20.8C3.03328 21.2167 2.55412 21.3083 2.01245 21.075C1.47078 20.8417 1.19995 20.4333 1.19995 19.85V3.54999C1.19995 2.81666 1.45828 2.19166 1.97495 1.67499C2.49162 1.15833 3.11662 0.899994 3.84995 0.899994H20.15C20.8833 0.899994 21.5083 1.15833 22.025 1.67499C22.5416 2.19166 22.8 2.81666 22.8 3.54999V15.75C22.8 16.4833 22.5416 17.1083 22.025 17.625C21.5083 18.1417 20.8833 18.4 20.15 18.4H5.84995Z" fill="currentColor"/>
</g>
</svg>
