<svg width="24" height="24" viewBox="0 0 24 24" fill="none" xmlns="http://www.w3.org/2000/svg">
<mask id="mask0_737_1289" style="mask-type:alpha" maskUnits="userSpaceOnUse" x="0" y="0" width="24" height="24">
<rect width="24" height="24" fill="currentColor"/>
</mask>
<g mask="url(#mask0_737_1289)">
<path d="M6.92495 14H8.57495C8.75828 14 8.92912 13.9667 9.08745 13.9C9.24578 13.8334 9.39162 13.7334 9.52495 13.6L14.25 8.85003C14.4333 8.66669 14.5666 8.46253 14.65 8.23752C14.7333 8.01252 14.775 7.78336 14.775 7.55002C14.775 7.31669 14.7333 7.09169 14.65 6.87502C14.5666 6.65836 14.4333 6.45836 14.25 6.27502L13.325 5.32502C13.1416 5.14169 12.9375 5.00836 12.7125 4.92502C12.4875 4.84169 12.2583 4.80002 12.025 4.80002C11.7916 4.80002 11.5666 4.84169 11.35 4.92502C11.1333 5.00836 10.9333 5.14169 10.75 5.32502L5.99995 10.075C5.86662 10.2084 5.76662 10.3542 5.69995 10.5125C5.63328 10.6709 5.59995 10.8417 5.59995 11.025V12.675C5.59995 13.0417 5.72912 13.3542 5.98745 13.6125C6.24578 13.8709 6.55828 14 6.92495 14ZM12.95 7.57503L12.225 8.35003L11.275 7.40002L12.025 6.65002L12.95 7.57503ZM11.55 14H17.075C17.4416 14 17.7541 13.8709 18.0125 13.6125C18.2708 13.3542 18.4 13.0417 18.4 12.675C18.4 12.3084 18.2708 11.9959 18.0125 11.7375C17.7541 11.4792 17.4416 11.35 17.075 11.35H14.2L11.55 14ZM5.84995 18.4L3.44995 20.8C3.03328 21.2167 2.55412 21.3084 2.01245 21.075C1.47078 20.8417 1.19995 20.4334 1.19995 19.85V3.55002C1.19995 2.81669 1.45828 2.19169 1.97495 1.67502C2.49162 1.15836 3.11662 0.900024 3.84995 0.900024H20.15C20.8833 0.900024 21.5083 1.15836 22.025 1.67502C22.5416 2.19169 22.8 2.81669 22.8 3.55002V15.75C22.8 16.4834 22.5416 17.1084 22.025 17.625C21.5083 18.1417 20.8833 18.4 20.15 18.4H5.84995Z" fill="currentColor"/>
</g>
</svg>
