<svg width="24" height="24" viewBox="0 0 24 24" fill="none" xmlns="http://www.w3.org/2000/svg">
<mask id="mask0_737_1315" style="mask-type:alpha" maskUnits="userSpaceOnUse" x="0" y="0" width="24" height="24">
<rect width="24" height="24" fill="currentColor"/>
</mask>
<g mask="url(#mask0_737_1315)">
<path d="M12 22.9999C10.65 22.9999 9.37912 22.7416 8.18745 22.2249C6.99578 21.7082 5.95828 21.0082 5.07495 20.1249C4.19162 19.2416 3.49162 18.2041 2.97495 17.0124C2.45828 15.8207 2.19995 14.5499 2.19995 13.1999C2.19995 12.8332 2.32912 12.5207 2.58745 12.2624C2.84578 12.0041 3.15828 11.8749 3.52495 11.8749C3.89162 11.8749 4.20412 12.0041 4.46245 12.2624C4.72078 12.5207 4.84995 12.8332 4.84995 13.1999C4.84995 15.1832 5.54578 16.8707 6.93745 18.2624C8.32912 19.6541 10.0166 20.3499 12 20.3499C13.9833 20.3499 15.6708 19.6541 17.0625 18.2624C18.4541 16.8707 19.15 15.1832 19.15 13.1999C19.15 11.2166 18.4541 9.52906 17.0625 8.13739C15.6708 6.74572 13.9833 6.04989 12 6.04989L12.65 6.69989C12.8833 6.93322 13.0083 7.22072 13.025 7.56239C13.0416 7.90406 12.9333 8.20822 12.7 8.47489C12.4666 8.75822 12.1625 8.90822 11.7875 8.92489C11.4125 8.94156 11.0916 8.81656 10.825 8.54989L7.87495 5.67489C7.60828 5.40822 7.47078 5.09572 7.46245 4.73739C7.45412 4.37906 7.58328 4.06656 7.84995 3.79989L10.7 0.949891C10.9666 0.683224 11.2791 0.554057 11.6375 0.562391C11.9958 0.570724 12.3083 0.708224 12.575 0.974891C12.825 1.24156 12.9541 1.54989 12.9625 1.89989C12.9708 2.24989 12.8416 2.55822 12.575 2.82489L12 3.39989C13.35 3.39989 14.6208 3.65822 15.8125 4.17489C17.0041 4.69156 18.0416 5.39156 18.925 6.27489C19.8083 7.15822 20.5083 8.19572 21.025 9.38739C21.5416 10.5791 21.8 11.8499 21.8 13.1999C21.8 14.5499 21.5416 15.8207 21.025 17.0124C20.5083 18.2041 19.8083 19.2416 18.925 20.1249C18.0416 21.0082 17.0041 21.7082 15.8125 22.2249C14.6208 22.7416 13.35 22.9999 12 22.9999Z" fill="currentColor"/>
</g>
</svg>
