<svg xmlns="http://www.w3.org/2000/svg" width="21" height="20" fill="none" viewBox="0 0 21 20"><g clip-path="url(#a)"><mask id="b" width="24" height="24" x="0" y="0" maskUnits="userSpaceOnUse" style="mask-type:alpha"><path fill="currentColor" d="M.5 0h23.083v23.083H.5z"/></mask><g mask="url(#b)"><path fill="currentColor" d="M9.02 18.539q-.54 0-.957-.365a1.47 1.47 0 0 1-.5-.906l-.209-1.542-.312-.177a3 3 0 0 1-.313-.198l-1.479.604a1.36 1.36 0 0 1-1.042.042 1.44 1.44 0 0 1-.791-.667l-1.48-2.666a1.4 1.4 0 0 1-.166-1q.105-.522.542-.855l1.208-.937v-.75l-1.188-.896a1.4 1.4 0 0 1-.541-.865 1.43 1.43 0 0 1 .166-1.01l1.48-2.604q.27-.48.78-.656a1.43 1.43 0 0 1 1.032.03l1.396.563q.167-.105.364-.208.198-.105.365-.208l.188-1.5a1.36 1.36 0 0 1 .49-.907q.426-.364.968-.364h2.958q.541 0 .969.364.427.365.49.907l.187 1.52q.167.105.365.209.198.105.364.208l1.375-.583a1.33 1.33 0 0 1 1.032-.042q.51.187.802.667l1.479 2.604q.27.48.166 1.01-.105.532-.541.865l-1.23.937v.75l1.188.896q.438.334.552.865t-.156 1.01l-1.48 2.646a1.44 1.44 0 0 1-.801.667 1.38 1.38 0 0 1-1.052-.042l-1.438-.604-.302.177q-.156.095-.302.177l-.209 1.563a1.47 1.47 0 0 1-.5.906 1.4 1.4 0 0 1-.958.364zm1.46-5.542q1.457 0 2.478-1.021 1.02-1.02 1.021-2.48 0-1.457-1.02-2.478-1.022-1.02-2.48-1.021T8 7.017Q6.98 8.04 6.98 9.498T8 11.976q1.02 1.02 2.48 1.02"/></g></g><defs><clipPath id="a"><path fill="currentColor" d="M.5 0h20v20H.5z"/></clipPath></defs></svg>