<svg width="24" height="24" viewBox="0 0 24 24" fill="none" xmlns="http://www.w3.org/2000/svg">
<mask id="mask0_737_1275" style="mask-type:alpha" maskUnits="userSpaceOnUse" x="0" y="0" width="24" height="24">
<rect width="24" height="24" fill="currentColor"/>
</mask>
<g mask="url(#mask0_737_1275)">
<path d="M8.2 19.775C7.83333 19.775 7.52083 19.6459 7.2625 19.3875C7.00417 19.1292 6.875 18.8167 6.875 18.45C6.875 18.0834 7.00417 17.7709 7.2625 17.5125C7.52083 17.2542 7.83333 17.125 8.2 17.125H14.6C15.5833 17.125 16.4208 16.7792 17.1125 16.0875C17.8042 15.3959 18.15 14.5584 18.15 13.575C18.15 12.5917 17.8042 11.7542 17.1125 11.0625C16.4208 10.3709 15.5833 10.025 14.6 10.025H8.2L9.625 11.45C9.875 11.7 10 12.0042 10 12.3625C10 12.7209 9.86667 13.025 9.6 13.275C9.35 13.525 9.05 13.65 8.7 13.65C8.35 13.65 8.05 13.525 7.8 13.275L4.15 9.62502C4.01667 9.49169 3.91667 9.35003 3.85 9.20003C3.78333 9.05003 3.75 8.88336 3.75 8.70003C3.75 8.51669 3.78333 8.34586 3.85 8.18752C3.91667 8.02919 4.01667 7.88336 4.15 7.75002L7.775 4.12502C8.025 3.87502 8.33333 3.74586 8.7 3.73752C9.06667 3.72919 9.375 3.85002 9.625 4.10002C9.89167 4.35002 10.0208 4.65836 10.0125 5.02502C10.0042 5.39169 9.875 5.70002 9.625 5.95002L8.2 7.37502H14.6C16.3167 7.37502 17.7792 7.97919 18.9875 9.18752C20.1958 10.3959 20.8 11.8584 20.8 13.575C20.8 15.2917 20.1958 16.7542 18.9875 17.9625C17.7792 19.1709 16.3167 19.775 14.6 19.775H8.2Z" fill="currentColor"/>
</g>
</svg>
