<svg xmlns="http://www.w3.org/2000/svg" width="22" height="20" fill="none" viewBox="0 0 22 20"><mask id="a" width="22" height="22" x="0" y="0" maskUnits="userSpaceOnUse" style="mask-type:alpha"><path fill="currentColor" d="M0 0h21.083v21.083H0z"/></mask><g mask="url(#a)"><path fill="currentColor" d="M7.203 17.372q-.483 0-.823-.34a1.12 1.12 0 0 1-.34-.824q0-.483.34-.824t.823-.34h5.623q1.295 0 2.207-.912a3 3 0 0 0 .911-2.207q0-1.296-.911-2.207a3 3 0 0 0-2.207-.911H7.203l1.252 1.252q.33.33.33.801t-.352.802q-.33.33-.79.33-.461 0-.791-.33L3.646 8.455a1.3 1.3 0 0 1-.264-.373 1.1 1.1 0 0 1-.088-.44 1.15 1.15 0 0 1 .352-.834L6.83 3.624q.33-.33.813-.34.483-.012.812.318.352.33.34.812-.01.483-.34.813L7.203 6.479h5.623q2.262 0 3.854 1.592t1.592 3.854-1.592 3.855-3.854 1.592z"/></g></svg>