<svg width="21" height="21" viewBox="0 0 21 21" fill="none" xmlns="http://www.w3.org/2000/svg">
<mask id="mask0_199_61" style="mask-type:alpha" maskUnits="userSpaceOnUse" x="0" y="0" width="21" height="21">
<rect x="0.111084" y="0.333282" width="20" height="20" fill="currentColor"/>
</mask>
<g mask="url(#mask0_199_61)">
<path d="M6.00859 16.3958V14.6041H12.5101C13.3242 14.6041 14.0101 14.3066 14.5678 13.7114C15.1255 13.1164 15.4044 12.4038 15.4044 11.5737C15.4044 10.7436 15.1255 10.0323 14.5678 9.43975C14.0101 8.84739 13.3242 8.55121 12.5101 8.55121H6.57589L8.6863 10.6618L7.43318 11.8733L3.19443 7.65538L7.43318 3.41663L8.6863 4.64892L6.57589 6.75954H12.5101C13.8124 6.75954 14.919 7.23232 15.8298 8.17788C16.7407 9.12343 17.1961 10.2554 17.1961 11.5737C17.1961 12.892 16.7407 14.0253 15.8298 14.9735C14.919 15.9217 13.8124 16.3958 12.5101 16.3958H6.00859Z" fill="currentColor"/>
</g>
</svg>
