<svg width="22" height="22" viewBox="0 0 22 22" fill="none" xmlns="http://www.w3.org/2000/svg">
<mask id="mask0_730_446" style="mask-type:alpha" maskUnits="userSpaceOnUse" x="0" y="0" width="22" height="22">
<rect x="0.75" width="21.0833" height="21.0833" fill="#D9D9D9"/>
</mask>
<g mask="url(#mask0_730_446)">
<path d="M10.2374 13.6163H7.57999C7.25788 13.6163 6.98336 13.5028 6.75642 13.2759C6.52948 13.049 6.41602 12.7744 6.41602 12.4523V8.63098C6.41602 8.30888 6.52948 8.03436 6.75642 7.80742C6.98336 7.58048 7.25788 7.46701 7.57999 7.46701H10.2374L13.2461 4.41432C13.6122 4.03365 14.0368 3.94946 14.5199 4.16176C15.0031 4.37405 15.2447 4.73642 15.2447 5.24887V15.8345C15.2447 16.3469 15.0031 16.7093 14.5199 16.9216C14.0368 17.1339 13.6122 17.0497 13.2461 16.669L10.2374 13.6163Z" fill="#1C1B1F"/>
</g>
</svg>
