<svg width="22" height="22" viewBox="0 0 22 22" fill="none" xmlns="http://www.w3.org/2000/svg">
<mask id="mask0_730_437" style="mask-type:alpha" maskUnits="userSpaceOnUse" x="0" y="0" width="22" height="22">
<rect x="0.916504" width="21.0833" height="21.0833" fill="#D9D9D9"/>
</mask>
<g mask="url(#mask0_730_437)">
<path d="M18.3104 10.4977C18.3104 9.04827 17.9115 7.73788 17.1135 6.56659C16.3156 5.39529 15.2651 4.53146 13.962 3.97509C13.6692 3.85796 13.4496 3.65665 13.3031 3.37114C13.1567 3.08564 13.1348 2.79647 13.2373 2.50365C13.3544 2.19619 13.5557 1.96193 13.8412 1.80087C14.1267 1.63982 14.4159 1.61786 14.7087 1.73499C16.4949 2.43777 17.9298 3.58344 19.0132 5.17201C20.0967 6.76058 20.6384 8.53583 20.6384 10.4977C20.6384 12.4597 20.0967 14.2349 19.0132 15.8235C17.9298 17.4121 16.4949 18.5577 14.7087 19.2605C14.4159 19.3776 14.1267 19.3557 13.8412 19.1946C13.5557 19.0336 13.3544 18.7993 13.2373 18.4918C13.1348 18.199 13.1567 17.9099 13.3031 17.6244C13.4496 17.3389 13.6692 17.1375 13.962 17.0204C15.2651 16.464 16.3156 15.6002 17.1135 14.4289C17.9115 13.2576 18.3104 11.9472 18.3104 10.4977ZM6.09967 13.6163H3.4423C3.12019 13.6163 2.84567 13.5029 2.61873 13.2759C2.39179 13.049 2.27832 12.7745 2.27832 12.4523V8.63099C2.27832 8.30889 2.39179 8.03437 2.61873 7.80743C2.84567 7.58049 3.12019 7.46702 3.4423 7.46702H6.09967L9.10844 4.41433C9.47447 4.03366 9.89907 3.94947 10.3822 4.16177C10.8654 4.37406 11.107 4.73643 11.107 5.24888V15.8345C11.107 16.3469 10.8654 16.7093 10.3822 16.9216C9.89907 17.1339 9.47447 17.0497 9.10844 16.669L6.09967 13.6163ZM15.3236 10.5417C15.3236 11.2005 15.1845 11.8118 14.9064 12.3755C14.6282 12.9392 14.2329 13.4187 13.7204 13.814C13.5301 13.9311 13.3397 13.9348 13.1494 13.825C12.9591 13.7152 12.8639 13.5504 12.8639 13.3308V7.75252C12.8639 7.5329 12.9591 7.36819 13.1494 7.25838C13.3397 7.14857 13.5301 7.15223 13.7204 7.26936C14.2329 7.66468 14.6282 8.14418 14.9064 8.70786C15.1845 9.27155 15.3236 9.88282 15.3236 10.5417Z" fill="#1C1B1F"/>
</g>
</svg>
