<svg width="24" height="24" viewBox="0 0 24 24" fill="none" xmlns="http://www.w3.org/2000/svg">
<mask id="mask0_737_1312" style="mask-type:alpha" maskUnits="userSpaceOnUse" x="0" y="0" width="24" height="24">
<rect width="24" height="24" fill="currentColor"/>
</mask>
<g mask="url(#mask0_737_1312)">
<path d="M8.67495 15.4999H5.64995C5.28328 15.4999 4.97078 15.3708 4.71245 15.1124C4.45412 14.8541 4.32495 14.5416 4.32495 14.1749V9.82495C4.32495 9.45828 4.45412 9.14578 4.71245 8.88745C4.97078 8.62912 5.28328 8.49995 5.64995 8.49995H8.67495L12.1 5.02495C12.5166 4.59162 13 4.49578 13.55 4.73745C14.1 4.97912 14.375 5.39162 14.375 5.97495V18.025C14.375 18.6083 14.1 19.0208 13.55 19.2625C13 19.5041 12.5166 19.4083 12.1 18.9749L8.67495 15.4999ZM19.175 11.9999C19.175 12.7499 19.0166 13.4458 18.7 14.0875C18.3833 14.7291 17.9333 15.2749 17.35 15.7249C17.1333 15.8583 16.9166 15.8624 16.7 15.7374C16.4833 15.6124 16.375 15.4249 16.375 15.1749V8.82495C16.375 8.57495 16.4833 8.38745 16.7 8.26245C16.9166 8.13745 17.1333 8.14162 17.35 8.27495C17.9333 8.72495 18.3833 9.27078 18.7 9.91245C19.0166 10.5541 19.175 11.2499 19.175 11.9999Z" fill="currentColor"/>
</g>
</svg>
