<svg width="24" height="24" viewBox="0 0 24 24" fill="none" xmlns="http://www.w3.org/2000/svg">
<mask id="mask0_737_1313" style="mask-type:alpha" maskUnits="userSpaceOnUse" x="0" y="0" width="24" height="24">
<rect width="24" height="24" fill="currentColor"/>
</mask>
<g mask="url(#mask0_737_1313)">
<path d="M19.8 11.95C19.8 10.3 19.3459 8.80829 18.4375 7.47496C17.5292 6.14162 16.3334 5.15829 14.85 4.52496C14.5167 4.39162 14.2667 4.16246 14.1 3.83746C13.9334 3.51246 13.9084 3.18329 14.025 2.84996C14.1584 2.49996 14.3875 2.23329 14.7125 2.04996C15.0375 1.86662 15.3667 1.84162 15.7 1.97496C17.7334 2.77496 19.3667 4.07912 20.6 5.88746C21.8334 7.69579 22.45 9.71662 22.45 11.95C22.45 14.1833 21.8334 16.2041 20.6 18.0125C19.3667 19.8208 17.7334 21.125 15.7 21.925C15.3667 22.0583 15.0375 22.0333 14.7125 21.85C14.3875 21.6666 14.1584 21.4 14.025 21.05C13.9084 20.7166 13.9334 20.3875 14.1 20.0625C14.2667 19.7375 14.5167 19.5083 14.85 19.375C16.3334 18.7416 17.5292 17.7583 18.4375 16.425C19.3459 15.0916 19.8 13.6 19.8 11.95ZM5.90005 15.5H2.87505C2.50838 15.5 2.19588 15.3708 1.93755 15.1125C1.67922 14.8541 1.55005 14.5416 1.55005 14.175V9.82496C1.55005 9.45829 1.67922 9.14579 1.93755 8.88746C2.19588 8.62912 2.50838 8.49996 2.87505 8.49996H5.90005L9.32505 5.02496C9.74172 4.59162 10.225 4.49579 10.775 4.73746C11.325 4.97912 11.6 5.39162 11.6 5.97496V18.025C11.6 18.6083 11.325 19.0208 10.775 19.2625C10.225 19.5041 9.74172 19.4083 9.32505 18.975L5.90005 15.5ZM16.4 12C16.4 12.75 16.2417 13.4458 15.925 14.0875C15.6084 14.7291 15.1584 15.275 14.575 15.725C14.3584 15.8583 14.1417 15.8625 13.925 15.7375C13.7084 15.6125 13.6 15.425 13.6 15.175V8.82496C13.6 8.57496 13.7084 8.38746 13.925 8.26246C14.1417 8.13746 14.3584 8.14162 14.575 8.27496C15.1584 8.72496 15.6084 9.27079 15.925 9.91246C16.2417 10.5541 16.4 11.25 16.4 12Z" fill="currentColor"/>
</g>
</svg>
