<svg width="613" height="108" viewBox="0 0 613 108" fill="none" xmlns="http://www.w3.org/2000/svg">
	<defs>
		<style type="text/css"><![CDATA[
			/* Let the logo inherit color from its parent (currentColor) so buttons/headers can color it */
			.content { fill: currentColor; }
		]]></style>
	</defs>
	<path class="content" d="M36.032 107.728C29.888 107.728 23.696 106.672 17.456 104.56C11.312 102.352 5.696 98.896 0.608 94.192L13.568 78.064C16.928 80.752 20.672 82.816 24.8 84.256C28.928 85.696 32.864 86.416 36.608 86.416C40.352 86.416 43.04 85.84 44.672 84.688C46.4 83.536 47.264 81.904 47.264 79.792C47.264 78.256 46.736 77.056 45.68 76.192C44.72 75.232 43.28 74.368 41.36 73.6C39.536 72.736 37.28 71.776 34.592 70.72L22.928 65.968C19.568 64.528 16.448 62.656 13.568 60.352C10.688 57.952 8.384 55.072 6.656 51.712C4.928 48.256 4.064 44.272 4.064 39.76C4.064 34.384 5.552 29.536 8.528 25.216C11.504 20.8 15.584 17.296 20.768 14.704C26.048 12.016 32.096 10.672 38.912 10.672C44.576 10.672 50.096 11.68 55.472 13.696C60.944 15.616 65.792 18.544 70.016 22.48L57.056 38.608C53.888 36.4 50.768 34.768 47.696 33.712C44.624 32.56 41.696 31.984 38.912 31.984C35.936 31.984 33.536 32.512 31.712 33.568C29.984 34.624 29.12 36.208 29.12 38.32C29.12 39.76 29.648 41.008 30.704 42.064C31.856 43.024 33.488 43.936 35.6 44.8C37.712 45.568 40.16 46.528 42.944 47.68L54.32 52.144C58.256 53.68 61.568 55.648 64.256 58.048C66.944 60.352 69.008 63.136 70.448 66.4C71.888 69.664 72.608 73.456 72.608 77.776C72.608 83.056 71.168 88 68.288 92.608C65.504 97.12 61.376 100.768 55.904 103.552C50.432 106.336 43.808 107.728 36.032 107.728ZM85.6333 106V34H105.793L107.521 42.784H108.097C110.977 40 114.049 37.552 117.313 35.44C120.673 33.328 124.801 32.272 129.697 32.272C134.593 32.272 138.625 33.28 141.793 35.296C145.057 37.216 147.649 40.048 149.569 43.792C152.545 40.72 155.761 38.032 159.217 35.728C162.673 33.424 166.849 32.272 171.745 32.272C179.713 32.272 185.473 34.96 189.025 40.336C192.673 45.616 194.497 52.72 194.497 61.648V106H169.729V64.816C169.729 60.208 169.153 57.136 168.001 55.6C166.849 54.064 165.025 53.296 162.529 53.296C161.089 53.296 159.505 53.728 157.777 54.592C156.145 55.456 154.369 56.848 152.449 58.768V106H127.681V64.816C127.681 60.208 127.105 57.136 125.953 55.6C124.801 54.064 122.977 53.296 120.481 53.296C117.409 53.296 114.049 55.12 110.401 58.768V106H85.6333ZM242.617 107.728C236.473 107.728 230.665 106.24 225.193 103.264C219.817 100.288 215.401 96.016 211.945 90.448C208.585 84.784 206.905 77.968 206.905 70C206.905 62.032 208.585 55.264 211.945 49.696C215.401 44.032 219.817 39.712 225.193 36.736C230.665 33.76 236.473 32.272 242.617 32.272C248.761 32.272 254.521 33.76 259.897 36.736C265.369 39.712 269.785 44.032 273.145 49.696C276.601 55.264 278.329 62.032 278.329 70C278.329 77.968 276.601 84.784 273.145 90.448C269.785 96.016 265.369 100.288 259.897 103.264C254.521 106.24 248.761 107.728 242.617 107.728ZM242.617 87.856C245.113 87.856 247.129 87.136 248.665 85.696C250.201 84.256 251.305 82.192 251.977 79.504C252.649 76.816 252.985 73.648 252.985 70C252.985 66.352 252.649 63.184 251.977 60.496C251.305 57.808 250.201 55.744 248.665 54.304C247.129 52.864 245.113 52.144 242.617 52.144C240.121 52.144 238.105 52.864 236.569 54.304C235.033 55.744 233.929 57.808 233.257 60.496C232.585 63.184 232.249 66.352 232.249 70C232.249 73.648 232.585 76.816 233.257 79.504C233.929 82.192 235.033 84.256 236.569 85.696C238.105 87.136 240.121 87.856 242.617 87.856ZM323.195 107.728C317.051 107.728 311.243 106.24 305.771 103.264C300.395 100.288 295.979 96.016 292.523 90.448C289.163 84.784 287.483 77.968 287.483 70C287.483 62.032 289.163 55.264 292.523 49.696C295.979 44.032 300.395 39.712 305.771 36.736C311.243 33.76 317.051 32.272 323.195 32.272C329.339 32.272 335.099 33.76 340.475 36.736C345.947 39.712 350.363 44.032 353.723 49.696C357.179 55.264 358.907 62.032 358.907 70C358.907 77.968 357.179 84.784 353.723 90.448C350.363 96.016 345.947 100.288 340.475 103.264C335.099 106.24 329.339 107.728 323.195 107.728ZM323.195 87.856C325.691 87.856 327.707 87.136 329.243 85.696C330.779 84.256 331.883 82.192 332.555 79.504C333.227 76.816 333.563 73.648 333.563 70C333.563 66.352 333.227 63.184 332.555 60.496C331.883 57.808 330.779 55.744 329.243 54.304C327.707 52.864 325.691 52.144 323.195 52.144C320.699 52.144 318.683 52.864 317.147 54.304C315.611 55.744 314.507 57.808 313.835 60.496C313.163 63.184 312.827 66.352 312.827 70C312.827 73.648 313.163 76.816 313.835 79.504C314.507 82.192 315.611 84.256 317.147 85.696C318.683 87.136 320.699 87.856 323.195 87.856ZM397.25 107.728C387.938 107.728 381.17 105.04 376.946 99.664C372.818 94.192 370.754 87.088 370.754 78.352V53.296H361.25V34.864L372.194 34L375.074 12.4H395.522V34H411.938V53.296H395.522V77.92C395.522 81.856 396.386 84.592 398.114 86.128C399.842 87.664 401.858 88.432 404.162 88.432C405.314 88.432 406.418 88.384 407.474 88.288C408.626 88.096 409.634 87.856 410.498 87.568L414.242 104.848C412.418 105.52 410.066 106.144 407.186 106.72C404.306 107.392 400.994 107.728 397.25 107.728ZM425.243 106V5.77599H450.011V29.104L448.859 41.488C451.355 39.28 454.331 37.216 457.787 35.296C461.339 33.28 465.563 32.272 470.459 32.272C478.427 32.272 484.139 34.96 487.595 40.336C491.147 45.616 492.923 52.72 492.923 61.648V106H468.155V64.816C468.155 60.208 467.579 57.136 466.427 55.6C465.275 54.064 463.451 53.296 460.955 53.296C458.651 53.296 456.731 53.776 455.195 54.736C453.659 55.696 451.931 57.04 450.011 58.768V106H425.243ZM509.055 106V34H533.823V106H509.055ZM521.439 25.072C517.407 25.072 514.143 23.968 511.647 21.76C509.151 19.456 507.903 16.432 507.903 12.688C507.903 8.944 509.151 5.96799 511.647 3.75999C514.143 1.456 517.407 0.303996 521.439 0.303996C525.471 0.303996 528.735 1.456 531.231 3.75999C533.727 5.96799 534.975 8.944 534.975 12.688C534.975 16.432 533.727 19.456 531.231 21.76C528.735 23.968 525.471 25.072 521.439 25.072ZM583.948 107.728C576.94 107.728 570.604 106.24 564.94 103.264C559.372 100.288 554.956 96.016 551.691 90.448C548.428 84.784 546.796 77.968 546.796 70C546.796 62.224 548.428 55.552 551.691 49.984C555.052 44.32 559.372 39.952 564.652 36.88C569.932 33.808 575.5 32.272 581.356 32.272C588.46 32.272 594.316 33.856 598.924 37.024C603.628 40.096 607.084 44.272 609.292 49.552C611.596 54.832 612.748 60.688 612.748 67.12C612.748 69.232 612.604 71.296 612.316 73.312C612.124 75.232 611.932 76.624 611.74 77.488H566.38L566.092 61.36H591.724C591.724 58.576 591.004 56.176 589.564 54.16C588.22 52.048 585.676 50.992 581.932 50.992C579.916 50.992 577.9 51.568 575.884 52.72C573.964 53.776 572.38 55.696 571.132 58.48C569.884 61.264 569.356 65.104 569.548 70C569.74 75.28 570.748 79.312 572.572 82.096C574.396 84.784 576.604 86.608 579.195 87.568C581.884 88.528 584.62 89.008 587.404 89.008C589.9 89.008 592.348 88.672 594.748 88C597.244 87.232 599.788 86.128 602.38 84.688L610.156 99.376C606.316 102.064 601.996 104.128 597.196 105.568C592.396 107.008 587.98 107.728 583.948 107.728Z" />
</svg>
