<svg width="150" height="150" viewBox="0 0 150 150" fill="none" xmlns="http://www.w3.org/2000/svg">
<path d="M0 75C0 33.5786 33.5786 0 75 0V0C116.421 0 150 33.5786 150 75V75C150 116.421 116.421 150 75 150V150C33.5786 150 0 116.421 0 75V75Z" fill="#202F48"/>
<path d="M35 34H110C112.761 34 115 36.2386 115 39V116H40C37.2386 116 35 113.761 35 111V34Z" fill="white"/>
<path d="M109.195 124.177C94.9947 130.968 77.9786 124.961 71.1882 110.761L36.0809 37.3443C34.056 33.1093 35.8473 28.0342 40.0823 26.009L41.8866 25.1462C56.0866 18.3559 73.1027 24.3629 79.8932 38.5627L118.667 119.648L109.195 124.177Z" fill="white" stroke="#202F48" stroke-width="7"/>
</svg>
