<svg width="150" height="150" viewBox="0 0 150 150" fill="none" xmlns="http://www.w3.org/2000/svg">
<path d="M0 75C0 33.5786 33.5786 0 75 0V0C116.421 0 150 33.5786 150 75V75C150 116.421 116.421 150 75 150V150C33.5786 150 0 116.421 0 75V75Z" fill="#FFE1BB"/>
<path d="M59 61H86C88.7614 61 91 63.2386 91 66V129H64C61.2386 129 59 126.761 59 124V61Z" fill="#202F48"/>
<path d="M123.5 36C123.5 51.7401 110.74 64.5 95 64.5L26.5 64.5L26.5 34C26.5 29.3056 30.3056 25.5 35 25.5L123.5 25.5L123.5 36Z" fill="#202F48" stroke="#FFE1BB" stroke-width="7"/>
</svg>
