<svg width="32" height="33" viewBox="0 0 32 33" fill="none" xmlns="http://www.w3.org/2000/svg">
	<rect width="32" height="32" transform="translate(0 0.706665)" fill="#202F48"/>
	<path d="M16.6826 5.61333C17.8473 5.61333 18.9908 5.75229 20.1131 6.03014C21.2354 6.30801 22.199 6.70346 23.0037 7.21645L22.7178 11.8334H19.4143L18.8426 8.0179C18.2073 7.76142 17.5509 7.63327 16.8733 7.63326C16.0898 7.63326 15.4122 7.88978 14.8404 8.40275C14.2899 8.89434 14.0146 9.51415 14.0145 10.2622C14.0145 11.0531 14.2368 11.673 14.6815 12.1219C15.1262 12.5708 15.7721 13.009 16.6191 13.4365L18.2073 14.2058C19.5414 14.847 20.6215 15.499 21.4473 16.1616C22.2943 16.8028 22.9084 17.5295 23.2895 18.3417C23.6919 19.1326 23.8931 20.0838 23.8931 21.1953C23.8931 22.4564 23.5754 23.5892 22.9401 24.5938C22.326 25.577 21.3836 26.3571 20.1131 26.9342C18.8425 27.5113 17.2332 27.8 15.285 27.8C14.0992 27.8 12.8498 27.6716 11.5369 27.4151C10.2452 27.1586 9.10169 26.7312 8.10645 26.1327L8.29708 21.2594H11.664L12.2992 25.2991C13.2521 25.6197 14.2581 25.7801 15.3169 25.7801C16.3121 25.78 17.0427 25.5129 17.5085 24.9786C17.9744 24.4229 18.2073 23.7815 18.2073 23.0548C18.2073 22.2853 18.0273 21.6869 17.6673 21.2594C17.3285 20.832 16.7568 20.4257 15.9522 20.041L14.5546 19.3678C12.5852 18.4273 11.0817 17.4013 10.0441 16.2898C9.00647 15.1784 8.48752 13.7143 8.48751 11.8975C8.48751 9.93111 9.20753 8.39205 10.6474 7.28059C12.1086 6.16913 14.1204 5.61333 16.6826 5.61333Z" fill="white"/>
</svg>
