<svg width="150" height="150" viewBox="0 0 150 150" fill="none" xmlns="http://www.w3.org/2000/svg">
<rect width="150" height="150" fill="#202F48"/>
<path d="M78.2009 23C83.6601 23 89.0203 23.6514 94.281 24.9538C99.5419 26.2563 104.059 28.11 107.831 30.5146L106.491 52.1565H91.0054L88.3256 34.2714C85.3479 33.0692 82.2707 32.4685 79.0945 32.4684C75.4219 32.4684 72.2456 33.6709 69.5656 36.0754C66.9849 38.3798 65.6943 41.2851 65.6942 44.7917C65.6942 48.4987 66.7359 51.4049 68.8204 53.509C70.9049 55.613 73.9325 57.6673 77.903 59.6711L85.3478 63.2771C91.6013 66.2828 96.6642 69.3389 100.535 72.4448C104.506 75.4505 107.384 78.8573 109.171 82.6644C111.057 86.3716 112 90.8305 112 96.0405C112 101.952 110.511 107.262 107.533 111.971C104.654 116.58 100.237 120.236 94.281 122.942C88.3253 125.647 80.7817 127 71.6497 127C66.091 127 60.2344 126.398 54.0802 125.196C48.0253 123.994 42.6652 121.99 38 119.185L38.8936 96.3412H54.6759L57.6536 115.277C62.1204 116.78 66.836 117.532 71.7991 117.532C76.4641 117.531 79.8885 116.279 82.0722 113.775C84.256 111.17 85.3478 108.163 85.3478 104.757C85.3478 101.15 84.5038 98.345 82.8164 96.3412C81.2282 94.3374 78.5487 92.433 74.7768 90.6296L68.2256 87.4741C58.9943 83.0656 51.9465 78.2562 47.0826 73.0462C42.2189 67.8363 39.7863 60.9733 39.7862 52.4572C39.7862 43.2396 43.1613 36.0253 49.9109 30.8153C56.76 25.6053 66.1903 23 78.2009 23Z" fill="white"/>
</svg>
