<svg width="150" height="150" viewBox="0 0 150 150" fill="none" xmlns="http://www.w3.org/2000/svg">
<rect width="150" height="150" fill="#202F48"/>
<path d="M69.5 125H62.5C48.6929 125 37.5 113.807 37.5 100L37.5 30C37.5 27.2386 39.7386 25 42.5 25H69.5L69.5 125Z" fill="white"/>
<svg width="150" height="150" viewBox="0 0 150 150" fill="none" xmlns="http://www.w3.org/2000/svg">
<rect width="150" height="150" fill="#202F48"/>
<path fill-rule="evenodd" clip-rule="evenodd" d="M101.356 80.0804C101.35 80.0725 101.345 80.0647 101.34 80.0569C101.341 80.0587 101.339 80.0551 101.34 80.0569C101.344 80.0629 101.352 80.0743 101.356 80.0804Z" fill="white"/>
<path d="M101.34 80.0569L101.356 80.0804L101.382 80.1199C101.439 80.2074 101.496 80.2948 101.552 80.3834L101.584 80.4338L101.637 80.5197C101.823 80.8188 102.002 81.1246 102.175 81.4361C102.201 81.4827 102.226 81.5294 102.252 81.5762C102.308 81.6793 102.363 81.7829 102.418 81.8873L102.443 81.9361L102.461 81.9699C102.517 82.0778 102.572 82.1861 102.627 82.2953L102.653 82.3485L102.684 82.4102C106.803 90.7829 106.469 102.953 101.256 112.581L97.9692 118.65L49.2617 70.8199L48.9012 70.456C48.8783 70.4321 48.8556 70.4072 48.8331 70.3825C48.8158 70.3635 48.7985 70.3445 48.7809 70.3258C48.6894 70.2284 48.5989 70.1299 48.5094 70.0301C48.4598 69.9748 48.4106 69.9181 48.3618 69.8617L48.3223 69.8161C48.2471 69.7295 48.1722 69.6428 48.0985 69.5545C48.0412 69.486 47.9844 69.4171 47.928 69.3476C47.8267 69.2226 47.7269 69.0959 47.6284 68.9678C47.589 68.9166 47.5439 68.8579 47.5051 68.8062C47.3998 68.6661 47.296 68.5247 47.1941 68.3811C47.1529 68.3232 47.1122 68.2649 47.0716 68.2063C46.9886 68.0866 46.9071 67.9654 46.8263 67.8433L46.8018 67.8062C46.771 67.7597 46.7403 67.7134 46.71 67.6665C46.6114 67.5139 46.5143 67.3599 46.4192 67.2039C46.3867 67.1505 46.3545 67.0967 46.3223 67.0429C46.2357 66.8977 46.1506 66.751 46.067 66.603C46.0341 66.5448 46.0018 66.4861 45.9695 66.4274L45.9507 66.3933C45.8832 66.2707 45.8166 66.1473 45.7511 66.0229C45.7272 65.9774 45.7025 65.9304 45.6788 65.8847C41.3421 57.5028 41.6012 45.089 46.9004 35.3023L47.8388 33.569C48.9506 31.5156 50.5324 30.6152 52.1473 31.5562C53.7622 32.4973 98.8936 77.0641 98.8936 77.0641C99.0073 77.1758 99.1193 77.2901 99.2301 77.4052C99.2617 77.438 99.293 77.4711 99.3244 77.5041C99.4027 77.5869 99.4804 77.6705 99.5573 77.755C99.5769 77.7765 99.5963 77.7983 99.6157 77.8201L99.6578 77.8673C99.7249 77.9423 99.7917 78.0175 99.8577 78.0938L99.9316 78.1794C99.9588 78.2109 99.9859 78.2425 100.013 78.2744C100.048 78.3157 100.082 78.3578 100.116 78.3998L100.162 78.456L100.204 78.5069C100.234 78.5432 100.264 78.5803 100.294 78.617C100.34 78.6743 100.385 78.7325 100.43 78.7906L100.458 78.8259C100.647 79.0697 100.832 79.3194 101.011 79.5744L101.049 79.629C101.077 79.6685 101.105 79.708 101.133 79.748C101.185 79.8237 101.236 79.9002 101.287 79.9768C101.305 80.0036 101.322 80.03 101.34 80.0569Z" fill="white"/>
<path d="M86.6202 123.07C86.6202 123.07 70.0423 105.139 60.9984 94.8009C51.9544 84.4624 41.6822 88.9823 40.9266 100.953C40.171 112.923 49.1828 125.859 68.8074 124.873L86.6202 123.07Z" fill="white"/>
<path d="M63.7303 26.6028C63.7303 26.6028 80.006 44.808 88.8758 55.2963C97.7456 65.7846 108.092 61.437 109.048 49.4808C110.003 37.5246 101.209 24.4398 81.5708 25.0973L63.7303 26.6028Z" fill="white"/>
</svg>
</svg>
