<svg width="32" height="33" viewBox="0 0 32 33" fill="none" xmlns="http://www.w3.org/2000/svg">
<rect width="32" height="32" fill="#202F48"/>
<path fill-rule="evenodd" clip-rule="evenodd" d="M21.6225 17.7905C21.6214 17.7888 21.6204 17.7871 21.6193 17.7855C21.6195 17.7859 21.619 17.7851 21.6193 17.7855C21.6201 17.7868 21.6217 17.7892 21.6225 17.7905Z" fill="white"/>
<path d="M21.6193 17.7855L21.6225 17.7905L21.6281 17.7989C21.6403 17.8176 21.6525 17.8362 21.6644 17.8551L21.6712 17.8659L21.6825 17.8842C21.7222 17.948 21.7604 18.0132 21.7973 18.0797C21.8028 18.0896 21.8083 18.0996 21.8137 18.1096C21.8257 18.1316 21.8375 18.1537 21.8492 18.176L21.8546 18.1864L21.8583 18.1936C21.8703 18.2166 21.8821 18.2397 21.8937 18.263L21.8994 18.2744L21.9059 18.2875C22.7847 20.0737 22.7133 22.67 21.6012 24.7239L20.9001 26.0186L10.5092 15.8149L10.4323 15.7373C10.4274 15.7322 10.4225 15.7269 10.4177 15.7216C10.414 15.7175 10.4104 15.7135 10.4066 15.7095C10.3871 15.6887 10.3678 15.6677 10.3487 15.6464C10.3381 15.6346 10.3276 15.6225 10.3172 15.6105L10.3088 15.6008C10.2927 15.5823 10.2768 15.5638 10.261 15.545C10.2488 15.5304 10.2367 15.5157 10.2247 15.5008C10.203 15.4742 10.1817 15.4471 10.1607 15.4198C10.1523 15.4089 10.1427 15.3964 10.1344 15.3853C10.112 15.3554 10.0898 15.3253 10.0681 15.2946C10.0593 15.2823 10.0506 15.2698 10.042 15.2574C10.0243 15.2318 10.0069 15.2059 9.98963 15.1799L9.98439 15.172C9.97783 15.1621 9.97128 15.1522 9.96481 15.1422C9.94378 15.1096 9.92307 15.0768 9.90278 15.0435C9.89584 15.0321 9.88897 15.0206 9.88211 15.0091C9.86362 14.9782 9.84548 14.9469 9.82763 14.9153C9.82062 14.9029 9.81373 14.8904 9.80684 14.8778L9.80283 14.8706C9.78842 14.8444 9.77422 14.8181 9.76025 14.7915C9.75514 14.7818 9.74987 14.7718 9.74482 14.7621C8.81967 12.9739 8.87494 10.3256 10.0054 8.23783L10.2056 7.86805C10.4428 7.43 10.7802 7.23791 11.1248 7.43866C11.4693 7.63941 21.0973 17.147 21.0973 17.147C21.1216 17.1708 21.1455 17.1952 21.1691 17.2198C21.1758 17.2268 21.1825 17.2338 21.1892 17.2409C21.2059 17.2585 21.2225 17.2764 21.2389 17.2944C21.2431 17.299 21.2472 17.3036 21.2514 17.3083L21.2603 17.3184C21.2747 17.3344 21.2889 17.3504 21.303 17.3667L21.3188 17.3849C21.3246 17.3917 21.3303 17.3984 21.3361 17.4052C21.3435 17.414 21.3508 17.423 21.3581 17.432L21.3679 17.4439L21.3768 17.4548C21.3832 17.4625 21.3898 17.4705 21.396 17.4783C21.4058 17.4905 21.4155 17.5029 21.4251 17.5153L21.431 17.5229C21.4714 17.5749 21.5108 17.6281 21.549 17.6825L21.5572 17.6942C21.5632 17.7026 21.5691 17.711 21.575 17.7196C21.5861 17.7357 21.597 17.752 21.6079 17.7684C21.6118 17.7741 21.6155 17.7797 21.6193 17.7855Z" fill="white"/>
<path d="M18.479 26.9616C18.479 26.9616 14.9424 23.1364 13.013 20.9308C11.0836 18.7253 8.89222 19.6896 8.73102 22.2433C8.56983 24.797 10.4924 27.5566 14.6789 27.3463L18.479 26.9616Z" fill="white"/>
<path d="M13.5958 6.38192C13.5958 6.38192 17.068 10.2657 18.9602 12.5032C20.8524 14.7407 23.0596 13.8132 23.2635 11.2626C23.4674 8.71191 21.5913 5.92049 17.4018 6.06076L13.5958 6.38192Z" fill="white"/>
</svg>
