<svg width="593" height="130" viewBox="0 0 593 130" fill="none" xmlns="http://www.w3.org/2000/svg">
<g clip-path="url(#clip0_449_66)">
<path d="M37.008 109.88C31.632 109.88 25.968 109.304 20.016 108.152C14.16 107 8.976 105.08 4.464 102.392L5.328 80.504H20.592L23.472 98.648C27.792 100.088 32.352 100.808 37.152 100.808C41.664 100.808 44.976 99.608 47.088 97.208C49.2 94.712 50.256 91.832 50.256 88.568C50.256 85.112 49.44 82.424 47.808 80.504C46.272 78.584 43.68 76.76 40.032 75.032L33.696 72.008C24.768 67.784 17.952 63.176 13.248 58.184C8.544 53.192 6.192 46.616 6.192 38.456C6.192 29.624 9.456 22.712 15.984 17.72C22.608 12.728 31.728 10.232 43.344 10.232C48.624 10.232 53.808 10.856 58.896 12.104C63.984 13.352 68.352 15.128 72 17.432L70.704 38.168H55.728L53.136 21.032C50.256 19.88 47.28 19.304 44.208 19.304C40.656 19.304 37.584 20.456 34.992 22.76C32.496 24.968 31.248 27.752 31.248 31.112C31.248 34.664 32.256 37.448 34.272 39.464C36.288 41.48 39.216 43.448 43.056 45.368L50.256 48.824C56.304 51.704 61.2 54.632 64.944 57.608C68.784 60.488 71.568 63.752 73.296 67.4C75.12 70.952 76.032 75.224 76.032 80.216C76.032 85.88 74.592 90.968 71.712 95.48C68.928 99.896 64.656 103.4 58.896 105.992C53.136 108.584 45.84 109.88 37.008 109.88ZM75.7058 107V99.656L82.3298 98.072C82.4258 94.616 82.4738 90.968 82.4738 87.128C82.4738 83.192 82.4738 79.736 82.4738 76.76V67.832C82.4738 65.144 82.4738 62.984 82.4738 61.352C82.4738 59.72 82.4258 58.184 82.3298 56.744C82.3298 55.304 82.2338 53.624 82.0418 51.704L74.2658 50.408V44.504L106.09 34.568L108.682 36.152L109.402 46.088C112.762 42.056 116.122 39.128 119.482 37.304C122.842 35.48 126.634 34.568 130.858 34.568C141.034 34.568 147.658 38.744 150.73 47.096C154.762 42.104 158.458 38.792 161.818 37.16C165.178 35.432 168.826 34.568 172.762 34.568C180.634 34.568 186.25 36.728 189.61 41.048C193.066 45.368 194.794 51.752 194.794 60.2V76.76C194.794 79.832 194.794 83.336 194.794 87.272C194.794 91.208 194.842 94.904 194.938 98.36L200.986 99.656V107H162.394V99.656L167.866 98.216C167.962 94.76 168.01 91.064 168.01 87.128C168.01 83.192 168.01 79.736 168.01 76.76V62.216C168.01 57.32 167.53 54.056 166.57 52.424C165.61 50.792 163.882 49.976 161.386 49.976C158.314 49.976 155.242 51.128 152.17 53.432C152.266 54.2 152.314 55.016 152.314 55.88C152.41 56.744 152.458 57.656 152.458 58.616V76.76C152.458 79.832 152.458 83.336 152.458 87.272C152.458 91.208 152.506 94.952 152.602 98.504L158.074 99.656V107H119.338V99.656L125.53 98.072C125.626 94.712 125.674 91.064 125.674 87.128C125.674 83.192 125.674 79.736 125.674 76.76V62.216C125.674 57.8 125.194 54.68 124.234 52.856C123.37 50.936 121.546 49.976 118.762 49.976C117.322 49.976 115.834 50.312 114.298 50.984C112.762 51.656 111.274 52.52 109.834 53.576V76.76C109.834 79.736 109.834 83.24 109.834 87.272C109.834 91.208 109.882 94.952 109.978 98.504L115.45 99.656V107H75.7058ZM237.44 109.304C229.184 109.304 222.224 107.672 216.56 104.408C210.896 101.048 206.624 96.488 203.744 90.728C200.864 84.968 199.424 78.536 199.424 71.432C199.424 64.232 201.056 57.896 204.32 52.424C207.584 46.856 212.048 42.488 217.712 39.32C223.472 36.152 230.048 34.568 237.44 34.568C244.832 34.568 251.36 36.152 257.024 39.32C262.784 42.392 267.296 46.712 270.56 52.28C273.824 57.752 275.456 64.136 275.456 71.432C275.456 78.728 273.968 85.256 270.992 91.016C268.112 96.68 263.84 101.144 258.176 104.408C252.608 107.672 245.696 109.304 237.44 109.304ZM237.44 101.384C240.608 101.384 242.912 99.08 244.352 94.472C245.888 89.864 246.656 82.328 246.656 71.864C246.656 61.4 245.888 53.912 244.352 49.4C242.912 44.792 240.608 42.488 237.44 42.488C234.272 42.488 231.92 44.792 230.384 49.4C228.944 53.912 228.224 61.4 228.224 71.864C228.224 82.328 228.944 89.864 230.384 94.472C231.92 99.08 234.272 101.384 237.44 101.384ZM314.053 109.304C305.797 109.304 298.837 107.672 293.173 104.408C287.509 101.048 283.237 96.488 280.357 90.728C277.477 84.968 276.037 78.536 276.037 71.432C276.037 64.232 277.669 57.896 280.933 52.424C284.197 46.856 288.661 42.488 294.325 39.32C300.085 36.152 306.661 34.568 314.053 34.568C321.445 34.568 327.973 36.152 333.637 39.32C339.397 42.392 343.909 46.712 347.173 52.28C350.437 57.752 352.069 64.136 352.069 71.432C352.069 78.728 350.581 85.256 347.605 91.016C344.725 96.68 340.453 101.144 334.789 104.408C329.221 107.672 322.309 109.304 314.053 109.304ZM314.053 101.384C317.221 101.384 319.525 99.08 320.965 94.472C322.501 89.864 323.269 82.328 323.269 71.864C323.269 61.4 322.501 53.912 320.965 49.4C319.525 44.792 317.221 42.488 314.053 42.488C310.885 42.488 308.533 44.792 306.997 49.4C305.557 53.912 304.837 61.4 304.837 71.864C304.837 82.328 305.557 89.864 306.997 94.472C308.533 99.08 310.885 101.384 314.053 101.384ZM380.331 109.304C373.227 109.304 367.707 107.672 363.771 104.408C359.835 101.048 357.867 95.528 357.867 87.848C357.867 85.064 357.867 82.52 357.867 80.216C357.963 77.816 358.011 75.224 358.011 72.44V47.672H349.803V38.168L359.595 36.872L368.235 16.424H385.371V36.872H398.619V47.672H385.371V86.264C385.371 89.528 386.043 91.928 387.387 93.464C388.731 95 390.411 95.768 392.427 95.768C394.635 95.768 396.987 94.808 399.483 92.888L403.083 96.2C401.163 100.328 398.379 103.544 394.731 105.848C391.083 108.152 386.283 109.304 380.331 109.304ZM398.341 107V99.656L404.965 98.072C405.061 94.616 405.109 90.968 405.109 87.128C405.109 83.192 405.109 79.736 405.109 76.76V17.576L397.333 16.136V9.65599L430.165 3.176L432.613 4.75999L432.037 24.776V45.944C435.877 41.432 439.381 38.408 442.549 36.872C445.813 35.336 449.461 34.568 453.493 34.568C459.925 34.568 465.205 36.632 469.333 40.76C473.557 44.792 475.669 50.744 475.669 58.616V76.76C475.669 79.832 475.669 83.336 475.669 87.272C475.669 91.208 475.717 94.904 475.813 98.36L481.861 99.656V107H441.973V99.656L448.165 98.216C448.261 94.76 448.309 91.064 448.309 87.128C448.309 83.192 448.309 79.736 448.309 76.76V60.488C448.309 56.552 447.877 53.816 447.013 52.28C446.245 50.744 444.661 49.976 442.261 49.976C440.821 49.976 439.237 50.456 437.509 51.416C435.877 52.28 434.197 53.528 432.469 55.16V76.76C432.469 79.736 432.469 83.24 432.469 87.272C432.469 91.208 432.517 94.952 432.613 98.504L438.085 99.656V107H398.341ZM481.144 107V99.656L487.624 98.216C487.72 94.664 487.768 90.968 487.768 87.128C487.768 83.192 487.768 79.736 487.768 76.76V69.848C487.768 65.912 487.72 62.648 487.624 60.056C487.624 57.368 487.528 54.584 487.336 51.704L479.56 50.408V44.504L512.968 34.568L515.56 36.152L515.128 57.608V76.76C515.128 79.736 515.128 83.24 515.128 87.272C515.128 91.208 515.176 94.904 515.272 98.36L521.32 99.656V107H481.144ZM501.16 26.072C497.512 26.072 494.392 24.92 491.8 22.616C489.208 20.216 487.912 17.24 487.912 13.688C487.912 10.04 489.208 7.06399 491.8 4.75999C494.392 2.456 497.512 1.304 501.16 1.304C504.808 1.304 507.928 2.456 510.52 4.75999C513.112 7.06399 514.408 10.04 514.408 13.688C514.408 17.24 513.112 20.216 510.52 22.616C507.928 24.92 504.808 26.072 501.16 26.072ZM556.776 42.344C554.568 42.344 552.696 43.976 551.16 47.24C549.624 50.504 548.76 56.6 548.568 65.528H555.336C558.792 65.528 561.096 64.856 562.248 63.512C563.496 62.072 564.12 59.528 564.12 55.88C564.12 50.888 563.352 47.384 561.816 45.368C560.376 43.352 558.696 42.344 556.776 42.344ZM557.208 109.304C550.008 109.304 543.576 107.816 537.912 104.84C532.344 101.864 527.928 97.592 524.664 92.024C521.4 86.36 519.768 79.592 519.768 71.72C519.768 65.48 520.872 60.056 523.08 55.448C525.288 50.84 528.264 47 532.008 43.928C535.752 40.76 539.928 38.408 544.536 36.872C549.144 35.336 553.8 34.568 558.504 34.568C565.416 34.568 571.128 36.008 575.64 38.888C580.248 41.672 583.704 45.464 586.008 50.264C588.312 54.968 589.464 60.248 589.464 66.104C589.464 67.64 589.416 68.984 589.32 70.136C589.224 71.192 589.032 72.392 588.744 73.736H548.712C549.48 80.744 551.544 85.832 554.904 89C558.36 92.168 562.2 93.752 566.424 93.752C570.072 93.752 573.192 93.128 575.784 91.88C578.472 90.536 580.824 88.904 582.84 86.984L588.456 92.456C585.384 98.312 581.16 102.584 575.784 105.272C570.504 107.96 564.312 109.304 557.208 109.304Z" fill="#FBFBFD"/>
</g>
<defs>
<clipPath id="clip0_449_66">
<rect width="593" height="130" fill="white"/>
</clipPath>
</defs>
</svg>
