<svg width="17" height="17" viewBox="0 0 17 17" fill="none" xmlns="http://www.w3.org/2000/svg">
<mask id="mask0_127_27" style="mask-type:alpha" maskUnits="userSpaceOnUse" x="0" y="0" width="17" height="17">
<rect x="0.222168" y="0.666687" width="16" height="16" fill="#D9D9D9"/>
</mask>
<g mask="url(#mask0_127_27)">
<path d="M6.88883 14.6667C6.1555 14.6667 5.52772 14.4056 5.0055 13.8834C4.48328 13.3611 4.22217 12.7334 4.22217 12C4.22217 11.2667 4.48328 10.6389 5.0055 10.1167C5.52772 9.59447 6.1555 9.33335 6.88883 9.33335C7.14439 9.33335 7.3805 9.36391 7.59717 9.42502C7.81383 9.48613 8.02217 9.5778 8.22217 9.70002V2.66669H12.2222V5.33335H9.5555V12C9.5555 12.7334 9.29439 13.3611 8.77217 13.8834C8.24995 14.4056 7.62217 14.6667 6.88883 14.6667Z" fill="#1C1B1F"/>
</g>
</svg>
