<svg width="21" height="20" viewBox="0 0 21 20" fill="none" xmlns="http://www.w3.org/2000/svg">
<g clip-path="url(#clip0_242_43)">
<mask id="mask0_242_43" style="mask-type:alpha" maskUnits="userSpaceOnUse" x="0" y="0" width="21" height="20">
<rect x="0.166626" width="20" height="20" fill="#D9D9D9"/>
</mask>
<g mask="url(#mask0_242_43)">
<path d="M9.06246 11.0834H4.77079C4.46524 11.0834 4.20482 10.9757 3.98954 10.7604C3.77426 10.5452 3.66663 10.2847 3.66663 9.97919C3.66663 9.67363 3.77426 9.41321 3.98954 9.19794C4.20482 8.98266 4.46524 8.87502 4.77079 8.87502H9.06246V4.58335C9.06246 4.2778 9.1701 4.01738 9.38538 3.8021C9.60065 3.58683 9.86107 3.47919 10.1666 3.47919C10.4722 3.47919 10.7326 3.58683 10.9479 3.8021C11.1632 4.01738 11.2708 4.2778 11.2708 4.58335V8.87502H15.5625C15.868 8.87502 16.1284 8.98266 16.3437 9.19794C16.559 9.41321 16.6666 9.67363 16.6666 9.97919C16.6666 10.2847 16.559 10.5452 16.3437 10.7604C16.1284 10.9757 15.868 11.0834 15.5625 11.0834H11.2708V15.375C11.2708 15.6806 11.1632 15.941 10.9479 16.1563C10.7326 16.3715 10.4722 16.4792 10.1666 16.4792C9.86107 16.4792 9.60065 16.3715 9.38538 16.1563C9.1701 15.941 9.06246 15.6806 9.06246 15.375V11.0834Z" fill="#1C1B1F"/>
</g>
</g>
<defs>
<clipPath id="clip0_242_43">
<rect width="20" height="20" fill="white" transform="translate(0.166626)"/>
</clipPath>
</defs>
</svg>
