<svg width="24" height="24" viewBox="0 0 24 24" fill="none" xmlns="http://www.w3.org/2000/svg">
<mask id="mask0_737_1287" style="mask-type:alpha" maskUnits="userSpaceOnUse" x="0" y="0" width="24" height="24">
<rect width="24" height="24" fill="currentColor"/>
</mask>
<g mask="url(#mask0_737_1287)">
<path d="M5.84995 18.4L3.44995 20.8C3.03328 21.2167 2.55412 21.3083 2.01245 21.075C1.47078 20.8417 1.19995 20.4333 1.19995 19.85V3.54999C1.19995 2.81666 1.45828 2.19166 1.97495 1.67499C2.49162 1.15833 3.11662 0.899994 3.84995 0.899994H20.15C20.8833 0.899994 21.5083 1.15833 22.025 1.67499C22.5416 2.19166 22.8 2.81666 22.8 3.54999V15.75C22.8 16.4833 22.5416 17.1083 22.025 17.625C21.5083 18.1417 20.8833 18.4 20.15 18.4H5.84995ZM10.675 10.95V12.675C10.675 13.0417 10.8041 13.3542 11.0625 13.6125C11.3208 13.8708 11.6333 14 12 14C12.3666 14 12.6791 13.8708 12.9375 13.6125C13.1958 13.3542 13.325 13.0417 13.325 12.675V10.95H15.05C15.4166 10.95 15.7291 10.8208 15.9875 10.5625C16.2458 10.3042 16.375 9.99166 16.375 9.62499C16.375 9.25833 16.2458 8.94583 15.9875 8.68749C15.7291 8.42916 15.4166 8.29999 15.05 8.29999H13.325V6.57499C13.325 6.20833 13.1958 5.89583 12.9375 5.63749C12.6791 5.37916 12.3666 5.24999 12 5.24999C11.6333 5.24999 11.3208 5.37916 11.0625 5.63749C10.8041 5.89583 10.675 6.20833 10.675 6.57499V8.29999H8.94995C8.58328 8.29999 8.27078 8.42916 8.01245 8.68749C7.75412 8.94583 7.62495 9.25833 7.62495 9.62499C7.62495 9.99166 7.75412 10.3042 8.01245 10.5625C8.27078 10.8208 8.58328 10.95 8.94995 10.95H10.675Z" fill="currentColor"/>
</g>
</svg>
