<svg width="24" height="24" viewBox="0 0 24 24" fill="none" xmlns="http://www.w3.org/2000/svg">
<mask id="mask0_738_1329" style="mask-type:alpha" maskUnits="userSpaceOnUse" x="0" y="0" width="24" height="24">
<rect width="24" height="24" fill="currentColor"/>
</mask>
<g mask="url(#mask0_738_1329)">
<path d="M10.7 13.35V16.075C10.7 16.4417 10.8291 16.7542 11.0875 17.0125C11.3458 17.2708 11.6583 17.4 12.025 17.4C12.3916 17.4 12.7041 17.2708 12.9625 17.0125C13.2208 16.7542 13.35 16.4417 13.35 16.075V13.35H16.075C16.4416 13.35 16.7541 13.2208 17.0125 12.9625C17.2708 12.7042 17.4 12.3917 17.4 12.025C17.4 11.6583 17.2708 11.3458 17.0125 11.0875C16.7541 10.8292 16.4416 10.7 16.075 10.7H13.35V7.925C13.35 7.55833 13.2208 7.24583 12.9625 6.9875C12.7041 6.72916 12.3916 6.6 12.025 6.6C11.6583 6.6 11.3458 6.72916 11.0875 6.9875C10.8291 7.24583 10.7 7.55833 10.7 7.925V10.7H7.92495C7.55828 10.7 7.24578 10.8292 6.98745 11.0875C6.72912 11.3458 6.59995 11.6583 6.59995 12.025C6.59995 12.3917 6.72912 12.7042 6.98745 12.9625C7.24578 13.2208 7.55828 13.35 7.92495 13.35H10.7ZM12 22.8C10.506 22.8 9.10195 22.5165 7.78795 21.9495C6.47395 21.3825 5.33095 20.613 4.35895 19.641C3.38695 18.669 2.61745 17.526 2.05045 16.212C1.48345 14.898 1.19995 13.494 1.19995 12C1.19995 10.5017 1.48395 9.09366 2.05195 7.776C2.61995 6.45816 3.39078 5.31191 4.36445 4.33725C5.33812 3.36241 6.48112 2.59583 7.79345 2.0375C9.10578 1.47916 10.508 1.2 12 1.2C13.4981 1.2 14.906 1.47916 16.2235 2.0375C17.5411 2.59583 18.6875 3.3625 19.6625 4.3375C20.6375 5.3125 21.4041 6.459 21.9625 7.777C22.5208 9.09516 22.8 10.5035 22.8 12.002C22.8 13.5007 22.5208 14.9042 21.9625 16.2125C21.4041 17.5208 20.6375 18.6618 19.6627 19.6355C18.688 20.6092 17.5418 21.38 16.224 21.948C14.9063 22.516 13.4983 22.8 12 22.8Z" fill="currentColor"/>
</g>
</svg>
