<svg width="21" height="20" viewBox="0 0 21 20" fill="none" xmlns="http://www.w3.org/2000/svg">
<g clip-path="url(#clip0_234_200)">
<mask id="mask0_234_200" style="mask-type:alpha" maskUnits="userSpaceOnUse" x="0" y="0" width="24" height="24">
<rect x="0.916504" width="23.0833" height="23.0833" fill="#D9D9D9"/>
</mask>
<g mask="url(#mask0_234_200)">
<path d="M5.7915 14.753L3.7915 16.753C3.44428 17.1002 3.04498 17.1766 2.59359 16.9822C2.1422 16.7877 1.9165 16.4474 1.9165 15.9613V2.37799C1.9165 1.76688 2.13178 1.24604 2.56234 0.815488C2.99289 0.384933 3.51373 0.169655 4.12484 0.169655H17.7082C18.3193 0.169655 18.8401 0.384933 19.2707 0.815488C19.7012 1.24604 19.9165 1.76688 19.9165 2.37799V12.5447C19.9165 13.1558 19.7012 13.6766 19.2707 14.1072C18.8401 14.5377 18.3193 14.753 17.7082 14.753H5.7915ZM9.81234 8.54466V9.98216C9.81234 10.2877 9.91998 10.5481 10.1353 10.7634C10.3505 10.9787 10.6109 11.0863 10.9165 11.0863C11.2221 11.0863 11.4825 10.9787 11.6978 10.7634C11.913 10.5481 12.0207 10.2877 12.0207 9.98216V8.54466H13.4582C13.7637 8.54466 14.0241 8.43702 14.2394 8.22174C14.4547 8.00646 14.5623 7.74604 14.5623 7.44049C14.5623 7.13493 14.4547 6.87452 14.2394 6.65924C14.0241 6.44396 13.7637 6.33632 13.4582 6.33632H12.0207V4.89882C12.0207 4.59327 11.913 4.33285 11.6978 4.11757C11.4825 3.90229 11.2221 3.79466 10.9165 3.79466C10.6109 3.79466 10.3505 3.90229 10.1353 4.11757C9.91998 4.33285 9.81234 4.59327 9.81234 4.89882V6.33632H8.37484C8.06928 6.33632 7.80887 6.44396 7.59359 6.65924C7.37831 6.87452 7.27067 7.13493 7.27067 7.44049C7.27067 7.74604 7.37831 8.00646 7.59359 8.22174C7.80887 8.43702 8.06928 8.54466 8.37484 8.54466H9.81234Z" fill="#1C1B1F"/>
</g>
</g>
<defs>
<clipPath id="clip0_234_200">
<rect width="20" height="20" fill="white" transform="translate(0.916504)"/>
</clipPath>
</defs>
</svg>
