<svg xmlns="http://www.w3.org/2000/svg" width="22" height="20" fill="none" viewBox="0 0 22 20"><mask id="a" width="22" height="22" x="0" y="0" maskUnits="userSpaceOnUse" style="mask-type:alpha"><path fill="#d9d9d9" d="M.167 0H21.25v21.083H.167z"/></mask><g mask="url(#a)"><path fill="#1c1b1f" d="M4.998 18.448a2.12 2.12 0 0 1-1.56-.637 2.12 2.12 0 0 1-.636-1.56q0-.921.637-1.559a2.12 2.12 0 0 1 1.559-.636 2.12 2.12 0 0 1 1.56.636q.636.637.636 1.56a2.12 2.12 0 0 1-.637 1.559 2.12 2.12 0 0 1-1.56.637m5.71 0a2.12 2.12 0 0 1-1.56-.637 2.12 2.12 0 0 1-.636-1.56q0-.921.637-1.559a2.12 2.12 0 0 1 1.559-.636q.922 0 1.56.636.636.637.636 1.56a2.12 2.12 0 0 1-.637 1.559 2.12 2.12 0 0 1-1.559.637m5.71 0a2.12 2.12 0 0 1-1.56-.637 2.12 2.12 0 0 1-.636-1.56q0-.921.637-1.559a2.12 2.12 0 0 1 1.56-.636q.922 0 1.558.636.637.637.637 1.56a2.12 2.12 0 0 1-.637 1.559 2.12 2.12 0 0 1-1.559.637m-11.42-5.71a2.12 2.12 0 0 1-1.56-.637 2.12 2.12 0 0 1-.636-1.56q0-.921.637-1.559a2.12 2.12 0 0 1 1.559-.637 2.12 2.12 0 0 1 1.56.637q.636.637.636 1.56a2.12 2.12 0 0 1-.637 1.559 2.12 2.12 0 0 1-1.56.637m5.71 0a2.12 2.12 0 0 1-1.56-.637 2.12 2.12 0 0 1-.636-1.56q0-.921.637-1.559a2.12 2.12 0 0 1 1.559-.637 2.12 2.12 0 0 1 1.56.637q.636.637.636 1.56a2.12 2.12 0 0 1-.637 1.559 2.12 2.12 0 0 1-1.559.637m5.71 0a2.12 2.12 0 0 1-1.56-.637 2.12 2.12 0 0 1-.636-1.56q0-.921.637-1.559a2.12 2.12 0 0 1 1.56-.637 2.12 2.12 0 0 1 1.558.637q.637.637.637 1.56a2.12 2.12 0 0 1-.637 1.559 2.12 2.12 0 0 1-1.559.637m-11.42-5.71a2.12 2.12 0 0 1-1.56-.637 2.12 2.12 0 0 1-.636-1.56q0-.921.637-1.559a2.12 2.12 0 0 1 1.559-.637 2.12 2.12 0 0 1 1.56.637q.636.638.636 1.56a2.12 2.12 0 0 1-.637 1.559 2.12 2.12 0 0 1-1.56.637m5.71 0a2.12 2.12 0 0 1-1.56-.637 2.12 2.12 0 0 1-.636-1.56q0-.921.637-1.559a2.12 2.12 0 0 1 1.559-.637 2.12 2.12 0 0 1 1.56.637q.636.638.636 1.56a2.12 2.12 0 0 1-.637 1.559 2.12 2.12 0 0 1-1.559.637m5.71 0a2.12 2.12 0 0 1-1.56-.637 2.12 2.12 0 0 1-.636-1.56q0-.921.637-1.559a2.12 2.12 0 0 1 1.56-.637 2.12 2.12 0 0 1 1.558.637q.637.638.637 1.56a2.12 2.12 0 0 1-.637 1.559 2.12 2.12 0 0 1-1.559.637"/></g></svg>