<svg width="22" height="22" viewBox="0 0 22 22" fill="none" xmlns="http://www.w3.org/2000/svg">
<mask id="mask0_270_82" style="mask-type:alpha" maskUnits="userSpaceOnUse" x="0" y="0" width="22" height="22">
<rect x="0.5" width="21.0833" height="21.0833" fill="#1C1B1F"/>
</mask>
<g mask="url(#mask0_270_82)">
<path d="M5.33143 18.4479C4.7165 18.4479 4.19674 18.2356 3.77215 17.811C3.34755 17.3864 3.13525 16.8667 3.13525 16.2517C3.13525 15.6368 3.34755 15.117 3.77215 14.6924C4.19674 14.2679 4.7165 14.0556 5.33143 14.0556C5.94636 14.0556 6.46613 14.2679 6.89072 14.6924C7.31532 15.117 7.52762 15.6368 7.52762 16.2517C7.52762 16.8667 7.31532 17.3864 6.89072 17.811C6.46613 18.2356 5.94636 18.4479 5.33143 18.4479ZM11.0415 18.4479C10.4266 18.4479 9.90681 18.2356 9.48222 17.811C9.05762 17.3864 8.84532 16.8667 8.84532 16.2517C8.84532 15.6368 9.05762 15.117 9.48222 14.6924C9.90681 14.2679 10.4266 14.0556 11.0415 14.0556C11.6564 14.0556 12.1762 14.2679 12.6008 14.6924C13.0254 15.117 13.2377 15.6368 13.2377 16.2517C13.2377 16.8667 13.0254 17.3864 12.6008 17.811C12.1762 18.2356 11.6564 18.4479 11.0415 18.4479ZM16.7516 18.4479C16.1366 18.4479 15.6169 18.2356 15.1923 17.811C14.7677 17.3864 14.5554 16.8667 14.5554 16.2517C14.5554 15.6368 14.7677 15.117 15.1923 14.6924C15.6169 14.2679 16.1366 14.0556 16.7516 14.0556C17.3665 14.0556 17.8863 14.2679 18.3109 14.6924C18.7355 15.117 18.9478 15.6368 18.9478 16.2517C18.9478 16.8667 18.7355 17.3864 18.3109 17.811C17.8863 18.2356 17.3665 18.4479 16.7516 18.4479ZM5.33143 12.7378C4.7165 12.7378 4.19674 12.5255 3.77215 12.101C3.34755 11.6764 3.13525 11.1566 3.13525 10.5417C3.13525 9.92673 3.34755 9.40697 3.77215 8.98238C4.19674 8.55778 4.7165 8.34548 5.33143 8.34548C5.94636 8.34548 6.46613 8.55778 6.89072 8.98238C7.31532 9.40697 7.52762 9.92673 7.52762 10.5417C7.52762 11.1566 7.31532 11.6764 6.89072 12.101C6.46613 12.5255 5.94636 12.7378 5.33143 12.7378ZM11.0415 12.7378C10.4266 12.7378 9.90681 12.5255 9.48222 12.101C9.05762 11.6764 8.84532 11.1566 8.84532 10.5417C8.84532 9.92673 9.05762 9.40697 9.48222 8.98238C9.90681 8.55778 10.4266 8.34548 11.0415 8.34548C11.6564 8.34548 12.1762 8.55778 12.6008 8.98238C13.0254 9.40697 13.2377 9.92673 13.2377 10.5417C13.2377 11.1566 13.0254 11.6764 12.6008 12.101C12.1762 12.5255 11.6564 12.7378 11.0415 12.7378ZM16.7516 12.7378C16.1366 12.7378 15.6169 12.5255 15.1923 12.101C14.7677 11.6764 14.5554 11.1566 14.5554 10.5417C14.5554 9.92673 14.7677 9.40697 15.1923 8.98238C15.6169 8.55778 16.1366 8.34548 16.7516 8.34548C17.3665 8.34548 17.8863 8.55778 18.3109 8.98238C18.7355 9.40697 18.9478 9.92673 18.9478 10.5417C18.9478 11.1566 18.7355 11.6764 18.3109 12.101C17.8863 12.5255 17.3665 12.7378 16.7516 12.7378ZM5.33143 7.02778C4.7165 7.02778 4.19674 6.81548 3.77215 6.39088C3.34755 5.96629 3.13525 5.44653 3.13525 4.83159C3.13525 4.21666 3.34755 3.6969 3.77215 3.27231C4.19674 2.84771 4.7165 2.63541 5.33143 2.63541C5.94636 2.63541 6.46613 2.84771 6.89072 3.27231C7.31532 3.6969 7.52762 4.21666 7.52762 4.83159C7.52762 5.44653 7.31532 5.96629 6.89072 6.39088C6.46613 6.81548 5.94636 7.02778 5.33143 7.02778ZM11.0415 7.02778C10.4266 7.02778 9.90681 6.81548 9.48222 6.39088C9.05762 5.96629 8.84532 5.44653 8.84532 4.83159C8.84532 4.21666 9.05762 3.6969 9.48222 3.27231C9.90681 2.84771 10.4266 2.63541 11.0415 2.63541C11.6564 2.63541 12.1762 2.84771 12.6008 3.27231C13.0254 3.6969 13.2377 4.21666 13.2377 4.83159C13.2377 5.44653 13.0254 5.96629 12.6008 6.39088C12.1762 6.81548 11.6564 7.02778 11.0415 7.02778ZM16.7516 7.02778C16.1366 7.02778 15.6169 6.81548 15.1923 6.39088C14.7677 5.96629 14.5554 5.44653 14.5554 4.83159C14.5554 4.21666 14.7677 3.6969 15.1923 3.27231C15.6169 2.84771 16.1366 2.63541 16.7516 2.63541C17.3665 2.63541 17.8863 2.84771 18.3109 3.27231C18.7355 3.6969 18.9478 4.21666 18.9478 4.83159C18.9478 5.44653 18.7355 5.96629 18.3109 6.39088C17.8863 6.81548 17.3665 7.02778 16.7516 7.02778Z" fill="#1C1B1F"/>
</g>
</svg>
