<svg width="21" height="20" viewBox="0 0 21 20" fill="none" xmlns="http://www.w3.org/2000/svg">
<mask id="mask0_584_150" style="mask-type:alpha" maskUnits="userSpaceOnUse" x="0" y="0" width="21" height="20">
<rect x="0.666504" width="20" height="20" fill="#D9D9D9"/>
</mask>
<g mask="url(#mask0_584_150)">
<path d="M4.41667 18.1667C3.88889 18.1667 3.4375 17.9861 3.0625 17.625C2.6875 17.2639 2.5 16.8194 2.5 16.2917V5.35417C2.5 5.10417 2.54514 4.85764 2.63542 4.61459C2.72569 4.37153 2.84722 4.15278 3 3.95834L4.0625 2.66667C4.27083 2.40278 4.52431 2.19792 4.82292 2.05209C5.12153 1.90625 5.4375 1.83334 5.77083 1.83334H15.5625C15.8819 1.83334 16.191 1.90972 16.4896 2.0625C16.7882 2.21528 17.0417 2.41667 17.25 2.66667L18.3125 3.89584C18.4792 4.09028 18.6076 4.30903 18.6979 4.55209C18.7882 4.79514 18.8333 5.04861 18.8333 5.3125V16.2917C18.8333 16.8194 18.6458 17.2639 18.2708 17.625C17.8958 17.9861 17.4444 18.1667 16.9167 18.1667H4.41667ZM5.10417 4.875H16.25L15.5417 4.04167H5.79167L5.10417 4.875ZM10.6667 7.66667C10.3611 7.66667 10.1007 7.77431 9.88542 7.98959C9.67014 8.20486 9.5625 8.46528 9.5625 8.77084V11.0208L9.1875 10.6458C8.96528 10.4236 8.70486 10.316 8.40625 10.3229C8.10764 10.3299 7.85417 10.4444 7.64583 10.6667C7.4375 10.8889 7.33681 11.1493 7.34375 11.4479C7.35069 11.7465 7.45833 12 7.66667 12.2083L9.89583 14.4375C10.1181 14.6597 10.375 14.7708 10.6667 14.7708C10.9583 14.7708 11.2153 14.6597 11.4375 14.4375L13.6875 12.1875C13.8958 11.9792 14 11.7292 14 11.4375C14 11.1458 13.8958 10.8889 13.6875 10.6667C13.4792 10.4444 13.2222 10.3333 12.9167 10.3333C12.6111 10.3333 12.3472 10.4444 12.125 10.6667L11.7708 11.0208V8.77084C11.7708 8.46528 11.6632 8.20486 11.4479 7.98959C11.2326 7.77431 10.9722 7.66667 10.6667 7.66667Z" fill="#1C1B1F"/>
</g>
</svg>
