<svg width="22" height="22" viewBox="0 0 22 22" fill="none" xmlns="http://www.w3.org/2000/svg">
<mask id="mask0_322_97" style="mask-type:alpha" maskUnits="userSpaceOnUse" x="0" y="0" width="22" height="22">
<rect x="0.583496" width="21.0833" height="21.0833" fill="#D9D9D9"/>
</mask>
<g mask="url(#mask0_322_97)">
<path d="M13.0357 10.5197L6.60088 4.08489C6.33734 3.82135 6.20557 3.49925 6.20557 3.11857C6.20557 2.7379 6.33734 2.4158 6.60088 2.15226C6.86442 1.88871 7.18653 1.75694 7.5672 1.75694C7.94787 1.75694 8.26998 1.88871 8.53352 2.15226L15.2538 8.87257C15.4881 9.10683 15.6601 9.36671 15.7699 9.65221C15.8797 9.93772 15.9346 10.2269 15.9346 10.5197C15.9346 10.8125 15.8797 11.1017 15.7699 11.3872C15.6601 11.6727 15.4881 11.9326 15.2538 12.1668L8.53352 18.8872C8.26998 19.1507 7.94787 19.2825 7.5672 19.2825C7.18653 19.2825 6.86442 19.1507 6.60088 18.8872C6.33734 18.6236 6.20557 18.3015 6.20557 17.9208C6.20557 17.5402 6.33734 17.2181 6.60088 16.9545L13.0357 10.5197Z" fill="#1C1B1F"/>
</g>
</svg>
