<svg width="22" height="22" viewBox="0 0 22 22" fill="none" xmlns="http://www.w3.org/2000/svg">
<mask id="mask0_322_88" style="mask-type:alpha" maskUnits="userSpaceOnUse" x="0" y="0" width="22" height="22">
<rect x="0.333496" width="21.0833" height="21.0833" fill="#D9D9D9"/>
</mask>
<g mask="url(#mask0_322_88)">
<path d="M9.14017 10.5197L15.575 16.9545C15.8385 17.2181 15.9703 17.5402 15.9703 17.9208C15.9703 18.3015 15.8385 18.6236 15.575 18.8872C15.3114 19.1507 14.9893 19.2825 14.6087 19.2825C14.228 19.2825 13.9059 19.1507 13.6423 18.8872L6.92203 12.1668C6.68777 11.9326 6.51573 11.6727 6.40592 11.3872C6.29612 11.1017 6.24121 10.8125 6.24121 10.5197C6.24121 10.2269 6.29612 9.93772 6.40592 9.65221C6.51573 9.36671 6.68777 9.10683 6.92203 8.87257L13.6423 2.15226C13.9059 1.88871 14.228 1.75694 14.6087 1.75694C14.9893 1.75694 15.3114 1.88871 15.575 2.15226C15.8385 2.4158 15.9703 2.7379 15.9703 3.11857C15.9703 3.49925 15.8385 3.82135 15.575 4.08489L9.14017 10.5197Z" fill="#1C1B1F"/>
</g>
</svg>
