<svg width="22" height="22" viewBox="0 0 22 22" fill="none" xmlns="http://www.w3.org/2000/svg">
<mask id="mask0_322_88" style="mask-type:alpha" maskUnits="userSpaceOnUse" x="0" y="0" width="22" height="22">
<rect x="0.5" width="21.0833" height="21.0833" fill="#D9D9D9"/>
</mask>
<g mask="url(#mask0_322_88)">
<path d="M9.30667 10.5197L15.7415 16.9545C16.005 17.2181 16.1368 17.5402 16.1368 17.9208C16.1368 18.3015 16.005 18.6236 15.7415 18.8872C15.4779 19.1507 15.1558 19.2825 14.7752 19.2825C14.3945 19.2825 14.0724 19.1507 13.8088 18.8872L7.08853 12.1668C6.85427 11.9326 6.68224 11.6727 6.57243 11.3872C6.46262 11.1017 6.40771 10.8125 6.40771 10.5197C6.40771 10.2269 6.46262 9.93772 6.57243 9.65221C6.68224 9.36671 6.85427 9.10683 7.08853 8.87257L13.8088 2.15226C14.0724 1.88871 14.3945 1.75694 14.7752 1.75694C15.1558 1.75694 15.4779 1.88871 15.7415 2.15226C16.005 2.4158 16.1368 2.7379 16.1368 3.11857C16.1368 3.49925 16.005 3.82135 15.7415 4.08489L9.30667 10.5197Z" fill="#1C1B1F"/>
</g>
</svg>
