<svg width="24" height="24" viewBox="0 0 24 24" fill="none" xmlns="http://www.w3.org/2000/svg">
<mask id="mask0_737_1307" style="mask-type:alpha" maskUnits="userSpaceOnUse" x="0" y="0" width="24" height="24">
<rect width="24" height="24" fill="currentColor"/>
</mask>
<g mask="url(#mask0_737_1307)">
<path d="M10.0251 11.975L17.3501 19.3C17.6501 19.6 17.8001 19.9667 17.8001 20.4C17.8001 20.8333 17.6501 21.2 17.3501 21.5C17.0501 21.8 16.6834 21.95 16.2501 21.95C15.8168 21.95 15.4501 21.8 15.1501 21.5L7.5001 13.85C7.23343 13.5833 7.0376 13.2875 6.9126 12.9625C6.7876 12.6375 6.7251 12.3083 6.7251 11.975C6.7251 11.6417 6.7876 11.3125 6.9126 10.9875C7.0376 10.6625 7.23343 10.3667 7.5001 10.1L15.1501 2.45C15.4501 2.15 15.8168 2 16.2501 2C16.6834 2 17.0501 2.15 17.3501 2.45C17.6501 2.75 17.8001 3.11667 17.8001 3.55C17.8001 3.98333 17.6501 4.35 17.3501 4.65L10.0251 11.975Z" fill="currentColor"/>
</g>
</svg>
