<svg width="22" height="22" viewBox="0 0 22 22" fill="none" xmlns="http://www.w3.org/2000/svg">
<mask id="mask0_322_97" style="mask-type:alpha" maskUnits="userSpaceOnUse" x="0" y="0" width="22" height="22">
<rect x="0.416504" width="21.0833" height="21.0833" fill="#D9D9D9"/>
</mask>
<g mask="url(#mask0_322_97)">
<path d="M12.8687 10.5197L6.43389 4.08489C6.17035 3.82135 6.03857 3.49925 6.03857 3.11857C6.03857 2.7379 6.17035 2.4158 6.43389 2.15226C6.69743 1.88871 7.01953 1.75694 7.40021 1.75694C7.78088 1.75694 8.10298 1.88871 8.36653 2.15226L15.0868 8.87257C15.3211 9.10683 15.4931 9.36671 15.6029 9.65221C15.7127 9.93772 15.7677 10.2269 15.7677 10.5197C15.7677 10.8125 15.7127 11.1017 15.6029 11.3872C15.4931 11.6727 15.3211 11.9326 15.0868 12.1668L8.36653 18.8872C8.10298 19.1507 7.78088 19.2825 7.40021 19.2825C7.01953 19.2825 6.69743 19.1507 6.43389 18.8872C6.17035 18.6236 6.03857 18.3015 6.03857 17.9208C6.03857 17.5402 6.17035 17.2181 6.43389 16.9545L12.8687 10.5197Z" fill="#1C1B1F"/>
</g>
</svg>
