<svg xmlns="http://www.w3.org/2000/svg" width="21" height="20" fill="none" viewBox="0 0 21 20"><g clip-path="url(#a)"><mask id="b" width="25" height="24" x="0" y="0" maskUnits="userSpaceOnUse" style="mask-type:alpha"><path fill="currentColor" d="M.917 0H24v23.083H.917z"/></mask><g mask="url(#b)"><path fill="currentColor" d="M12.042 8.875a7.7 7.7 0 0 0 2.666 1.73 8.9 8.9 0 0 0 3.292.603q.667 0 1.042.542.375.541.145 1.167-.166.48-.437.968-.27.49-.625.99a1.15 1.15 0 0 1-.886.469q-.551.03-.968-.386L5.937 4.625a1.22 1.22 0 0 1-.375-.948q.021-.552.459-.885.375-.292.802-.532t.969-.468q.666-.292 1.26.073.593.364.615 1.03.041 1.793.645 3.324a7.7 7.7 0 0 0 1.73 2.656m3.708 11.042-1.833-1.813q-.688.25-1.417.375a9 9 0 0 1-1.5.125q-1.793 0-3.375-.687a8.8 8.8 0 0 1-2.76-1.865A8.8 8.8 0 0 1 3 13.292a8.4 8.4 0 0 1-.688-3.375q0-.771.125-1.5.126-.73.375-1.417l-1.77-1.77a1.08 1.08 0 0 1-.334-.792q0-.459.334-.792.333-.333.791-.333.459 0 .792.333l14.667 14.708q.312.334.312.781 0 .448-.312.76a1.08 1.08 0 0 1-.771.324 1.01 1.01 0 0 1-.771-.302"/></g></g><defs><clipPath id="a"><path fill="currentColor" d="M.917 0h20v20h-20z"/></clipPath></defs></svg>