<svg width="21" height="20" viewBox="0 0 21 20" fill="none" xmlns="http://www.w3.org/2000/svg">
<g clip-path="url(#clip0_234_293)">
<mask id="mask0_234_293" style="mask-type:alpha" maskUnits="userSpaceOnUse" x="0" y="0" width="24" height="24">
<rect x="0.333496" width="23.0833" height="23.0833" fill="#D9D9D9"/>
</mask>
<g mask="url(#mask0_234_293)">
<path d="M11.4583 8.87501C12.2083 9.62501 13.0972 10.2014 14.125 10.6042C15.1528 11.007 16.25 11.2083 17.4167 11.2083C17.8611 11.2083 18.2083 11.3889 18.4583 11.75C18.7083 12.1111 18.7569 12.5 18.6042 12.9167C18.4931 13.2361 18.3472 13.559 18.1667 13.8854C17.9861 14.2118 17.7778 14.5417 17.5417 14.875C17.3194 15.1667 17.0243 15.3229 16.6562 15.3438C16.2882 15.3646 15.9653 15.2361 15.6875 14.9583L5.35417 4.62501C5.09028 4.36112 4.96528 4.04515 4.97917 3.67709C4.99306 3.30904 5.14583 3.0139 5.4375 2.79168C5.6875 2.59723 5.95486 2.42015 6.23958 2.26043C6.52431 2.10071 6.84722 1.94446 7.20833 1.79168C7.65278 1.59723 8.07292 1.62154 8.46875 1.86459C8.86458 2.10765 9.06944 2.4514 9.08333 2.89584C9.11111 4.09029 9.32639 5.19793 9.72917 6.21876C10.1319 7.23959 10.7083 8.12501 11.4583 8.87501ZM15.1667 19.9167L13.3333 18.1042C12.875 18.2708 12.4028 18.3958 11.9167 18.4792C11.4306 18.5625 10.9306 18.6042 10.4167 18.6042C9.22222 18.6042 8.09722 18.375 7.04167 17.9167C5.98611 17.4583 5.06597 16.8368 4.28125 16.0521C3.49653 15.2674 2.875 14.3472 2.41667 13.2917C1.95833 12.2361 1.72917 11.1111 1.72917 9.91668C1.72917 9.40279 1.77083 8.90279 1.85417 8.41668C1.9375 7.93057 2.0625 7.45834 2.22917 7.00001L0.458333 5.22918C0.236111 5.00696 0.125 4.74307 0.125 4.43751C0.125 4.13196 0.236111 3.86807 0.458333 3.64584C0.680556 3.42362 0.944444 3.31251 1.25 3.31251C1.55556 3.31251 1.81944 3.42362 2.04167 3.64584L16.7083 18.3542C16.9167 18.5764 17.0208 18.8368 17.0208 19.1354C17.0208 19.434 16.9167 19.6875 16.7083 19.8958C16.5 20.1042 16.2431 20.2118 15.9375 20.2188C15.6319 20.2257 15.375 20.125 15.1667 19.9167Z" fill="#1C1B1F"/>
</g>
</g>
<defs>
<clipPath id="clip0_234_293">
<rect width="20" height="20" fill="white" transform="translate(0.333496)"/>
</clipPath>
</defs>
</svg>
