<svg width="21" height="20" viewBox="0 0 21 20" fill="none" xmlns="http://www.w3.org/2000/svg">
<path d="M10.3335 18.1739C9.13905 18.1739 8.01405 17.9447 6.9585 17.4864C5.90294 17.0281 4.9828 16.4065 4.19808 15.6218C3.41336 14.8371 2.79183 13.9169 2.3335 12.8614C1.87516 11.8058 1.646 10.6808 1.646 9.48638C1.646 7.7086 2.13211 6.0836 3.10433 4.61138C4.07655 3.13916 5.38905 2.0836 7.04183 1.44471C7.48627 1.26416 7.90641 1.29541 8.30225 1.53846C8.69808 1.78152 8.90294 2.12527 8.91683 2.56971C8.94461 3.69471 9.14947 4.7711 9.53141 5.79888C9.91336 6.82666 10.5002 7.73638 11.2918 8.52805C12.0835 9.31972 12.9932 9.90999 14.021 10.2989C15.0488 10.6878 16.1252 10.8822 17.2502 10.8822C17.6946 10.8822 18.0418 11.0593 18.2918 11.4135C18.5418 11.7676 18.5904 12.153 18.4377 12.5697C17.8266 14.278 16.7779 15.6392 15.2918 16.6531C13.8057 17.6669 12.1529 18.1739 10.3335 18.1739Z" fill="#1C1B1F"/>
</svg>
