<svg xmlns="http://www.w3.org/2000/svg" width="22" height="20" fill="none" viewBox="0 0 22 20"><mask id="a" width="22" height="22" x="0" y="0" maskUnits="userSpaceOnUse" style="mask-type:alpha"><path fill="currentColor" d="M.25 0h21.083v21.083H.25z"/></mask><g mask="url(#a)"><path fill="currentColor" d="M8.156 13.397q-2.35 0-3.986-1.658Q2.535 10.08 2.534 7.73q0-.396.077-.967.076-.57.253-.922.13-.264.362-.428a1.17 1.17 0 0 1 1.021-.176q.264.077.483.296l2.197 2.197 1.23-1.23-2.219-2.196a1.13 1.13 0 0 1-.33-1.01 1.17 1.17 0 0 1 .638-.857q.373-.176.944-.253.57-.077.966-.077 2.35 0 4.008 1.636 1.659 1.636 1.659 3.987 0 .438-.066.878t-.198.879l4.107 4.062q.768.769.768 1.823t-.746 1.823a2.58 2.58 0 0 1-1.867.78 2.5 2.5 0 0 1-1.867-.758l-4.04-4.085a5 5 0 0 1-.846.198 6 6 0 0 1-.912.066"/></g></svg>