<svg width="22" height="22" viewBox="0 0 22 22" fill="none" xmlns="http://www.w3.org/2000/svg">
<mask id="mask0_317_73" style="mask-type:alpha" maskUnits="userSpaceOnUse" x="0" y="0" width="22" height="22">
<rect x="0.666504" width="21.0833" height="21.0833" fill="#D9D9D9"/>
</mask>
<g mask="url(#mask0_317_73)">
<path d="M8.57291 13.3967C7.0063 13.3967 5.67761 12.844 4.58684 11.7386C3.49607 10.6332 2.95068 9.29717 2.95068 7.73056C2.95068 7.46702 2.97631 7.14491 3.02755 6.76424C3.07879 6.38357 3.16298 6.0761 3.28011 5.84184C3.36796 5.66615 3.48875 5.5234 3.64248 5.41359C3.79621 5.30378 3.96093 5.23423 4.13662 5.20495C4.31232 5.17567 4.48801 5.18665 4.6637 5.23789C4.8394 5.28914 5.00045 5.38797 5.14686 5.53438L7.34304 7.73056L8.57291 6.5007L6.35476 4.30452C6.20835 4.15811 6.10952 3.99705 6.05828 3.82136C6.00704 3.64566 5.99605 3.46997 6.02534 3.29428C6.05462 3.11858 6.12416 2.95387 6.23397 2.80013C6.34378 2.6464 6.48653 2.52561 6.66223 2.43776C6.91113 2.32063 7.22591 2.23645 7.60659 2.1852C7.98726 2.13396 8.30936 2.10834 8.57291 2.10834C10.1395 2.10834 11.4755 2.65372 12.5809 3.74449C13.6863 4.83526 14.2391 6.16395 14.2391 7.73056C14.2391 8.02338 14.2171 8.31621 14.1732 8.60903C14.1292 8.90186 14.0634 9.19468 13.9755 9.4875L18.0824 13.5504C18.5948 14.0629 18.851 14.6705 18.851 15.3733C18.851 16.076 18.6021 16.6837 18.1043 17.1961C17.5919 17.7085 16.9696 17.9684 16.2376 17.9757C15.5055 17.9831 14.8833 17.7305 14.3708 17.2181L10.3299 13.1332C10.0663 13.221 9.78447 13.2869 9.48432 13.3308C9.18418 13.3747 8.88037 13.3967 8.57291 13.3967Z" fill="#1C1B1F"/>
</g>
</svg>
