<svg width="21" height="20" viewBox="0 0 21 20" fill="none" xmlns="http://www.w3.org/2000/svg">
<g clip-path="url(#clip0_234_254)">
<mask id="mask0_234_254" style="mask-type:alpha" maskUnits="userSpaceOnUse" x="0" y="0" width="24" height="24">
<rect x="0.25" width="23.0833" height="23.0833" fill="#D9D9D9"/>
</mask>
<g mask="url(#mask0_234_254)">
<path d="M10.25 11.0833L12.5208 13.3541C12.7292 13.5625 12.9861 13.6666 13.2917 13.6666C13.5972 13.6666 13.8542 13.5625 14.0625 13.3541C14.2708 13.1458 14.375 12.8889 14.375 12.5833C14.375 12.2778 14.2708 12.0208 14.0625 11.8125L11.7917 9.54164L14.0625 7.27081C14.2708 7.06248 14.375 6.80553 14.375 6.49998C14.375 6.19442 14.2708 5.93748 14.0625 5.72914C13.8542 5.52081 13.5972 5.41664 13.2917 5.41664C12.9861 5.41664 12.7292 5.52081 12.5208 5.72914L10.25 7.99998L7.97917 5.72914C7.77083 5.52081 7.51389 5.41664 7.20833 5.41664C6.90278 5.41664 6.64583 5.52081 6.4375 5.72914C6.22917 5.93748 6.125 6.19442 6.125 6.49998C6.125 6.80553 6.22917 7.06248 6.4375 7.27081L8.70833 9.54164L6.4375 11.8125C6.22917 12.0208 6.125 12.2778 6.125 12.5833C6.125 12.8889 6.22917 13.1458 6.4375 13.3541C6.64583 13.5625 6.90278 13.6666 7.20833 13.6666C7.51389 13.6666 7.77083 13.5625 7.97917 13.3541L10.25 11.0833ZM10.25 18.5416C9 18.5416 7.82986 18.3055 6.73958 17.8333C5.64931 17.3611 4.69792 16.7187 3.88542 15.9062C3.07292 15.0937 2.43056 14.1423 1.95833 13.0521C1.48611 11.9618 1.25 10.7916 1.25 9.54164C1.25 8.29164 1.48611 7.11803 1.95833 6.02081C2.43056 4.92359 3.07292 3.96872 3.88542 3.15622C4.69792 2.34372 5.64931 1.70484 6.73958 1.23956C7.82986 0.77428 9 0.541641 10.25 0.541641C11.5 0.541641 12.6736 0.77428 13.7708 1.23956C14.8681 1.70484 15.8229 2.34372 16.6354 3.15622C17.4479 3.96872 18.0868 4.92359 18.5521 6.02081C19.0174 7.11803 19.25 8.29164 19.25 9.54164C19.25 10.7916 19.0174 11.9618 18.5521 13.0521C18.0868 14.1423 17.4479 15.0937 16.6354 15.9062C15.8229 16.7187 14.8681 17.3611 13.7708 17.8333C12.6736 18.3055 11.5 18.5416 10.25 18.5416Z" fill="#1C1B1F"/>
</g>
</g>
<defs>
<clipPath id="clip0_234_254">
<rect width="20" height="20" fill="white" transform="translate(0.25)"/>
</clipPath>
</defs>
</svg>
