<svg xmlns="http://www.w3.org/2000/svg" width="21" height="20" fill="none" viewBox="0 0 21 20"><g clip-path="url(#a)"><mask id="b" width="24" height="24" x="0" y="0" maskUnits="userSpaceOnUse" style="mask-type:alpha"><path fill="currentColor" d="M.167 0H23.25v23.083H.167z"/></mask><g mask="url(#b)"><path fill="currentColor" d="m10.167 11.083 2.27 2.271q.313.313.771.313.459 0 .771-.313.313-.312.313-.77 0-.459-.313-.771l-2.27-2.271 2.27-2.271q.313-.313.313-.771 0-.46-.313-.77a1.05 1.05 0 0 0-.77-.313q-.459 0-.772.312L10.167 8 7.895 5.73a1.05 1.05 0 0 0-.771-.313q-.459 0-.771.312a1.05 1.05 0 0 0-.312.771q0 .459.312.77l2.27 2.272-2.27 2.27a1.05 1.05 0 0 0-.312.771q0 .459.312.771.312.313.77.313.459 0 .772-.313zm0 7.459q-1.875 0-3.51-.709a9.1 9.1 0 0 1-2.855-1.927 9.1 9.1 0 0 1-1.927-2.854 8.7 8.7 0 0 1-.708-3.51q0-1.875.708-3.521a9.1 9.1 0 0 1 1.927-2.865A9 9 0 0 1 6.656 1.24a8.85 8.85 0 0 1 3.51-.698q1.875 0 3.521.698a8.9 8.9 0 0 1 2.865 1.916 8.9 8.9 0 0 1 1.917 2.865 8.9 8.9 0 0 1 .697 3.52q0 1.875-.697 3.511a9 9 0 0 1-1.917 2.854 9.1 9.1 0 0 1-2.865 1.927 8.8 8.8 0 0 1-3.52.709"/></g></g><defs><clipPath id="a"><path fill="currentColor" d="M.167 0h20v20h-20z"/></clipPath></defs></svg>