<svg width="21" height="20" viewBox="0 0 21 20" fill="none" xmlns="http://www.w3.org/2000/svg">
<g clip-path="url(#clip0_234_242)">
<mask id="mask0_234_242" style="mask-type:alpha" maskUnits="userSpaceOnUse" x="0" y="0" width="24" height="24">
<rect x="0.416504" width="23.0833" height="23.0833" fill="#D9D9D9"/>
</mask>
<g mask="url(#mask0_234_242)">
<path d="M9.93734 12.1875C9.65956 12.1319 9.39914 12.0451 9.15609 11.9271C8.91303 11.809 8.69428 11.6528 8.49984 11.4583C8.24984 11.2083 8.05539 10.9201 7.9165 10.5937C7.77762 10.2673 7.70817 9.92359 7.70817 9.56248C7.70817 9.45136 7.71859 9.34025 7.73942 9.22914C7.76025 9.11803 7.78456 9.00692 7.81234 8.89581C7.88178 8.6597 7.87831 8.43748 7.80192 8.22914C7.72553 8.02081 7.58317 7.86109 7.37484 7.74998C7.1665 7.63886 6.95123 7.6215 6.729 7.69789C6.50678 7.77428 6.36095 7.92359 6.2915 8.14581C6.22206 8.38192 6.16303 8.61456 6.11442 8.84373C6.06581 9.07289 6.0415 9.30553 6.0415 9.54164C6.0415 10.125 6.15262 10.6875 6.37484 11.2291C6.59706 11.7708 6.90956 12.243 7.31234 12.6458C7.65956 12.993 8.05539 13.2708 8.49984 13.4791C8.94428 13.6875 9.40956 13.8194 9.89567 13.875L9.854 13.9166C9.70123 14.0833 9.62831 14.2812 9.63525 14.5104C9.6422 14.7396 9.72206 14.9305 9.87484 15.0833C10.0276 15.2361 10.2221 15.3125 10.4582 15.3125C10.6943 15.3125 10.8887 15.2361 11.0415 15.0833L12.3332 13.7916C12.5554 13.5694 12.6665 13.309 12.6665 13.0104C12.6665 12.7118 12.5554 12.4514 12.3332 12.2291L11.0623 10.9583C10.9096 10.8055 10.7186 10.7291 10.4894 10.7291C10.2603 10.7291 10.0623 10.8055 9.89567 10.9583C9.729 11.125 9.64567 11.3229 9.64567 11.5521C9.64567 11.7812 9.729 11.9791 9.89567 12.1458L9.93734 12.1875ZM10.8957 6.89581C11.1734 6.95136 11.4339 7.03817 11.6769 7.15623C11.92 7.27428 12.1387 7.43053 12.3332 7.62498C12.5832 7.87498 12.7776 8.16317 12.9165 8.48956C13.0554 8.81595 13.1248 9.1597 13.1248 9.52081C13.1248 9.63192 13.1179 9.73956 13.104 9.84373C13.0901 9.94789 13.0693 10.0555 13.0415 10.1666C12.9721 10.4028 12.9825 10.625 13.0728 10.8333C13.163 11.0416 13.3123 11.1805 13.5207 11.25C13.7568 11.3333 13.979 11.3264 14.1873 11.2291C14.3957 11.1319 14.5346 10.9653 14.604 10.7291C14.6596 10.5347 14.7047 10.3368 14.7394 10.1354C14.7741 9.934 14.7915 9.73609 14.7915 9.54164C14.7915 8.95831 14.6804 8.39581 14.4582 7.85414C14.236 7.31248 13.9235 6.84025 13.5207 6.43748C13.1735 6.09025 12.7776 5.81248 12.3332 5.60414C11.8887 5.39581 11.4234 5.26386 10.9373 5.20831L10.979 5.16664C11.1318 4.99998 11.2047 4.80206 11.1978 4.57289C11.1908 4.34373 11.1109 4.15275 10.9582 3.99997C10.8054 3.8472 10.6109 3.77081 10.3748 3.77081C10.1387 3.77081 9.94428 3.8472 9.7915 3.99997L8.49984 5.29164C8.27762 5.51386 8.1665 5.77428 8.1665 6.07289C8.1665 6.3715 8.27762 6.63192 8.49984 6.85414L9.77067 8.12498C9.92345 8.27775 10.1144 8.35414 10.3436 8.35414C10.5728 8.35414 10.7707 8.27775 10.9373 8.12498C11.104 7.95831 11.1873 7.76039 11.1873 7.53123C11.1873 7.30206 11.104 7.10414 10.9373 6.93748L10.8957 6.89581ZM10.4165 18.5416C9.1665 18.5416 7.99637 18.3055 6.90609 17.8333C5.81581 17.3611 4.86442 16.7187 4.05192 15.9062C3.23942 15.0937 2.59706 14.1423 2.12484 13.0521C1.65262 11.9618 1.4165 10.7916 1.4165 9.54164C1.4165 8.29164 1.65262 7.11803 2.12484 6.02081C2.59706 4.92359 3.23942 3.96872 4.05192 3.15622C4.86442 2.34372 5.81581 1.70484 6.90609 1.23956C7.99637 0.77428 9.1665 0.541641 10.4165 0.541641C11.6665 0.541641 12.8401 0.77428 13.9373 1.23956C15.0346 1.70484 15.9894 2.34372 16.8019 3.15622C17.6144 3.96872 18.2533 4.92359 18.7186 6.02081C19.1839 7.11803 19.4165 8.29164 19.4165 9.54164C19.4165 10.7916 19.1839 11.9618 18.7186 13.0521C18.2533 14.1423 17.6144 15.0937 16.8019 15.9062C15.9894 16.7187 15.0346 17.3611 13.9373 17.8333C12.8401 18.3055 11.6665 18.5416 10.4165 18.5416Z" fill="#1C1B1F"/>
</g>
</g>
<defs>
<clipPath id="clip0_234_242">
<rect width="20" height="20" fill="white" transform="translate(0.416504)"/>
</clipPath>
</defs>
</svg>
