<svg width="21" height="20" viewBox="0 0 21 20" fill="none" xmlns="http://www.w3.org/2000/svg">
<g clip-path="url(#clip0_584_87)">
<mask id="mask0_584_87" style="mask-type:alpha" maskUnits="userSpaceOnUse" x="0" y="0" width="24" height="24">
<rect x="0.5" width="23.0833" height="23.0833" fill="currentColor"/>
</mask>
<g mask="url(#mask0_584_87)">
<path d="M10.0208 12.1875C9.74306 12.1319 9.48264 12.0451 9.23958 11.9271C8.99653 11.809 8.77778 11.6528 8.58333 11.4583C8.33333 11.2083 8.13889 10.9201 8 10.5937C7.86111 10.2673 7.79167 9.92359 7.79167 9.56248C7.79167 9.45136 7.80208 9.34025 7.82292 9.22914C7.84375 9.11803 7.86806 9.00692 7.89583 8.89581C7.96528 8.6597 7.96181 8.43748 7.88542 8.22914C7.80903 8.02081 7.66667 7.86109 7.45833 7.74998C7.25 7.63886 7.03472 7.6215 6.8125 7.69789C6.59028 7.77428 6.44445 7.92359 6.375 8.14581C6.30556 8.38192 6.24653 8.61456 6.19792 8.84373C6.14931 9.07289 6.125 9.30553 6.125 9.54164C6.125 10.125 6.23611 10.6875 6.45833 11.2291C6.68056 11.7708 6.99306 12.243 7.39583 12.6458C7.74306 12.993 8.13889 13.2708 8.58333 13.4791C9.02778 13.6875 9.49306 13.8194 9.97917 13.875L9.9375 13.9166C9.78472 14.0833 9.71181 14.2812 9.71875 14.5104C9.7257 14.7396 9.80556 14.9305 9.95833 15.0833C10.1111 15.2361 10.3056 15.3125 10.5417 15.3125C10.7778 15.3125 10.9722 15.2361 11.125 15.0833L12.4167 13.7916C12.6389 13.5694 12.75 13.309 12.75 13.0104C12.75 12.7118 12.6389 12.4514 12.4167 12.2291L11.1458 10.9583C10.9931 10.8055 10.8021 10.7291 10.5729 10.7291C10.3438 10.7291 10.1458 10.8055 9.97917 10.9583C9.8125 11.125 9.72917 11.3229 9.72917 11.5521C9.72917 11.7812 9.8125 11.9791 9.97917 12.1458L10.0208 12.1875ZM10.9792 6.89581C11.2569 6.95136 11.5174 7.03817 11.7604 7.15623C12.0035 7.27428 12.2222 7.43053 12.4167 7.62498C12.6667 7.87498 12.8611 8.16317 13 8.48956C13.1389 8.81595 13.2083 9.1597 13.2083 9.52081C13.2083 9.63192 13.2014 9.73956 13.1875 9.84373C13.1736 9.94789 13.1528 10.0555 13.125 10.1666C13.0556 10.4028 13.066 10.625 13.1563 10.8333C13.2465 11.0416 13.3958 11.1805 13.6042 11.25C13.8403 11.3333 14.0625 11.3264 14.2708 11.2291C14.4792 11.1319 14.6181 10.9653 14.6875 10.7291C14.7431 10.5347 14.7882 10.3368 14.8229 10.1354C14.8576 9.934 14.875 9.73609 14.875 9.54164C14.875 8.95831 14.7639 8.39581 14.5417 7.85414C14.3194 7.31248 14.0069 6.84025 13.6042 6.43748C13.2569 6.09025 12.8611 5.81248 12.4167 5.60414C11.9722 5.39581 11.5069 5.26386 11.0208 5.20831L11.0625 5.16664C11.2153 4.99998 11.2882 4.80206 11.2813 4.57289C11.2743 4.34373 11.1944 4.15275 11.0417 3.99997C10.8889 3.8472 10.6944 3.77081 10.4583 3.77081C10.2222 3.77081 10.0278 3.8472 9.875 3.99997L8.58333 5.29164C8.36111 5.51386 8.25 5.77428 8.25 6.07289C8.25 6.3715 8.36111 6.63192 8.58333 6.85414L9.85417 8.12498C10.0069 8.27775 10.1979 8.35414 10.4271 8.35414C10.6563 8.35414 10.8542 8.27775 11.0208 8.12498C11.1875 7.95831 11.2708 7.76039 11.2708 7.53123C11.2708 7.30206 11.1875 7.10414 11.0208 6.93748L10.9792 6.89581ZM10.5 18.5416C9.25 18.5416 8.07986 18.3055 6.98958 17.8333C5.89931 17.3611 4.94792 16.7187 4.13542 15.9062C3.32292 15.0937 2.68056 14.1423 2.20833 13.0521C1.73611 11.9618 1.5 10.7916 1.5 9.54164C1.5 8.29164 1.73611 7.11803 2.20833 6.02081C2.68056 4.92359 3.32292 3.96872 4.13542 3.15622C4.94792 2.34372 5.89931 1.70484 6.98958 1.23956C8.07986 0.77428 9.25 0.541641 10.5 0.541641C11.75 0.541641 12.9236 0.77428 14.0208 1.23956C15.1181 1.70484 16.0729 2.34372 16.8854 3.15622C17.6979 3.96872 18.3368 4.92359 18.8021 6.02081C19.2674 7.11803 19.5 8.29164 19.5 9.54164C19.5 10.7916 19.2674 11.9618 18.8021 13.0521C18.3368 14.1423 17.6979 15.0937 16.8854 15.9062C16.0729 16.7187 15.1181 17.3611 14.0208 17.8333C12.9236 18.3055 11.75 18.5416 10.5 18.5416Z" fill="currentColor"/>
</g>
</g>
<defs>
<clipPath id="clip0_584_87">
<rect width="20" height="20" fill="white" transform="translate(0.5)"/>
</clipPath>
</defs>
</svg>
