<svg xmlns="http://www.w3.org/2000/svg" width="21" height="20" fill="none" viewBox="0 0 21 20"><g clip-path="url(#a)"><mask id="b" width="24" height="24" x="0" y="0" maskUnits="userSpaceOnUse" style="mask-type:alpha"><path fill="currentColor" d="M.333 0h23.083v23.083H.333z"/></mask><g mask="url(#b)"><path fill="currentColor" d="M9.854 12.188a3.2 3.2 0 0 1-.781-.261 2.4 2.4 0 0 1-.656-.469 2.7 2.7 0 0 1-.584-.864 2.6 2.6 0 0 1-.208-1.032q0-.166.031-.333a6 6 0 0 1 .073-.333 1.04 1.04 0 0 0-.01-.667.87.87 0 0 0-.427-.479.78.78 0 0 0-.646-.052.66.66 0 0 0-.438.448q-.104.354-.177.698-.072.344-.073.698 0 .875.334 1.687.333.813.937 1.417a4.2 4.2 0 0 0 1.188.833q.667.313 1.396.396l-.042.042a.8.8 0 0 0-.219.593q.01.344.24.573a.8.8 0 0 0 .583.23.8.8 0 0 0 .583-.23l1.292-1.291a1.07 1.07 0 0 0 .333-.782 1.07 1.07 0 0 0-.333-.78l-1.27-1.272a.78.78 0 0 0-.574-.229.85.85 0 0 0-.593.23.8.8 0 0 0-.25.593q0 .344.25.594zm.959-5.292q.416.083.78.26.366.178.657.469.375.375.583.865a2.6 2.6 0 0 1 .125 1.677.95.95 0 0 0 .032.666.72.72 0 0 0 .447.417.85.85 0 0 0 .667-.02.76.76 0 0 0 .417-.5q.083-.292.135-.595.052-.302.052-.593 0-.875-.333-1.688a4.3 4.3 0 0 0-.937-1.417 4.2 4.2 0 0 0-1.188-.833 4.5 4.5 0 0 0-1.396-.396l.042-.041a.8.8 0 0 0 .219-.594.81.81 0 0 0-.24-.573.8.8 0 0 0-.583-.23.8.8 0 0 0-.584.23L8.417 5.292a1.07 1.07 0 0 0-.334.78q0 .45.334.782l1.27 1.271q.23.23.574.23a.85.85 0 0 0 .593-.23.81.81 0 0 0 .25-.594.81.81 0 0 0-.25-.594zm-.48 11.646q-1.875 0-3.51-.709a9.1 9.1 0 0 1-2.854-1.927 9.1 9.1 0 0 1-1.927-2.854 8.7 8.7 0 0 1-.709-3.51q0-1.875.709-3.521a9.1 9.1 0 0 1 1.927-2.865A9 9 0 0 1 6.823 1.24a8.85 8.85 0 0 1 3.51-.698q1.875 0 3.521.698a8.9 8.9 0 0 1 2.865 1.916 8.9 8.9 0 0 1 1.916 2.865 8.9 8.9 0 0 1 .698 3.52 8.85 8.85 0 0 1-.697 3.511 9 9 0 0 1-1.917 2.854 9.1 9.1 0 0 1-2.865 1.927 8.8 8.8 0 0 1-3.52.709"/></g></g><defs><clipPath id="a"><path fill="#fff" d="M.333 0h20v20h-20z"/></clipPath></defs></svg>