<svg width="22" height="22" viewBox="0 0 22 22" fill="none" xmlns="http://www.w3.org/2000/svg">
<mask id="mask0_306_101" style="mask-type:alpha" maskUnits="userSpaceOnUse" x="0" y="0" width="22" height="22">
<rect x="0.166504" width="21.0833" height="21.0833" fill="#D9D9D9"/>
</mask>
<g mask="url(#mask0_306_101)">
<path d="M5.89835 11.6837C5.57624 11.6837 5.30172 11.5702 5.07478 11.3433C4.84784 11.1163 4.73438 10.8418 4.73438 10.5197C4.73438 10.1976 4.84784 9.92307 5.07478 9.69614C5.30172 9.4692 5.57624 9.35573 5.89835 9.35573H15.5176C15.8397 9.35573 16.1143 9.4692 16.3412 9.69614C16.5681 9.92307 16.6816 10.1976 16.6816 10.5197C16.6816 10.8418 16.5681 11.1163 16.3412 11.3433C16.1143 11.5702 15.8397 11.6837 15.5176 11.6837H5.89835Z" fill="#1C1B1F"/>
</g>
</svg>
