<svg width="22" height="22" viewBox="0 0 22 22" fill="none" xmlns="http://www.w3.org/2000/svg">
<mask id="mask0_306_77" style="mask-type:alpha" maskUnits="userSpaceOnUse" x="0" y="0" width="22" height="22">
<rect width="21.0833" height="21.0833" fill="#D9D9D9"/>
</mask>
<g mask="url(#mask0_306_77)">
<path d="M4.39241 19.0189C3.75215 19.0189 3.20412 18.791 2.74834 18.335C2.29242 17.8793 2.06445 17.3312 2.06445 16.691V4.39236C2.06445 3.75225 2.29242 3.20423 2.74834 2.7483C3.20412 2.29237 3.75215 2.06441 4.39241 2.06441H16.691C17.3311 2.06441 17.8792 2.29237 18.3351 2.7483C18.791 3.20423 19.019 3.75225 19.019 4.39236V16.691C19.019 17.3312 18.791 17.8793 18.3351 18.335C17.8792 18.791 17.3311 19.0189 16.691 19.0189H4.39241ZM4.39241 16.691H16.691V4.39236H4.39241V16.691Z" fill="#1C1B1F"/>
</g>
</svg>
