<svg width="24" height="24" viewBox="0 0 24 24" fill="none" xmlns="http://www.w3.org/2000/svg">
<mask id="mask0_737_1269" style="mask-type:alpha" maskUnits="userSpaceOnUse" x="0" y="0" width="24" height="24">
<rect width="24" height="24" fill="currentColor"/>
</mask>
<g mask="url(#mask0_737_1269)">
<path d="M10.6001 13L8.6251 11.025C8.3751 10.775 8.06676 10.65 7.7001 10.65C7.33343 10.65 7.0251 10.775 6.7751 11.025C6.5251 11.275 6.4001 11.5833 6.4001 11.95C6.4001 12.3166 6.5251 12.625 6.7751 12.875L9.6751 15.775C9.94177 16.0416 10.2501 16.175 10.6001 16.175C10.9501 16.175 11.2584 16.0416 11.5251 15.775L17.2751 10.025C17.5251 9.77498 17.6501 9.46664 17.6501 9.09998C17.6501 8.73331 17.5251 8.42498 17.2751 8.17498C17.0251 7.92498 16.7168 7.79998 16.3501 7.79998C15.9834 7.79998 15.6751 7.92498 15.4251 8.17498L10.6001 13ZM5.0001 21.65C4.26676 21.65 3.64176 21.3916 3.1251 20.875C2.60843 20.3583 2.3501 19.7333 2.3501 19V4.99998C2.3501 4.26664 2.60843 3.64164 3.1251 3.12498C3.64176 2.60831 4.26676 2.34998 5.0001 2.34998H19.0001C19.7334 2.34998 20.3584 2.60831 20.8751 3.12498C21.3918 3.64164 21.6501 4.26664 21.6501 4.99998V19C21.6501 19.7333 21.3918 20.3583 20.8751 20.875C20.3584 21.3916 19.7334 21.65 19.0001 21.65H5.0001Z" fill="currentColor"/>
</g>
</svg>
