<svg xmlns="http://www.w3.org/2000/svg" width="22" height="20" fill="none" viewBox="0 0 22 20"><mask id="a" width="22" height="22" x="0" y="0" maskUnits="userSpaceOnUse" style="mask-type:alpha"><path fill="currentColor" d="M.583 0h21.083v21.083H.583z"/></mask><g mask="url(#a)"><path fill="currentColor" d="M9.895 11.42 8.16 9.685q-.33-.33-.812-.33t-.813.33q-.33.33-.33.813t.33.812l2.548 2.548a1.116 1.116 0 0 0 1.625 0l5.051-5.051q.33-.33.33-.813t-.33-.812-.812-.33-.813.33zm-4.92 7.599a2.24 2.24 0 0 1-1.646-.68 2.24 2.24 0 0 1-.681-1.648V4.392q0-.966.68-1.647a2.24 2.24 0 0 1 1.648-.68h12.299q.966 0 1.647.68.68.681.68 1.647v12.299q0 .966-.68 1.647a2.24 2.24 0 0 1-1.648.68z"/></g></svg>