<svg width="22" height="22" viewBox="0 0 22 22" fill="none" xmlns="http://www.w3.org/2000/svg">
<mask id="mask0_306_86" style="mask-type:alpha" maskUnits="userSpaceOnUse" x="0" y="0" width="22" height="22">
<rect x="0.0834961" width="21.0833" height="21.0833" fill="#D9D9D9"/>
</mask>
<g mask="url(#mask0_306_86)">
<path d="M9.39535 11.4201L7.66036 9.68516C7.44074 9.46554 7.16988 9.35573 6.84778 9.35573C6.52567 9.35573 6.25481 9.46554 6.03519 9.68516C5.81557 9.90477 5.70576 10.1756 5.70576 10.4977C5.70576 10.8198 5.81557 11.0907 6.03519 11.3103L8.58276 13.8579C8.81702 14.0922 9.08788 14.2093 9.39535 14.2093C9.70281 14.2093 9.97367 14.0922 10.2079 13.8579L15.2591 8.80668C15.4788 8.58706 15.5886 8.3162 15.5886 7.9941C15.5886 7.67199 15.4788 7.40113 15.2591 7.18151C15.0395 6.96189 14.7687 6.85208 14.4466 6.85208C14.1245 6.85208 13.8536 6.96189 13.634 7.18151L9.39535 11.4201ZM4.4759 19.0189C3.83169 19.0189 3.28264 18.792 2.82877 18.3381C2.37489 17.8842 2.14795 17.3352 2.14795 16.691V4.39236C2.14795 3.74815 2.37489 3.1991 2.82877 2.74522C3.28264 2.29135 3.83169 2.06441 4.4759 2.06441H16.7745C17.4187 2.06441 17.9678 2.29135 18.4216 2.74522C18.8755 3.1991 19.1025 3.74815 19.1025 4.39236V16.691C19.1025 17.3352 18.8755 17.8842 18.4216 18.3381C17.9678 18.792 17.4187 19.0189 16.7745 19.0189H4.4759Z" fill="#1C1B1F"/>
</g>
</svg>
