<svg width="21" height="20" viewBox="0 0 21 20" fill="none" xmlns="http://www.w3.org/2000/svg">
<g clip-path="url(#clip0_234_194)">
<mask id="mask0_234_194" style="mask-type:alpha" maskUnits="userSpaceOnUse" x="0" y="0" width="24" height="24">
<rect x="0.0834961" width="23.0833" height="23.0833" fill="#D9D9D9"/>
</mask>
<g mask="url(#mask0_234_194)">
<path d="M10.1045 11.0801L6.12533 15.0801C5.9031 15.3023 5.63921 15.41 5.33366 15.403C5.0281 15.3961 4.76421 15.2815 4.54199 15.0593C4.33366 14.8371 4.23296 14.5801 4.23991 14.2885C4.24685 13.9968 4.35449 13.7398 4.56283 13.5176L8.52116 9.53846L4.54199 5.51762C4.33366 5.2954 4.22949 5.03846 4.22949 4.74679C4.22949 4.45512 4.33366 4.19818 4.54199 3.97596C4.76421 3.75373 5.0281 3.63915 5.33366 3.6322C5.63921 3.62526 5.9031 3.7329 6.12533 3.95512L10.1045 7.95512L14.042 3.95512C14.2642 3.7329 14.5281 3.62526 14.8337 3.6322C15.1392 3.63915 15.4031 3.75373 15.6253 3.97596C15.8337 4.19818 15.9344 4.45512 15.9274 4.74679C15.9205 5.03846 15.8128 5.2954 15.6045 5.51762L11.6462 9.53846L15.6045 13.5176C15.8128 13.726 15.9205 13.9794 15.9274 14.278C15.9344 14.5766 15.8337 14.8371 15.6253 15.0593C15.4031 15.2815 15.1392 15.3961 14.8337 15.403C14.5281 15.41 14.2642 15.3023 14.042 15.0801L10.1045 11.0801Z" fill="#1C1B1F"/>
</g>
</g>
<defs>
<clipPath id="clip0_234_194">
<rect width="20" height="20" fill="white" transform="translate(0.0834961)"/>
</clipPath>
</defs>
</svg>
