<svg xmlns="http://www.w3.org/2000/svg" width="21" height="20" fill="none" viewBox="0 0 21 20"><g clip-path="url(#a)"><mask id="b" width="24" height="24" x="0" y="0" maskUnits="userSpaceOnUse" style="mask-type:alpha"><path fill="currentColor" d="M.083 0h23.083v23.083H.083z"/></mask><g mask="url(#b)"><path fill="currentColor" d="m10.104 11.08-3.979 4q-.333.333-.792.323a1.12 1.12 0 0 1-.791-.344 1.05 1.05 0 0 1-.302-.77q.01-.439.323-.771l3.958-3.98-3.98-4.02a1.1 1.1 0 0 1-.312-.771q0-.438.313-.771a1.12 1.12 0 0 1 .791-.344q.459-.011.792.323l3.98 4 3.937-4q.333-.333.791-.323.459.01.792.344.313.334.302.77a1.14 1.14 0 0 1-.323.772l-3.958 4.02 3.958 3.98q.313.312.323.76.01.449-.302.781a1.12 1.12 0 0 1-.792.344q-.458.011-.791-.323z"/></g></g><defs><clipPath id="a"><path fill="currentColor" d="M.083 0h20v20h-20z"/></clipPath></defs></svg>