<svg xmlns="http://www.w3.org/2000/svg" width="22" height="20" fill="none" viewBox="0 0 22 20"><mask id="a" width="22" height="22" x="0" y="0" maskUnits="userSpaceOnUse" style="mask-type:alpha"><path fill="#d9d9d9" d="M.333 0h21.083v21.083H.333z"/></mask><g mask="url(#a)"><path fill="#1c1b1f" d="m4.857 10.542 3.25 3.25q.352.351.352.824 0 .472-.351.823a1.13 1.13 0 0 1-.824.351q-.472 0-.823-.35l-4.107-4.108a1 1 0 0 1-.255-.377 1.3 1.3 0 0 1-.075-.435q0-.232.075-.436.075-.202.255-.377L6.46 5.6a1.14 1.14 0 0 1 .834-.351q.483 0 .835.351.351.352.351.835t-.351.834zm12.08-.088-3.273-3.272a1.05 1.05 0 0 1-.318-.802 1.13 1.13 0 0 1 .34-.802q.33-.33.802-.33t.801.33l4.107 4.13q.18.173.255.376t.075.436-.075.435q-.075.203-.255.377l-4.085 4.085q-.36.351-.838.34a1.18 1.18 0 0 1-.83-.362 1.1 1.1 0 0 1-.341-.834q.01-.483.362-.835z"/></g></svg>