<svg width="22" height="22" viewBox="0 0 22 22" fill="none" xmlns="http://www.w3.org/2000/svg">
<mask id="mask0_280_55" style="mask-type:alpha" maskUnits="userSpaceOnUse" x="0" y="0" width="22" height="22">
<rect x="0.666504" width="21.0833" height="21.0833" fill="#D9D9D9"/>
</mask>
<g mask="url(#mask0_280_55)">
<path d="M5.1905 10.5417L8.44084 13.792C8.6751 14.0263 8.79223 14.3008 8.79223 14.6156C8.79223 14.9304 8.6751 15.2049 8.44084 15.4391C8.20658 15.6734 7.93206 15.7905 7.61727 15.7905C7.30249 15.7905 7.02797 15.6734 6.79371 15.4391L2.68685 11.3323C2.56708 11.2162 2.48224 11.0904 2.43231 10.955C2.38239 10.8196 2.35742 10.6745 2.35742 10.5197C2.35742 10.3649 2.38239 10.2199 2.43231 10.0844C2.48224 9.94899 2.56708 9.82322 2.68685 9.70712L6.79371 5.60026C7.02797 5.366 7.30615 5.24887 7.62826 5.24887C7.95036 5.24887 8.22855 5.366 8.4628 5.60026C8.69706 5.83452 8.81419 6.1127 8.81419 6.43481C8.81419 6.75691 8.69706 7.0351 8.4628 7.26936L5.1905 10.5417ZM17.2695 10.4538L13.9972 7.18151C13.7776 6.96189 13.6714 6.69469 13.6787 6.3799C13.6861 6.06512 13.7995 5.79792 14.0191 5.5783C14.2388 5.35868 14.506 5.24887 14.8207 5.24887C15.1355 5.24887 15.4027 5.35868 15.6224 5.5783L19.7292 9.70712C19.849 9.82322 19.9338 9.94899 19.9837 10.0844C20.0337 10.2199 20.0586 10.3649 20.0586 10.5197C20.0586 10.6745 20.0337 10.8196 19.9837 10.955C19.9338 11.0904 19.849 11.2162 19.7292 11.3323L15.6443 15.4172C15.4048 15.6514 15.1253 15.7649 14.8058 15.7576C14.4863 15.7503 14.2095 15.6295 13.9752 15.3952C13.741 15.161 13.6275 14.8828 13.6348 14.5607C13.6421 14.2386 13.7629 13.9604 13.9972 13.7261L17.2695 10.4538Z" fill="#1C1B1F"/>
</g>
</svg>
