<svg width="22" height="22" viewBox="0 0 22 22" fill="none" xmlns="http://www.w3.org/2000/svg">
<mask id="mask0_336_73" style="mask-type:alpha" maskUnits="userSpaceOnUse" x="0" y="0" width="22" height="22">
<rect x="0.666504" width="21.0833" height="21.0833" fill="#D9D9D9"/>
</mask>
<g mask="url(#mask0_336_73)">
<path d="M8.28733 13.4626H5.93741C5.61531 13.4626 5.34078 13.3491 5.11385 13.1222C4.88691 12.8952 4.77344 12.6207 4.77344 12.2986C4.77344 11.9765 4.88691 11.702 5.11385 11.475C5.34078 11.2481 5.61531 11.1346 5.93741 11.1346H9.4513C9.77341 11.1346 10.0479 11.2481 10.2749 11.475C10.5018 11.702 10.6153 11.9765 10.6153 12.2986V15.8125C10.6153 16.1346 10.5018 16.4091 10.2749 16.6361C10.0479 16.863 9.77341 16.9765 9.4513 16.9765C9.1292 16.9765 8.85467 16.863 8.62773 16.6361C8.4008 16.4091 8.28733 16.1346 8.28733 15.8125V13.4626ZM14.1292 7.62075H16.4791C16.8012 7.62075 17.0757 7.73422 17.3026 7.96115C17.5296 8.18809 17.6431 8.46262 17.6431 8.78472C17.6431 9.10683 17.5296 9.38135 17.3026 9.60829C17.0757 9.83523 16.8012 9.9487 16.4791 9.9487H12.9652C12.6431 9.9487 12.3686 9.83523 12.1416 9.60829C11.9147 9.38135 11.8012 9.10683 11.8012 8.78472V5.27083C11.8012 4.94873 11.9147 4.6742 12.1416 4.44727C12.3686 4.22033 12.6431 4.10686 12.9652 4.10686C13.2873 4.10686 13.5618 4.22033 13.7888 4.44727C14.0157 4.6742 14.1292 4.94873 14.1292 5.27083V7.62075Z" fill="#1C1B1F"/>
</g>
</svg>
