<svg width="22" height="22" viewBox="0 0 22 22" fill="none" xmlns="http://www.w3.org/2000/svg">
<mask id="mask0_336_73" style="mask-type:alpha" maskUnits="userSpaceOnUse" x="0" y="0" width="22" height="22">
<rect x="0.833496" width="21.0833" height="21.0833" fill="#D9D9D9"/>
</mask>
<g mask="url(#mask0_336_73)">
<path d="M8.45432 13.4626H6.10441C5.7823 13.4626 5.50778 13.3491 5.28084 13.1222C5.0539 12.8952 4.94043 12.6207 4.94043 12.2986C4.94043 11.9765 5.0539 11.702 5.28084 11.475C5.50778 11.2481 5.7823 11.1346 6.10441 11.1346H9.61829C9.9404 11.1346 10.2149 11.2481 10.4419 11.475C10.6688 11.702 10.7823 11.9765 10.7823 12.2986V15.8125C10.7823 16.1346 10.6688 16.4091 10.4419 16.6361C10.2149 16.863 9.9404 16.9765 9.61829 16.9765C9.29619 16.9765 9.02167 16.863 8.79473 16.6361C8.56779 16.4091 8.45432 16.1346 8.45432 15.8125V13.4626ZM14.2962 7.62075H16.6461C16.9682 7.62075 17.2427 7.73422 17.4696 7.96115C17.6966 8.18809 17.81 8.46262 17.81 8.78472C17.81 9.10683 17.6966 9.38135 17.4696 9.60829C17.2427 9.83523 16.9682 9.9487 16.6461 9.9487H13.1322C12.8101 9.9487 12.5356 9.83523 12.3086 9.60829C12.0817 9.38135 11.9682 9.10683 11.9682 8.78472V5.27083C11.9682 4.94873 12.0817 4.6742 12.3086 4.44727C12.5356 4.22033 12.8101 4.10686 13.1322 4.10686C13.4543 4.10686 13.7288 4.22033 13.9558 4.44727C14.1827 4.6742 14.2962 4.94873 14.2962 5.27083V7.62075Z" fill="#1C1B1F"/>
</g>
</svg>
