<svg width="22" height="20" viewBox="0 0 22 20" fill="none" xmlns="http://www.w3.org/2000/svg">
<mask id="mask0_416_54" style="mask-type:alpha" maskUnits="userSpaceOnUse" x="0" y="0" width="22" height="22">
<rect x="0.0834961" width="21.0833" height="21.0833" fill="currentColor"/>
</mask>
<g mask="url(#mask0_416_54)">
<path d="M6.78189 18.4699L1.84048 13.5285C1.62087 13.3089 1.45249 13.0563 1.33536 12.7708C1.21823 12.4853 1.15967 12.1888 1.15967 11.8813C1.15967 11.5885 1.21823 11.2993 1.33536 11.0138C1.45249 10.7283 1.62087 10.4758 1.84048 10.2562L6.58423 5.51241L4.89318 3.82135C4.64428 3.57245 4.51616 3.26865 4.50884 2.90994C4.50152 2.55123 4.62231 2.24742 4.87121 1.99852C5.12011 1.73498 5.42758 1.59955 5.79361 1.59223C6.15964 1.58491 6.47443 1.71302 6.73797 1.97656L14.9956 10.2562C15.2152 10.4758 15.3836 10.7283 15.5007 11.0138C15.6179 11.2993 15.6764 11.5885 15.6764 11.8813C15.6764 12.1888 15.6179 12.4853 15.5007 12.7708C15.3836 13.0563 15.2152 13.3089 14.9956 13.5285L10.0542 18.4699C9.83458 18.6895 9.58202 18.8579 9.29652 18.975C9.01101 19.0921 8.72185 19.1507 8.42903 19.1507C8.12156 19.1507 7.82508 19.0921 7.53957 18.975C7.25407 18.8579 7.00151 18.6895 6.78189 18.4699ZM8.3851 7.40113L3.90489 11.8813H12.9092C12.9092 11.8521 12.9092 11.8521 12.9092 11.8813L8.3851 7.40113ZM17.8506 19.1507C17.2357 19.1507 16.7159 18.9311 16.2914 18.4918C15.8668 18.0526 15.6545 17.5255 15.6545 16.9106C15.6545 16.4567 15.7643 16.0321 15.9839 15.6368C16.2035 15.2415 16.4597 14.8608 16.7526 14.4948L17.1698 13.9677C17.3455 13.7481 17.5725 13.6383 17.8506 13.6383C18.1288 13.6383 18.3558 13.7481 18.5315 13.9677L18.9487 14.4948C19.2269 14.8608 19.4868 15.2415 19.7284 15.6368C19.97 16.0321 20.0907 16.4567 20.0907 16.9106C20.0907 17.5402 19.8711 18.0709 19.4319 18.5028C18.9927 18.9347 18.4656 19.1507 17.8506 19.1507Z" fill="currentColor"/>
</g>
</svg>
