<svg width="22" height="22" viewBox="0 0 22 22" fill="none" xmlns="http://www.w3.org/2000/svg">
<mask id="mask0_416_54" style="mask-type:alpha" maskUnits="userSpaceOnUse" x="0" y="0" width="22" height="22">
<rect x="0.166504" width="21.0833" height="21.0833" fill="#D9D9D9"/>
</mask>
<g mask="url(#mask0_416_54)">
<path d="M6.8649 18.4699L1.92349 13.5285C1.70387 13.3089 1.5355 13.0563 1.41837 12.7708C1.30124 12.4853 1.24268 12.1888 1.24268 11.8813C1.24268 11.5885 1.30124 11.2993 1.41837 11.0138C1.5355 10.7283 1.70387 10.4758 1.92349 10.2562L6.66724 5.51241L4.97618 3.82135C4.72728 3.57245 4.59917 3.26865 4.59185 2.90994C4.58453 2.55123 4.70532 2.24742 4.95422 1.99852C5.20312 1.73498 5.51059 1.59955 5.87662 1.59223C6.24265 1.58491 6.55743 1.71302 6.82097 1.97656L15.0786 10.2562C15.2982 10.4758 15.4666 10.7283 15.5837 11.0138C15.7009 11.2993 15.7594 11.5885 15.7594 11.8813C15.7594 12.1888 15.7009 12.4853 15.5837 12.7708C15.4666 13.0563 15.2982 13.3089 15.0786 13.5285L10.1372 18.4699C9.91759 18.6895 9.66503 18.8579 9.37953 18.975C9.09402 19.0921 8.80486 19.1507 8.51203 19.1507C8.20457 19.1507 7.90808 19.0921 7.62258 18.975C7.33708 18.8579 7.08452 18.6895 6.8649 18.4699ZM8.46811 7.40113L3.9879 11.8813H12.9922C12.9922 11.8521 12.9922 11.8521 12.9922 11.8813L8.46811 7.40113ZM17.9337 19.1507C17.3187 19.1507 16.799 18.9311 16.3744 18.4918C15.9498 18.0526 15.7375 17.5255 15.7375 16.9106C15.7375 16.4567 15.8473 16.0321 16.0669 15.6368C16.2865 15.2415 16.5427 14.8608 16.8356 14.4948L17.2528 13.9677C17.4285 13.7481 17.6555 13.6383 17.9337 13.6383C18.2118 13.6383 18.4388 13.7481 18.6145 13.9677L19.0317 14.4948C19.3099 14.8608 19.5698 15.2415 19.8114 15.6368C20.053 16.0321 20.1738 16.4567 20.1738 16.9106C20.1738 17.5402 19.9541 18.0709 19.5149 18.5028C19.0757 18.9347 18.5486 19.1507 17.9337 19.1507Z" fill="#1C1B1F"/>
</g>
</svg>
