<svg width="24" height="24" viewBox="0 0 24 24" fill="none" xmlns="http://www.w3.org/2000/svg">
<mask id="mask0_737_1283" style="mask-type:alpha" maskUnits="userSpaceOnUse" x="0" y="0" width="24" height="24">
<rect width="24" height="24" fill="currentColor"/>
</mask>
<g mask="url(#mask0_737_1283)">
<path d="M7.6251 21.025L2.0001 15.4C1.7501 15.15 1.55843 14.8625 1.4251 14.5375C1.29176 14.2125 1.2251 13.875 1.2251 13.525C1.2251 13.1916 1.29176 12.8625 1.4251 12.5375C1.55843 12.2125 1.7501 11.925 2.0001 11.675L7.4001 6.27497L5.4751 4.34997C5.19176 4.06664 5.04593 3.7208 5.0376 3.31247C5.02926 2.90414 5.16676 2.5583 5.4501 2.27497C5.73343 1.97497 6.08343 1.8208 6.5001 1.81247C6.91676 1.80414 7.2751 1.94997 7.5751 2.24997L16.9751 11.675C17.2251 11.925 17.4168 12.2125 17.5501 12.5375C17.6834 12.8625 17.7501 13.1916 17.7501 13.525C17.7501 13.875 17.6834 14.2125 17.5501 14.5375C17.4168 14.8625 17.2251 15.15 16.9751 15.4L11.3501 21.025C11.1001 21.275 10.8126 21.4666 10.4876 21.6C10.1626 21.7333 9.83343 21.8 9.5001 21.8C9.1501 21.8 8.8126 21.7333 8.4876 21.6C8.1626 21.4666 7.8751 21.275 7.6251 21.025ZM9.4501 8.42497L4.3501 13.525H14.6001C14.6001 13.4916 14.6001 13.4916 14.6001 13.525L9.4501 8.42497ZM20.2251 21.8C19.5251 21.8 18.9334 21.55 18.4501 21.05C17.9668 20.55 17.7251 19.95 17.7251 19.25C17.7251 18.7333 17.8501 18.25 18.1001 17.8C18.3501 17.35 18.6418 16.9166 18.9751 16.5L19.4501 15.9C19.6501 15.65 19.9084 15.525 20.2251 15.525C20.5418 15.525 20.8001 15.65 21.0001 15.9L21.4751 16.5C21.7918 16.9166 22.0876 17.35 22.3626 17.8C22.6376 18.25 22.7751 18.7333 22.7751 19.25C22.7751 19.9666 22.5251 20.5708 22.0251 21.0625C21.5251 21.5541 20.9251 21.8 20.2251 21.8Z" fill="currentColor"/>
</g>
</svg>
