<svg xmlns="http://www.w3.org/2000/svg" width="21" height="20" fill="none" viewBox="0 0 21 20"><g clip-path="url(#a)"><mask id="b" width="24" height="24" x="0" y="0" maskUnits="userSpaceOnUse" style="mask-type:alpha"><path fill="currentColor" d="M.667 0H23.75v23.083H.667z"/></mask><g mask="url(#b)"><path fill="currentColor" d="M6.167 11.045h9q.354 0 .593-.24.24-.24.24-.594a.8.8 0 0 0-.24-.593.8.8 0 0 0-.593-.24h-9a.8.8 0 0 0-.594.24.8.8 0 0 0-.24.593q0 .355.24.594.24.24.594.24m0-2.792h9q.354 0 .593-.24.24-.24.24-.593a.8.8 0 0 0-.24-.594.8.8 0 0 0-.593-.24h-9a.8.8 0 0 0-.594.24.8.8 0 0 0-.24.594q0 .354.24.594t.594.24m0-2.792h9q.354 0 .593-.24.24-.239.24-.593a.8.8 0 0 0-.24-.594.8.8 0 0 0-.593-.24h-9a.8.8 0 0 0-.594.24.8.8 0 0 0-.24.594q0 .354.24.594t.594.24m-2.292 9.292a2.13 2.13 0 0 1-1.56-.649 2.13 2.13 0 0 1-.648-1.56V2.379q0-.91.648-1.56A2.13 2.13 0 0 1 3.875.17h13.583q.911 0 1.56.649.649.648.649 1.56v13.583q0 .738-.678 1.025-.676.287-1.197-.234l-2-2z"/></g></g><defs><clipPath id="a"><path fill="#fff" d="M.667 0h20v20h-20z"/></clipPath></defs></svg>