<svg width="21" height="20" viewBox="0 0 21 20" fill="none" xmlns="http://www.w3.org/2000/svg">
<g clip-path="url(#clip0_234_206)">
<mask id="mask0_234_206" style="mask-type:alpha" maskUnits="userSpaceOnUse" x="0" y="0" width="24" height="24">
<rect x="0.0834961" width="23.0833" height="23.0833" fill="#D9D9D9"/>
</mask>
<g mask="url(#mask0_234_206)">
<path d="M5.5835 11.0448H14.5835C14.8196 11.0448 15.0175 10.9649 15.1772 10.8052C15.337 10.6455 15.4168 10.4476 15.4168 10.2115C15.4168 9.97536 15.337 9.77744 15.1772 9.61772C15.0175 9.458 14.8196 9.37814 14.5835 9.37814H5.5835C5.34739 9.37814 5.14947 9.458 4.98975 9.61772C4.83002 9.77744 4.75016 9.97536 4.75016 10.2115C4.75016 10.4476 4.83002 10.6455 4.98975 10.8052C5.14947 10.9649 5.34739 11.0448 5.5835 11.0448ZM5.5835 8.25314H14.5835C14.8196 8.25314 15.0175 8.17327 15.1772 8.01355C15.337 7.85383 15.4168 7.65591 15.4168 7.4198C15.4168 7.18369 15.337 6.98577 15.1772 6.82605C15.0175 6.66633 14.8196 6.58647 14.5835 6.58647H5.5835C5.34739 6.58647 5.14947 6.66633 4.98975 6.82605C4.83002 6.98577 4.75016 7.18369 4.75016 7.4198C4.75016 7.65591 4.83002 7.85383 4.98975 8.01355C5.14947 8.17327 5.34739 8.25314 5.5835 8.25314ZM5.5835 5.46147H14.5835C14.8196 5.46147 15.0175 5.38161 15.1772 5.22188C15.337 5.06216 15.4168 4.86425 15.4168 4.62813C15.4168 4.39202 15.337 4.19411 15.1772 4.03438C15.0175 3.87466 14.8196 3.7948 14.5835 3.7948H5.5835C5.34739 3.7948 5.14947 3.87466 4.98975 4.03438C4.83002 4.19411 4.75016 4.39202 4.75016 4.62813C4.75016 4.86425 4.83002 5.06216 4.98975 5.22188C5.14947 5.38161 5.34739 5.46147 5.5835 5.46147ZM3.29183 14.7531C2.68461 14.7531 2.16475 14.5369 1.73225 14.1044C1.29975 13.672 1.0835 13.1522 1.0835 12.5448V2.37813C1.0835 1.77091 1.29975 1.25105 1.73225 0.81855C2.16475 0.38605 2.68461 0.1698 3.29183 0.1698H16.8752C17.4824 0.1698 18.0022 0.38605 18.4347 0.81855C18.8672 1.25105 19.0835 1.77091 19.0835 2.37813V15.9615C19.0835 16.4537 18.8578 16.7955 18.4064 16.9869C17.955 17.1783 17.5557 17.1004 17.2085 16.7531L15.2085 14.7531H3.29183Z" fill="#1C1B1F"/>
</g>
</g>
<defs>
<clipPath id="clip0_234_206">
<rect width="20" height="20" fill="white" transform="translate(0.0834961)"/>
</clipPath>
</defs>
</svg>
