<svg width="22" height="22" viewBox="0 0 22 22" fill="none" xmlns="http://www.w3.org/2000/svg">
<mask id="mask0_280_46" style="mask-type:alpha" maskUnits="userSpaceOnUse" x="0" y="0" width="22" height="22">
<rect x="0.583496" width="21.0833" height="21.0833" fill="#D9D9D9"/>
</mask>
<g mask="url(#mask0_280_46)">
<path d="M8.68726 16.4714C8.047 16.4714 7.49898 16.2434 7.0432 15.7875C6.58727 15.3317 6.35931 14.7837 6.35931 14.1434V3.42604C6.35931 2.78593 6.58727 2.23791 7.0432 1.78198C7.49898 1.32606 8.047 1.09809 8.68726 1.09809H16.7692C17.4093 1.09809 17.9573 1.32606 18.4133 1.78198C18.8692 2.23791 19.0972 2.78593 19.0972 3.42604V14.1434C19.0972 14.7837 18.8692 15.3317 18.4133 15.7875C17.9573 16.2434 17.4093 16.4714 16.7692 16.4714H8.68726ZM4.60237 20.5563C3.96211 20.5563 3.41409 20.3283 2.9583 19.8724C2.50238 19.4164 2.27441 18.8684 2.27441 18.2283V6.34696C2.27441 6.02486 2.38788 5.75033 2.61482 5.5234C2.84176 5.29646 3.11628 5.18299 3.43839 5.18299C3.7605 5.18299 4.03502 5.29646 4.26196 5.5234C4.4889 5.75033 4.60237 6.02486 4.60237 6.34696V18.2283H13.8483C14.1704 18.2283 14.4449 18.3418 14.6719 18.5687C14.8988 18.7956 15.0123 19.0702 15.0123 19.3923C15.0123 19.7144 14.8988 19.9889 14.6719 20.2158C14.4449 20.4428 14.1704 20.5563 13.8483 20.5563H4.60237Z" fill="#1C1B1F"/>
</g>
</svg>
