<svg width="24" height="24" viewBox="0 0 24 24" fill="none" xmlns="http://www.w3.org/2000/svg">
<mask id="mask0_737_1281" style="mask-type:alpha" maskUnits="userSpaceOnUse" x="0" y="0" width="24" height="24">
<rect width="24" height="24" fill="currentColor"/>
</mask>
<g mask="url(#mask0_737_1281)">
<path d="M9.22505 18.75C8.49622 18.75 7.87238 18.4905 7.35355 17.9715C6.83455 17.4527 6.57505 16.8288 6.57505 16.1V3.9C6.57505 3.17133 6.83455 2.5475 7.35355 2.0285C7.87238 1.5095 8.49622 1.25 9.22505 1.25H18.425C19.1537 1.25 19.7775 1.5095 20.2965 2.0285C20.8155 2.5475 21.075 3.17133 21.075 3.9V16.1C21.075 16.8288 20.8155 17.4527 20.2965 17.9715C19.7775 18.4905 19.1537 18.75 18.425 18.75H9.22505ZM4.57505 23.4C3.84622 23.4 3.22238 23.1405 2.70355 22.6215C2.18455 22.1025 1.92505 21.4787 1.92505 20.75V7.225C1.92505 6.85833 2.05422 6.54583 2.31255 6.2875C2.57088 6.02917 2.88338 5.9 3.25005 5.9C3.61672 5.9 3.92922 6.02917 4.18755 6.2875C4.44588 6.54583 4.57505 6.85833 4.57505 7.225V20.75H15.1C15.4667 20.75 15.7792 20.8792 16.0375 21.1375C16.2959 21.3958 16.425 21.7083 16.425 22.075C16.425 22.4417 16.2959 22.7542 16.0375 23.0125C15.7792 23.2708 15.4667 23.4 15.1 23.4H4.57505Z" fill="currentColor"/>
</g>
</svg>
