<svg xmlns="http://www.w3.org/2000/svg" width="21" height="20" fill="none" viewBox="0 0 21 20"><g clip-path="url(#a)"><mask id="b" width="24" height="24" x="0" y="0" maskUnits="userSpaceOnUse" style="mask-type:alpha"><path fill="currentColor" d="M.25 0h23.083v23.083H.25z"/></mask><g mask="url(#b)"><path fill="currentColor" d="M6 17.699q-.938 0-1.573-.636-.636-.635-.635-1.573V4.45q-.458 0-.782-.323a1.06 1.06 0 0 1-.322-.782q0-.457.322-.78.324-.324.782-.324h3.916q0-.416.292-.708a.96.96 0 0 1 .708-.292h3.125q.417 0 .709.292.291.291.291.708h3.917q.459 0 .781.323.324.324.323.781 0 .458-.323.782a1.06 1.06 0 0 1-.781.323V15.49q0 .938-.635 1.573-.636.636-1.573.636zm4.27-6.209 1.438 1.438q.313.312.771.312.459 0 .771-.312.313-.313.313-.771t-.313-.77l-1.437-1.438L13.25 8.51q.313-.312.313-.77 0-.459-.313-.772a1.05 1.05 0 0 0-.77-.312q-.459 0-.772.312l-1.437 1.438-1.438-1.438a1.05 1.05 0 0 0-.77-.312q-.459 0-.771.312a1.05 1.05 0 0 0-.313.771q0 .459.313.771L8.729 9.95l-1.437 1.437a1.05 1.05 0 0 0-.313.771q0 .46.313.77.312.314.77.313.459 0 .771-.312z"/></g></g><defs><clipPath id="a"><path fill="currentColor" d="M.25 0h20v20h-20z"/></clipPath></defs></svg>