<svg width="21" height="20" viewBox="0 0 21 20" fill="none" xmlns="http://www.w3.org/2000/svg">
<g clip-path="url(#clip0_234_230)">
<mask id="mask0_234_230" style="mask-type:alpha" maskUnits="userSpaceOnUse" x="0" y="0" width="24" height="24">
<rect x="0.333496" width="23.0833" height="23.0833" fill="#D9D9D9"/>
</mask>
<g mask="url(#mask0_234_230)">
<path d="M6.0835 17.6987C5.4585 17.6987 4.93419 17.4869 4.51058 17.0632C4.08697 16.6396 3.87516 16.1153 3.87516 15.4903V4.44866C3.56961 4.44866 3.30919 4.34102 3.09391 4.12574C2.87864 3.91047 2.771 3.65005 2.771 3.34449C2.771 3.03894 2.87864 2.77852 3.09391 2.56324C3.30919 2.34796 3.56961 2.24033 3.87516 2.24033H7.79183C7.79183 1.96255 7.88905 1.72644 8.0835 1.53199C8.27794 1.33755 8.51405 1.24033 8.79183 1.24033H11.9168C12.1946 1.24033 12.4307 1.33755 12.6252 1.53199C12.8196 1.72644 12.9168 1.96255 12.9168 2.24033H16.8335C17.1391 2.24033 17.3995 2.34796 17.6147 2.56324C17.83 2.77852 17.9377 3.03894 17.9377 3.34449C17.9377 3.65005 17.83 3.91047 17.6147 4.12574C17.3995 4.34102 17.1391 4.44866 16.8335 4.44866V15.4903C16.8335 16.1153 16.6217 16.6396 16.1981 17.0632C15.7745 17.4869 15.2502 17.6987 14.6252 17.6987H6.0835ZM10.3543 11.4903L11.7918 12.9278C12.0002 13.1362 12.2571 13.2403 12.5627 13.2403C12.8682 13.2403 13.1252 13.1362 13.3335 12.9278C13.5418 12.7195 13.646 12.4625 13.646 12.157C13.646 11.8514 13.5418 11.5945 13.3335 11.3862L11.896 9.94866L13.3335 8.51116C13.5418 8.30283 13.646 8.04588 13.646 7.74033C13.646 7.43477 13.5418 7.17783 13.3335 6.96949C13.1252 6.76116 12.8682 6.65699 12.5627 6.65699C12.2571 6.65699 12.0002 6.76116 11.7918 6.96949L10.3543 8.40699L8.91683 6.96949C8.7085 6.76116 8.45155 6.65699 8.146 6.65699C7.84044 6.65699 7.5835 6.76116 7.37516 6.96949C7.16683 7.17783 7.06266 7.43477 7.06266 7.74033C7.06266 8.04588 7.16683 8.30283 7.37516 8.51116L8.81266 9.94866L7.37516 11.3862C7.16683 11.5945 7.06266 11.8514 7.06266 12.157C7.06266 12.4625 7.16683 12.7195 7.37516 12.9278C7.5835 13.1362 7.84044 13.2403 8.146 13.2403C8.45155 13.2403 8.7085 13.1362 8.91683 12.9278L10.3543 11.4903Z" fill="#1C1B1F"/>
</g>
</g>
<defs>
<clipPath id="clip0_234_230">
<rect width="20" height="20" fill="white" transform="translate(0.333496)"/>
</clipPath>
</defs>
</svg>
