<svg width="21" height="20" viewBox="0 0 21 20" fill="none" xmlns="http://www.w3.org/2000/svg">
<mask id="mask0_584_129" style="mask-type:alpha" maskUnits="userSpaceOnUse" x="0" y="0" width="21" height="20">
<rect x="0.583496" width="20" height="20" fill="#D9D9D9"/>
</mask>
<g mask="url(#mask0_584_129)">
<path d="M6.3335 18.1667C5.7085 18.1667 5.18419 17.9549 4.76058 17.5313C4.33697 17.1076 4.12516 16.5833 4.12516 15.9583V4.91667C3.81961 4.91667 3.55919 4.80903 3.34391 4.59375C3.12864 4.37847 3.021 4.11806 3.021 3.8125C3.021 3.50695 3.12864 3.24653 3.34391 3.03125C3.55919 2.81597 3.81961 2.70834 4.12516 2.70834H8.04183C8.04183 2.43056 8.13905 2.19445 8.3335 2C8.52794 1.80556 8.76405 1.70834 9.04183 1.70834H12.1668C12.4446 1.70834 12.6807 1.80556 12.8752 2C13.0696 2.19445 13.1668 2.43056 13.1668 2.70834H17.0835C17.3891 2.70834 17.6495 2.81597 17.8647 3.03125C18.08 3.24653 18.1877 3.50695 18.1877 3.8125C18.1877 4.11806 18.08 4.37847 17.8647 4.59375C17.6495 4.80903 17.3891 4.91667 17.0835 4.91667V15.9583C17.0835 16.5833 16.8717 17.1076 16.4481 17.5313C16.0245 17.9549 15.5002 18.1667 14.8752 18.1667H6.3335ZM8.75016 14.2708C9.05572 14.2708 9.31613 14.1632 9.53141 13.9479C9.74669 13.7326 9.85433 13.4722 9.85433 13.1667V7.70834C9.85433 7.40278 9.74669 7.14236 9.53141 6.92709C9.31613 6.71181 9.05572 6.60417 8.75016 6.60417C8.44461 6.60417 8.18419 6.71181 7.96891 6.92709C7.75363 7.14236 7.646 7.40278 7.646 7.70834V13.1667C7.646 13.4722 7.75363 13.7326 7.96891 13.9479C8.18419 14.1632 8.44461 14.2708 8.75016 14.2708ZM12.4585 14.2708C12.7641 14.2708 13.0245 14.1632 13.2397 13.9479C13.455 13.7326 13.5627 13.4722 13.5627 13.1667V7.70834C13.5627 7.40278 13.455 7.14236 13.2397 6.92709C13.0245 6.71181 12.7641 6.60417 12.4585 6.60417C12.1529 6.60417 11.8925 6.71181 11.6772 6.92709C11.462 7.14236 11.3543 7.40278 11.3543 7.70834V13.1667C11.3543 13.4722 11.462 13.7326 11.6772 13.9479C11.8925 14.1632 12.1529 14.2708 12.4585 14.2708Z" fill="#1C1B1F"/>
</g>
</svg>
