<svg width="21" height="20" viewBox="0 0 21 20" fill="none" xmlns="http://www.w3.org/2000/svg">
<mask id="mask0_584_129" style="mask-type:alpha" maskUnits="userSpaceOnUse" x="0" y="0" width="21" height="20">
<rect x="0.833496" width="20" height="20" fill="currentColor"/>
</mask>
<g mask="url(#mask0_584_129)">
<path d="M6.5835 18.1667C5.9585 18.1667 5.43419 17.9549 5.01058 17.5313C4.58697 17.1077 4.37516 16.5833 4.37516 15.9583V4.91668C4.06961 4.91668 3.80919 4.80904 3.59391 4.59376C3.37864 4.37848 3.271 4.11807 3.271 3.81251C3.271 3.50695 3.37864 3.24654 3.59391 3.03126C3.80919 2.81598 4.06961 2.70834 4.37516 2.70834H8.29183C8.29183 2.43057 8.38905 2.19445 8.5835 2.00001C8.77794 1.80557 9.01405 1.70834 9.29183 1.70834H12.4168C12.6946 1.70834 12.9307 1.80557 13.1252 2.00001C13.3196 2.19445 13.4168 2.43057 13.4168 2.70834H17.3335C17.6391 2.70834 17.8995 2.81598 18.1147 3.03126C18.33 3.24654 18.4377 3.50695 18.4377 3.81251C18.4377 4.11807 18.33 4.37848 18.1147 4.59376C17.8995 4.80904 17.6391 4.91668 17.3335 4.91668V15.9583C17.3335 16.5833 17.1217 17.1077 16.6981 17.5313C16.2745 17.9549 15.7502 18.1667 15.1252 18.1667H6.5835ZM9.00016 14.2708C9.30572 14.2708 9.56613 14.1632 9.78141 13.9479C9.99669 13.7326 10.1043 13.4722 10.1043 13.1667V7.70834C10.1043 7.40279 9.99669 7.14237 9.78141 6.92709C9.56613 6.71182 9.30572 6.60418 9.00016 6.60418C8.69461 6.60418 8.43419 6.71182 8.21891 6.92709C8.00363 7.14237 7.896 7.40279 7.896 7.70834V13.1667C7.896 13.4722 8.00363 13.7326 8.21891 13.9479C8.43419 14.1632 8.69461 14.2708 9.00016 14.2708ZM12.7085 14.2708C13.0141 14.2708 13.2745 14.1632 13.4897 13.9479C13.705 13.7326 13.8127 13.4722 13.8127 13.1667V7.70834C13.8127 7.40279 13.705 7.14237 13.4897 6.92709C13.2745 6.71182 13.0141 6.60418 12.7085 6.60418C12.4029 6.60418 12.1425 6.71182 11.9272 6.92709C11.712 7.14237 11.6043 7.40279 11.6043 7.70834V13.1667C11.6043 13.4722 11.712 13.7326 11.9272 13.9479C12.1425 14.1632 12.4029 14.2708 12.7085 14.2708Z" fill="currentColor"/>
</g>
</svg>
