<svg width="21" height="20" viewBox="0 0 21 20" fill="none" xmlns="http://www.w3.org/2000/svg">
<g clip-path="url(#clip0_234_212)">
<mask id="mask0_234_212" style="mask-type:alpha" maskUnits="userSpaceOnUse" x="0" y="0" width="24" height="24">
<rect x="0.75" width="23.0833" height="23.0833" fill="#D9D9D9"/>
</mask>
<g mask="url(#mask0_234_212)">
<path d="M3.68717 17.7083C3.38162 17.7083 3.1212 17.6007 2.90592 17.3854C2.69065 17.1701 2.58301 16.9097 2.58301 16.6042V14.3333C2.58301 14.0417 2.63856 13.7604 2.74967 13.4896C2.86079 13.2187 3.02051 12.9792 3.22884 12.7708L14.208 1.79166C14.3608 1.63888 14.5309 1.53124 14.7184 1.46874C14.9059 1.40624 15.0969 1.37499 15.2913 1.37499C15.4858 1.37499 15.6698 1.40277 15.8434 1.45833C16.017 1.51388 16.1802 1.61805 16.333 1.77083L18.5205 3.95833C18.6733 4.1111 18.7775 4.27777 18.833 4.45833C18.8886 4.63888 18.9163 4.82638 18.9163 5.02083C18.9163 5.21527 18.8851 5.40277 18.8226 5.58333C18.7601 5.76388 18.6525 5.93055 18.4997 6.08333L7.52051 17.0625C7.31217 17.2708 7.07259 17.4305 6.80176 17.5417C6.53092 17.6528 6.24967 17.7083 5.95801 17.7083H3.68717ZM15.2705 6.20833L16.458 5.02083L15.2705 3.85416L14.083 5.02083L15.2705 6.20833Z" fill="#1C1B1F"/>
</g>
</g>
<defs>
<clipPath id="clip0_234_212">
<rect width="20" height="20" fill="white" transform="translate(0.75)"/>
</clipPath>
</defs>
</svg>
