<svg width="24" height="24" viewBox="0 0 24 24" fill="none" xmlns="http://www.w3.org/2000/svg">
<mask id="mask0_737_1285" style="mask-type:alpha" maskUnits="userSpaceOnUse" x="0" y="0" width="24" height="24">
<rect width="24" height="24" fill="currentColor"/>
</mask>
<g mask="url(#mask0_737_1285)">
<path d="M3.52495 21.8C3.15828 21.8 2.84578 21.6708 2.58745 21.4125C2.32912 21.1542 2.19995 20.8417 2.19995 20.475V17.75C2.19995 17.4 2.26662 17.0625 2.39995 16.7375C2.53328 16.4125 2.72495 16.125 2.97495 15.875L16.15 2.70001C16.3333 2.51668 16.5375 2.38751 16.7625 2.31251C16.9875 2.23751 17.2166 2.20001 17.45 2.20001C17.6833 2.20001 17.9041 2.23335 18.1125 2.30001C18.3208 2.36668 18.5166 2.49168 18.7 2.67501L21.325 5.30001C21.5083 5.48335 21.6333 5.68335 21.7 5.90001C21.7666 6.11668 21.8 6.34168 21.8 6.57501C21.8 6.80835 21.7625 7.03335 21.6875 7.25001C21.6125 7.46668 21.4833 7.66668 21.3 7.85001L8.12495 21.025C7.87495 21.275 7.58745 21.4667 7.26245 21.6C6.93745 21.7333 6.59995 21.8 6.24995 21.8H3.52495ZM17.425 8.00001L18.85 6.57501L17.425 5.17501L16 6.57501L17.425 8.00001Z" fill="currentColor"/>
</g>
</svg>
