<svg xmlns="http://www.w3.org/2000/svg" width="21" height="20" fill="none" viewBox="0 0 21 20"><g clip-path="url(#a)"><mask id="b" width="24" height="24" x="0" y="0" maskUnits="userSpaceOnUse" style="mask-type:alpha"><path fill="currentColor" d="M.417 0H23.5v23.083H.417z"/></mask><g mask="url(#b)"><path fill="currentColor" d="M3.354 17.708q-.459 0-.781-.323a1.06 1.06 0 0 1-.323-.78v-2.272a2.2 2.2 0 0 1 .646-1.562L13.875 1.79a1.3 1.3 0 0 1 .51-.322 1.8 1.8 0 0 1 .573-.094 1.8 1.8 0 0 1 .552.083q.26.084.49.313l2.187 2.187q.23.23.313.5t.083.563q0 .291-.093.562-.094.271-.323.5l-10.98 10.98a2.203 2.203 0 0 1-1.563.646zm11.583-11.5 1.188-1.187-1.188-1.167-1.187 1.167z"/></g></g><defs><clipPath id="a"><path fill="currentColor" d="M.417 0h20v20h-20z"/></clipPath></defs></svg>