<svg width="22" height="22" viewBox="0 0 22 22" fill="none" xmlns="http://www.w3.org/2000/svg">
<mask id="mask0_336_100" style="mask-type:alpha" maskUnits="userSpaceOnUse" x="0" y="0" width="22" height="22">
<rect x="0.75" width="21.0833" height="21.0833" fill="#D9D9D9"/>
</mask>
<g mask="url(#mask0_336_100)">
<path d="M7.18489 14.6485H9.5348C9.8569 14.6485 10.1314 14.762 10.3584 14.9889C10.5853 15.2159 10.6988 15.4904 10.6988 15.8125C10.6988 16.1346 10.5853 16.4091 10.3584 16.6361C10.1314 16.863 9.8569 16.9765 9.5348 16.9765H6.02091C5.6988 16.9765 5.42428 16.863 5.19734 16.6361C4.9704 16.4091 4.85693 16.1346 4.85693 15.8125V12.2986C4.85693 11.9765 4.9704 11.702 5.19734 11.475C5.42428 11.2481 5.6988 11.1346 6.02091 11.1346C6.34302 11.1346 6.61754 11.2481 6.84448 11.475C7.07142 11.702 7.18489 11.9765 7.18489 12.2986V14.6485ZM15.3986 6.43481H13.0487C12.7266 6.43481 12.4521 6.32134 12.2251 6.0944C11.9982 5.86746 11.8847 5.59294 11.8847 5.27083C11.8847 4.94873 11.9982 4.6742 12.2251 4.44727C12.4521 4.22033 12.7266 4.10686 13.0487 4.10686H16.5626C16.8847 4.10686 17.1592 4.22033 17.3861 4.44727C17.6131 4.6742 17.7266 4.94873 17.7266 5.27083V8.78472C17.7266 9.10683 17.6131 9.38135 17.3861 9.60829C17.1592 9.83523 16.8847 9.9487 16.5626 9.9487C16.2405 9.9487 15.9659 9.83523 15.739 9.60829C15.5121 9.38135 15.3986 9.10683 15.3986 8.78472V6.43481Z" fill="#1C1B1F"/>
</g>
</svg>
