<svg width="22" height="22" viewBox="0 0 22 22" fill="none" xmlns="http://www.w3.org/2000/svg">
<mask id="mask0_336_100" style="mask-type:alpha" maskUnits="userSpaceOnUse" x="0" y="0" width="22" height="22">
<rect x="0.583496" width="21.0833" height="21.0833" fill="#D9D9D9"/>
</mask>
<g mask="url(#mask0_336_100)">
<path d="M7.01838 14.6485H9.36829C9.6904 14.6485 9.96492 14.762 10.1919 14.9889C10.4188 15.2159 10.5323 15.4904 10.5323 15.8125C10.5323 16.1346 10.4188 16.4091 10.1919 16.6361C9.96492 16.863 9.6904 16.9765 9.36829 16.9765H5.85441C5.5323 16.9765 5.25778 16.863 5.03084 16.6361C4.8039 16.4091 4.69043 16.1346 4.69043 15.8125V12.2986C4.69043 11.9765 4.8039 11.702 5.03084 11.475C5.25778 11.2481 5.5323 11.1346 5.85441 11.1346C6.17651 11.1346 6.45103 11.2481 6.67797 11.475C6.90491 11.702 7.01838 11.9765 7.01838 12.2986V14.6485ZM15.2321 6.43481H12.8822C12.5601 6.43481 12.2856 6.32134 12.0586 6.0944C11.8317 5.86746 11.7182 5.59294 11.7182 5.27083C11.7182 4.94873 11.8317 4.6742 12.0586 4.44727C12.2856 4.22033 12.5601 4.10686 12.8822 4.10686H16.3961C16.7182 4.10686 16.9927 4.22033 17.2196 4.44727C17.4466 4.6742 17.56 4.94873 17.56 5.27083V8.78472C17.56 9.10683 17.4466 9.38135 17.2196 9.60829C16.9927 9.83523 16.7182 9.9487 16.3961 9.9487C16.074 9.9487 15.7994 9.83523 15.5725 9.60829C15.3456 9.38135 15.2321 9.10683 15.2321 8.78472V6.43481Z" fill="#1C1B1F"/>
</g>
</svg>
