<svg width="24" height="24" viewBox="0 0 24 24" fill="none" xmlns="http://www.w3.org/2000/svg">
<mask id="mask0_737_1327" style="mask-type:alpha" maskUnits="userSpaceOnUse" x="0" y="0" width="24" height="24">
<rect width="24" height="24" fill="currentColor"/>
</mask>
<g mask="url(#mask0_737_1327)">
<path d="M11.9935 17.325C13.3478 17.325 14.5125 16.8666 15.4875 15.95C16.4625 15.0333 17.05 13.9083 17.25 12.575C17.2833 12.3083 17.195 12.0916 16.985 11.925C16.775 11.7583 16.53 11.675 16.25 11.675C15.9666 11.675 15.7166 11.7541 15.5 11.9125C15.2833 12.0708 15.1416 12.2833 15.075 12.55C14.8916 13.3 14.525 13.925 13.975 14.425C13.425 14.925 12.7666 15.175 12 15.175C11.1231 15.175 10.3747 14.865 9.7547 14.2452C9.13487 13.6252 8.82495 12.8768 8.82495 12C8.82495 11.2666 9.04578 10.6166 9.48745 10.05C9.92912 9.48328 10.5 9.10828 11.2 8.92495L11.125 8.99995C10.925 9.21662 10.825 9.46662 10.825 9.74995C10.825 10.0333 10.9314 10.2833 11.1442 10.5C11.3569 10.7166 11.611 10.825 11.9067 10.825C12.2022 10.825 12.4583 10.7166 12.675 10.5L14.875 8.29995C15.0083 8.16362 15.075 8.00453 15.075 7.8227C15.075 7.64087 15.0083 7.48328 14.875 7.34995L12.65 5.12495C12.4363 4.90828 12.187 4.79995 11.9022 4.79995C11.6174 4.79995 11.3666 4.90637 11.15 5.1192C10.9333 5.33187 10.825 5.58604 10.825 5.8817C10.825 6.1772 10.9333 6.43328 11.15 6.64995L11.2 6.72495C9.89995 6.90828 8.82078 7.50412 7.96245 8.51245C7.10412 9.52078 6.67495 10.6833 6.67495 12C6.67495 13.4833 7.19162 14.7416 8.22495 15.775C9.25828 16.8083 10.5145 17.325 11.9935 17.325ZM12 22.8C10.506 22.8 9.10195 22.5165 7.78795 21.9495C6.47395 21.3825 5.33095 20.613 4.35895 19.641C3.38695 18.669 2.61745 17.526 2.05045 16.212C1.48345 14.898 1.19995 13.494 1.19995 12C1.19995 10.5016 1.48395 9.09362 2.05195 7.77595C2.61995 6.45812 3.39078 5.31187 4.36445 4.3372C5.33812 3.36237 6.48112 2.59578 7.79345 2.03745C9.10578 1.47912 10.508 1.19995 12 1.19995C13.4981 1.19995 14.906 1.47912 16.2235 2.03745C17.5411 2.59578 18.6875 3.36245 19.6625 4.33745C20.6375 5.31245 21.4041 6.45895 21.9625 7.77695C22.5208 9.09512 22.8 10.5035 22.8 12.002C22.8 13.5006 22.5208 14.9041 21.9625 16.2125C21.4041 17.5208 20.6375 18.6618 19.6627 19.6355C18.688 20.6091 17.5418 21.38 16.224 21.948C14.9063 22.516 13.4983 22.8 12 22.8Z" fill="currentColor"/>
</g>
</svg>
