<svg width="24" height="24" viewBox="0 0 24 24" fill="none" xmlns="http://www.w3.org/2000/svg">
<mask id="mask0_737_1288" style="mask-type:alpha" maskUnits="userSpaceOnUse" x="0" y="0" width="24" height="24">
<rect width="24" height="24" fill="currentColor"/>
</mask>
<g mask="url(#mask0_737_1288)">
<path d="M14.0251 21.8C13.0418 21.8 12.2001 21.4458 11.5001 20.7375C10.8001 20.0291 10.4501 19.1833 10.4501 18.2C10.4501 16.8 10.9834 15.5333 12.0501 14.4C13.1168 13.2666 14.4501 12.5583 16.0501 12.275C16.0001 11.7416 15.8709 11.3583 15.6626 11.125C15.4543 10.8916 15.1501 10.775 14.7501 10.775C14.2168 10.775 13.6668 10.9875 13.1001 11.4125C12.5334 11.8375 11.7918 12.6083 10.8751 13.725C9.70843 15.1916 8.74593 16.2 7.9876 16.75C7.22926 17.3 6.40843 17.575 5.5251 17.575C4.55843 17.575 3.76676 17.25 3.1501 16.6C2.53343 15.95 2.2251 15.125 2.2251 14.125C2.2251 13.3416 2.42926 12.4791 2.8376 11.5375C3.24593 10.5958 3.9251 9.41662 4.8751 7.99995C5.35843 7.29995 5.69593 6.78328 5.8876 6.44995C6.07926 6.11662 6.1751 5.85828 6.1751 5.67495C6.1751 5.57495 6.1501 5.49578 6.1001 5.43745C6.0501 5.37912 5.98343 5.34995 5.9001 5.34995C5.83343 5.34995 5.75843 5.37078 5.6751 5.41245C5.59176 5.45412 5.5001 5.52495 5.4001 5.62495C5.1001 5.90828 4.74593 6.06245 4.3376 6.08745C3.92926 6.11245 3.58343 5.98328 3.3001 5.69995C2.96676 5.36662 2.7876 4.97495 2.7626 4.52495C2.7376 4.07495 2.89176 3.70828 3.2251 3.42495C3.65843 3.04162 4.1251 2.74162 4.6251 2.52495C5.1251 2.30828 5.6251 2.19995 6.1251 2.19995C6.9751 2.19995 7.71676 2.52078 8.3501 3.16245C8.98343 3.80412 9.3001 4.55828 9.3001 5.42495C9.3001 6.00828 9.1251 6.67912 8.7751 7.43745C8.4251 8.19578 7.84176 9.15828 7.0251 10.325C6.4251 11.225 5.99593 11.9416 5.7376 12.475C5.47926 13.0083 5.3501 13.4416 5.3501 13.775C5.3501 13.9583 5.39593 14.1125 5.4876 14.2375C5.57926 14.3625 5.69176 14.425 5.8251 14.425C5.95843 14.425 6.07926 14.3875 6.1876 14.3125C6.29593 14.2375 6.4751 14.0583 6.7251 13.775C6.90843 13.5916 7.1251 13.3416 7.3751 13.025C7.6251 12.7083 7.94176 12.3166 8.3251 11.85C9.5751 10.3166 10.7001 9.22912 11.7001 8.58745C12.7001 7.94578 13.7251 7.62495 14.7751 7.62495C16.0084 7.62495 17.0209 8.02495 17.8126 8.82495C18.6043 9.62495 19.0668 10.7166 19.2001 12.1H20.2251C20.6584 12.1 21.0293 12.2541 21.3376 12.5625C21.6459 12.8708 21.8001 13.2416 21.8001 13.675C21.8001 14.1083 21.6459 14.4791 21.3376 14.7875C21.0293 15.0958 20.6584 15.25 20.2251 15.25H19.2001C19.0501 17.2166 18.5001 18.8 17.5501 20C16.6001 21.2 15.4251 21.8 14.0251 21.8ZM14.1251 18.65C14.5251 18.65 14.8959 18.3666 15.2376 17.8C15.5793 17.2333 15.8501 16.4416 16.0501 15.425C15.3834 15.625 14.8043 15.9833 14.3126 16.5C13.8209 17.0166 13.5751 17.525 13.5751 18.025C13.5751 18.225 13.6209 18.3791 13.7126 18.4875C13.8043 18.5958 13.9418 18.65 14.1251 18.65Z" fill="currentColor"/>
</g>
</svg>
