<svg width="20" height="20" viewBox="0 0 20 20" fill="none" xmlns="http://www.w3.org/2000/svg">
<mask id="mask0_606_54" style="mask-type:alpha" maskUnits="userSpaceOnUse" x="0" y="0" width="20" height="20">
<rect width="20" height="20" fill="#D9D9D9"/>
</mask>
<g mask="url(#mask0_606_54)">
<path d="M11.6873 18.1667C10.8679 18.1667 10.1665 17.8715 9.58317 17.2812C8.99984 16.691 8.70817 15.9861 8.70817 15.1667C8.70817 14 9.15261 12.9444 10.0415 12C10.9304 11.0556 12.0415 10.4653 13.3748 10.2292C13.3332 9.78472 13.2255 9.46527 13.0519 9.27083C12.8783 9.07638 12.6248 8.97916 12.2915 8.97916C11.8471 8.97916 11.3887 9.15625 10.9165 9.51041C10.4443 9.86458 9.82623 10.5069 9.06234 11.4375C8.09012 12.6597 7.28803 13.5 6.65609 13.9583C6.02414 14.4167 5.34011 14.6458 4.604 14.6458C3.79845 14.6458 3.13873 14.375 2.62484 13.8333C2.11095 13.2917 1.854 12.6042 1.854 11.7708C1.854 11.1181 2.02414 10.3993 2.36442 9.61458C2.7047 8.82986 3.27067 7.84722 4.06234 6.66666C4.46512 6.08333 4.74637 5.65277 4.90609 5.37499C5.06581 5.09722 5.14567 4.88194 5.14567 4.72916C5.14567 4.64583 5.12484 4.57986 5.08317 4.53124C5.0415 4.48263 4.98595 4.45833 4.9165 4.45833C4.86095 4.45833 4.79845 4.47569 4.729 4.51041C4.65956 4.54513 4.58317 4.60416 4.49984 4.68749C4.24984 4.92361 3.9547 5.05208 3.61442 5.07291C3.27414 5.09374 2.98595 4.98611 2.74984 4.74999C2.47206 4.47222 2.32275 4.14583 2.30192 3.77083C2.28109 3.39583 2.40956 3.09027 2.68734 2.85416C3.04845 2.53472 3.43734 2.28472 3.854 2.10416C4.27067 1.92361 4.68734 1.83333 5.104 1.83333C5.81234 1.83333 6.43039 2.10069 6.95817 2.63541C7.48595 3.17013 7.74984 3.79861 7.74984 4.52083C7.74984 5.00694 7.604 5.56597 7.31234 6.19791C7.02067 6.82986 6.53456 7.63194 5.854 8.60416C5.354 9.35416 4.99637 9.95138 4.78109 10.3958C4.56581 10.8403 4.45817 11.2014 4.45817 11.4792C4.45817 11.6319 4.49637 11.7604 4.57275 11.8646C4.64914 11.9687 4.74289 12.0208 4.854 12.0208C4.96512 12.0208 5.06581 11.9896 5.15609 11.9271C5.24637 11.8646 5.39567 11.7153 5.604 11.4792C5.75678 11.3264 5.93734 11.1181 6.14567 10.8542C6.354 10.5903 6.61789 10.2639 6.93734 9.875C7.979 8.59722 8.9165 7.69097 9.74984 7.15625C10.5832 6.62152 11.4373 6.35416 12.3123 6.35416C13.3401 6.35416 14.1839 6.6875 14.8436 7.35416C15.5033 8.02083 15.8887 8.93055 15.9998 10.0833H16.854C17.2151 10.0833 17.5241 10.2118 17.7811 10.4687C18.038 10.7257 18.1665 11.0347 18.1665 11.3958C18.1665 11.7569 18.038 12.066 17.7811 12.3229C17.5241 12.5799 17.2151 12.7083 16.854 12.7083H15.9998C15.8748 14.3472 15.4165 15.6667 14.6248 16.6667C13.8332 17.6667 12.854 18.1667 11.6873 18.1667ZM11.7707 15.5417C12.104 15.5417 12.413 15.3056 12.6978 14.8333C12.9825 14.3611 13.2082 13.7014 13.3748 12.8542C12.8193 13.0208 12.3366 13.3194 11.9269 13.75C11.5172 14.1806 11.3123 14.6042 11.3123 15.0208C11.3123 15.1875 11.3505 15.316 11.4269 15.4062C11.5033 15.4965 11.6179 15.5417 11.7707 15.5417Z" fill="#1C1B1F"/>
</g>
</svg>
