<svg width="22" height="22" viewBox="0 0 22 22" fill="none" xmlns="http://www.w3.org/2000/svg">
<mask id="mask0_336_82" style="mask-type:alpha" maskUnits="userSpaceOnUse" x="0" y="0" width="22" height="22">
<rect x="0.75" width="21.0833" height="21.0833" fill="currentColor"/>
</mask>
<g mask="url(#mask0_336_82)">
<path d="M8.37063 15.1097L5.44971 18.0307C5.21545 18.2649 4.94459 18.3784 4.63712 18.3711C4.32966 18.3637 4.05879 18.2429 3.82453 18.0087C3.59027 17.7744 3.47314 17.4999 3.47314 17.1851C3.47314 16.8703 3.59027 16.5958 3.82453 16.3616L6.72349 13.4626H6.26229C5.94019 13.4626 5.66566 13.3491 5.43873 13.1222C5.21179 12.8952 5.09832 12.6207 5.09832 12.2986C5.09832 11.9765 5.21179 11.702 5.43873 11.4751C5.66566 11.2481 5.94019 11.1346 6.26229 11.1346H9.5346C9.85671 11.1346 10.1312 11.2481 10.3582 11.4751C10.5851 11.702 10.6986 11.9765 10.6986 12.2986V15.5709C10.6986 15.893 10.5851 16.1676 10.3582 16.3945C10.1312 16.6214 9.85671 16.7349 9.5346 16.7349C9.2125 16.7349 8.93797 16.6214 8.71104 16.3945C8.4841 16.1676 8.37063 15.893 8.37063 15.5709V15.1097ZM15.8596 7.62075H16.3208C16.6429 7.62075 16.9174 7.73422 17.1444 7.96116C17.3713 8.1881 17.4848 8.46262 17.4848 8.78473C17.4848 9.10684 17.3713 9.38136 17.1444 9.6083C16.9174 9.83524 16.6429 9.94871 16.3208 9.94871H13.0485C12.7264 9.94871 12.4519 9.83524 12.2249 9.6083C11.998 9.38136 11.8845 9.10684 11.8845 8.78473V5.51242C11.8845 5.19031 11.998 4.91579 12.2249 4.68885C12.4519 4.46191 12.7264 4.34844 13.0485 4.34844C13.3706 4.34844 13.6451 4.46191 13.8721 4.68885C14.099 4.91579 14.2125 5.19031 14.2125 5.51242V5.97362L17.1334 3.0527C17.3676 2.81844 17.6422 2.70131 17.957 2.70131C18.2717 2.70131 18.5463 2.81844 18.7805 3.0527C19.0148 3.28696 19.1319 3.56148 19.1319 3.87627C19.1319 4.19105 19.0148 4.46557 18.7805 4.69983L15.8596 7.62075Z" fill="currentColor"/>
</g>
</svg>
