<svg width="22" height="22" viewBox="0 0 22 22" fill="none" xmlns="http://www.w3.org/2000/svg">
<mask id="mask0_336_82" style="mask-type:alpha" maskUnits="userSpaceOnUse" x="0" y="0" width="22" height="22">
<rect x="0.916504" width="21.0833" height="21.0833" fill="#D9D9D9"/>
</mask>
<g mask="url(#mask0_336_82)">
<path d="M8.53713 15.1097L5.61621 18.0307C5.38195 18.2649 5.11109 18.3784 4.80362 18.3711C4.49616 18.3637 4.2253 18.2429 3.99104 18.0087C3.75678 17.7744 3.63965 17.4999 3.63965 17.1851C3.63965 16.8703 3.75678 16.5958 3.99104 16.3616L6.89 13.4626H6.4288C6.10669 13.4626 5.83217 13.3491 5.60523 13.1222C5.37829 12.8952 5.26482 12.6207 5.26482 12.2986C5.26482 11.9765 5.37829 11.702 5.60523 11.4751C5.83217 11.2481 6.10669 11.1346 6.4288 11.1346H9.70111C10.0232 11.1346 10.2977 11.2481 10.5247 11.4751C10.7516 11.702 10.8651 11.9765 10.8651 12.2986V15.5709C10.8651 15.893 10.7516 16.1676 10.5247 16.3945C10.2977 16.6214 10.0232 16.7349 9.70111 16.7349C9.379 16.7349 9.10448 16.6214 8.87754 16.3945C8.6506 16.1676 8.53713 15.893 8.53713 15.5709V15.1097ZM16.0261 7.62075H16.4873C16.8094 7.62075 17.0839 7.73422 17.3109 7.96116C17.5378 8.1881 17.6513 8.46262 17.6513 8.78473C17.6513 9.10684 17.5378 9.38136 17.3109 9.6083C17.0839 9.83524 16.8094 9.94871 16.4873 9.94871H13.215C12.8929 9.94871 12.6184 9.83524 12.3914 9.6083C12.1645 9.38136 12.051 9.10684 12.051 8.78473V5.51242C12.051 5.19031 12.1645 4.91579 12.3914 4.68885C12.6184 4.46191 12.8929 4.34844 13.215 4.34844C13.5371 4.34844 13.8116 4.46191 14.0386 4.68885C14.2655 4.91579 14.379 5.19031 14.379 5.51242V5.97362L17.2999 3.0527C17.5342 2.81844 17.8087 2.70131 18.1235 2.70131C18.4382 2.70131 18.7128 2.81844 18.947 3.0527C19.1813 3.28696 19.2984 3.56148 19.2984 3.87627C19.2984 4.19105 19.1813 4.46557 18.947 4.69983L16.0261 7.62075Z" fill="#1C1B1F"/>
</g>
</svg>
