<svg xmlns="http://www.w3.org/2000/svg" width="22" height="20" fill="none" viewBox="0 0 22 20"><mask id="a" width="22" height="22" x="0" y="0" maskUnits="userSpaceOnUse" style="mask-type:alpha"><path fill="#d9d9d9" d="M.5 0h21.083v21.083H.5z"/></mask><g mask="url(#a)"><path fill="#1c1b1f" d="M11.371 19.15q-3.009 0-5.326-1.745-2.317-1.747-3.063-4.513a.98.98 0 0 1 .175-.846q.285-.384.79-.45a1.33 1.33 0 0 1 .857.154q.396.22.527.658a5.97 5.97 0 0 0 2.219 3.185q1.647 1.23 3.777 1.23 2.593 0 4.414-1.834 1.824-1.834 1.823-4.447 0-2.592-1.8-4.437-1.801-1.844-4.393-1.844a6.4 6.4 0 0 0-3.119.79 6.2 6.2 0 0 0-2.328 2.196h1.472q.483 0 .823.34.34.341.34.824t-.34.824-.823.34H3.355q-.483 0-.824-.34a1.12 1.12 0 0 1-.34-.824v-4.04q0-.484.34-.824t.824-.34.823.34q.34.34.34.823v.945a7.45 7.45 0 0 1 2.988-2.526 9 9 0 0 1 3.865-.856q1.779 0 3.327.68A8.7 8.7 0 0 1 17.4 4.458a8.7 8.7 0 0 1 1.823 2.734 8.45 8.45 0 0 1 .67 3.35 8.45 8.45 0 0 1-.67 3.349 8.7 8.7 0 0 1-1.823 2.734 8.7 8.7 0 0 1-2.7 1.845 8.2 8.2 0 0 1-3.328.68m.571-9.091 2.174 2.174q.33.33.34.801a1.1 1.1 0 0 1-.34.824q-.33.33-.812.33t-.813-.33l-2.526-2.482a1.148 1.148 0 0 1-.351-.835v-3.58q0-.482.34-.823t.824-.34q.483 0 .824.34t.34.824z"/></g></svg>