<svg width="22" height="22" viewBox="0 0 22 22" fill="none" xmlns="http://www.w3.org/2000/svg">
<mask id="mask0_303_65" style="mask-type:alpha" maskUnits="userSpaceOnUse" x="0" y="0" width="22" height="22">
<rect x="0.833496" width="21.0833" height="21.0833" fill="#D9D9D9"/>
</mask>
<g mask="url(#mask0_303_65)">
<path d="M11.7044 19.1507C9.6986 19.1507 7.92336 18.5687 6.37871 17.4047C4.83406 16.2408 3.81284 14.7364 3.31504 12.8916C3.24183 12.5841 3.3004 12.3023 3.49073 12.0461C3.68107 11.7898 3.94461 11.6398 4.28136 11.5958C4.58882 11.5519 4.87433 11.6032 5.13787 11.7496C5.40141 11.896 5.57711 12.1156 5.66495 12.4084C6.04562 13.7115 6.785 14.773 7.88309 15.5929C8.98118 16.4128 10.2403 16.8227 11.6605 16.8227C13.3882 16.8227 14.8596 16.2115 16.0748 14.9889C17.2901 13.7664 17.8977 12.284 17.8977 10.5417C17.8977 8.81401 17.2974 7.33524 16.0968 6.10538C14.8962 4.87552 13.4321 4.26059 11.7044 4.26059C10.5917 4.26059 9.55219 4.52413 8.58587 5.05122C7.61955 5.5783 6.84357 6.31036 6.25792 7.2474H7.72936C8.05147 7.2474 8.32599 7.36087 8.55293 7.5878C8.77987 7.81474 8.89334 8.08927 8.89334 8.41137C8.89334 8.73348 8.77987 9.008 8.55293 9.23494C8.32599 9.46188 8.05147 9.57535 7.72936 9.57535H3.68839C3.36628 9.57535 3.09176 9.46188 2.86482 9.23494C2.63788 9.008 2.52441 8.73348 2.52441 8.41137V4.3704C2.52441 4.04829 2.63788 3.77377 2.86482 3.54683C3.09176 3.31989 3.36628 3.20642 3.68839 3.20642C4.0105 3.20642 4.28502 3.31989 4.51196 3.54683C4.7389 3.77377 4.85237 4.04829 4.85237 4.3704V5.31476C5.62835 4.20203 6.62395 3.36016 7.83917 2.78915C9.05439 2.21814 10.3428 1.93264 11.7044 1.93264C12.8904 1.93264 13.9995 2.15958 15.0317 2.61346C16.0639 3.06733 16.9643 3.68226 17.733 4.45825C18.5016 5.23423 19.1092 6.14565 19.5558 7.19249C20.0024 8.23934 20.2256 9.35573 20.2256 10.5417C20.2256 11.7276 20.0024 12.844 19.5558 13.8908C19.1092 14.9377 18.5016 15.8491 17.733 16.6251C16.9643 17.4011 16.0639 18.016 15.0317 18.4699C13.9995 18.9238 12.8904 19.1507 11.7044 19.1507ZM12.2755 10.0585L14.4497 12.2327C14.6693 12.4523 14.7828 12.7195 14.7901 13.0343C14.7974 13.3491 14.6839 13.6236 14.4497 13.8579C14.2301 14.0775 13.9592 14.1873 13.6371 14.1873C13.315 14.1873 13.0441 14.0775 12.8245 13.8579L10.2989 11.3762C10.1818 11.2591 10.0939 11.131 10.0354 10.9919C9.97679 10.8528 9.9475 10.7027 9.9475 10.5417V6.96189C9.9475 6.63979 10.061 6.36526 10.2879 6.13833C10.5149 5.91139 10.7894 5.79792 11.1115 5.79792C11.4336 5.79792 11.7081 5.91139 11.935 6.13833C12.162 6.36526 12.2755 6.63979 12.2755 6.96189V10.0585Z" fill="#1C1B1F"/>
</g>
</svg>
