<svg width="24" height="24" viewBox="0 0 24 24" fill="none" xmlns="http://www.w3.org/2000/svg">
<mask id="mask0_737_1302" style="mask-type:alpha" maskUnits="userSpaceOnUse" x="0" y="0" width="24" height="24">
<rect width="24" height="24" fill="currentColor"/>
</mask>
<g mask="url(#mask0_737_1302)">
<path d="M8.8251 13.3H15.1751C15.5418 13.3 15.8543 13.1708 16.1126 12.9125C16.3709 12.6541 16.5001 12.3416 16.5001 11.975C16.5001 11.6083 16.3709 11.2958 16.1126 11.0375C15.8543 10.7791 15.5418 10.65 15.1751 10.65H8.8251C8.45843 10.65 8.14593 10.7791 7.8876 11.0375C7.62926 11.2958 7.5001 11.6083 7.5001 11.975C7.5001 12.3416 7.62926 12.6541 7.8876 12.9125C8.14593 13.1708 8.45843 13.3 8.8251 13.3ZM5.0001 21.65C4.26676 21.65 3.64176 21.3916 3.1251 20.875C2.60843 20.3583 2.3501 19.7333 2.3501 19V4.99998C2.3501 4.26664 2.60843 3.64164 3.1251 3.12498C3.64176 2.60831 4.26676 2.34998 5.0001 2.34998H19.0001C19.7334 2.34998 20.3584 2.60831 20.8751 3.12498C21.3918 3.64164 21.6501 4.26664 21.6501 4.99998V19C21.6501 19.7333 21.3918 20.3583 20.8751 20.875C20.3584 21.3916 19.7334 21.65 19.0001 21.65H5.0001Z" fill="currentColor"/>
</g>
</svg>
