<svg xmlns="http://www.w3.org/2000/svg" width="22" height="20" fill="none" viewBox="0 0 22 20"><mask id="a" width="22" height="22" x="0" y="0" maskUnits="userSpaceOnUse" style="mask-type:alpha"><path fill="#d9d9d9" d="M.833 0h21.083v21.083H.833z"/></mask><g mask="url(#a)"><path fill="#1c1b1f" d="M8.586 11.684h5.578q.483 0 .824-.34.34-.341.34-.824t-.34-.824a1.12 1.12 0 0 0-.824-.34H8.586q-.483 0-.824.34t-.34.824.34.823.824.34m-3.36 7.335a2.24 2.24 0 0 1-1.647-.68 2.24 2.24 0 0 1-.681-1.648V4.392q0-.966.68-1.647a2.24 2.24 0 0 1 1.648-.68h12.299q.966 0 1.647.68.68.681.68 1.647v12.299q0 .966-.68 1.647a2.24 2.24 0 0 1-1.648.68z"/></g></svg>