<svg width="22" height="22" viewBox="0 0 22 22" fill="none" xmlns="http://www.w3.org/2000/svg">
<mask id="mask0_306_110" style="mask-type:alpha" maskUnits="userSpaceOnUse" x="0" y="0" width="22" height="22">
<rect x="0.25" width="21.0833" height="21.0833" fill="#D9D9D9"/>
</mask>
<g mask="url(#mask0_306_110)">
<path d="M8.00256 11.6837H13.5809C13.903 11.6837 14.1775 11.5702 14.4044 11.3433C14.6314 11.1163 14.7448 10.8418 14.7448 10.5197C14.7448 10.1976 14.6314 9.92307 14.4044 9.69614C14.1775 9.4692 13.903 9.35573 13.5809 9.35573H8.00256C7.68045 9.35573 7.40593 9.4692 7.17899 9.69614C6.95205 9.92307 6.83859 10.1976 6.83859 10.5197C6.83859 10.8418 6.95205 11.1163 7.17899 11.3433C7.40593 11.5702 7.68045 11.6837 8.00256 11.6837ZM4.64241 19.0189C3.99819 19.0189 3.44915 18.792 2.99527 18.3381C2.54139 17.8842 2.31445 17.3352 2.31445 16.691V4.39236C2.31445 3.74815 2.54139 3.1991 2.99527 2.74522C3.44915 2.29135 3.99819 2.06441 4.64241 2.06441H16.941C17.5852 2.06441 18.1343 2.29135 18.5882 2.74522C19.042 3.1991 19.269 3.74815 19.269 4.39236V16.691C19.269 17.3352 19.042 17.8842 18.5882 18.3381C18.1343 18.792 17.5852 19.0189 16.941 19.0189H4.64241Z" fill="#1C1B1F"/>
</g>
</svg>
