<svg width="21" height="20" viewBox="0 0 21 20" fill="none" xmlns="http://www.w3.org/2000/svg">
<mask id="mask0_655_54" style="mask-type:alpha" maskUnits="userSpaceOnUse" x="0" y="0" width="21" height="20">
<rect x="0.25" width="20" height="20" fill="#D9D9D9"/>
</mask>
<g mask="url(#mask0_655_54)">
<path d="M10.2708 14.5C10.5764 14.5 10.8368 14.3924 11.0521 14.1771C11.2674 13.9618 11.375 13.7014 11.375 13.3958V10.2708C11.375 9.96528 11.2674 9.70486 11.0521 9.48958C10.8368 9.27431 10.5764 9.16667 10.2708 9.16667C9.96528 9.16667 9.70486 9.27431 9.48958 9.48958C9.27431 9.70486 9.16667 9.96528 9.16667 10.2708V13.3958C9.16667 13.7014 9.27431 13.9618 9.48958 14.1771C9.70486 14.3924 9.96528 14.5 10.2708 14.5ZM10.2463 7.16667C10.5404 7.16667 10.7882 7.06722 10.9896 6.86833C11.191 6.66931 11.2917 6.42278 11.2917 6.12875C11.2917 5.83458 11.1922 5.58681 10.9933 5.38542C10.7943 5.18403 10.5478 5.08333 10.2537 5.08333C9.95958 5.08333 9.71181 5.18278 9.51042 5.38167C9.30903 5.58069 9.20833 5.82722 9.20833 6.12125C9.20833 6.41542 9.30778 6.66319 9.50667 6.86458C9.70569 7.06597 9.95222 7.16667 10.2463 7.16667ZM10.25 19C9.005 19 7.835 18.7638 6.74 18.2913C5.645 17.8188 4.6925 17.1775 3.8825 16.3675C3.0725 15.5575 2.43125 14.605 1.95875 13.51C1.48625 12.415 1.25 11.245 1.25 10C1.25 8.75139 1.48667 7.57806 1.96 6.48C2.43333 5.38181 3.07569 4.4266 3.88708 3.61437C4.69847 2.80201 5.65097 2.16319 6.74458 1.69792C7.83819 1.23264 9.00667 1 10.25 1C11.4985 1 12.6717 1.23264 13.7696 1.69792C14.8676 2.16319 15.8229 2.80208 16.6354 3.61458C17.4479 4.42708 18.0868 5.3825 18.5521 6.48083C19.0174 7.57931 19.25 8.75292 19.25 10.0017C19.25 11.2506 19.0174 12.4201 18.5521 13.5104C18.0868 14.6007 17.448 15.5515 16.6356 16.3629C15.8234 17.1743 14.8682 17.8167 13.77 18.29C12.6719 18.7633 11.4986 19 10.25 19Z" fill="#1C1B1F"/>
</g>
</svg>
