<svg width="24" height="24" viewBox="0 0 24 24" fill="none" xmlns="http://www.w3.org/2000/svg">
<mask id="mask0_737_1310" style="mask-type:alpha" maskUnits="userSpaceOnUse" x="0" y="0" width="24" height="24">
<rect width="24" height="24" fill="currentColor"/>
</mask>
<g mask="url(#mask0_737_1310)">
<path d="M12.025 17.4C12.3916 17.4 12.7041 17.2708 12.9625 17.0125C13.2208 16.7541 13.35 16.4416 13.35 16.075V12.325C13.35 11.9583 13.2208 11.6458 12.9625 11.3875C12.7041 11.1291 12.3916 11 12.025 11C11.6583 11 11.3458 11.1291 11.0875 11.3875C10.8291 11.6458 10.7 11.9583 10.7 12.325V16.075C10.7 16.4416 10.8291 16.7541 11.0875 17.0125C11.3458 17.2708 11.6583 17.4 12.025 17.4ZM11.9955 8.59995C12.3485 8.59995 12.6458 8.48062 12.8875 8.24195C13.1291 8.00312 13.25 7.70728 13.25 7.35445C13.25 7.00145 13.1306 6.70412 12.892 6.46245C12.6531 6.22078 12.3573 6.09995 12.0045 6.09995C11.6515 6.09995 11.3541 6.21928 11.1125 6.45795C10.8708 6.69678 10.75 6.99262 10.75 7.34545C10.75 7.69845 10.8693 7.99578 11.108 8.23745C11.3468 8.47912 11.6426 8.59995 11.9955 8.59995ZM12 22.8C10.506 22.8 9.10195 22.5165 7.78795 21.9495C6.47395 21.3825 5.33095 20.613 4.35895 19.641C3.38695 18.669 2.61745 17.526 2.05045 16.212C1.48345 14.898 1.19995 13.494 1.19995 12C1.19995 10.5016 1.48395 9.09362 2.05195 7.77595C2.61995 6.45812 3.39078 5.31187 4.36445 4.3372C5.33812 3.36237 6.48112 2.59578 7.79345 2.03745C9.10578 1.47912 10.508 1.19995 12 1.19995C13.4981 1.19995 14.906 1.47912 16.2235 2.03745C17.5411 2.59578 18.6875 3.36245 19.6625 4.33745C20.6375 5.31245 21.4041 6.45895 21.9625 7.77695C22.5208 9.09512 22.8 10.5035 22.8 12.002C22.8 13.5006 22.5208 14.9041 21.9625 16.2125C21.4041 17.5208 20.6375 18.6618 19.6627 19.6355C18.688 20.6091 17.5418 21.38 16.224 21.948C14.9063 22.516 13.4983 22.8 12 22.8Z" fill="currentColor"/>
</g>
</svg>
