<svg width="24" height="24" viewBox="0 0 24 24" fill="none" xmlns="http://www.w3.org/2000/svg">
<mask id="mask0_754_1379" style="mask-type:alpha" maskUnits="userSpaceOnUse" x="0" y="0" width="24" height="24">
<rect width="24" height="24" fill="currentColor"/>
</mask>
<g mask="url(#mask0_754_1379)">
<path d="M12.2001 11.975L8.4751 8.25002C8.2251 8.00002 8.1001 7.69169 8.1001 7.32502C8.1001 6.95836 8.2251 6.65002 8.4751 6.40002C8.7251 6.15002 9.03343 6.02502 9.4001 6.02502C9.76676 6.02502 10.0751 6.15002 10.3251 6.40002L14.9751 11.05C15.1084 11.1834 15.2043 11.325 15.2626 11.475C15.3209 11.625 15.3501 11.7917 15.3501 11.975C15.3501 12.1584 15.3209 12.325 15.2626 12.475C15.2043 12.625 15.1084 12.7667 14.9751 12.9L10.3251 17.55C10.0751 17.8 9.76676 17.925 9.4001 17.925C9.03343 17.925 8.7251 17.8 8.4751 17.55C8.2251 17.3 8.1001 16.9917 8.1001 16.625C8.1001 16.2584 8.2251 15.95 8.4751 15.7L12.2001 11.975Z" fill="currentColor"/>
</g>
</svg>
