<svg width="24" height="24" viewBox="0 0 24 24" fill="none" xmlns="http://www.w3.org/2000/svg">
<mask id="mask0_754_1373" style="mask-type:alpha" maskUnits="userSpaceOnUse" x="0" y="0" width="24" height="24">
<rect width="24" height="24" fill="currentColor"/>
</mask>
<g mask="url(#mask0_754_1373)">
<path d="M11.2501 11.975L14.9751 15.7C15.2251 15.95 15.3501 16.2584 15.3501 16.625C15.3501 16.9917 15.2251 17.3 14.9751 17.55C14.7251 17.8 14.4168 17.925 14.0501 17.925C13.6834 17.925 13.3751 17.8 13.1251 17.55L8.4751 12.9C8.34176 12.7667 8.24593 12.625 8.1876 12.475C8.12926 12.325 8.1001 12.1584 8.1001 11.975C8.1001 11.7917 8.12926 11.625 8.1876 11.475C8.24593 11.325 8.34176 11.1834 8.4751 11.05L13.1251 6.40002C13.3751 6.15002 13.6834 6.02502 14.0501 6.02502C14.4168 6.02502 14.7251 6.15002 14.9751 6.40002C15.2251 6.65002 15.3501 6.95836 15.3501 7.32502C15.3501 7.69169 15.2251 8.00002 14.9751 8.25002L11.2501 11.975Z" fill="currentColor"/>
</g>
</svg>
