<svg width="22" height="22" viewBox="0 0 22 22" fill="none" xmlns="http://www.w3.org/2000/svg">
<mask id="mask0_314_46" style="mask-type:alpha" maskUnits="userSpaceOnUse" x="0" y="0" width="22" height="22">
<rect x="0.333496" width="21.0833" height="21.0833" fill="#D9D9D9"/>
</mask>
<g mask="url(#mask0_314_46)">
<path d="M5.51643 20.2927C4.85757 20.2927 4.30487 20.0694 3.85831 19.6229C3.41175 19.1763 3.18848 18.6236 3.18848 17.9648V9.00434C3.18848 8.34548 3.41175 7.79278 3.85831 7.34622C4.30487 6.89966 4.85757 6.67639 5.51643 6.67639H5.86782V4.91944C5.86782 3.51389 6.35603 2.32063 7.33245 1.33967C8.30887 0.358705 9.48976 -0.131775 10.8751 -0.131775C12.2605 -0.131775 13.4413 0.358705 14.4178 1.33967C15.3942 2.32063 15.8824 3.51389 15.8824 4.91944V6.67639H16.2338C16.8926 6.67639 17.4454 6.89966 17.8919 7.34622C18.3385 7.79278 18.5617 8.34548 18.5617 9.00434V17.9648C18.5617 18.6236 18.3385 19.1763 17.8919 19.6229C17.4454 20.0694 16.8926 20.2927 16.2338 20.2927H5.51643ZM10.8786 15.5929C11.4473 15.5929 11.9329 15.3904 12.3356 14.9854C12.7382 14.5804 12.9395 14.0936 12.9395 13.525C12.9395 12.9563 12.737 12.4706 12.3321 12.068C11.9271 11.6654 11.4403 11.4641 10.8716 11.4641C10.3029 11.4641 9.81728 11.6665 9.41465 12.0715C9.01202 12.4765 8.8107 12.9633 8.8107 13.532C8.8107 14.1006 9.01319 14.5863 9.41816 14.9889C9.82314 15.3916 10.31 15.5929 10.8786 15.5929ZM8.19577 6.67639H13.5544V4.91944C13.5544 4.17274 13.2937 3.53219 12.7722 2.99778C12.2507 2.46338 11.6174 2.19618 10.8725 2.19618C10.1275 2.19618 9.49518 2.46338 8.97541 2.99778C8.45565 3.53219 8.19577 4.17274 8.19577 4.91944V6.67639Z" fill="#1C1B1F"/>
</g>
</svg>
