<svg width="22" height="22" viewBox="0 0 22 22" fill="none" xmlns="http://www.w3.org/2000/svg">
<mask id="mask0_316_55" style="mask-type:alpha" maskUnits="userSpaceOnUse" x="0" y="0" width="22" height="22">
<rect x="0.25" width="21.0833" height="21.0833" fill="#D9D9D9"/>
</mask>
<g mask="url(#mask0_316_55)">
<path d="M10.7951 15.5929C11.3638 15.5929 11.8494 15.3904 12.2521 14.9854C12.6547 14.5804 12.856 14.0936 12.856 13.525C12.856 12.9563 12.6535 12.4706 12.2486 12.068C11.8436 11.6654 11.3568 11.4641 10.7881 11.4641C10.2194 11.4641 9.73379 11.6665 9.33115 12.0715C8.92852 12.4765 8.7272 12.9633 8.7272 13.532C8.7272 14.1006 8.92969 14.5863 9.33467 14.9889C9.73964 15.3916 10.2265 15.5929 10.7951 15.5929ZM5.43293 20.2927C4.77408 20.2927 4.22137 20.0694 3.77482 19.6229C3.32826 19.1763 3.10498 18.6236 3.10498 17.9648V9.00434C3.10498 8.34548 3.32826 7.79278 3.77482 7.34622C4.22137 6.89966 4.77408 6.67639 5.43293 6.67639H11.143V4.91944C11.143 3.51389 11.6304 2.32063 12.6052 1.33967C13.5802 0.358705 14.7592 -0.131775 16.1424 -0.131775C17.3922 -0.131775 18.4709 0.259877 19.3787 1.04318C20.2864 1.82649 20.8501 2.79647 21.0697 3.95312C21.1283 4.20202 21.0483 4.4253 20.8297 4.62296C20.6111 4.82061 20.3329 4.91944 19.9951 4.91944C19.6574 4.91944 19.3782 4.85114 19.1575 4.71454C18.9367 4.57779 18.7762 4.35327 18.6759 4.04097C18.5002 3.51389 18.1862 3.07465 17.7337 2.72326C17.2813 2.37187 16.7535 2.19618 16.1503 2.19618C15.4061 2.19618 14.7734 2.46338 14.2524 2.99778C13.7314 3.53219 13.471 4.17274 13.471 4.91944V6.67639H16.1503C16.8091 6.67639 17.3619 6.89966 17.8084 7.34622C18.255 7.79278 18.4782 8.34548 18.4782 9.00434V17.9648C18.4782 18.6236 18.255 19.1763 17.8084 19.6229C17.3619 20.0694 16.8091 20.2927 16.1503 20.2927H5.43293Z" fill="#1C1B1F"/>
</g>
</svg>
