<svg width="22" height="22" viewBox="0 0 22 22" fill="none" xmlns="http://www.w3.org/2000/svg">
<mask id="mask0_316_55" style="mask-type:alpha" maskUnits="userSpaceOnUse" x="0" y="0" width="22" height="22">
<rect x="0.416504" width="21.0833" height="21.0833" fill="#D9D9D9"/>
</mask>
<g mask="url(#mask0_316_55)">
<path d="M10.9616 15.5929C11.5303 15.5929 12.0159 15.3904 12.4186 14.9854C12.8212 14.5804 13.0225 14.0936 13.0225 13.525C13.0225 12.9563 12.82 12.4706 12.4151 12.068C12.0101 11.6654 11.5233 11.4641 10.9546 11.4641C10.3859 11.4641 9.90029 11.6665 9.49766 12.0715C9.09502 12.4765 8.89371 12.9633 8.89371 13.532C8.89371 14.1006 9.09619 14.5863 9.50117 14.9889C9.90615 15.3916 10.393 15.5929 10.9616 15.5929ZM5.59944 20.2927C4.94058 20.2927 4.38788 20.0694 3.94132 19.6229C3.49476 19.1763 3.27148 18.6236 3.27148 17.9648V9.00434C3.27148 8.34548 3.49476 7.79278 3.94132 7.34622C4.38788 6.89966 4.94058 6.67639 5.59944 6.67639H11.3095V4.91944C11.3095 3.51389 11.7969 2.32063 12.7717 1.33967C13.7467 0.358705 14.9257 -0.131775 16.3089 -0.131775C17.5587 -0.131775 18.6374 0.259877 19.5452 1.04318C20.4529 1.82649 21.0166 2.79647 21.2362 3.95312C21.2948 4.20202 21.2148 4.4253 20.9962 4.62296C20.7776 4.82061 20.4994 4.91944 20.1617 4.91944C19.8239 4.91944 19.5447 4.85114 19.324 4.71454C19.1032 4.57779 18.9427 4.35327 18.8424 4.04097C18.6667 3.51389 18.3527 3.07465 17.9002 2.72326C17.4478 2.37187 16.92 2.19618 16.3168 2.19618C15.5726 2.19618 14.9399 2.46338 14.4189 2.99778C13.8979 3.53219 13.6375 4.17274 13.6375 4.91944V6.67639H16.3168C16.9757 6.67639 17.5284 6.89966 17.9749 7.34622C18.4215 7.79278 18.6447 8.34548 18.6447 9.00434V17.9648C18.6447 18.6236 18.4215 19.1763 17.9749 19.6229C17.5284 20.0694 16.9757 20.2927 16.3168 20.2927H5.59944Z" fill="#1C1B1F"/>
</g>
</svg>
