<svg width="22" height="22" viewBox="0 0 22 22" fill="none" xmlns="http://www.w3.org/2000/svg">
<mask id="mask0_314_46" style="mask-type:alpha" maskUnits="userSpaceOnUse" x="0" y="0" width="22" height="22">
<rect x="0.166504" width="21.0833" height="21.0833" fill="#D9D9D9"/>
</mask>
<g mask="url(#mask0_314_46)">
<path d="M5.34944 20.2927C4.69058 20.2927 4.13788 20.0694 3.69132 19.6229C3.24476 19.1763 3.02148 18.6236 3.02148 17.9648V9.00434C3.02148 8.34548 3.24476 7.79278 3.69132 7.34622C4.13788 6.89966 4.69058 6.67639 5.34944 6.67639H5.70082V4.91944C5.70082 3.51389 6.18904 2.32063 7.16546 1.33967C8.14188 0.358705 9.32277 -0.131775 10.7081 -0.131775C12.0935 -0.131775 13.2744 0.358705 14.2508 1.33967C15.2272 2.32063 15.7154 3.51389 15.7154 4.91944V6.67639H16.0668C16.7257 6.67639 17.2784 6.89966 17.7249 7.34622C18.1715 7.79278 18.3947 8.34548 18.3947 9.00434V17.9648C18.3947 18.6236 18.1715 19.1763 17.7249 19.6229C17.2784 20.0694 16.7257 20.2927 16.0668 20.2927H5.34944ZM10.7116 15.5929C11.2803 15.5929 11.7659 15.3904 12.1686 14.9854C12.5712 14.5804 12.7725 14.0936 12.7725 13.525C12.7725 12.9563 12.57 12.4706 12.1651 12.068C11.7601 11.6654 11.2733 11.4641 10.7046 11.4641C10.1359 11.4641 9.65029 11.6665 9.24766 12.0715C8.84502 12.4765 8.64371 12.9633 8.64371 13.532C8.64371 14.1006 8.84619 14.5863 9.25117 14.9889C9.65615 15.3916 10.143 15.5929 10.7116 15.5929ZM8.02878 6.67639H13.3875V4.91944C13.3875 4.17274 13.1267 3.53219 12.6052 2.99778C12.0837 2.46338 11.4504 2.19618 10.7055 2.19618C9.96054 2.19618 9.32818 2.46338 8.80842 2.99778C8.28866 3.53219 8.02878 4.17274 8.02878 4.91944V6.67639Z" fill="#1C1B1F"/>
</g>
</svg>
