<svg width="24" height="24" viewBox="0 0 24 24" fill="none" xmlns="http://www.w3.org/2000/svg">
<mask id="mask0_737_1305" style="mask-type:alpha" maskUnits="userSpaceOnUse" x="0" y="0" width="24" height="24">
<rect width="24" height="24" fill="currentColor"/>
</mask>
<g mask="url(#mask0_737_1305)">
<path d="M12.004 17.75C12.6513 17.75 13.2042 17.5195 13.6625 17.0585C14.1208 16.5975 14.35 16.0433 14.35 15.396C14.35 14.7486 14.1195 14.1958 13.6585 13.7375C13.1975 13.2791 12.6433 13.05 11.996 13.05C11.3487 13.05 10.7958 13.2805 10.3375 13.7415C9.87917 14.2025 9.65 14.7566 9.65 15.404C9.65 16.0513 9.8805 16.6041 10.3415 17.0625C10.8025 17.5208 11.3567 17.75 12.004 17.75ZM5.9 23.1C5.15 23.1 4.52083 22.8458 4.0125 22.3375C3.50417 21.8291 3.25 21.2 3.25 20.45V10.25C3.25 9.49998 3.50417 8.87081 4.0125 8.36248C4.52083 7.85414 5.15 7.59998 5.9 7.59998H12.4V5.59998C12.4 3.99998 12.9548 2.64164 14.0645 1.52498C15.1743 0.408309 16.5165 -0.150024 18.091 -0.150024C19.5137 -0.150024 20.7417 0.295809 21.775 1.18748C22.8083 2.07914 23.45 3.18331 23.7 4.49998C23.7667 4.78331 23.6756 5.03748 23.4268 5.26248C23.1779 5.48748 22.8613 5.59998 22.4768 5.59998C22.0923 5.59998 21.7744 5.52223 21.5233 5.36673C21.2719 5.21106 21.0892 4.95548 20.975 4.59998C20.775 3.99998 20.4175 3.49998 19.9025 3.09998C19.3875 2.69998 18.7867 2.49998 18.1 2.49998C17.2528 2.49998 16.5327 2.80414 15.9395 3.41248C15.3465 4.02081 15.05 4.74998 15.05 5.59998V7.59998H18.1C18.85 7.59998 19.4792 7.85414 19.9875 8.36248C20.4958 8.87081 20.75 9.49998 20.75 10.25V20.45C20.75 21.2 20.4958 21.8291 19.9875 22.3375C19.4792 22.8458 18.85 23.1 18.1 23.1H5.9Z" fill="currentColor"/>
</g>
</svg>
