<svg width="24" height="24" viewBox="0 0 24 24" fill="none" xmlns="http://www.w3.org/2000/svg">
<mask id="mask0_737_1304" style="mask-type:alpha" maskUnits="userSpaceOnUse" x="0" y="0" width="24" height="24">
<rect width="24" height="24" fill="currentColor"/>
</mask>
<g mask="url(#mask0_737_1304)">
<path d="M5.9 23.1C5.15 23.1 4.52083 22.8458 4.0125 22.3375C3.50417 21.8291 3.25 21.2 3.25 20.45V10.25C3.25 9.49998 3.50417 8.87081 4.0125 8.36248C4.52083 7.85414 5.15 7.59998 5.9 7.59998H6.3V5.59998C6.3 3.99998 6.85575 2.64164 7.96725 1.52498C9.07875 0.408309 10.423 -0.150024 12 -0.150024C13.577 -0.150024 14.9213 0.408309 16.0328 1.52498C17.1443 2.64164 17.7 3.99998 17.7 5.59998V7.59998H18.1C18.85 7.59998 19.4792 7.85414 19.9875 8.36248C20.4958 8.87081 20.75 9.49998 20.75 10.25V20.45C20.75 21.2 20.4958 21.8291 19.9875 22.3375C19.4792 22.8458 18.85 23.1 18.1 23.1H5.9ZM12.004 17.75C12.6513 17.75 13.2042 17.5195 13.6625 17.0585C14.1208 16.5975 14.35 16.0433 14.35 15.396C14.35 14.7486 14.1195 14.1958 13.6585 13.7375C13.1975 13.2791 12.6433 13.05 11.996 13.05C11.3487 13.05 10.7958 13.2805 10.3375 13.7415C9.87917 14.2025 9.65 14.7566 9.65 15.404C9.65 16.0513 9.8805 16.6041 10.3415 17.0625C10.8025 17.5208 11.3567 17.75 12.004 17.75ZM8.95 7.59998H15.05V5.59998C15.05 4.74998 14.7532 4.02081 14.1595 3.41248C13.5658 2.80414 12.845 2.49998 11.997 2.49998C11.149 2.49998 10.4292 2.80414 9.8375 3.41248C9.24583 4.02081 8.95 4.74998 8.95 5.59998V7.59998Z" fill="currentColor"/>
</g>
</svg>
