<svg width="21" height="20" viewBox="0 0 21 20" fill="none" xmlns="http://www.w3.org/2000/svg">
<mask id="mask0_606_63" style="mask-type:alpha" maskUnits="userSpaceOnUse" x="0" y="0" width="21" height="20">
<rect x="0.5" width="20" height="20" fill="#D9D9D9"/>
</mask>
<g mask="url(#mask0_606_63)">
<path d="M10.5002 9.95833C10.1946 9.95833 9.93419 9.85069 9.71891 9.63541C9.50364 9.42014 9.396 9.15972 9.396 8.85416V2.14583C9.396 1.84028 9.50364 1.57986 9.71891 1.36458C9.93419 1.1493 10.1946 1.04166 10.5002 1.04166C10.8057 1.04166 11.0661 1.1493 11.2814 1.36458C11.4967 1.57986 11.6043 1.84028 11.6043 2.14583V8.85416C11.6043 9.15972 11.4967 9.42014 11.2814 9.63541C11.0661 9.85069 10.8057 9.95833 10.5002 9.95833ZM10.5002 18.125C9.37516 18.125 8.31614 17.9097 7.32308 17.4792C6.33002 17.0486 5.46544 16.4653 4.72933 15.7292C3.99322 14.9931 3.40989 14.1285 2.97933 13.1354C2.54877 12.1424 2.3335 11.0833 2.3335 9.95833C2.3335 9.05555 2.46544 8.18403 2.72933 7.34375C2.99322 6.50347 3.40294 5.72916 3.9585 5.02083C4.15294 4.77083 4.40989 4.63194 4.72933 4.60416C5.04877 4.57639 5.32655 4.68055 5.56266 4.91666C5.75711 5.11111 5.8578 5.34722 5.86475 5.625C5.87169 5.90278 5.79877 6.15972 5.646 6.39583C5.28489 6.92361 5.01058 7.48958 4.82308 8.09375C4.63558 8.69792 4.54183 9.31944 4.54183 9.95833C4.54183 11.6111 5.12169 13.0174 6.28141 14.1771C7.44114 15.3368 8.84739 15.9167 10.5002 15.9167C12.1529 15.9167 13.5592 15.3368 14.7189 14.1771C15.8786 13.0174 16.4585 11.6111 16.4585 9.95833C16.4585 9.29166 16.3613 8.6493 16.1668 8.03125C15.9724 7.41319 15.6807 6.84028 15.2918 6.3125C15.1391 6.09028 15.0696 5.85069 15.0835 5.59375C15.0974 5.3368 15.2016 5.11111 15.396 4.91666C15.6321 4.68055 15.9238 4.57986 16.271 4.61458C16.6182 4.6493 16.896 4.80555 17.1043 5.08333C17.6321 5.79166 18.0245 6.5625 18.2814 7.39583C18.5384 8.22916 18.6668 9.08333 18.6668 9.95833C18.6668 11.0833 18.4516 12.1424 18.021 13.1354C17.5904 14.1285 17.0071 14.9931 16.271 15.7292C15.5349 16.4653 14.6703 17.0486 13.6772 17.4792C12.6842 17.9097 11.6252 18.125 10.5002 18.125Z" fill="#1C1B1F"/>
</g>
</svg>
