<svg width="24" height="24" viewBox="0 0 24 24" fill="none" xmlns="http://www.w3.org/2000/svg">
<mask id="mask0_737_1306" style="mask-type:alpha" maskUnits="userSpaceOnUse" x="0" y="0" width="24" height="24">
<rect width="24" height="24" fill="currentColor"/>
</mask>
<g mask="url(#mask0_737_1306)">
<path d="M11.9959 21.25C11.3486 21.25 10.7957 21.0195 10.3374 20.5585C9.87907 20.0975 9.6499 19.5433 9.6499 18.896C9.6499 18.2487 9.8804 17.6958 10.3414 17.2375C10.8024 16.7792 11.3566 16.55 12.0039 16.55C12.6512 16.55 13.2041 16.7805 13.6624 17.2415C14.1207 17.7025 14.3499 18.2567 14.3499 18.904C14.3499 19.5513 14.1194 20.1042 13.6584 20.5625C13.1974 21.0208 12.6432 21.25 11.9959 21.25ZM11.9959 14.35C11.3486 14.35 10.7957 14.1195 10.3374 13.6585C9.87907 13.1975 9.6499 12.6433 9.6499 11.996C9.6499 11.3487 9.8804 10.7958 10.3414 10.3375C10.8024 9.87917 11.3566 9.65 12.0039 9.65C12.6512 9.65 13.2041 9.8805 13.6624 10.3415C14.1207 10.8025 14.3499 11.3567 14.3499 12.004C14.3499 12.6513 14.1194 13.2042 13.6584 13.6625C13.1974 14.1208 12.6432 14.35 11.9959 14.35ZM11.9959 7.45C11.3486 7.45 10.7957 7.2195 10.3374 6.7585C9.87907 6.2975 9.6499 5.74333 9.6499 5.096C9.6499 4.44867 9.8804 3.89583 10.3414 3.4375C10.8024 2.97917 11.3566 2.75 12.0039 2.75C12.6512 2.75 13.2041 2.9805 13.6624 3.4415C14.1207 3.9025 14.3499 4.45667 14.3499 5.104C14.3499 5.75133 14.1194 6.30417 13.6584 6.7625C13.1974 7.22083 12.6432 7.45 11.9959 7.45Z" fill="currentColor"/>
</g>
</svg>
