<svg width="21" height="20" viewBox="0 0 21 20" fill="none" xmlns="http://www.w3.org/2000/svg">
<mask id="mask0_606_81" style="mask-type:alpha" maskUnits="userSpaceOnUse" x="0" y="0" width="21" height="20">
<rect x="0.0834961" width="20" height="20" fill="#D9D9D9"/>
</mask>
<g mask="url(#mask0_606_81)">
<path d="M10.08 17.7083C9.54056 17.7083 9.07986 17.5163 8.69792 17.1321C8.31597 16.7479 8.125 16.2861 8.125 15.7467C8.125 15.2072 8.31708 14.7465 8.70125 14.3646C9.08542 13.9826 9.54722 13.7917 10.0867 13.7917C10.6261 13.7917 11.0868 13.9838 11.4688 14.3679C11.8507 14.7521 12.0417 15.2139 12.0417 15.7533C12.0417 16.2928 11.8496 16.7535 11.4654 17.1354C11.0813 17.5174 10.6194 17.7083 10.08 17.7083ZM10.08 11.9583C9.54056 11.9583 9.07986 11.7663 8.69792 11.3821C8.31597 10.9979 8.125 10.5361 8.125 9.99667C8.125 9.45723 8.31708 8.99653 8.70125 8.61459C9.08542 8.23264 9.54722 8.04167 10.0867 8.04167C10.6261 8.04167 11.0868 8.23375 11.4688 8.61792C11.8507 9.00209 12.0417 9.46389 12.0417 10.0033C12.0417 10.5428 11.8496 11.0035 11.4654 11.3854C11.0813 11.7674 10.6194 11.9583 10.08 11.9583ZM10.08 6.20834C9.54056 6.20834 9.07986 6.01626 8.69792 5.63209C8.31597 5.24792 8.125 4.78612 8.125 4.24667C8.125 3.70723 8.31708 3.24653 8.70125 2.86459C9.08542 2.48264 9.54722 2.29167 10.0867 2.29167C10.6261 2.29167 11.0868 2.48375 11.4688 2.86792C11.8507 3.25209 12.0417 3.71389 12.0417 4.25334C12.0417 4.79278 11.8496 5.25348 11.4654 5.63542C11.0813 6.01737 10.6194 6.20834 10.08 6.20834Z" fill="#1C1B1F"/>
</g>
</svg>
