<svg width="21" height="20" viewBox="0 0 21 20" fill="none" xmlns="http://www.w3.org/2000/svg">
<mask id="mask0_606_72" style="mask-type:alpha" maskUnits="userSpaceOnUse" x="0" y="0" width="21" height="20">
<rect x="0.166504" width="20" height="20" fill="#D9D9D9"/>
</mask>
<g mask="url(#mask0_606_72)">
<path d="M4.41301 11.9583C3.87356 11.9583 3.41287 11.7663 3.03092 11.3821C2.64898 10.9979 2.45801 10.5361 2.45801 9.99667C2.45801 9.45723 2.65009 8.99653 3.03426 8.61459C3.41842 8.23264 3.88023 8.04167 4.41967 8.04167C4.95912 8.04167 5.41981 8.23375 5.80176 8.61792C6.1837 9.00209 6.37467 9.46389 6.37467 10.0033C6.37467 10.5428 6.18259 11.0035 5.79842 11.3854C5.41426 11.7674 4.95245 11.9583 4.41301 11.9583ZM10.163 11.9583C9.62356 11.9583 9.16287 11.7663 8.78092 11.3821C8.39898 10.9979 8.20801 10.5361 8.20801 9.99667C8.20801 9.45723 8.40009 8.99653 8.78426 8.61459C9.16843 8.23264 9.63023 8.04167 10.1697 8.04167C10.7091 8.04167 11.1698 8.23375 11.5518 8.61792C11.9337 9.00209 12.1247 9.46389 12.1247 10.0033C12.1247 10.5428 11.9326 11.0035 11.5484 11.3854C11.1643 11.7674 10.7025 11.9583 10.163 11.9583ZM15.913 11.9583C15.3736 11.9583 14.9129 11.7663 14.5309 11.3821C14.149 10.9979 13.958 10.5361 13.958 9.99667C13.958 9.45723 14.1501 8.99653 14.5343 8.61459C14.9184 8.23264 15.3802 8.04167 15.9197 8.04167C16.4591 8.04167 16.9198 8.23375 17.3018 8.61792C17.6837 9.00209 17.8747 9.46389 17.8747 10.0033C17.8747 10.5428 17.6826 11.0035 17.2984 11.3854C16.9143 11.7674 16.4525 11.9583 15.913 11.9583Z" fill="#1C1B1F"/>
</g>
</svg>
