<svg width="22" height="22" viewBox="0 0 22 22" fill="none" xmlns="http://www.w3.org/2000/svg">
<mask id="mask0_737_75" style="mask-type:alpha" maskUnits="userSpaceOnUse" x="0" y="0" width="22" height="22">
<rect x="0.75" width="21.0833" height="21.0833" fill="#D9D9D9"/>
</mask>
<g mask="url(#mask0_737_75)">
<path d="M10.2156 13.4626L13.8612 11.0248C14.0369 10.9119 14.1248 10.7519 14.1248 10.5447C14.1248 10.3377 14.0369 10.1756 13.8612 10.0585L10.2156 7.62075C10.0106 7.48898 9.80928 7.47734 9.61162 7.58583C9.41396 7.69447 9.31514 7.86716 9.31514 8.10391V12.9794C9.31514 13.2162 9.41396 13.3889 9.61162 13.4975C9.80928 13.606 10.0106 13.5944 10.2156 13.4626ZM11.2917 20.0292C9.97926 20.0292 8.74589 19.7801 7.59157 19.282C6.43726 18.7839 5.43317 18.1079 4.57929 17.2541C3.72542 16.4002 3.04943 15.3961 2.55134 14.2418C2.05325 13.0875 1.8042 11.8541 1.8042 10.5417C1.8042 10.0363 1.84446 9.53084 1.92499 9.02543C2.00552 8.52001 2.12631 8.0225 2.28736 7.5329C2.38985 7.24008 2.58384 7.04242 2.86935 6.93993C3.15485 6.83744 3.43669 6.86673 3.71488 7.02778C3.99306 7.18883 4.18706 7.41943 4.29686 7.71958C4.40667 8.01972 4.42497 8.32353 4.35177 8.63099C4.27856 8.9531 4.22366 9.27162 4.18706 9.58655C4.15045 9.90134 4.13215 10.2197 4.13215 10.5417C4.13215 12.5329 4.82761 14.2239 6.21852 15.6148C7.60944 17.0058 9.3005 17.7012 11.2917 17.7012C13.2829 17.7012 14.974 17.0058 16.3649 15.6148C17.7558 14.2239 18.4512 12.5329 18.4512 10.5417C18.4512 8.55047 17.7558 6.85941 16.3649 5.46849C14.974 4.07758 13.2829 3.38212 11.2917 3.38212C10.955 3.38212 10.6145 3.40591 10.2705 3.4535C9.92641 3.50108 9.586 3.57246 9.24925 3.66762C8.92715 3.75547 8.61602 3.74449 8.31587 3.63468C8.01573 3.52487 7.79245 3.32356 7.64604 3.03073C7.49963 2.73791 7.48879 2.44333 7.61354 2.14699C7.73813 1.8508 7.95394 1.6549 8.26097 1.55929C8.75877 1.39824 9.26389 1.27379 9.77633 1.18594C10.2888 1.09809 10.8085 1.05417 11.3356 1.05417C12.641 1.05417 13.8678 1.30307 15.016 1.80087C16.1641 2.29867 17.1665 2.97583 18.023 3.83234C18.8795 4.68885 19.553 5.69433 20.0435 6.84879C20.534 8.00325 20.7792 9.23677 20.7792 10.5494C20.7792 11.8619 20.5303 13.0929 20.0325 14.2422C19.5347 15.3916 18.8588 16.3939 18.0048 17.2492C17.1509 18.1046 16.1467 18.7817 14.9923 19.2807C13.8378 19.7797 12.6043 20.0292 11.2917 20.0292ZM5.22497 6.14931C4.75997 6.14931 4.36641 5.9865 4.0443 5.66088C3.7222 5.3354 3.56114 4.94009 3.56114 4.47494C3.56114 4.00994 3.72395 3.61638 4.04957 3.29427C4.37505 2.97217 4.77036 2.81111 5.23551 2.81111C5.70052 2.81111 6.09407 2.97392 6.41618 3.29954C6.73828 3.62502 6.89934 4.02033 6.89934 4.48548C6.89934 4.95049 6.73653 5.34404 6.41091 5.66615C6.08543 5.98825 5.69012 6.14931 5.22497 6.14931ZM5.8891 10.5417C5.8891 9.04095 6.41362 7.76533 7.46266 6.71482C8.51155 5.66432 9.78534 5.13906 11.284 5.13906C12.7825 5.13906 14.0589 5.66432 15.1131 6.71482C16.1672 7.76533 16.6943 9.04095 16.6943 10.5417C16.6943 12.0424 16.1683 13.318 15.1163 14.3685C14.0642 15.419 12.7868 15.9443 11.284 15.9443C9.78109 15.9443 8.50621 15.419 7.45936 14.3685C6.41252 13.318 5.8891 12.0424 5.8891 10.5417Z" fill="#1C1B1F"/>
</g>
</svg>
