<svg width="22" height="22" viewBox="0 0 22 22" fill="none" xmlns="http://www.w3.org/2000/svg">
<mask id="mask0_730_464" style="mask-type:alpha" maskUnits="userSpaceOnUse" x="0" y="0" width="22" height="22">
<rect x="0.25" width="21.0833" height="21.0833" fill="#D9D9D9"/>
</mask>
<g mask="url(#mask0_730_464)">
<path d="M8.96866 19.2385C7.84129 19.2385 6.87131 18.8322 6.05872 18.0197C5.24614 17.2071 4.83984 16.2371 4.83984 15.1097C4.83984 13.9823 5.24614 13.0124 6.05872 12.1998C6.87131 11.3872 7.84129 10.9809 8.96866 10.9809C9.30541 10.9809 9.61654 11.0029 9.90204 11.0468C10.1875 11.0907 10.4767 11.1712 10.7695 11.2884V3.00876C10.7695 2.68666 10.883 2.41213 11.1099 2.1852C11.3369 1.95826 11.6114 1.84479 11.9335 1.84479H15.5792C15.9013 1.84479 16.1758 1.95826 16.4027 2.1852C16.6297 2.41213 16.7431 2.68666 16.7431 3.00876V5.02925C16.7431 5.35136 16.6297 5.62588 16.4027 5.85282C16.1758 6.07976 15.9013 6.19323 15.5792 6.19323H13.0975V15.1097C13.0975 16.2371 12.6912 17.2071 11.8786 18.0197C11.066 18.8322 10.096 19.2385 8.96866 19.2385Z" fill="#1C1B1F"/>
</g>
</svg>
