<svg width="22" height="20" viewBox="0 0 22 20" fill="none" xmlns="http://www.w3.org/2000/svg">
<mask id="mask0_730_398" style="mask-type:alpha" maskUnits="userSpaceOnUse" x="0" y="0" width="22" height="22">
<rect x="0.25" width="21.0833" height="21.0833" fill="currentColor"/>
</mask>
<g mask="url(#mask0_730_398)">
<path d="M17.2483 19.9194L1.39192 4.08491C1.15766 3.85065 1.04053 3.57613 1.04053 3.26134C1.04053 2.94655 1.15766 2.67203 1.39192 2.43777C1.62618 2.20351 1.9007 2.08638 2.21548 2.08638C2.53027 2.08638 2.80479 2.20351 3.03905 2.43777L18.8955 18.2942C19.1297 18.5285 19.2469 18.7993 19.2469 19.1068C19.2469 19.4142 19.1297 19.6851 18.8955 19.9194C18.6612 20.1536 18.3867 20.2708 18.0719 20.2708C17.7571 20.2708 17.4826 20.1536 17.2483 19.9194ZM13.1634 6.23716V7.26937C13.1634 7.66468 13.0427 7.95751 12.8011 8.14784C12.5595 8.33818 12.2923 8.42602 11.9995 8.41138C11.7066 8.39674 11.4394 8.29791 11.1979 8.1149C10.9563 7.93188 10.8355 7.65004 10.8355 7.26937V3.00878C10.8355 2.68667 10.949 2.41215 11.1759 2.18521C11.4028 1.95827 11.6774 1.8448 11.9995 1.8448H15.6451C15.9672 1.8448 16.2418 1.95827 16.4687 2.18521C16.6956 2.41215 16.8091 2.68667 16.8091 3.00878V5.07319C16.8091 5.39529 16.6956 5.66982 16.4687 5.89676C16.2418 6.12369 15.9672 6.23716 15.6451 6.23716H13.1634ZM9.03462 19.2386C7.90725 19.2386 6.93727 18.8323 6.12469 18.0197C5.3121 17.2071 4.90581 16.2371 4.90581 15.1097C4.90581 13.9824 5.3121 13.0124 6.12469 12.1998C6.93727 11.3872 7.90725 10.9809 9.03462 10.9809C9.37137 10.9809 9.6825 11.0029 9.968 11.0468C10.2535 11.0907 10.5427 11.1713 10.8355 11.2884V10.2342L13.1634 12.5622V15.1097C13.1634 16.2517 12.7608 17.2254 11.9555 18.0307C11.1503 18.8359 10.1766 19.2386 9.03462 19.2386Z" fill="currentColor"/>
</g>
</svg>
