<svg width="22" height="22" viewBox="0 0 22 22" fill="none" xmlns="http://www.w3.org/2000/svg">
<mask id="mask0_730_398" style="mask-type:alpha" maskUnits="userSpaceOnUse" x="0" y="0" width="22" height="22">
<rect x="0.166504" width="21.0833" height="21.0833" fill="#D9D9D9"/>
</mask>
<g mask="url(#mask0_730_398)">
<path d="M17.1648 19.9194L1.30842 4.08491C1.07416 3.85065 0.957031 3.57613 0.957031 3.26134C0.957031 2.94655 1.07416 2.67203 1.30842 2.43777C1.54268 2.20351 1.8172 2.08638 2.13199 2.08638C2.44677 2.08638 2.7213 2.20351 2.95556 2.43777L18.812 18.2942C19.0462 18.5285 19.1634 18.7993 19.1634 19.1068C19.1634 19.4142 19.0462 19.6851 18.812 19.9194C18.5777 20.1536 18.3032 20.2708 17.9884 20.2708C17.6736 20.2708 17.3991 20.1536 17.1648 19.9194ZM13.0799 6.23716V7.26937C13.0799 7.66468 12.9592 7.95751 12.7176 8.14784C12.476 8.33818 12.2088 8.42602 11.916 8.41138C11.6231 8.39674 11.3559 8.29791 11.1144 8.1149C10.8728 7.93188 10.752 7.65004 10.752 7.26937V3.00878C10.752 2.68667 10.8655 2.41215 11.0924 2.18521C11.3193 1.95827 11.5939 1.8448 11.916 1.8448H15.5616C15.8837 1.8448 16.1583 1.95827 16.3852 2.18521C16.6121 2.41215 16.7256 2.68667 16.7256 3.00878V5.07319C16.7256 5.39529 16.6121 5.66982 16.3852 5.89676C16.1583 6.12369 15.8837 6.23716 15.5616 6.23716H13.0799ZM8.95113 19.2386C7.82376 19.2386 6.85378 18.8323 6.04119 18.0197C5.2286 17.2071 4.82231 16.2371 4.82231 15.1097C4.82231 13.9824 5.2286 13.0124 6.04119 12.1998C6.85378 11.3872 7.82376 10.9809 8.95113 10.9809C9.28788 10.9809 9.599 11.0029 9.88451 11.0468C10.17 11.0907 10.4592 11.1713 10.752 11.2884V10.2342L13.0799 12.5622V15.1097C13.0799 16.2517 12.6773 17.2254 11.872 18.0307C11.0668 18.8359 10.0931 19.2386 8.95113 19.2386Z" fill="#1C1B1F"/>
</g>
</svg>
