<svg width="22" height="20" viewBox="0 0 22 20" fill="none" xmlns="http://www.w3.org/2000/svg">
<mask id="mask0_730_464" style="mask-type:alpha" maskUnits="userSpaceOnUse" x="0" y="0" width="22" height="22">
<rect x="0.333496" width="21.0833" height="21.0833" fill="currentColor"/>
</mask>
<g mask="url(#mask0_730_464)">
<path d="M9.05216 19.2385C7.92479 19.2385 6.95481 18.8322 6.14222 18.0197C5.32963 17.2071 4.92334 16.2371 4.92334 15.1097C4.92334 13.9823 5.32963 13.0124 6.14222 12.1998C6.95481 11.3872 7.92479 10.9809 9.05216 10.9809C9.38891 10.9809 9.70003 11.0029 9.98554 11.0468C10.271 11.0907 10.5602 11.1712 10.853 11.2884V3.00876C10.853 2.68666 10.9665 2.41213 11.1934 2.1852C11.4204 1.95826 11.6949 1.84479 12.017 1.84479H15.6627C15.9848 1.84479 16.2593 1.95826 16.4862 2.1852C16.7132 2.41213 16.8266 2.68666 16.8266 3.00876V5.02925C16.8266 5.35136 16.7132 5.62588 16.4862 5.85282C16.2593 6.07976 15.9848 6.19323 15.6627 6.19323H13.181V15.1097C13.181 16.2371 12.7747 17.2071 11.9621 18.0197C11.1495 18.8322 10.1795 19.2385 9.05216 19.2385Z" fill="currentColor"/>
</g>
</svg>
