<svg width="24" height="24" viewBox="0 0 24 24" fill="none" xmlns="http://www.w3.org/2000/svg">
<mask id="mask0_737_1318" style="mask-type:alpha" maskUnits="userSpaceOnUse" x="0" y="0" width="24" height="24">
<rect width="24" height="24" fill="currentColor"/>
</mask>
<g mask="url(#mask0_737_1318)">
<path d="M19.3499 22.6751L1.2999 4.6501C1.03324 4.38343 0.899902 4.07093 0.899902 3.7126C0.899902 3.35426 1.03324 3.04176 1.2999 2.7751C1.56657 2.50843 1.87907 2.3751 2.2374 2.3751C2.59574 2.3751 2.90824 2.50843 3.1749 2.7751L21.2249 20.8251C21.4916 21.0918 21.6249 21.4001 21.6249 21.7501C21.6249 22.1001 21.4916 22.4084 21.2249 22.6751C20.9582 22.9418 20.6457 23.0751 20.2874 23.0751C19.9291 23.0751 19.6166 22.9418 19.3499 22.6751ZM14.6999 7.1001V8.2751C14.6999 8.7251 14.5624 9.05843 14.2874 9.2751C14.0124 9.49176 13.7082 9.59176 13.3749 9.5751C13.0416 9.55843 12.7374 9.44593 12.4624 9.2376C12.1874 9.02926 12.0499 8.70843 12.0499 8.2751V3.4251C12.0499 3.05843 12.1791 2.74593 12.4374 2.4876C12.6957 2.22926 13.0082 2.1001 13.3749 2.1001H17.5249C17.8916 2.1001 18.2041 2.22926 18.4624 2.4876C18.7207 2.74593 18.8499 3.05843 18.8499 3.4251V5.7751C18.8499 6.14176 18.7207 6.45426 18.4624 6.7126C18.2041 6.97093 17.8916 7.1001 17.5249 7.1001H14.6999ZM9.9999 21.9001C8.71657 21.9001 7.6124 21.4376 6.6874 20.5126C5.7624 19.5876 5.2999 18.4834 5.2999 17.2001C5.2999 15.9168 5.7624 14.8126 6.6874 13.8876C7.6124 12.9626 8.71657 12.5001 9.9999 12.5001C10.3832 12.5001 10.7374 12.5251 11.0624 12.5751C11.3874 12.6251 11.7166 12.7168 12.0499 12.8501V11.6501L14.6999 14.3001V17.2001C14.6999 18.5001 14.2416 19.6084 13.3249 20.5251C12.4082 21.4418 11.2999 21.9001 9.9999 21.9001Z" fill="currentColor"/>
</g>
</svg>
