<svg width="22" height="22" viewBox="0 0 22 22" fill="none" xmlns="http://www.w3.org/2000/svg">
<mask id="mask0_737_64" style="mask-type:alpha" maskUnits="userSpaceOnUse" x="0" y="0" width="22" height="22">
<rect x="0.666504" width="21.0833" height="21.0833" fill="#D9D9D9"/>
</mask>
<g mask="url(#mask0_737_64)">
<path d="M12.9212 10.2781C12.6284 10.2781 12.3795 10.3843 12.1745 10.5966C11.9695 10.8089 11.8671 11.0907 11.8671 11.4421C11.8671 11.7642 11.9805 12.0387 12.2075 12.2657C12.4344 12.4926 12.7089 12.6061 13.031 12.6061H15.7104C16.0325 12.6061 16.307 12.4926 16.5339 12.2657C16.7609 12.0387 16.8743 11.7642 16.8743 11.4421V8.76276C16.8743 8.44066 16.7536 8.16613 16.512 7.93919C16.2704 7.71226 15.9373 7.59879 15.5127 7.59879C15.2492 7.59879 15.0222 7.69395 14.8319 7.88429C14.6416 8.07463 14.5464 8.30156 14.5464 8.56511C14.1072 8.16979 13.5984 7.82939 13.0201 7.54388C12.4417 7.25838 11.7353 7.11563 10.9007 7.11563C9.58303 7.11563 8.44102 7.51094 7.4747 8.30156C6.50838 9.09219 5.90077 10.0878 5.65187 11.2884C5.57866 11.6251 5.65187 11.9289 5.87148 12.1998C6.0911 12.4706 6.36929 12.6061 6.70603 12.6061C7.04278 12.6061 7.32096 12.4816 7.54058 12.2327C7.7602 11.9838 7.92857 11.6983 8.0457 11.3762C8.26532 10.8052 8.63501 10.3404 9.15477 9.98164C9.67454 9.62293 10.2565 9.44358 10.9007 9.44358C11.4132 9.44358 11.8268 9.52777 12.1416 9.69614C12.4564 9.86451 12.7162 10.0585 12.9212 10.2781ZM11.2082 20.0292C9.89049 20.0292 8.65697 19.7803 7.50764 19.2825C6.3583 18.7847 5.35538 18.1075 4.49887 17.251C3.64236 16.3945 2.96521 15.3916 2.4674 14.2422C1.9696 13.0929 1.7207 11.8594 1.7207 10.5417C1.7207 9.22396 1.9696 7.98678 2.4674 6.83012C2.96521 5.67347 3.64236 4.66689 4.49887 3.81038C5.35538 2.95386 6.3583 2.28037 7.50764 1.78989C8.65697 1.29941 9.89049 1.05417 11.2082 1.05417C12.5259 1.05417 13.7631 1.29941 14.9197 1.78989C16.0764 2.28037 17.083 2.95386 17.9395 3.81038C18.796 4.66689 19.4695 5.67347 19.96 6.83012C20.4505 7.98678 20.6957 9.22396 20.6957 10.5417C20.6957 11.8594 20.4505 13.0929 19.96 14.2422C19.4695 15.3916 18.796 16.3945 17.9395 17.251C17.083 18.1075 16.0764 18.7847 14.9197 19.2825C13.7631 19.7803 12.5259 20.0292 11.2082 20.0292Z" fill="#1C1B1F"/>
</g>
</svg>
