<svg width="24" height="24" viewBox="0 0 24 24" fill="none" xmlns="http://www.w3.org/2000/svg">
<mask id="mask0_737_1325" style="mask-type:alpha" maskUnits="userSpaceOnUse" x="0" y="0" width="24" height="24">
<rect width="24" height="24" fill="currentColor"/>
</mask>
<g mask="url(#mask0_737_1325)">
<path d="M13.95 11.7C13.6166 11.7 13.3333 11.8208 13.1 12.0625C12.8666 12.3041 12.75 12.625 12.75 13.025C12.75 13.3916 12.8791 13.7041 13.1375 13.9625C13.3958 14.2208 13.7083 14.35 14.075 14.35H17.125C17.4916 14.35 17.8041 14.2208 18.0625 13.9625C18.3208 13.7041 18.45 13.3916 18.45 13.025V9.97495C18.45 9.60829 18.3125 9.29578 18.0375 9.03745C17.7625 8.77912 17.3833 8.64995 16.9 8.64995C16.6 8.64995 16.3416 8.75828 16.125 8.97495C15.9083 9.19162 15.8 9.44995 15.8 9.74995C15.3 9.29995 14.7208 8.91245 14.0625 8.58745C13.4041 8.26245 12.6 8.09995 11.65 8.09995C10.15 8.09995 8.84995 8.54995 7.74995 9.44995C6.64995 10.35 5.95828 11.4833 5.67495 12.85C5.59162 13.2333 5.67495 13.5791 5.92495 13.8875C6.17495 14.1958 6.49162 14.35 6.87495 14.35C7.25828 14.35 7.57495 14.2083 7.82495 13.925C8.07495 13.6416 8.26662 13.3166 8.39995 12.95C8.64995 12.3 9.07079 11.7708 9.66245 11.3625C10.2541 10.9541 10.9166 10.75 11.65 10.75C12.2333 10.75 12.7041 10.8458 13.0625 11.0375C13.4208 11.2291 13.7166 11.45 13.95 11.7ZM12 22.8C10.5 22.8 9.09578 22.5166 7.78745 21.95C6.47912 21.3833 5.33745 20.6125 4.36245 19.6375C3.38745 18.6625 2.61662 17.5208 2.04995 16.2125C1.48328 14.9041 1.19995 13.5 1.19995 12C1.19995 10.5 1.48328 9.09162 2.04995 7.77495C2.61662 6.45828 3.38745 5.31245 4.36245 4.33745C5.33745 3.36245 6.47912 2.59578 7.78745 2.03745C9.09578 1.47912 10.5 1.19995 12 1.19995C13.5 1.19995 14.9083 1.47912 16.225 2.03745C17.5416 2.59578 18.6875 3.36245 19.6625 4.33745C20.6375 5.31245 21.4041 6.45828 21.9625 7.77495C22.5208 9.09162 22.8 10.5 22.8 12C22.8 13.5 22.5208 14.9041 21.9625 16.2125C21.4041 17.5208 20.6375 18.6625 19.6625 19.6375C18.6875 20.6125 17.5416 21.3833 16.225 21.95C14.9083 22.5166 13.5 22.8 12 22.8Z" fill="currentColor"/>
</g>
</svg>
