<svg width="22" height="22" viewBox="0 0 22 22" fill="none" xmlns="http://www.w3.org/2000/svg">
<mask id="mask0_730_419" style="mask-type:alpha" maskUnits="userSpaceOnUse" x="0" y="0" width="22" height="22">
<rect x="0.333496" width="21.0833" height="21.0833" fill="#D9D9D9"/>
</mask>
<g mask="url(#mask0_730_419)">
<path d="M16.6071 12.1668L15.0917 13.6822C14.8721 13.9018 14.6012 14.0116 14.2791 14.0116C13.957 14.0116 13.6862 13.9018 13.4665 13.6822C13.2469 13.4626 13.1371 13.1917 13.1371 12.8696C13.1371 12.5475 13.2469 12.2766 13.4665 12.057L14.9819 10.5417L13.4665 9.0263C13.2469 8.80668 13.1371 8.53582 13.1371 8.21371C13.1371 7.8916 13.2469 7.62074 13.4665 7.40112C13.6862 7.1815 13.957 7.0717 14.2791 7.0717C14.6012 7.0717 14.8721 7.1815 15.0917 7.40112L16.6071 8.91649L18.1224 7.40112C18.3421 7.1815 18.6129 7.0717 18.935 7.0717C19.2571 7.0717 19.528 7.1815 19.7476 7.40112C19.9672 7.62074 20.077 7.8916 20.077 8.21371C20.077 8.53582 19.9672 8.80668 19.7476 9.0263L18.2322 10.5417L19.7476 12.057C19.9672 12.2766 20.077 12.5475 20.077 12.8696C20.077 13.1917 19.9672 13.4626 19.7476 13.6822C19.528 13.9018 19.2571 14.0116 18.935 14.0116C18.6129 14.0116 18.3421 13.9018 18.1224 13.6822L16.6071 12.1668ZM5.88971 13.6163H3.23234C2.91023 13.6163 2.63571 13.5028 2.40877 13.2759C2.18183 13.049 2.06836 12.7744 2.06836 12.4523V8.63098C2.06836 8.30888 2.18183 8.03436 2.40877 7.80742C2.63571 7.58048 2.91023 7.46701 3.23234 7.46701H5.88971L8.89848 4.41432C9.26451 4.03365 9.68911 3.94946 10.1723 4.16176C10.6554 4.37405 10.897 4.73642 10.897 5.24887V15.8345C10.897 16.3469 10.6554 16.7093 10.1723 16.9216C9.68911 17.1339 9.26451 17.0497 8.89848 16.669L5.88971 13.6163Z" fill="#1C1B1F"/>
</g>
</svg>
