<svg width="22" height="22" viewBox="0 0 22 22" fill="none" xmlns="http://www.w3.org/2000/svg">
<mask id="mask0_730_419" style="mask-type:alpha" maskUnits="userSpaceOnUse" x="0" y="0" width="22" height="22">
<rect x="0.666504" width="21.0833" height="21.0833" fill="#D9D9D9"/>
</mask>
<g mask="url(#mask0_730_419)">
<path d="M16.9401 12.1668L15.4247 13.6822C15.2051 13.9018 14.9342 14.0116 14.6121 14.0116C14.29 14.0116 14.0192 13.9018 13.7995 13.6822C13.5799 13.4626 13.4701 13.1917 13.4701 12.8696C13.4701 12.5475 13.5799 12.2766 13.7995 12.057L15.3149 10.5417L13.7995 9.0263C13.5799 8.80668 13.4701 8.53582 13.4701 8.21371C13.4701 7.8916 13.5799 7.62074 13.7995 7.40112C14.0192 7.1815 14.29 7.0717 14.6121 7.0717C14.9342 7.0717 15.2051 7.1815 15.4247 7.40112L16.9401 8.91649L18.4554 7.40112C18.6751 7.1815 18.9459 7.0717 19.268 7.0717C19.5901 7.0717 19.861 7.1815 20.0806 7.40112C20.3002 7.62074 20.41 7.8916 20.41 8.21371C20.41 8.53582 20.3002 8.80668 20.0806 9.0263L18.5653 10.5417L20.0806 12.057C20.3002 12.2766 20.41 12.5475 20.41 12.8696C20.41 13.1917 20.3002 13.4626 20.0806 13.6822C19.861 13.9018 19.5901 14.0116 19.268 14.0116C18.9459 14.0116 18.6751 13.9018 18.4554 13.6822L16.9401 12.1668ZM6.22272 13.6163H3.56534C3.24324 13.6163 2.96871 13.5028 2.74178 13.2759C2.51484 13.049 2.40137 12.7744 2.40137 12.4523V8.63098C2.40137 8.30888 2.51484 8.03436 2.74178 7.80742C2.96871 7.58048 3.24324 7.46701 3.56534 7.46701H6.22272L9.23149 4.41432C9.59752 4.03365 10.0221 3.94946 10.5053 4.16176C10.9884 4.37405 11.23 4.73642 11.23 5.24887V15.8345C11.23 16.3469 10.9884 16.7093 10.5053 16.9216C10.0221 17.1339 9.59752 17.0497 9.23149 16.669L6.22272 13.6163Z" fill="#1C1B1F"/>
</g>
</svg>
