<svg width="22" height="22" viewBox="0 0 22 22" fill="none" xmlns="http://www.w3.org/2000/svg">
<mask id="mask0_737_63" style="mask-type:alpha" maskUnits="userSpaceOnUse" x="0" y="0" width="22" height="22">
<rect x="0.333496" width="21.0833" height="21.0833" fill="#D9D9D9"/>
</mask>
<g mask="url(#mask0_737_63)">
<path d="M7.66877 14.3411C7.99088 14.3411 8.2654 14.2276 8.49234 14.0007C8.71928 13.7737 8.83275 13.4992 8.83275 13.1771V7.90625C8.83275 7.58415 8.71928 7.30962 8.49234 7.08268C8.2654 6.85575 7.99088 6.74228 7.66877 6.74228C7.34667 6.74228 7.07214 6.85575 6.8452 7.08268C6.61827 7.30962 6.5048 7.58415 6.5048 7.90625V13.1771C6.5048 13.4992 6.61827 13.7737 6.8452 14.0007C7.07214 14.2276 7.34667 14.3411 7.66877 14.3411ZM11.9513 13.6822L15.5531 11.2664C15.8166 11.0929 15.9484 10.8518 15.9484 10.5432C15.9484 10.2347 15.8166 9.99262 15.5531 9.81693L11.9513 7.40113C11.6585 7.19615 11.3584 7.17719 11.0509 7.34425C10.7434 7.51145 10.5897 7.77199 10.5897 8.12587V12.9575C10.5897 13.3113 10.7434 13.5719 11.0509 13.7391C11.3584 13.9061 11.6585 13.8872 11.9513 13.6822ZM10.8752 20.0292C9.56276 20.0292 8.32938 19.7801 7.17507 19.282C6.02076 18.7839 5.01666 18.1079 4.16279 17.2541C3.30891 16.4002 2.63293 15.3961 2.13484 14.2418C1.63674 13.0875 1.3877 11.8541 1.3877 10.5417C1.3877 9.22542 1.63718 7.98854 2.13615 6.831C2.63513 5.67332 3.31228 4.66637 4.16762 3.81016C5.02296 2.95379 6.02705 2.28037 7.1799 1.78989C8.33275 1.29941 9.56451 1.05417 10.8752 1.05417C12.1913 1.05417 13.428 1.29941 14.5854 1.78989C15.743 2.28037 16.75 2.95386 17.6065 3.81038C18.463 4.66689 19.1365 5.67405 19.627 6.83188C20.1175 7.98985 20.3627 9.22703 20.3627 10.5434C20.3627 11.86 20.1175 13.0929 19.627 14.2422C19.1365 15.3916 18.4631 16.3939 17.6067 17.2492C16.7505 18.1046 15.7435 18.7817 14.5859 19.2807C13.4283 19.7797 12.1914 20.0292 10.8752 20.0292Z" fill="#1C1B1F"/>
</g>
</svg>
