<svg width="22" height="22" viewBox="0 0 22 22" fill="none" xmlns="http://www.w3.org/2000/svg">
<mask id="mask0_730_410" style="mask-type:alpha" maskUnits="userSpaceOnUse" x="0" y="0" width="22" height="22">
<rect x="0.666504" width="21.0833" height="21.0833" fill="#D9D9D9"/>
</mask>
<g mask="url(#mask0_730_410)">
<path d="M14.1949 16.7349H4.949C4.6269 16.7349 4.35237 16.6214 4.12543 16.3945C3.8985 16.1675 3.78503 15.893 3.78503 15.5709C3.78503 15.2488 3.8985 14.9743 4.12543 14.7473C4.35237 14.5204 4.6269 14.4069 4.949 14.4069H5.58589V8.74079C5.58589 8.18443 5.6591 7.6427 5.80551 7.11562C5.95192 6.58853 6.18618 6.10538 6.50829 5.66614L6.31063 8.74079L1.87435 4.28255C1.65473 4.06293 1.54492 3.79206 1.54492 3.46996C1.54492 3.14785 1.65473 2.87699 1.87435 2.65737C2.09397 2.43775 2.36483 2.32794 2.68694 2.32794C3.00904 2.32794 3.2799 2.43775 3.49952 2.65737L18.9167 18.1185C19.1363 18.3381 19.2498 18.6053 19.2571 18.9201C19.2644 19.2349 19.151 19.5094 18.9167 19.7437C18.6971 19.9633 18.4262 20.0767 18.1041 20.0841C17.782 20.0914 17.5112 19.9852 17.2915 19.7656L14.1949 16.7349ZM16.8743 10.7174C16.8743 10.9516 16.8084 11.1676 16.6766 11.3652C16.5448 11.5629 16.3691 11.7056 16.1495 11.7935C15.9299 11.8813 15.703 11.8996 15.4687 11.8484C15.2344 11.7971 15.0368 11.691 14.8757 11.5299L8.83624 5.44652C8.71911 5.32939 8.6276 5.1903 8.56172 5.02925C8.49583 4.86819 8.46289 4.70714 8.46289 4.54609C8.46289 4.32647 8.5178 4.12149 8.6276 3.93116C8.73741 3.74082 8.89481 3.60173 9.09978 3.51388L9.62687 3.33819V2.67933C9.62687 2.2401 9.7806 1.86675 10.0881 1.55928C10.3955 1.25182 10.7689 1.09808 11.2081 1.09808C11.662 1.09808 12.0463 1.25182 12.3611 1.55928C12.6759 1.86675 12.8333 2.2401 12.8333 2.67933V3.33819C14.0339 3.68958 15.0075 4.36307 15.7542 5.35867C16.5009 6.35428 16.8743 7.48165 16.8743 8.74079V10.7174ZM11.2301 19.8974C10.7323 19.8974 10.2894 19.7656 9.90139 19.5021C9.5134 19.2385 9.3194 18.8798 9.3194 18.4259C9.3194 18.2649 9.38163 18.1368 9.50608 18.0416C9.63053 17.9464 9.77328 17.8989 9.93433 17.8989H12.5258C12.6869 17.8989 12.826 17.9501 12.9431 18.0526C13.0602 18.1551 13.1188 18.2869 13.1188 18.4479C13.1188 18.9018 12.9248 19.2568 12.5368 19.5131C12.1488 19.7693 11.7132 19.8974 11.2301 19.8974Z" fill="#1C1B1F"/>
</g>
</svg>
