<svg width="22" height="20" viewBox="0 0 22 20" fill="none" xmlns="http://www.w3.org/2000/svg">
<mask id="mask0_730_410" style="mask-type:alpha" maskUnits="userSpaceOnUse" x="0" y="0" width="22" height="22">
<rect x="0.0834961" width="21.0833" height="21.0833" fill="currentColor"/>
</mask>
<g mask="url(#mask0_730_410)">
<path d="M13.6119 16.7349H4.36599C4.04389 16.7349 3.76936 16.6214 3.54243 16.3945C3.31549 16.1675 3.20202 15.893 3.20202 15.5709C3.20202 15.2488 3.31549 14.9743 3.54243 14.7473C3.76936 14.5204 4.04389 14.4069 4.36599 14.4069H5.00289V8.74079C5.00289 8.18443 5.07609 7.6427 5.2225 7.11562C5.36892 6.58853 5.60318 6.10538 5.92528 5.66614L5.72763 8.74079L1.29134 4.28255C1.07172 4.06293 0.961914 3.79206 0.961914 3.46996C0.961914 3.14785 1.07172 2.87699 1.29134 2.65737C1.51096 2.43775 1.78182 2.32794 2.10393 2.32794C2.42603 2.32794 2.6969 2.43775 2.91651 2.65737L18.3337 18.1185C18.5533 18.3381 18.6668 18.6053 18.6741 18.9201C18.6814 19.2349 18.568 19.5094 18.3337 19.7437C18.1141 19.9633 17.8432 20.0767 17.5211 20.0841C17.199 20.0914 16.9281 19.9852 16.7085 19.7656L13.6119 16.7349ZM16.2913 10.7174C16.2913 10.9516 16.2254 11.1676 16.0936 11.3652C15.9618 11.5629 15.7861 11.7056 15.5665 11.7935C15.3469 11.8813 15.12 11.8996 14.8857 11.8484C14.6514 11.7971 14.4538 11.691 14.2927 11.5299L8.25323 5.44652C8.1361 5.32939 8.0446 5.1903 7.97871 5.02925C7.91283 4.86819 7.87988 4.70714 7.87988 4.54609C7.87988 4.32647 7.93479 4.12149 8.0446 3.93116C8.15441 3.74082 8.3118 3.60173 8.51678 3.51388L9.04386 3.33819V2.67933C9.04386 2.2401 9.19759 1.86675 9.50506 1.55928C9.81252 1.25182 10.1859 1.09808 10.6251 1.09808C11.079 1.09808 11.4633 1.25182 11.7781 1.55928C12.0929 1.86675 12.2503 2.2401 12.2503 2.67933V3.33819C13.4509 3.68958 14.4245 4.36307 15.1712 5.35867C15.9179 6.35428 16.2913 7.48165 16.2913 8.74079V10.7174ZM10.6471 19.8974C10.1493 19.8974 9.70637 19.7656 9.31838 19.5021C8.93039 19.2385 8.73639 18.8798 8.73639 18.4259C8.73639 18.2649 8.79862 18.1368 8.92307 18.0416C9.04752 17.9464 9.19027 17.8989 9.35132 17.8989H11.9428C12.1039 17.8989 12.243 17.9501 12.3601 18.0526C12.4772 18.1551 12.5358 18.2869 12.5358 18.4479C12.5358 18.9018 12.3418 19.2568 11.9538 19.5131C11.5658 19.7693 11.1302 19.8974 10.6471 19.8974Z" fill="currentColor"/>
</g>
</svg>
