<svg width="22" height="22" viewBox="0 0 22 22" fill="none" xmlns="http://www.w3.org/2000/svg">
<mask id="mask0_730_428" style="mask-type:alpha" maskUnits="userSpaceOnUse" x="0" y="0" width="22" height="22">
<rect x="0.0834961" width="21.0833" height="21.0833" fill="#D9D9D9"/>
</mask>
<g mask="url(#mask0_730_428)">
<path d="M4.05851 17.3937C3.7364 17.3937 3.46188 17.2803 3.23494 17.0533C3.008 16.8264 2.89453 16.5519 2.89453 16.2298C2.89453 15.9077 3.008 15.6331 3.23494 15.4062C3.46188 15.1793 3.7364 15.0658 4.05851 15.0658H4.65148V8.87257C4.65148 7.54022 5.05411 6.3433 5.85938 5.28181C6.66464 4.22032 7.71149 3.50657 8.99991 3.14054V2.7013C8.99991 2.24991 9.15819 1.86617 9.47473 1.55006C9.79127 1.23411 10.1756 1.07613 10.6277 1.07613C11.0798 1.07613 11.4633 1.23411 11.7781 1.55006C12.0929 1.86617 12.2503 2.24991 12.2503 2.7013V3.14054C13.5387 3.50657 14.5892 4.2152 15.4018 5.26644C16.2144 6.31768 16.6207 7.51972 16.6207 8.87257V15.0658H17.2136C17.5357 15.0658 17.8103 15.1793 18.0372 15.4062C18.2641 15.6331 18.3776 15.9077 18.3776 16.2298C18.3776 16.5519 18.2641 16.8264 18.0372 17.0533C17.8103 17.2803 17.5357 17.3937 17.2136 17.3937H4.05851ZM10.6242 20.2927C10.0684 20.2927 9.59288 20.0948 9.19757 19.6991C8.80226 19.3035 8.6046 18.8279 8.6046 18.2722H12.6456C12.6456 18.8286 12.4476 19.3044 12.0517 19.6997C11.656 20.0951 11.1801 20.2927 10.6242 20.2927Z" fill="#1C1B1F"/>
</g>
</svg>
