<svg width="22" height="20" viewBox="0 0 22 20" fill="none" xmlns="http://www.w3.org/2000/svg">
<mask id="mask0_730_428" style="mask-type:alpha" maskUnits="userSpaceOnUse" x="0" y="0" width="22" height="22">
<rect x="0.166504" width="21.0833" height="21.0833" fill="currentColor"/>
</mask>
<g mask="url(#mask0_730_428)">
<path d="M4.14151 17.3937C3.81941 17.3937 3.54489 17.2803 3.31795 17.0533C3.09101 16.8264 2.97754 16.5519 2.97754 16.2298C2.97754 15.9077 3.09101 15.6331 3.31795 15.4062C3.54489 15.1793 3.81941 15.0658 4.14151 15.0658H4.73448V8.87257C4.73448 7.54022 5.13712 6.3433 5.94238 5.28181C6.74765 4.22032 7.7945 3.50657 9.08292 3.14054V2.7013C9.08292 2.24991 9.24119 1.86617 9.55774 1.55006C9.87428 1.23411 10.2586 1.07613 10.7107 1.07613C11.1629 1.07613 11.5463 1.23411 11.8611 1.55006C12.1759 1.86617 12.3333 2.24991 12.3333 2.7013V3.14054C13.6217 3.50657 14.6722 4.2152 15.4848 5.26644C16.2974 6.31768 16.7037 7.51972 16.7037 8.87257V15.0658H17.2966C17.6187 15.0658 17.8933 15.1793 18.1202 15.4062C18.3471 15.6331 18.4606 15.9077 18.4606 16.2298C18.4606 16.5519 18.3471 16.8264 18.1202 17.0533C17.8933 17.2803 17.6187 17.3937 17.2966 17.3937H4.14151ZM10.7072 20.2927C10.1514 20.2927 9.67589 20.0948 9.28058 19.6991C8.88527 19.3035 8.68761 18.8279 8.68761 18.2722H12.7286C12.7286 18.8286 12.5306 19.3044 12.1347 19.6997C11.739 20.0951 11.2631 20.2927 10.7072 20.2927Z" fill="currentColor"/>
</g>
</svg>
