<svg xmlns="http://www.w3.org/2000/svg" width="22" height="22" fill="none" viewBox="0 0 22 22"><mask id="a" width="22" height="22" x="0" y="0" maskUnits="userSpaceOnUse" style="mask-type:alpha"><path fill="currentColor" d="M.417 0H21.5v21.083H.417z"/></mask><g mask="url(#a)"><path fill="currentColor" d="M4.677 19.15q-.96 0-1.644-.683a2.24 2.24 0 0 1-.684-1.644V4.26q0-.96.684-1.644a2.24 2.24 0 0 1 1.644-.684h5.534q.484 0 .824.34t.34.824-.34.823q-.34.34-.824.34H4.677v12.563H17.24v-5.535q0-.483.34-.823.342-.34.824-.34.483 0 .824.34t.34.823v5.535q0 .96-.684 1.644a2.24 2.24 0 0 1-1.644.684zM17.24 5.887 9.684 13.44q-.33.33-.812.33t-.813-.33q-.33-.33-.33-.813t.33-.812l7.555-7.555h-1.318q-.483 0-.823-.34a1.12 1.12 0 0 1-.34-.824q0-.483.34-.824t.823-.34h4.107q.483 0 .824.34t.34.824v4.106q0 .484-.34.824t-.824.34-.823-.34a1.12 1.12 0 0 1-.34-.824z"/></g></svg>