<svg width="22" height="22" viewBox="0 0 22 22" fill="none" xmlns="http://www.w3.org/2000/svg">
<mask id="mask0_316_64" style="mask-type:alpha" maskUnits="userSpaceOnUse" x="0" y="0" width="22" height="22">
<rect x="0.75" width="21.0833" height="21.0833" fill="#D9D9D9"/>
</mask>
<g mask="url(#mask0_316_64)">
<path d="M5.01057 19.1507C4.37031 19.1507 3.82229 18.9227 3.36651 18.4668C2.91058 18.011 2.68262 17.463 2.68262 16.8227V4.26059C2.68262 3.62048 2.91058 3.07246 3.36651 2.61653C3.82229 2.1606 4.37031 1.93264 5.01057 1.93264H10.5449C10.8671 1.93264 11.1416 2.04611 11.3685 2.27305C11.5954 2.49999 11.7089 2.77451 11.7089 3.09662C11.7089 3.41872 11.5954 3.69324 11.3685 3.92018C11.1416 4.14712 10.8671 4.26059 10.5449 4.26059H5.01057V16.8227H17.5727V11.2884C17.5727 10.9663 17.6862 10.6917 17.9131 10.4648C18.1401 10.2379 18.4146 10.1244 18.7367 10.1244C19.0588 10.1244 19.3333 10.2379 19.5603 10.4648C19.7872 10.6917 19.9007 10.9663 19.9007 11.2884V16.8227C19.9007 17.463 19.6727 18.011 19.2168 18.4668C18.7609 18.9227 18.2128 19.1507 17.5727 19.1507H5.01057ZM17.5727 5.88577L10.0179 13.4406C9.79824 13.6602 9.52738 13.7701 9.20527 13.7701C8.88317 13.7701 8.6123 13.6602 8.39269 13.4406C8.17307 13.221 8.06326 12.9501 8.06326 12.628C8.06326 12.3059 8.17307 12.0351 8.39269 11.8155L15.9475 4.26059H14.6298C14.3077 4.26059 14.0332 4.14712 13.8063 3.92018C13.5793 3.69324 13.4659 3.41872 13.4659 3.09662C13.4659 2.77451 13.5793 2.49999 13.8063 2.27305C14.0332 2.04611 14.3077 1.93264 14.6298 1.93264H18.7367C19.0588 1.93264 19.3333 2.04611 19.5603 2.27305C19.7872 2.49999 19.9007 2.77451 19.9007 3.09662V7.20347C19.9007 7.52558 19.7872 7.8001 19.5603 8.02704C19.3333 8.25398 19.0588 8.36745 18.7367 8.36745C18.4146 8.36745 18.1401 8.25398 17.9131 8.02704C17.6862 7.8001 17.5727 7.52558 17.5727 7.20347V5.88577Z" fill="#1C1B1F"/>
</g>
</svg>
