<svg width="22" height="22" viewBox="0 0 22 22" fill="none" xmlns="http://www.w3.org/2000/svg">
<mask id="mask0_730_320" style="mask-type:alpha" maskUnits="userSpaceOnUse" x="0" y="0" width="22" height="22">
<rect x="0.5" width="21.0833" height="21.0833" fill="#D9D9D9"/>
</mask>
<g mask="url(#mask0_730_320)">
<path d="M9.0871 14.4069C9.4092 14.4069 9.68373 14.2935 9.91067 14.0665C10.1376 13.8396 10.2511 13.5651 10.2511 13.243V7.84037C10.2511 7.51826 10.1376 7.24374 9.91067 7.0168C9.68373 6.78986 9.4092 6.67639 9.0871 6.67639C8.76499 6.67639 8.49047 6.78986 8.26353 7.0168C8.03659 7.24374 7.92312 7.51826 7.92312 7.84037V13.243C7.92312 13.5651 8.03659 13.8396 8.26353 14.0665C8.49047 14.2935 8.76499 14.4069 9.0871 14.4069ZM12.9963 14.4069C13.3184 14.4069 13.5929 14.2935 13.8199 14.0665C14.0468 13.8396 14.1603 13.5651 14.1603 13.243V7.84037C14.1603 7.51826 14.0468 7.24374 13.8199 7.0168C13.5929 6.78986 13.3184 6.67639 12.9963 6.67639C12.6742 6.67639 12.3997 6.78986 12.1727 7.0168C11.9458 7.24374 11.8323 7.51826 11.8323 7.84037V13.243C11.8323 13.5651 11.9458 13.8396 12.1727 14.0665C12.3997 14.2935 12.6742 14.4069 12.9963 14.4069ZM11.0417 20.0292C9.72926 20.0292 8.49589 19.7801 7.34157 19.282C6.18726 18.7839 5.18317 18.108 4.32929 17.2541C3.47542 16.4002 2.79943 15.3961 2.30134 14.2418C1.80325 13.0875 1.5542 11.8541 1.5542 10.5417C1.5542 9.22542 1.80369 7.98854 2.30266 6.831C2.80163 5.67332 3.47879 4.66637 4.33412 3.81016C5.18946 2.95379 6.19356 2.28037 7.34641 1.78989C8.49925 1.29941 9.73102 1.05417 11.0417 1.05417C12.3578 1.05417 13.5945 1.29941 14.7519 1.78989C15.9095 2.28037 16.9165 2.95386 17.773 3.81038C18.6295 4.66689 19.303 5.67405 19.7935 6.83188C20.284 7.98985 20.5292 9.22703 20.5292 10.5434C20.5292 11.86 20.284 13.0929 19.7935 14.2422C19.303 15.3916 18.6296 16.3939 17.7732 17.2492C16.917 18.1046 15.91 18.7817 14.7524 19.2807C13.5948 19.7797 12.3579 20.0292 11.0417 20.0292Z" fill="#1C1B1F"/>
</g>
</svg>
