<svg width="24" height="24" viewBox="0 0 24 24" fill="none" xmlns="http://www.w3.org/2000/svg">
<mask id="mask0_737_1322" style="mask-type:alpha" maskUnits="userSpaceOnUse" x="0" y="0" width="24" height="24">
<rect width="24" height="24" fill="currentColor"/>
</mask>
<g mask="url(#mask0_737_1322)">
<path d="M9.77495 16.4C10.1416 16.4 10.4541 16.2708 10.7125 16.0125C10.9708 15.7541 11.1 15.4416 11.1 15.075V8.92495C11.1 8.55828 10.9708 8.24578 10.7125 7.98745C10.4541 7.72912 10.1416 7.59995 9.77495 7.59995C9.40828 7.59995 9.09578 7.72912 8.83745 7.98745C8.57912 8.24578 8.44995 8.55828 8.44995 8.92495V15.075C8.44995 15.4416 8.57912 15.7541 8.83745 16.0125C9.09578 16.2708 9.40828 16.4 9.77495 16.4ZM14.225 16.4C14.5916 16.4 14.9041 16.2708 15.1625 16.0125C15.4208 15.7541 15.55 15.4416 15.55 15.075V8.92495C15.55 8.55828 15.4208 8.24578 15.1625 7.98745C14.9041 7.72912 14.5916 7.59995 14.225 7.59995C13.8583 7.59995 13.5458 7.72912 13.2875 7.98745C13.0291 8.24578 12.9 8.55828 12.9 8.92495V15.075C12.9 15.4416 13.0291 15.7541 13.2875 16.0125C13.5458 16.2708 13.8583 16.4 14.225 16.4ZM12 22.8C10.506 22.8 9.10195 22.5165 7.78795 21.9495C6.47395 21.3825 5.33095 20.613 4.35895 19.641C3.38695 18.669 2.61745 17.526 2.05045 16.212C1.48345 14.898 1.19995 13.494 1.19995 12C1.19995 10.5016 1.48395 9.09362 2.05195 7.77595C2.61995 6.45812 3.39078 5.31187 4.36445 4.3372C5.33812 3.36237 6.48112 2.59578 7.79345 2.03745C9.10578 1.47912 10.508 1.19995 12 1.19995C13.4981 1.19995 14.906 1.47912 16.2235 2.03745C17.5411 2.59578 18.6875 3.36245 19.6625 4.33745C20.6375 5.31245 21.4041 6.45895 21.9625 7.77695C22.5208 9.09512 22.8 10.5035 22.8 12.002C22.8 13.5006 22.5208 14.9041 21.9625 16.2125C21.4041 17.5208 20.6375 18.6618 19.6627 19.6355C18.688 20.6091 17.5418 21.38 16.224 21.948C14.9063 22.516 13.4983 22.8 12 22.8Z" fill="currentColor"/>
</g>
</svg>
