<svg width="22" height="22" viewBox="0 0 22 22" fill="none" xmlns="http://www.w3.org/2000/svg">
<mask id="mask0_730_302" style="mask-type:alpha" maskUnits="userSpaceOnUse" x="0" y="0" width="22" height="22">
<rect x="0.5" width="21.0833" height="21.0833" fill="#D9D9D9"/>
</mask>
<g mask="url(#mask0_730_302)">
<path d="M14.8852 17.3279C14.2263 17.3279 13.6736 17.1046 13.2271 16.658C12.7805 16.2115 12.5572 15.6588 12.5572 14.9999V6.0395C12.5572 5.38065 12.7805 4.82794 13.2271 4.38138C13.6736 3.93483 14.2263 3.71155 14.8852 3.71155C15.544 3.71155 16.0967 3.93483 16.5433 4.38138C16.9899 4.82794 17.2131 5.38065 17.2131 6.0395V14.9999C17.2131 15.6588 16.9899 16.2115 16.5433 16.658C16.0967 17.1046 15.544 17.3279 14.8852 17.3279ZM7.19856 17.3279C6.5397 17.3279 5.987 17.1046 5.54044 16.658C5.09388 16.2115 4.87061 15.6588 4.87061 14.9999V6.0395C4.87061 5.38065 5.09388 4.82794 5.54044 4.38138C5.987 3.93483 6.5397 3.71155 7.19856 3.71155C7.85741 3.71155 8.41012 3.93483 8.85667 4.38138C9.30323 4.82794 9.52651 5.38065 9.52651 6.0395V14.9999C9.52651 15.6588 9.30323 16.2115 8.85667 16.658C8.41012 17.1046 7.85741 17.3279 7.19856 17.3279Z" fill="#1C1B1F"/>
</g>
</svg>
