<svg width="24" height="24" viewBox="0 0 24 24" fill="none" xmlns="http://www.w3.org/2000/svg">
<mask id="mask0_737_1293" style="mask-type:alpha" maskUnits="userSpaceOnUse" x="0" y="0" width="24" height="24">
<rect width="24" height="24" fill="currentColor"/>
</mask>
<g mask="url(#mask0_737_1293)">
<path d="M16.3751 19.725C15.6251 19.725 14.9959 19.4708 14.4876 18.9625C13.9793 18.4541 13.7251 17.825 13.7251 17.075V6.87498C13.7251 6.12498 13.9793 5.49581 14.4876 4.98748C14.9959 4.47914 15.6251 4.22498 16.3751 4.22498C17.1251 4.22498 17.7543 4.47914 18.2626 4.98748C18.7709 5.49581 19.0251 6.12498 19.0251 6.87498V17.075C19.0251 17.825 18.7709 18.4541 18.2626 18.9625C17.7543 19.4708 17.1251 19.725 16.3751 19.725ZM7.6251 19.725C6.8751 19.725 6.24593 19.4708 5.7376 18.9625C5.22926 18.4541 4.9751 17.825 4.9751 17.075V6.87498C4.9751 6.12498 5.22926 5.49581 5.7376 4.98748C6.24593 4.47914 6.8751 4.22498 7.6251 4.22498C8.3751 4.22498 9.00426 4.47914 9.5126 4.98748C10.0209 5.49581 10.2751 6.12498 10.2751 6.87498V17.075C10.2751 17.825 10.0209 18.4541 9.5126 18.9625C9.00426 19.4708 8.3751 19.725 7.6251 19.725Z" fill="currentColor"/>
</g>
</svg>
