<svg width="22" height="22" viewBox="0 0 22 22" fill="none" xmlns="http://www.w3.org/2000/svg">
<mask id="mask0_730_302" style="mask-type:alpha" maskUnits="userSpaceOnUse" x="0" y="0" width="22" height="22">
<rect x="0.833496" width="21.0833" height="21.0833" fill="#D9D9D9"/>
</mask>
<g mask="url(#mask0_730_302)">
<path d="M15.2187 17.3279C14.5598 17.3279 14.0071 17.1046 13.5606 16.658C13.114 16.2115 12.8907 15.6588 12.8907 14.9999V6.0395C12.8907 5.38065 13.114 4.82794 13.5606 4.38138C14.0071 3.93483 14.5598 3.71155 15.2187 3.71155C15.8775 3.71155 16.4302 3.93483 16.8768 4.38138C17.3234 4.82794 17.5466 5.38065 17.5466 6.0395V14.9999C17.5466 15.6588 17.3234 16.2115 16.8768 16.658C16.4302 17.1046 15.8775 17.3279 15.2187 17.3279ZM7.53205 17.3279C6.8732 17.3279 6.32049 17.1046 5.87394 16.658C5.42738 16.2115 5.2041 15.6588 5.2041 14.9999V6.0395C5.2041 5.38065 5.42738 4.82794 5.87394 4.38138C6.32049 3.93483 6.8732 3.71155 7.53205 3.71155C8.19091 3.71155 8.74361 3.93483 9.19017 4.38138C9.63673 4.82794 9.86 5.38065 9.86 6.0395V14.9999C9.86 15.6588 9.63673 16.2115 9.19017 16.658C8.74361 17.1046 8.19091 17.3279 7.53205 17.3279Z" fill="#1C1B1F"/>
</g>
</svg>
