<svg width="22" height="22" viewBox="0 0 22 22" fill="none" xmlns="http://www.w3.org/2000/svg">
<mask id="mask0_730_338" style="mask-type:alpha" maskUnits="userSpaceOnUse" x="0" y="0" width="22" height="22">
<rect x="0.75" width="21.0833" height="21.0833" fill="#1C1B1F"/>
</mask>
<g mask="url(#mask0_730_338)">
<path d="M7.16309 15.4172V5.66614C7.16309 5.33628 7.28022 5.05985 7.51447 4.83686C7.74873 4.61373 8.02201 4.50217 8.33431 4.50217C8.43197 4.50217 8.53204 4.51681 8.63453 4.54609C8.73702 4.57537 8.8395 4.62662 8.94199 4.69982L16.6286 9.55338C16.8116 9.67051 16.9489 9.81692 17.0404 9.99262C17.1319 10.1683 17.1777 10.3525 17.1777 10.5452C17.1777 10.7379 17.1301 10.9209 17.0349 11.0942C16.9398 11.2676 16.8043 11.4128 16.6286 11.5299L8.94199 16.3835C8.8395 16.4567 8.7354 16.508 8.6297 16.5372C8.52399 16.5665 8.42311 16.5812 8.32706 16.5812C8.0196 16.5812 7.74873 16.4696 7.51447 16.2465C7.28022 16.0233 7.16309 15.7469 7.16309 15.4172Z" fill="#1C1B1F"/>
</g>
</svg>
