<svg width="22" height="22" viewBox="0 0 22 22" fill="none" xmlns="http://www.w3.org/2000/svg">
<mask id="mask0_730_356" style="mask-type:alpha" maskUnits="userSpaceOnUse" x="0" y="0" width="22" height="22">
<rect x="0.416504" width="21.0833" height="21.0833" fill="#D9D9D9"/>
</mask>
<g mask="url(#mask0_730_356)">
<path d="M9.79423 14.2093L14.3403 11.2664C14.6039 11.0929 14.7356 10.8518 14.7356 10.5432C14.7356 10.2347 14.6039 9.99262 14.3403 9.81693L9.79423 6.87405C9.5014 6.68371 9.20492 6.67639 8.90477 6.85209C8.60463 7.02778 8.45456 7.284 8.45456 7.62075V13.4626C8.45456 13.7993 8.60463 14.0556 8.90477 14.2313C9.20492 14.4069 9.5014 14.3996 9.79423 14.2093ZM10.9582 20.0292C9.64577 20.0292 8.41239 19.7801 7.25808 19.282C6.10377 18.7839 5.09967 18.108 4.2458 17.2541C3.39192 16.4002 2.71594 15.3961 2.21784 14.2418C1.71975 13.0875 1.4707 11.8541 1.4707 10.5417C1.4707 9.22542 1.72019 7.98854 2.21916 6.831C2.71813 5.67332 3.39529 4.66637 4.25063 3.81016C5.10597 2.95379 6.11006 2.28037 7.26291 1.78989C8.41576 1.29941 9.64752 1.05417 10.9582 1.05417C12.2743 1.05417 13.511 1.29941 14.6684 1.78989C15.826 2.28037 16.833 2.95386 17.6895 3.81038C18.546 4.66689 19.2195 5.67405 19.71 6.83188C20.2005 7.98985 20.4457 9.22703 20.4457 10.5434C20.4457 11.86 20.2005 13.0929 19.71 14.2422C19.2195 15.3916 18.5461 16.3939 17.6897 17.2492C16.8335 18.1046 15.8266 18.7817 14.6689 19.2807C13.5113 19.7797 12.2744 20.0292 10.9582 20.0292Z" fill="#1C1B1F"/>
</g>
</svg>
