<svg width="22" height="22" viewBox="0 0 22 22" fill="none" xmlns="http://www.w3.org/2000/svg">
<mask id="mask0_730_338" style="mask-type:alpha" maskUnits="userSpaceOnUse" x="0" y="0" width="22" height="22">
<rect x="0.416504" width="21.0833" height="21.0833" fill="currentColor"/>
</mask>
<g mask="url(#mask0_730_338)">
<path d="M6.82959 15.4172V5.66614C6.82959 5.33628 6.94672 5.05985 7.18098 4.83686C7.41524 4.61373 7.68852 4.50217 8.00081 4.50217C8.09847 4.50217 8.19854 4.51681 8.30103 4.54609C8.40352 4.57537 8.50601 4.62662 8.6085 4.69982L16.2951 9.55338C16.4781 9.67051 16.6154 9.81692 16.7069 9.99262C16.7984 10.1683 16.8442 10.3525 16.8442 10.5452C16.8442 10.7379 16.7966 10.9209 16.7014 11.0942C16.6063 11.2676 16.4708 11.4128 16.2951 11.5299L8.6085 16.3835C8.50601 16.4567 8.40191 16.508 8.2962 16.5372C8.19049 16.5665 8.08961 16.5812 7.99357 16.5812C7.6861 16.5812 7.41524 16.4696 7.18098 16.2465C6.94672 16.0233 6.82959 15.7469 6.82959 15.4172Z" fill="currentColor"/>
</g>
</svg>
