<svg width="22" height="22" viewBox="0 0 22 22" fill="none" xmlns="http://www.w3.org/2000/svg">
<mask id="mask0_306_164" style="mask-type:alpha" maskUnits="userSpaceOnUse" x="0" y="0" width="22" height="22">
<rect x="0.916504" width="21.0833" height="21.0833" fill="#D9D9D9"/>
</mask>
<g mask="url(#mask0_306_164)">
<path d="M6.78054 5.71007C6.15097 6.325 5.64951 7.04608 5.27616 7.87331C4.90281 8.70054 4.71614 9.58999 4.71614 10.5417C4.71614 12.1083 5.21028 13.4919 6.19856 14.6925C7.18684 15.893 8.435 16.691 9.94305 17.0863C10.2359 17.1595 10.4628 17.3242 10.6239 17.5804C10.7849 17.8367 10.8654 18.1185 10.8654 18.426C10.8654 18.7334 10.7739 18.9933 10.5909 19.2056C10.4079 19.4179 10.1846 19.4948 9.92108 19.4362C7.82739 19.0116 6.04848 17.9757 4.58436 16.3286C3.12024 14.6815 2.38818 12.7525 2.38818 10.5417C2.38818 9.29717 2.61512 8.14051 3.069 7.0717C3.52288 6.0029 4.15245 5.05854 4.95772 4.23863H4.67221C4.35011 4.23863 4.07558 4.12516 3.84864 3.89822C3.62171 3.67128 3.50824 3.39676 3.50824 3.07465C3.50824 2.75255 3.62171 2.47803 3.84864 2.25109C4.07558 2.02415 4.35011 1.91068 4.67221 1.91068H7.94452C8.26663 1.91068 8.54115 2.02415 8.76809 2.25109C8.99503 2.47803 9.1085 2.75255 9.1085 3.07465V6.34696C9.1085 6.66907 8.99503 6.94359 8.76809 7.17053C8.54115 7.39747 8.26663 7.51094 7.94452 7.51094C7.62241 7.51094 7.34789 7.39747 7.12095 7.17053C6.89401 6.94359 6.78054 6.66907 6.78054 6.34696V5.71007ZM10.2066 11.7276L14.3793 7.55486C14.5989 7.33525 14.8698 7.22544 15.1919 7.22544C15.514 7.22544 15.7849 7.33525 16.0045 7.55486C16.2241 7.77448 16.3339 8.04534 16.3339 8.36745C16.3339 8.68956 16.2241 8.96042 16.0045 9.18004L11.0192 14.1654C10.7849 14.3996 10.5141 14.5168 10.2066 14.5168C9.89912 14.5168 9.62826 14.3996 9.394 14.1654L6.91232 11.6837C6.6927 11.4641 6.58289 11.1932 6.58289 10.8711C6.58289 10.549 6.6927 10.2781 6.91232 10.0585C7.13193 9.83889 7.4028 9.72908 7.7249 9.72908C8.04701 9.72908 8.31787 9.83889 8.53749 10.0585L10.2066 11.7276ZM17.9591 16.8447H18.2446C18.5667 16.8447 18.8412 16.9582 19.0682 17.1851C19.2951 17.4121 19.4086 17.6866 19.4086 18.0087C19.4086 18.3308 19.2951 18.6053 19.0682 18.8323C18.8412 19.0592 18.5667 19.1727 18.2446 19.1727H14.9723C14.6502 19.1727 14.3757 19.0592 14.1487 18.8323C13.9218 18.6053 13.8083 18.3308 13.8083 18.0087V14.7364C13.8083 14.4143 13.9218 14.1397 14.1487 13.9128C14.3757 13.6859 14.6502 13.5724 14.9723 13.5724C15.2944 13.5724 15.5689 13.6859 15.7959 13.9128C16.0228 14.1397 16.1363 14.4143 16.1363 14.7364V15.3733C16.7658 14.7583 17.2673 14.0373 17.6407 13.21C18.014 12.3828 18.2007 11.4933 18.2007 10.5417C18.2007 8.97506 17.7065 7.59147 16.7183 6.39089C15.73 5.19031 14.4818 4.39236 12.9738 3.99705C12.681 3.92384 12.454 3.75913 12.293 3.50291C12.1319 3.24669 12.0514 2.96485 12.0514 2.65738C12.0514 2.34992 12.1465 2.09003 12.3369 1.87774C12.5272 1.66544 12.7615 1.58857 13.0397 1.64714C15.1919 2.07173 16.9781 3.1076 18.3983 4.75473C19.8185 6.40187 20.5286 8.33085 20.5286 10.5417C20.5286 11.7862 20.3017 12.9428 19.8478 14.0116C19.3939 15.0804 18.7644 16.0248 17.9591 16.8447Z" fill="#1C1B1F"/>
</g>
</svg>
