<svg width="22" height="22" viewBox="0 0 22 22" fill="none" xmlns="http://www.w3.org/2000/svg">
<mask id="mask0_306_164" style="mask-type:alpha" maskUnits="userSpaceOnUse" x="0" y="0" width="22" height="22">
<rect x="0.666504" width="21.0833" height="21.0833" fill="#D9D9D9"/>
</mask>
<g mask="url(#mask0_306_164)">
<path d="M6.53054 5.71007C5.90097 6.325 5.39951 7.04608 5.02616 7.87331C4.65281 8.70054 4.46614 9.58999 4.46614 10.5417C4.46614 12.1083 4.96028 13.4919 5.94856 14.6925C6.93684 15.893 8.185 16.691 9.69305 17.0863C9.98587 17.1595 10.2128 17.3242 10.3739 17.5804C10.5349 17.8367 10.6154 18.1185 10.6154 18.426C10.6154 18.7334 10.5239 18.9933 10.3409 19.2056C10.1579 19.4179 9.93462 19.4948 9.67108 19.4362C7.57739 19.0116 5.79848 17.9757 4.33436 16.3286C2.87024 14.6815 2.13818 12.7525 2.13818 10.5417C2.13818 9.29717 2.36512 8.14051 2.819 7.0717C3.27288 6.0029 3.90245 5.05854 4.70772 4.23863H4.42221C4.10011 4.23863 3.82558 4.12516 3.59864 3.89822C3.37171 3.67128 3.25824 3.39676 3.25824 3.07465C3.25824 2.75255 3.37171 2.47803 3.59864 2.25109C3.82558 2.02415 4.10011 1.91068 4.42221 1.91068H7.69452C8.01663 1.91068 8.29115 2.02415 8.51809 2.25109C8.74503 2.47803 8.8585 2.75255 8.8585 3.07465V6.34696C8.8585 6.66907 8.74503 6.94359 8.51809 7.17053C8.29115 7.39747 8.01663 7.51094 7.69452 7.51094C7.37241 7.51094 7.09789 7.39747 6.87095 7.17053C6.64401 6.94359 6.53054 6.66907 6.53054 6.34696V5.71007ZM9.95659 11.7276L14.1293 7.55486C14.3489 7.33525 14.6198 7.22544 14.9419 7.22544C15.264 7.22544 15.5349 7.33525 15.7545 7.55486C15.9741 7.77448 16.0839 8.04534 16.0839 8.36745C16.0839 8.68956 15.9741 8.96042 15.7545 9.18004L10.7692 14.1654C10.5349 14.3996 10.2641 14.5168 9.95659 14.5168C9.64912 14.5168 9.37826 14.3996 9.144 14.1654L6.66232 11.6837C6.4427 11.4641 6.33289 11.1932 6.33289 10.8711C6.33289 10.549 6.4427 10.2781 6.66232 10.0585C6.88193 9.83889 7.1528 9.72908 7.4749 9.72908C7.79701 9.72908 8.06787 9.83889 8.28749 10.0585L9.95659 11.7276ZM17.7091 16.8447H17.9946C18.3167 16.8447 18.5912 16.9582 18.8182 17.1851C19.0451 17.4121 19.1586 17.6866 19.1586 18.0087C19.1586 18.3308 19.0451 18.6053 18.8182 18.8323C18.5912 19.0592 18.3167 19.1727 17.9946 19.1727H14.7223C14.4002 19.1727 14.1257 19.0592 13.8987 18.8323C13.6718 18.6053 13.5583 18.3308 13.5583 18.0087V14.7364C13.5583 14.4143 13.6718 14.1397 13.8987 13.9128C14.1257 13.6859 14.4002 13.5724 14.7223 13.5724C15.0444 13.5724 15.3189 13.6859 15.5459 13.9128C15.7728 14.1397 15.8863 14.4143 15.8863 14.7364V15.3733C16.5158 14.7583 17.0173 14.0373 17.3907 13.21C17.764 12.3828 17.9507 11.4933 17.9507 10.5417C17.9507 8.97506 17.4565 7.59147 16.4683 6.39089C15.48 5.19031 14.2318 4.39236 12.7238 3.99705C12.431 3.92384 12.204 3.75913 12.043 3.50291C11.8819 3.24669 11.8014 2.96485 11.8014 2.65738C11.8014 2.34992 11.8965 2.09003 12.0869 1.87774C12.2772 1.66544 12.5115 1.58857 12.7897 1.64714C14.9419 2.07173 16.7281 3.1076 18.1483 4.75473C19.5685 6.40187 20.2786 8.33085 20.2786 10.5417C20.2786 11.7862 20.0517 12.9428 19.5978 14.0116C19.1439 15.0804 18.5144 16.0248 17.7091 16.8447Z" fill="#1C1B1F"/>
</g>
</svg>
