<svg width="20" height="20" viewBox="0 0 20 20" fill="none" xmlns="http://www.w3.org/2000/svg">
<g clip-path="url(#clip0_234_266)">
<mask id="mask0_234_266" style="mask-type:alpha" maskUnits="userSpaceOnUse" x="0" y="0" width="24" height="24">
<rect width="23.0833" height="23.0833" fill="#D9D9D9"/>
</mask>
<g mask="url(#mask0_234_266)">
<path d="M5.77083 11.0863H7.14583C7.29861 11.0863 7.44097 11.0585 7.57292 11.003C7.70486 10.9474 7.82639 10.8641 7.9375 10.753L11.875 6.79466C12.0278 6.64188 12.1389 6.47174 12.2083 6.28424C12.2778 6.09674 12.3125 5.90577 12.3125 5.71132C12.3125 5.51688 12.2778 5.32938 12.2083 5.14882C12.1389 4.96827 12.0278 4.8016 11.875 4.64882L11.1042 3.85716C10.9514 3.70438 10.7813 3.59327 10.5938 3.52382C10.4063 3.45438 10.2153 3.41966 10.0208 3.41966C9.82639 3.41966 9.63889 3.45438 9.45833 3.52382C9.27778 3.59327 9.11111 3.70438 8.95833 3.85716L5 7.81549C4.88889 7.9266 4.80556 8.04813 4.75 8.18007C4.69444 8.31202 4.66667 8.45438 4.66667 8.60716V9.98216C4.66667 10.2877 4.77431 10.5481 4.98958 10.7634C5.20486 10.9787 5.46528 11.0863 5.77083 11.0863ZM10.7917 5.73216L10.1875 6.37799L9.39583 5.58632L10.0208 4.96132L10.7917 5.73216ZM9.625 11.0863H14.2292C14.5347 11.0863 14.7951 10.9787 15.0104 10.7634C15.2257 10.5481 15.3333 10.2877 15.3333 9.98216C15.3333 9.6766 15.2257 9.41618 15.0104 9.20091C14.7951 8.98563 14.5347 8.87799 14.2292 8.87799H11.8333L9.625 11.0863ZM4.875 14.753L2.875 16.753C2.52778 17.1002 2.12847 17.1766 1.67708 16.9822C1.22569 16.7877 1 16.4474 1 15.9613V2.37799C1 1.76688 1.21528 1.24604 1.64583 0.815488C2.07639 0.384933 2.59722 0.169655 3.20833 0.169655H16.7917C17.4028 0.169655 17.9236 0.384933 18.3542 0.815488C18.7847 1.24604 19 1.76688 19 2.37799V12.5447C19 13.1558 18.7847 13.6766 18.3542 14.1072C17.9236 14.5377 17.4028 14.753 16.7917 14.753H4.875Z" fill="#1C1B1F"/>
</g>
</g>
<defs>
<clipPath id="clip0_234_266">
<rect width="20" height="20" fill="white"/>
</clipPath>
</defs>
</svg>
