<svg xmlns="http://www.w3.org/2000/svg" width="21" height="20" fill="none" viewBox="0 0 21 20"><g clip-path="url(#a)"><mask id="b" width="24" height="24" x="0" y="0" maskUnits="userSpaceOnUse" style="mask-type:alpha"><path fill="currentColor" d="M.75 0h23.083v23.083H.75z"/></mask><g mask="url(#b)"><path fill="currentColor" d="M6.52 11.086h1.376a1.1 1.1 0 0 0 .792-.333l3.937-3.958a1.4 1.4 0 0 0 .333-.51q.104-.282.104-.574t-.104-.562q-.104-.27-.333-.5l-.77-.792a1.4 1.4 0 0 0-.511-.333 1.6 1.6 0 0 0-.573-.104q-.292 0-.563.104t-.5.333L5.75 7.815a1.09 1.09 0 0 0-.333.792v1.375q0 .459.323.781.322.324.78.323m5.022-5.354-.604.646-.792-.792.625-.625zm-1.167 5.354h4.604q.459 0 .781-.323.324-.323.323-.78 0-.46-.323-.782a1.06 1.06 0 0 0-.78-.323h-2.397zm-4.75 3.667-2 2q-.521.52-1.198.23-.677-.293-.677-1.022V2.378q0-.917.646-1.563Q3.04.17 3.958.17h13.584q.916 0 1.562.645.645.647.646 1.563v10.167q0 .916-.646 1.562-.645.645-1.562.646z"/></g></g><defs><clipPath id="a"><path fill="#fff" d="M.75 0h20v20h-20z"/></clipPath></defs></svg>