<svg width="22" height="22" viewBox="0 0 22 22" fill="none" xmlns="http://www.w3.org/2000/svg">
<mask id="mask0_730_392" style="mask-type:alpha" maskUnits="userSpaceOnUse" x="0" y="0" width="22" height="22">
<rect x="0.583496" width="21.0833" height="21.0833" fill="currentColor"/>
</mask>
<g mask="url(#mask0_730_392)">
<path d="M11.1251 20.2049C9.9392 20.2049 8.82281 19.9779 7.77597 19.524C6.72912 19.0702 5.8177 18.4552 5.04172 17.6793C4.26574 16.9033 3.65081 15.9919 3.19693 14.945C2.74305 13.8982 2.51611 12.7818 2.51611 11.5958C2.51611 11.2737 2.62958 10.9992 2.85652 10.7723C3.08346 10.5453 3.35798 10.4319 3.68009 10.4319C4.0022 10.4319 4.27672 10.5453 4.50366 10.7723C4.7306 10.9992 4.84406 11.2737 4.84406 11.5958C4.84406 13.3381 5.45533 14.8206 6.67788 16.0431C7.90042 17.2656 9.38284 17.8769 11.1251 17.8769C12.8674 17.8769 14.3499 17.2656 15.5724 16.0431C16.7949 14.8206 17.4062 13.3381 17.4062 11.5958C17.4062 9.85353 16.7949 8.3711 15.5724 7.14856C14.3499 5.92602 12.8674 5.31475 11.1251 5.31475L11.6961 5.88576C11.9011 6.09074 12.0109 6.3433 12.0256 6.64344C12.0402 6.94359 11.945 7.21079 11.7401 7.44505C11.5351 7.69395 11.2679 7.82572 10.9385 7.84036C10.609 7.855 10.3272 7.74519 10.0929 7.51093L7.50144 4.98533C7.26718 4.75107 7.14639 4.47655 7.13907 4.16176C7.13175 3.84697 7.24522 3.57245 7.47948 3.33819L9.98313 0.834546C10.2174 0.600286 10.4919 0.486817 10.8067 0.494138C11.1215 0.501458 11.396 0.622248 11.6303 0.856507C11.8499 1.09077 11.9633 1.36163 11.9707 1.66909C11.978 1.97656 11.8645 2.24742 11.6303 2.48168L11.1251 2.9868C12.3111 2.9868 13.4275 3.21374 14.4743 3.66762C15.5212 4.1215 16.4326 4.73643 17.2086 5.51241C17.9845 6.28839 18.5995 7.19981 19.0534 8.24665C19.5072 9.2935 19.7342 10.4099 19.7342 11.5958C19.7342 12.7818 19.5072 13.8982 19.0534 14.945C18.5995 15.9919 17.9845 16.9033 17.2086 17.6793C16.4326 18.4552 15.5212 19.0702 14.4743 19.524C13.4275 19.9779 12.3111 20.2049 11.1251 20.2049Z" fill="currentColor"/>
</g>
</svg>
