<svg width="24" height="24" viewBox="0 0 24 24" fill="none" xmlns="http://www.w3.org/2000/svg">
<mask id="mask0_737_1315" style="mask-type:alpha" maskUnits="userSpaceOnUse" x="0" y="0" width="24" height="24">
<rect width="24" height="24" fill="currentColor"/>
</mask>
<g mask="url(#mask0_737_1315)">
<path d="M12 23C10.65 23 9.37912 22.7417 8.18745 22.225C6.99578 21.7083 5.95828 21.0083 5.07495 20.125C4.19162 19.2417 3.49162 18.2042 2.97495 17.0125C2.45828 15.8208 2.19995 14.55 2.19995 13.2C2.19995 12.8333 2.32912 12.5208 2.58745 12.2625C2.84578 12.0042 3.15828 11.875 3.52495 11.875C3.89162 11.875 4.20412 12.0042 4.46245 12.2625C4.72078 12.5208 4.84995 12.8333 4.84995 13.2C4.84995 15.1833 5.54578 16.8708 6.93745 18.2625C8.32912 19.6542 10.0166 20.35 12 20.35C13.9833 20.35 15.6708 19.6542 17.0625 18.2625C18.4541 16.8708 19.15 15.1833 19.15 13.2C19.15 11.2167 18.4541 9.52918 17.0625 8.13751C15.6708 6.74585 13.9833 6.05001 12 6.05001L12.65 6.70001C12.8833 6.93335 13.0083 7.22085 13.025 7.56251C13.0416 7.90418 12.9333 8.20835 12.7 8.47501C12.4666 8.75835 12.1625 8.90835 11.7875 8.92501C11.4125 8.94168 11.0916 8.81668 10.825 8.55001L7.87495 5.67501C7.60828 5.40835 7.47078 5.09585 7.46245 4.73751C7.45412 4.37918 7.58328 4.06668 7.84995 3.80001L10.7 0.950013C10.9666 0.683346 11.2791 0.554179 11.6375 0.562513C11.9958 0.570846 12.3083 0.708346 12.575 0.975013C12.825 1.24168 12.9541 1.55001 12.9625 1.90001C12.9708 2.25001 12.8416 2.55835 12.575 2.82501L12 3.40001C13.35 3.40001 14.6208 3.65835 15.8125 4.17501C17.0041 4.69168 18.0416 5.39168 18.925 6.27501C19.8083 7.15835 20.5083 8.19585 21.025 9.38751C21.5416 10.5792 21.8 11.85 21.8 13.2C21.8 14.55 21.5416 15.8208 21.025 17.0125C20.5083 18.2042 19.8083 19.2417 18.925 20.125C18.0416 21.0083 17.0041 21.7083 15.8125 22.225C14.6208 22.7417 13.35 23 12 23Z" fill="currentColor"/>
</g>
</svg>
