<svg width="22" height="22" viewBox="0 0 22 22" fill="none" xmlns="http://www.w3.org/2000/svg">
<mask id="mask0_730_392" style="mask-type:alpha" maskUnits="userSpaceOnUse" x="0" y="0" width="22" height="22">
<rect x="0.916504" width="21.0833" height="21.0833" fill="#D9D9D9"/>
</mask>
<g mask="url(#mask0_730_392)">
<path d="M11.4581 20.2049C10.2722 20.2049 9.15582 19.9779 8.10897 19.524C7.06213 19.0702 6.15071 18.4552 5.37473 17.6793C4.59874 16.9033 3.98381 15.9919 3.52994 14.945C3.07606 13.8982 2.84912 12.7818 2.84912 11.5958C2.84912 11.2737 2.96259 10.9992 3.18953 10.7723C3.41647 10.5453 3.69099 10.4319 4.0131 10.4319C4.3352 10.4319 4.60973 10.5453 4.83666 10.7723C5.0636 10.9992 5.17707 11.2737 5.17707 11.5958C5.17707 13.3381 5.78834 14.8206 7.01088 16.0431C8.23342 17.2656 9.71585 17.8769 11.4581 17.8769C13.2005 17.8769 14.6829 17.2656 15.9054 16.0431C17.128 14.8206 17.7392 13.3381 17.7392 11.5958C17.7392 9.85353 17.128 8.3711 15.9054 7.14856C14.6829 5.92602 13.2005 5.31475 11.4581 5.31475L12.0292 5.88576C12.2341 6.09074 12.3439 6.3433 12.3586 6.64344C12.3732 6.94359 12.2781 7.21079 12.0731 7.44505C11.8681 7.69395 11.6009 7.82572 11.2715 7.84036C10.942 7.855 10.6602 7.74519 10.4259 7.51093L7.83445 4.98533C7.60019 4.75107 7.4794 4.47655 7.47208 4.16176C7.46476 3.84697 7.57823 3.57245 7.81249 3.33819L10.3161 0.834546C10.5504 0.600286 10.8249 0.486817 11.1397 0.494138C11.4545 0.501458 11.729 0.622248 11.9633 0.856507C12.1829 1.09077 12.2964 1.36163 12.3037 1.66909C12.311 1.97656 12.1975 2.24742 11.9633 2.48168L11.4581 2.9868C12.6441 2.9868 13.7605 3.21374 14.8073 3.66762C15.8542 4.1215 16.7656 4.73643 17.5416 5.51241C18.3176 6.28839 18.9325 7.19981 19.3864 8.24665C19.8402 9.2935 20.0672 10.4099 20.0672 11.5958C20.0672 12.7818 19.8402 13.8982 19.3864 14.945C18.9325 15.9919 18.3176 16.9033 17.5416 17.6793C16.7656 18.4552 15.8542 19.0702 14.8073 19.524C13.7605 19.9779 12.6441 20.2049 11.4581 20.2049Z" fill="#1C1B1F"/>
</g>
</svg>
