<svg width="21" height="20" viewBox="0 0 21 20" fill="none" xmlns="http://www.w3.org/2000/svg">
<g clip-path="url(#clip0_234_224)">
<mask id="mask0_234_224" style="mask-type:alpha" maskUnits="userSpaceOnUse" x="0" y="0" width="24" height="24">
<rect x="0.833496" width="23.0833" height="23.0833" fill="#D9D9D9"/>
</mask>
<g mask="url(#mask0_234_224)">
<path d="M9.35413 18.5385C8.99302 18.5385 8.67357 18.4169 8.3958 18.1739C8.11802 17.9308 7.95135 17.6287 7.8958 17.2676L7.68746 15.726C7.59024 15.6704 7.48607 15.6114 7.37496 15.5489C7.26385 15.4864 7.15969 15.4204 7.06246 15.351L5.5833 15.9551C5.23607 16.1079 4.88885 16.1218 4.54163 15.9968C4.19441 15.8718 3.93052 15.6496 3.74996 15.3301L2.2708 12.6635C2.09024 12.344 2.03469 12.0107 2.10413 11.6635C2.17357 11.3162 2.35413 11.0315 2.6458 10.8093L3.85413 9.8718V9.1218L2.66663 8.22596C2.37496 8.00374 2.19441 7.71555 2.12496 7.36138C2.05552 7.00721 2.11107 6.67041 2.29163 6.35096L3.7708 3.7468C3.95135 3.42735 4.21177 3.2086 4.55205 3.09055C4.89232 2.97249 5.23607 2.98291 5.5833 3.1218L6.97913 3.6843C7.09024 3.61485 7.21177 3.54541 7.34371 3.47596C7.47566 3.40652 7.59719 3.33707 7.7083 3.26763L7.8958 1.76763C7.93746 1.40652 8.10066 1.10443 8.38538 0.861379C8.6701 0.618323 8.99302 0.496796 9.35413 0.496796H12.3125C12.6736 0.496796 12.9965 0.618323 13.2812 0.861379C13.5659 1.10443 13.7291 1.40652 13.7708 1.76763L13.9583 3.28846C14.0694 3.35791 14.1909 3.42735 14.3229 3.4968C14.4548 3.56624 14.5764 3.63568 14.6875 3.70513L16.0625 3.1218C16.4097 2.96902 16.7534 2.95513 17.0937 3.08013C17.434 3.20513 17.7014 3.42735 17.8958 3.7468L19.375 6.35096C19.5555 6.67041 19.6111 7.00721 19.5416 7.36138C19.4722 7.71555 19.2916 8.00374 19 8.22596L17.7708 9.16346V9.91346L18.9583 10.8093C19.25 11.0315 19.434 11.3197 19.5104 11.6739C19.5868 12.028 19.5347 12.3649 19.3541 12.6843L17.875 15.3301C17.6944 15.6496 17.427 15.8718 17.0729 15.9968C16.7187 16.1218 16.368 16.1079 16.0208 15.9551L14.5833 15.351C14.4861 15.4065 14.3854 15.4655 14.2812 15.528C14.177 15.5905 14.0764 15.6496 13.9791 15.7051L13.7708 17.2676C13.7152 17.6287 13.5486 17.9308 13.2708 18.1739C12.993 18.4169 12.6736 18.5385 12.3125 18.5385H9.35413ZM10.8125 12.9968C11.7847 12.9968 12.6111 12.6565 13.2916 11.976C13.9722 11.2954 14.3125 10.469 14.3125 9.4968C14.3125 8.52457 13.9722 7.69818 13.2916 7.01763C12.6111 6.33707 11.7847 5.9968 10.8125 5.9968C9.84024 5.9968 9.01385 6.33707 8.3333 7.01763C7.65274 7.69818 7.31246 8.52457 7.31246 9.4968C7.31246 10.469 7.65274 11.2954 8.3333 11.976C9.01385 12.6565 9.84024 12.9968 10.8125 12.9968Z" fill="#1C1B1F"/>
</g>
</g>
<defs>
<clipPath id="clip0_234_224">
<rect width="20" height="20" fill="white" transform="translate(0.833496)"/>
</clipPath>
</defs>
</svg>
