<svg width="22" height="22" viewBox="0 0 22 22" fill="none" xmlns="http://www.w3.org/2000/svg">
<mask id="mask0_730_374" style="mask-type:alpha" maskUnits="userSpaceOnUse" x="0" y="0" width="22" height="22">
<rect x="0.583496" width="21.0833" height="21.0833" fill="#D9D9D9"/>
</mask>
<g mask="url(#mask0_730_374)">
<path d="M8.48978 14.3411H13.7606C14.0827 14.3411 14.3572 14.2276 14.5842 14.0007C14.8111 13.7737 14.9246 13.4992 14.9246 13.1771V7.90625C14.9246 7.58415 14.8111 7.30962 14.5842 7.08268C14.3572 6.85575 14.0827 6.74228 13.7606 6.74228H8.48978C8.16767 6.74228 7.89315 6.85575 7.66621 7.08268C7.43927 7.30962 7.3258 7.58415 7.3258 7.90625V13.1771C7.3258 13.4992 7.43927 13.7737 7.66621 14.0007C7.89315 14.2276 8.16767 14.3411 8.48978 14.3411ZM11.1252 20.0292C9.81276 20.0292 8.57938 19.7801 7.42507 19.282C6.27076 18.7839 5.26666 18.108 4.41279 17.2541C3.55891 16.4002 2.88293 15.3961 2.38484 14.2418C1.88674 13.0875 1.6377 11.8541 1.6377 10.5417C1.6377 9.22542 1.88718 7.98854 2.38615 6.831C2.88513 5.67332 3.56228 4.66637 4.41762 3.81016C5.27296 2.95379 6.27705 2.28037 7.4299 1.78989C8.58275 1.29941 9.81452 1.05417 11.1252 1.05417C12.4413 1.05417 13.678 1.29941 14.8354 1.78989C15.993 2.28037 17 2.95386 17.8565 3.81038C18.713 4.66689 19.3865 5.67405 19.877 6.83188C20.3675 7.98985 20.6127 9.22703 20.6127 10.5434C20.6127 11.86 20.3675 13.0929 19.877 14.2422C19.3865 15.3916 18.7131 16.3939 17.8567 17.2492C17.0005 18.1046 15.9935 18.7817 14.8359 19.2807C13.6783 19.7797 12.4414 20.0292 11.1252 20.0292Z" fill="#1C1B1F"/>
</g>
</svg>
