<svg width="22" height="22" viewBox="0 0 22 22" fill="none" xmlns="http://www.w3.org/2000/svg">
<mask id="mask0_234_299" style="mask-type:alpha" maskUnits="userSpaceOnUse" x="0" y="0" width="22" height="22">
<rect x="0.416504" width="21.0833" height="21.0833" fill="#D9D9D9"/>
</mask>
<g mask="url(#mask0_234_299)">
<path d="M7.62014 17.3718C7.29803 17.3718 7.02351 17.2583 6.79657 17.0314C6.56963 16.8044 6.45616 16.5299 6.45616 16.2078C6.45616 15.8857 6.56963 15.6112 6.79657 15.3842C7.02351 15.1573 7.29803 15.0438 7.62014 15.0438H13.2424C14.1062 15.0438 14.8419 14.74 15.4495 14.1324C16.0571 13.5248 16.3609 12.7891 16.3609 11.9253C16.3609 11.0614 16.0571 10.3257 15.4495 9.71809C14.8419 9.11048 14.1062 8.80668 13.2424 8.80668H7.62014L8.87196 10.0585C9.09158 10.2781 9.20139 10.5453 9.20139 10.8601C9.20139 11.1749 9.08426 11.4421 8.85 11.6617C8.63038 11.8813 8.36684 11.9911 8.05938 11.9911C7.75191 11.9911 7.48837 11.8813 7.26875 11.6617L4.06233 8.45529C3.9452 8.33816 3.85735 8.21371 3.79878 8.08194C3.74022 7.95017 3.71094 7.80375 3.71094 7.6427C3.71094 7.48165 3.74022 7.33158 3.79878 7.19248C3.85735 7.05339 3.9452 6.92528 4.06233 6.80815L7.24679 3.62369C7.46641 3.40407 7.73727 3.2906 8.05938 3.28328C8.38148 3.27596 8.65234 3.38211 8.87196 3.60173C9.10622 3.82135 9.21969 4.09221 9.21237 4.41432C9.20505 4.73642 9.09158 5.00728 8.87196 5.2269L7.62014 6.47873H13.2424C14.7504 6.47873 16.0352 7.00947 17.0967 8.07096C18.1581 9.13244 18.6889 10.4172 18.6889 11.9253C18.6889 13.4333 18.1581 14.7181 17.0967 15.7796C16.0352 16.841 14.7504 17.3718 13.2424 17.3718H7.62014Z" fill="#1C1B1F"/>
</g>
</svg>
