<svg width="22" height="22" viewBox="0 0 22 22" fill="none" xmlns="http://www.w3.org/2000/svg">
<mask id="mask0_730_455" style="mask-type:alpha" maskUnits="userSpaceOnUse" x="0" y="0" width="22" height="22">
<rect x="0.833496" width="21.0833" height="21.0833" fill="currentColor"/>
</mask>
<g mask="url(#mask0_730_455)">
<path d="M8.45417 13.6163H5.79679C5.47468 13.6163 5.20016 13.5028 4.97322 13.2759C4.74628 13.049 4.63281 12.7744 4.63281 12.4523V8.63098C4.63281 8.30888 4.74628 8.03436 4.97322 7.80742C5.20016 7.58048 5.47468 7.46701 5.79679 7.46701H8.45417L11.4629 4.41432C11.829 4.03365 12.2536 3.94946 12.7367 4.16176C13.2199 4.37405 13.4615 4.73642 13.4615 5.24887V15.8345C13.4615 16.3469 13.2199 16.7093 12.7367 16.9216C12.2536 17.1339 11.829 17.0497 11.4629 16.669L8.45417 13.6163ZM17.6781 10.5417C17.6781 11.2005 17.539 11.8118 17.2609 12.3755C16.9827 12.9392 16.5874 13.4187 16.0749 13.814C15.8846 13.9311 15.6942 13.9348 15.5039 13.825C15.3136 13.7151 15.2184 13.5504 15.2184 13.3308V7.75251C15.2184 7.53289 15.3136 7.36818 15.5039 7.25837C15.6942 7.14856 15.8846 7.15222 16.0749 7.26935C16.5874 7.66466 16.9827 8.14416 17.2609 8.70785C17.539 9.27154 17.6781 9.88281 17.6781 10.5417Z" fill="currentColor"/>
</g>
</svg>
