<svg width="22" height="22" viewBox="0 0 22 22" fill="none" xmlns="http://www.w3.org/2000/svg">
<mask id="mask0_730_437" style="mask-type:alpha" maskUnits="userSpaceOnUse" x="0" y="0" width="22" height="22">
<rect x="0.583496" width="21.0833" height="21.0833" fill="#D9D9D9"/>
</mask>
<g mask="url(#mask0_730_437)">
<path d="M17.9774 10.4977C17.9774 9.04827 17.5785 7.73788 16.7805 6.56659C15.9826 5.39529 14.9321 4.53146 13.629 3.97509C13.3362 3.85796 13.1166 3.65665 12.9701 3.37114C12.8237 3.08564 12.8018 2.79647 12.9043 2.50365C13.0214 2.19619 13.2227 1.96193 13.5082 1.80087C13.7937 1.63982 14.0829 1.61786 14.3757 1.73499C16.1619 2.43777 17.5968 3.58344 18.6802 5.17201C19.7637 6.76058 20.3054 8.53583 20.3054 10.4977C20.3054 12.4597 19.7637 14.2349 18.6802 15.8235C17.5968 17.4121 16.1619 18.5577 14.3757 19.2605C14.0829 19.3776 13.7937 19.3557 13.5082 19.1946C13.2227 19.0336 13.0214 18.7993 12.9043 18.4918C12.8018 18.199 12.8237 17.9099 12.9701 17.6244C13.1166 17.3389 13.3362 17.1375 13.629 17.0204C14.9321 16.464 15.9826 15.6002 16.7805 14.4289C17.5785 13.2576 17.9774 11.9472 17.9774 10.4977ZM5.76667 13.6163H3.10929C2.78718 13.6163 2.51266 13.5029 2.28572 13.2759C2.05878 13.049 1.94531 12.7745 1.94531 12.4523V8.63099C1.94531 8.30889 2.05878 8.03437 2.28572 7.80743C2.51266 7.58049 2.78718 7.46702 3.10929 7.46702H5.76667L8.77543 4.41433C9.14146 4.03366 9.56606 3.94947 10.0492 4.16177C10.5324 4.37406 10.774 4.73643 10.774 5.24888V15.8345C10.774 16.3469 10.5324 16.7093 10.0492 16.9216C9.56606 17.1339 9.14146 17.0497 8.77543 16.669L5.76667 13.6163ZM14.9906 10.5417C14.9906 11.2005 14.8515 11.8118 14.5734 12.3755C14.2952 12.9392 13.8999 13.4187 13.3874 13.814C13.1971 13.9311 13.0067 13.9348 12.8164 13.825C12.6261 13.7152 12.5309 13.5504 12.5309 13.3308V7.75252C12.5309 7.5329 12.6261 7.36819 12.8164 7.25838C13.0067 7.14857 13.1971 7.15223 13.3874 7.26936C13.8999 7.66468 14.2952 8.14418 14.5734 8.70786C14.8515 9.27155 14.9906 9.88282 14.9906 10.5417Z" fill="#1C1B1F"/>
</g>
</svg>
