<svg width="22" height="22" viewBox="0 0 22 22" fill="none" xmlns="http://www.w3.org/2000/svg">
<mask id="mask0_730_455" style="mask-type:alpha" maskUnits="userSpaceOnUse" x="0" y="0" width="22" height="22">
<rect x="0.5" width="21.0833" height="21.0833" fill="#D9D9D9"/>
</mask>
<g mask="url(#mask0_730_455)">
<path d="M8.12067 13.6163H5.46329C5.14119 13.6163 4.86666 13.5028 4.63972 13.2759C4.41279 13.049 4.29932 12.7744 4.29932 12.4523V8.63098C4.29932 8.30888 4.41279 8.03436 4.63972 7.80742C4.86666 7.58048 5.14119 7.46701 5.46329 7.46701H8.12067L11.1294 4.41432C11.4955 4.03365 11.9201 3.94946 12.4032 4.16176C12.8864 4.37405 13.128 4.73642 13.128 5.24887V15.8345C13.128 16.3469 12.8864 16.7093 12.4032 16.9216C11.9201 17.1339 11.4955 17.0497 11.1294 16.669L8.12067 13.6163ZM17.3446 10.5417C17.3446 11.2005 17.2055 11.8118 16.9274 12.3755C16.6492 12.9392 16.2539 13.4187 15.7414 13.814C15.5511 13.9311 15.3607 13.9348 15.1704 13.825C14.9801 13.7151 14.8849 13.5504 14.8849 13.3308V7.75251C14.8849 7.53289 14.9801 7.36818 15.1704 7.25837C15.3607 7.14856 15.5511 7.15222 15.7414 7.26935C16.2539 7.66466 16.6492 8.14416 16.9274 8.70785C17.2055 9.27154 17.3446 9.88281 17.3446 10.5417Z" fill="#1C1B1F"/>
</g>
</svg>
