<svg width="22" height="22" viewBox="0 0 22 22" fill="none" xmlns="http://www.w3.org/2000/svg">
<mask id="mask0_730_446" style="mask-type:alpha" maskUnits="userSpaceOnUse" x="0" y="0" width="22" height="22">
<rect x="0.416504" width="21.0833" height="21.0833" fill="#D9D9D9"/>
</mask>
<g mask="url(#mask0_730_446)">
<path d="M9.90387 13.6163H7.2465C6.92439 13.6163 6.64987 13.5028 6.42293 13.2759C6.19599 13.049 6.08252 12.7744 6.08252 12.4523V8.63098C6.08252 8.30888 6.19599 8.03436 6.42293 7.80742C6.64987 7.58048 6.92439 7.46701 7.2465 7.46701H9.90387L12.9126 4.41432C13.2787 4.03365 13.7033 3.94946 14.1864 4.16176C14.6696 4.37405 14.9112 4.73642 14.9112 5.24887V15.8345C14.9112 16.3469 14.6696 16.7093 14.1864 16.9216C13.7033 17.1339 13.2787 17.0497 12.9126 16.669L9.90387 13.6163Z" fill="#1C1B1F"/>
</g>
</svg>
