<svg width="24" height="24" viewBox="0 0 24 24" fill="none" xmlns="http://www.w3.org/2000/svg">
<mask id="mask0_737_1311" style="mask-type:alpha" maskUnits="userSpaceOnUse" x="0" y="0" width="24" height="24">
<rect width="24" height="24" fill="currentColor"/>
</mask>
<g mask="url(#mask0_737_1311)">
<path d="M10.8 15.4999H7.77495C7.40828 15.4999 7.09578 15.3708 6.83745 15.1124C6.57912 14.8541 6.44995 14.5416 6.44995 14.1749V9.82495C6.44995 9.45828 6.57912 9.14578 6.83745 8.88745C7.09578 8.62912 7.40828 8.49995 7.77495 8.49995H10.8L14.225 5.02495C14.6416 4.59162 15.125 4.49578 15.675 4.73745C16.225 4.97912 16.5 5.39162 16.5 5.97495V18.025C16.5 18.6083 16.225 19.0208 15.675 19.2625C15.125 19.5041 14.6416 19.4083 14.225 18.9749L10.8 15.4999Z" fill="currentColor"/>
</g>
</svg>
