<svg width="826" height="150" viewBox="0 0 826 150" fill="none" xmlns="http://www.w3.org/2000/svg">
<rect width="150" height="150" fill="#202F48"/>
<path fill-rule="evenodd" clip-rule="evenodd" d="M101.356 80.0803C101.35 80.0725 101.345 80.0647 101.34 80.0569C101.341 80.0587 101.339 80.0551 101.34 80.0569C101.344 80.0629 101.352 80.0743 101.356 80.0803Z" fill="white"/>
<path d="M101.34 80.0569L101.356 80.0803L101.382 80.1199C101.439 80.2074 101.496 80.2948 101.552 80.3834L101.584 80.4338L101.637 80.5197C101.823 80.8188 102.002 81.1245 102.175 81.4361C102.201 81.4827 102.226 81.5294 102.252 81.5762C102.308 81.6792 102.363 81.7829 102.418 81.8873L102.443 81.9361L102.461 81.9699C102.517 82.0778 102.572 82.186 102.627 82.2953L102.653 82.3485L102.684 82.4102C106.803 90.7829 106.469 102.953 101.256 112.581L97.9692 118.65L49.2617 70.8199L48.9012 70.456C48.8783 70.4321 48.8556 70.4072 48.8331 70.3825C48.8158 70.3635 48.7985 70.3445 48.7809 70.3258C48.6894 70.2284 48.5989 70.1299 48.5094 70.0301C48.4598 69.9747 48.4106 69.918 48.3618 69.8617L48.3223 69.8161C48.2471 69.7295 48.1722 69.6428 48.0985 69.5545C48.0412 69.486 47.9844 69.4171 47.928 69.3476C47.8267 69.2226 47.7269 69.0959 47.6284 68.9678C47.589 68.9166 47.5439 68.8579 47.5051 68.8062C47.3998 68.6661 47.296 68.5247 47.1941 68.3811C47.1529 68.3232 47.1122 68.2648 47.0716 68.2063C46.9886 68.0866 46.9071 67.9653 46.8263 67.8433L46.8018 67.8061C46.771 67.7597 46.7403 67.7134 46.71 67.6665C46.6114 67.5139 46.5143 67.3599 46.4192 67.2039C46.3867 67.1504 46.3545 67.0967 46.3223 67.0428C46.2357 66.8977 46.1506 66.751 46.067 66.6029C46.0341 66.5448 46.0018 66.4861 45.9695 66.4274L45.9507 66.3932C45.8832 66.2706 45.8166 66.1473 45.7511 66.0228C45.7272 65.9774 45.7025 65.9304 45.6788 65.8846C41.3421 57.5028 41.6012 45.089 46.9004 35.3023L47.8388 33.569C48.9506 31.5156 50.5324 30.6152 52.1473 31.5562C53.7622 32.4972 98.8936 77.0641 98.8936 77.0641C99.0073 77.1758 99.1193 77.2901 99.2301 77.4052C99.2617 77.438 99.293 77.4711 99.3244 77.5041C99.4027 77.5869 99.4804 77.6705 99.5573 77.755C99.5769 77.7765 99.5963 77.7983 99.6157 77.8201L99.6578 77.8673C99.7249 77.9423 99.7917 78.0175 99.8577 78.0938L99.9316 78.1793C99.9588 78.2109 99.9859 78.2425 100.013 78.2744C100.048 78.3157 100.082 78.3578 100.116 78.3998L100.162 78.456L100.204 78.5069C100.234 78.5431 100.264 78.5802 100.294 78.617C100.34 78.6743 100.385 78.7325 100.43 78.7906L100.458 78.8259C100.647 79.0696 100.832 79.3194 101.011 79.5743L101.049 79.629C101.077 79.6685 101.105 79.708 101.133 79.748C101.185 79.8237 101.236 79.9002 101.287 79.9768C101.305 80.0036 101.322 80.0299 101.34 80.0569Z" fill="white"/>
<path d="M86.6202 123.07C86.6202 123.07 70.0423 105.139 60.9984 94.8008C51.9544 84.4624 41.6822 88.9823 40.9266 100.953C40.171 112.923 49.1828 125.859 68.8074 124.873L86.6202 123.07Z" fill="white"/>
<path d="M63.7303 26.6027C63.7303 26.6027 80.006 44.808 88.8758 55.2963C97.7456 65.7846 108.092 61.437 109.048 49.4808C110.003 37.5246 101.209 24.4398 81.5708 25.0973L63.7303 26.6027Z" fill="white"/>
<path d="M202.544 129.288C197.168 129.288 191.504 128.712 185.552 127.56C179.696 126.408 174.512 124.488 170 121.8L170.864 99.912H186.128L189.008 118.056C193.328 119.496 197.888 120.216 202.688 120.216C207.2 120.216 210.512 119.016 212.624 116.616C214.736 114.12 215.792 111.24 215.792 107.976C215.792 104.52 214.976 101.832 213.344 99.912C211.808 97.992 209.216 96.168 205.568 94.44L199.232 91.416C190.304 87.192 183.488 82.584 178.784 77.592C174.08 72.6 171.728 66.024 171.728 57.864C171.728 49.032 174.992 42.12 181.52 37.128C188.144 32.136 197.264 29.64 208.88 29.64C214.16 29.64 219.344 30.264 224.432 31.512C229.52 32.76 233.888 34.536 237.536 36.84L236.24 57.576H221.264L218.672 40.44C215.792 39.288 212.816 38.712 209.744 38.712C206.192 38.712 203.12 39.864 200.528 42.168C198.032 44.376 196.784 47.16 196.784 50.52C196.784 54.072 197.792 56.856 199.808 58.872C201.824 60.888 204.752 62.856 208.592 64.776L215.792 68.232C221.84 71.112 226.736 74.04 230.48 77.016C234.32 79.896 237.104 83.16 238.832 86.808C240.656 90.36 241.568 94.632 241.568 99.624C241.568 105.288 240.128 110.376 237.248 114.888C234.464 119.304 230.192 122.808 224.432 125.4C218.672 127.992 211.376 129.288 202.544 129.288Z" fill="white"/>
<path d="M248.442 126.408V119.064L255.066 117.48C255.162 114.024 255.21 110.376 255.21 106.536C255.21 102.6 255.21 99.144 255.21 96.168V87.24C255.21 84.552 255.21 82.392 255.21 80.76C255.21 79.128 255.162 77.592 255.066 76.152C255.066 74.712 254.97 73.032 254.778 71.112L247.002 69.816V63.912L278.826 53.976L281.418 55.56L282.138 65.496C285.498 61.464 288.858 58.536 292.218 56.712C295.578 54.888 299.37 53.976 303.594 53.976C313.77 53.976 320.394 58.152 323.466 66.504C327.498 61.512 331.194 58.2 334.554 56.568C337.914 54.84 341.562 53.976 345.498 53.976C353.37 53.976 358.986 56.136 362.346 60.456C365.802 64.776 367.53 71.16 367.53 79.608V96.168C367.53 99.24 367.53 102.744 367.53 106.68C367.53 110.616 367.578 114.312 367.674 117.768L373.722 119.064V126.408H335.13V119.064L340.602 117.624C340.698 114.168 340.746 110.472 340.746 106.536C340.746 102.6 340.746 99.144 340.746 96.168V81.624C340.746 76.728 340.266 73.464 339.306 71.832C338.346 70.2 336.618 69.384 334.122 69.384C331.05 69.384 327.978 70.536 324.906 72.84C325.002 73.608 325.05 74.424 325.05 75.288C325.146 76.152 325.194 77.064 325.194 78.024V96.168C325.194 99.24 325.194 102.744 325.194 106.68C325.194 110.616 325.242 114.36 325.338 117.912L330.81 119.064V126.408H292.074V119.064L298.266 117.48C298.362 114.12 298.41 110.472 298.41 106.536C298.41 102.6 298.41 99.144 298.41 96.168V81.624C298.41 77.208 297.93 74.088 296.97 72.264C296.106 70.344 294.282 69.384 291.498 69.384C290.058 69.384 288.57 69.72 287.034 70.392C285.498 71.064 284.01 71.928 282.57 72.984V96.168C282.57 99.144 282.57 102.648 282.57 106.68C282.57 110.616 282.618 114.36 282.714 117.912L288.186 119.064V126.408H248.442Z" fill="white"/>
<path d="M417.376 128.712C409.12 128.712 402.16 127.08 396.496 123.816C390.832 120.456 386.56 115.896 383.68 110.136C380.8 104.376 379.36 97.944 379.36 90.84C379.36 83.64 380.992 77.304 384.256 71.832C387.52 66.264 391.984 61.896 397.648 58.728C403.408 55.56 409.984 53.976 417.376 53.976C424.768 53.976 431.296 55.56 436.96 58.728C442.72 61.8 447.232 66.12 450.496 71.688C453.76 77.16 455.392 83.544 455.392 90.84C455.392 98.136 453.904 104.664 450.928 110.424C448.048 116.088 443.776 120.552 438.112 123.816C432.544 127.08 425.632 128.712 417.376 128.712ZM417.376 120.792C420.544 120.792 422.848 118.488 424.288 113.88C425.824 109.272 426.592 101.736 426.592 91.272C426.592 80.808 425.824 73.32 424.288 68.808C422.848 64.2 420.544 61.896 417.376 61.896C414.208 61.896 411.856 64.2 410.32 68.808C408.88 73.32 408.16 80.808 408.16 91.272C408.16 101.736 408.88 109.272 410.32 113.88C411.856 118.488 414.208 120.792 417.376 120.792Z" fill="white"/>
<path d="M501.189 128.712C492.933 128.712 485.973 127.08 480.309 123.816C474.645 120.456 470.373 115.896 467.493 110.136C464.613 104.376 463.173 97.944 463.173 90.84C463.173 83.64 464.805 77.304 468.069 71.832C471.333 66.264 475.797 61.896 481.461 58.728C487.221 55.56 493.797 53.976 501.189 53.976C508.581 53.976 515.109 55.56 520.773 58.728C526.533 61.8 531.045 66.12 534.309 71.688C537.573 77.16 539.205 83.544 539.205 90.84C539.205 98.136 537.717 104.664 534.741 110.424C531.861 116.088 527.589 120.552 521.925 123.816C516.357 127.08 509.445 128.712 501.189 128.712ZM501.189 120.792C504.357 120.792 506.661 118.488 508.101 113.88C509.637 109.272 510.405 101.736 510.405 91.272C510.405 80.808 509.637 73.32 508.101 68.808C506.661 64.2 504.357 61.896 501.189 61.896C498.021 61.896 495.669 64.2 494.133 68.808C492.693 73.32 491.973 80.808 491.973 91.272C491.973 101.736 492.693 109.272 494.133 113.88C495.669 118.488 498.021 120.792 501.189 120.792Z" fill="white"/>
<path d="M574.667 128.712C567.563 128.712 562.043 127.08 558.107 123.816C554.171 120.456 552.203 114.936 552.203 107.256C552.203 104.472 552.203 101.928 552.203 99.624C552.299 97.224 552.347 94.632 552.347 91.848V67.08H544.139V57.576L553.931 56.28L562.571 35.832H579.707V56.28H592.955V67.08H579.707V105.672C579.707 108.936 580.379 111.336 581.723 112.872C583.067 114.408 584.747 115.176 586.763 115.176C588.971 115.176 591.323 114.216 593.819 112.296L597.419 115.608C595.499 119.736 592.715 122.952 589.067 125.256C585.419 127.56 580.619 128.712 574.667 128.712Z" fill="white"/>
<path d="M599.877 126.408V119.064L606.501 117.48C606.597 114.024 606.645 110.376 606.645 106.536C606.645 102.6 606.645 99.144 606.645 96.168V36.984L598.869 35.544V29.064L631.701 22.584L634.149 24.168L633.573 44.184V65.352C637.413 60.84 640.917 57.816 644.085 56.28C647.349 54.744 650.997 53.976 655.029 53.976C661.461 53.976 666.741 56.04 670.869 60.168C675.093 64.2 677.205 70.152 677.205 78.024V96.168C677.205 99.24 677.205 102.744 677.205 106.68C677.205 110.616 677.253 114.312 677.349 117.768L683.397 119.064V126.408H643.509V119.064L649.701 117.624C649.797 114.168 649.845 110.472 649.845 106.536C649.845 102.6 649.845 99.144 649.845 96.168V79.896C649.845 75.96 649.413 73.224 648.549 71.688C647.781 70.152 646.197 69.384 643.797 69.384C642.357 69.384 640.773 69.864 639.045 70.824C637.413 71.688 635.733 72.936 634.005 74.568V96.168C634.005 99.144 634.005 102.648 634.005 106.68C634.005 110.616 634.053 114.36 634.149 117.912L639.621 119.064V126.408H599.877Z" fill="white"/>
<path d="M689.88 126.408V119.064L696.36 117.624C696.456 114.072 696.505 110.376 696.505 106.536C696.505 102.6 696.505 99.144 696.505 96.168V89.256C696.505 85.32 696.456 82.056 696.36 79.464C696.36 76.776 696.265 73.992 696.073 71.112L688.297 69.816V63.912L721.705 53.976L724.297 55.56L723.865 77.016V96.168C723.865 99.144 723.865 102.648 723.865 106.68C723.865 110.616 723.912 114.312 724.008 117.768L730.057 119.064V126.408H689.88ZM709.896 45.48C706.248 45.48 703.128 44.328 700.536 42.024C697.944 39.624 696.648 36.648 696.648 33.096C696.648 29.448 697.944 26.472 700.536 24.168C703.128 21.864 706.248 20.712 709.896 20.712C713.544 20.712 716.665 21.864 719.257 24.168C721.849 26.472 723.144 29.448 723.144 33.096C723.144 36.648 721.849 39.624 719.257 42.024C716.665 44.328 713.544 45.48 709.896 45.48Z" fill="white"/>
<path d="M772.712 61.752C770.504 61.752 768.632 63.384 767.096 66.648C765.56 69.912 764.696 76.008 764.504 84.936H771.272C774.728 84.936 777.032 84.264 778.184 82.92C779.432 81.48 780.056 78.936 780.056 75.288C780.056 70.296 779.288 66.792 777.752 64.776C776.312 62.76 774.632 61.752 772.712 61.752ZM773.144 128.712C765.944 128.712 759.512 127.224 753.848 124.248C748.28 121.272 743.864 117 740.6 111.432C737.336 105.768 735.704 99 735.704 91.128C735.704 84.888 736.808 79.464 739.016 74.856C741.224 70.248 744.2 66.408 747.944 63.336C751.688 60.168 755.864 57.816 760.472 56.28C765.08 54.744 769.736 53.976 774.44 53.976C781.352 53.976 787.064 55.416 791.576 58.296C796.184 61.08 799.64 64.872 801.944 69.672C804.248 74.376 805.4 79.656 805.4 85.512C805.4 87.048 805.352 88.392 805.256 89.544C805.16 90.6 804.968 91.8 804.68 93.144H764.648C765.416 100.152 767.48 105.24 770.84 108.408C774.296 111.576 778.136 113.16 782.36 113.16C786.008 113.16 789.128 112.536 791.72 111.288C794.408 109.944 796.76 108.312 798.776 106.392L804.392 111.864C801.32 117.72 797.096 121.992 791.72 124.68C786.44 127.368 780.248 128.712 773.144 128.712Z" fill="white"/>
</svg>
