<svg width="21" height="21" viewBox="0 0 21 21" fill="none" xmlns="http://www.w3.org/2000/svg">
<path d="M10.4 11.8772L13.2136 14.691C13.4128 14.8901 13.6546 14.9912 13.9391 14.9944C14.2234 14.9975 14.4683 14.8964 14.6738 14.691C14.8792 14.4855 14.9818 14.2422 14.9818 13.9609C14.9818 13.6797 14.8792 13.4363 14.6738 13.2308L11.86 10.4172L14.6738 7.60364C14.8728 7.40445 14.974 7.16262 14.9772 6.87816C14.9803 6.59385 14.8792 6.34895 14.6738 6.14345C14.4683 5.93811 14.2249 5.83544 13.9437 5.83544C13.6625 5.83544 13.4191 5.93811 13.2136 6.14345L10.4 8.95728L7.58643 6.14345C7.38724 5.94442 7.14541 5.84329 6.86095 5.84005C6.57664 5.83698 6.33174 5.93811 6.12624 6.14345C5.9209 6.34895 5.81823 6.59232 5.81823 6.87355C5.81823 7.15478 5.9209 7.39814 6.12624 7.60364L8.94007 10.4172L6.12624 13.2308C5.92721 13.43 5.82608 13.6718 5.82284 13.9563C5.81977 14.2406 5.9209 14.4855 6.12624 14.691C6.33174 14.8964 6.57511 14.999 6.85634 14.999C7.13756 14.999 7.38093 14.8964 7.58643 14.691L10.4 11.8772ZM10.4017 20.4172C9.01273 20.4172 7.71248 20.1549 6.501 19.6303C5.28951 19.1057 4.23222 18.3921 3.32915 17.4893C2.42608 16.5866 1.71208 15.5297 1.18716 14.3187C0.662403 13.1077 0.400024 11.8078 0.400024 10.4189C0.400024 9.02994 0.662322 7.72565 1.18692 6.50607C1.71151 5.28649 2.42519 4.22516 3.32794 3.32209C4.23069 2.41902 5.28757 1.70906 6.49857 1.19224C7.70957 0.67557 9.00949 0.417236 10.3983 0.417236C11.7873 0.417236 13.0916 0.675488 14.3112 1.19199C15.5308 1.7085 16.5921 2.41813 17.4952 3.32088C18.3982 4.22363 19.1082 5.28455 19.625 6.50364C20.1417 7.72274 20.4 9.0267 20.4 10.4155C20.4 11.8045 20.1418 13.1048 19.6253 14.3163C19.1088 15.5278 18.3991 16.585 17.4964 17.4881C16.5936 18.3912 15.5327 19.1052 14.3136 19.6301C13.0945 20.1549 11.7906 20.4172 10.4017 20.4172Z" fill="#1C1B1F"/>
</svg>
