<svg width="150" height="150" viewBox="0 0 150 150" fill="none" xmlns="http://www.w3.org/2000/svg">
<path d="M0 75C0 33.5786 33.5786 0 75 0V0C116.421 0 150 33.5786 150 75V75C150 116.421 116.421 150 75 150V150C33.5786 150 0 116.421 0 75V75Z" fill="#202F48"/>
<path d="M113.5 21.5V60.5H36.5V50L36.5098 49.2646C36.8998 33.8644 49.5057 21.5 65 21.5H113.5Z" fill="white"/>
<path d="M113.5 21.5V60.5H36.5V50L36.5098 49.2646C36.8998 33.8644 49.5057 21.5 65 21.5H113.5Z" stroke="#202F48" stroke-width="7"/>
<path d="M100 65V90.3125C100 92.9013 97.7614 95 95 95L40 95L40 69.6875C40 67.0987 42.2386 65 45 65L100 65Z" fill="white"/>
<path d="M40 95L72 95V125H45C42.2386 125 40 122.901 40 120.312L40 95Z" fill="white"/>
</svg>
