<svg width="32" height="32" viewBox="0 0 32 32" fill="none" xmlns="http://www.w3.org/2000/svg">
<rect width="32" height="32" fill="#DBD7FF"/>
<path d="M16.6829 4.90667C17.8475 4.90667 18.991 5.04563 20.1133 5.32348C21.2356 5.60135 22.1992 5.9968 23.0039 6.50979L22.7181 11.1267H19.4145L18.8428 7.31124C18.2076 7.05476 17.5511 6.9266 16.8735 6.9266C16.09 6.9266 15.4124 7.18312 14.8407 7.69609C14.2901 8.18768 14.0148 8.80749 14.0148 9.55556C14.0148 10.3464 14.237 10.9664 14.6817 11.4152C15.1264 11.8641 15.7723 12.3023 16.6193 12.7298L18.2076 13.4991C19.5416 14.1403 20.6217 14.7923 21.4476 15.4549C22.2946 16.0961 22.9086 16.8229 23.2898 17.6351C23.6921 18.4259 23.8934 19.3772 23.8934 20.4886C23.8934 21.7497 23.5756 22.8825 22.9404 23.8871C22.3263 24.8703 21.3839 25.6504 20.1133 26.2275C18.8428 26.8046 17.2335 27.0933 15.2853 27.0933C14.0994 27.0933 12.85 26.965 11.5371 26.7085C10.2454 26.452 9.10194 26.0245 8.10669 25.4261L8.29733 20.5528H11.6642L12.2995 24.5924C13.2524 24.9131 14.2584 25.0734 15.3172 25.0734C16.3124 25.0734 17.0429 24.8063 17.5088 24.2719C17.9746 23.7162 18.2076 23.0748 18.2076 22.3481C18.2076 21.5787 18.0275 20.9803 17.6675 20.5528C17.3287 20.1253 16.7571 19.719 15.9524 19.3343L14.5548 18.6611C12.5855 17.7207 11.0819 16.6946 10.0443 15.5832C9.00672 14.4717 8.48777 13.0076 8.48775 11.1909C8.48775 9.22445 9.20778 7.68539 10.6477 6.57393C12.1088 5.46246 14.1206 4.90667 16.6829 4.90667Z" fill="#2E2B74"/>
</svg>
